<svg width="971" height="201" viewBox="0 0 971 201" fill="none" xmlns="http://www.w3.org/2000/svg">
<g clip-path="url(#clip0_611_1675)">
<path d="M35.6918 16H131L124.419 46.7719H62.2375L53.5934 88.0229H110.533L104.231 118.019H47.2358L33.3495 183H0L35.6918 16Z" fill="white"/>
<path d="M119.569 119.86L134.784 49H166.777L150.502 126.135C147.102 141.296 146.322 154.901 162.039 154.901C177.756 154.901 183.274 144.461 187.733 122.748L203.451 49.0555H236L207.408 182.89H191.69L190.13 165.897C180.432 177.947 167.557 185 151.561 185C118.231 185 110.372 163.065 119.569 119.915V119.86Z" fill="white"/>
<path d="M268.89 16H307.734L336.044 126.631L359.674 16H393L357.333 183H319.548L290.179 73.1447L266.828 183H233L268.89 16Z" fill="white"/>
<path d="M510 0.111203L468.66 0L393 121.212H464.37L434.786 201H471.78L509.109 88.0174L454.676 88.351L510 0.111203Z" fill="#98CE00"/>
<path d="M545.793 16H596.775C641.223 16 654.346 50.9741 643.29 101.578C632.512 151.961 604.648 183 562.322 183H510L545.737 16H545.793ZM559.697 153.236C583.597 153.236 601.745 141.486 611.237 96.6455C620.73 51.2513 608.613 46.2629 587.338 46.2629H572.876L549.758 153.236H559.753H559.697Z" fill="white"/>
<path d="M655.041 113.14C661.854 79.4314 680.784 47 714.96 47C731.768 47 742.322 54.0527 750.196 68.4358L759.912 49.1103H777L747.292 182.945H731.545L730.205 165.674C715.239 180.335 704.685 185 688.435 185C650.295 185 648.229 145.016 655.041 113.14ZM730.484 117.083C734.449 97.9795 739.139 77.3211 719.985 76.8213C702.619 76.0439 693.181 90.9268 687.932 116.305C683.744 135.409 681.119 154.457 699.491 155.234C717.361 155.734 725.011 142.684 730.484 117.083Z" fill="white"/>
<path d="M824.396 47.0388H791L797.59 16H898L891.41 46.2629H857.735L828.305 183H795.188L824.396 47.0388Z" fill="white"/>
<path d="M865.71 112.614C872.287 80.9727 889.844 47 929.974 47C970.104 47 978.241 83.5817 965.366 130.1H895.027C890.847 153.636 903.945 157.3 909.184 157.3C917.823 157.3 925.18 153.636 929.639 142.423H964.53C953.494 174.842 930.141 185 906.564 185C861.975 185 859.077 144.755 865.654 112.614H865.71ZM938.111 102.677C943.629 80.9726 933.151 75.255 925.793 75.255C915.538 75.255 905.338 85.6911 901.381 102.677H938.111Z" fill="white"/>
</g>
<defs>
<clipPath id="clip0_611_1675">
<rect width="971" height="201" fill="white"/>
</clipPath>
</defs>
</svg>
