<svg id="svg" version="1.1" xmlns="http://www.w3.org/2000/svg" xmlns:xlink="http://www.w3.org/1999/xlink" width="400" height="122.64150943396227" viewBox="0, 0, 400,122.64150943396227"><g id="svgg"><path id="path0" d="M28.033 0.700 C 27.923 0.810,27.833 1.032,27.833 1.194 C 27.833 1.455,27.625 1.494,26.042 1.536 C 24.327 1.581,24.248 1.599,24.197 1.958 C 24.149 2.294,24.050 2.333,23.249 2.333 C 22.147 2.333,21.495 2.567,21.381 3.002 C 21.316 3.252,21.153 3.333,20.720 3.333 C 19.974 3.333,19.500 3.595,19.500 4.006 C 19.500 4.282,19.384 4.333,18.762 4.333 C 18.062 4.333,17.500 4.636,17.500 5.012 C 17.500 5.097,17.311 5.167,17.079 5.167 C 16.745 5.167,16.638 5.270,16.558 5.667 C 16.469 6.115,16.394 6.167,15.838 6.167 C 15.225 6.167,14.667 6.551,14.667 6.971 C 14.667 7.079,14.481 7.167,14.253 7.167 C 13.954 7.167,13.812 7.279,13.738 7.574 C 13.675 7.822,13.495 8.001,13.276 8.032 C 13.024 8.068,12.901 8.220,12.864 8.542 C 12.820 8.926,12.732 9.000,12.322 9.000 C 11.890 9.000,11.833 9.058,11.833 9.500 C 11.833 9.944,11.778 10.000,11.333 10.000 C 10.911 10.000,10.833 10.065,10.833 10.417 C 10.833 10.750,10.750 10.833,10.417 10.833 C 10.065 10.833,10.000 10.911,10.000 11.333 C 10.000 11.778,9.944 11.833,9.500 11.833 C 9.058 11.833,9.000 11.890,9.000 12.322 C 9.000 12.732,8.926 12.820,8.542 12.864 C 8.220 12.901,8.068 13.024,8.032 13.276 C 8.001 13.495,7.822 13.675,7.574 13.738 C 7.285 13.810,7.167 13.955,7.167 14.235 C 7.167 14.514,7.048 14.660,6.766 14.731 C 6.431 14.815,6.346 14.970,6.250 15.666 C 6.163 16.296,6.066 16.500,5.851 16.500 C 5.373 16.500,5.167 16.862,5.167 17.700 C 5.167 18.442,5.137 18.500,4.750 18.500 C 4.357 18.500,4.333 18.551,4.333 19.406 C 4.333 20.270,4.312 20.314,3.875 20.364 C 3.449 20.413,3.413 20.477,3.367 21.276 C 3.323 22.029,3.267 22.147,2.909 22.237 C 2.518 22.335,2.500 22.398,2.500 23.649 L 2.500 24.958 2.000 25.058 L 1.500 25.158 1.500 26.996 C 1.500 28.823,1.498 28.833,1.101 28.833 C 0.503 28.833,0.500 28.870,0.500 35.833 C 0.500 42.797,0.503 42.833,1.101 42.833 C 1.499 42.833,1.500 42.840,1.500 44.750 L 1.500 46.667 1.993 46.667 L 2.487 46.667 2.535 48.042 C 2.580 49.324,2.609 49.420,2.958 49.470 C 3.290 49.517,3.335 49.624,3.350 50.387 C 3.374 51.620,3.533 52.074,3.965 52.137 C 4.280 52.182,4.333 52.294,4.333 52.916 C 4.333 53.605,4.638 54.167,5.012 54.167 C 5.097 54.167,5.167 54.349,5.167 54.572 C 5.167 55.202,5.473 55.857,5.807 55.945 C 6.022 56.001,6.154 56.274,6.263 56.887 C 6.390 57.599,6.482 57.759,6.792 57.803 C 7.115 57.849,7.167 57.957,7.167 58.583 C 7.167 59.271,7.472 59.833,7.845 59.833 C 7.930 59.833,8.000 60.016,8.000 60.239 C 8.000 60.886,8.309 61.525,8.669 61.619 C 8.919 61.684,9.000 61.847,9.000 62.280 C 9.000 63.026,9.262 63.500,9.673 63.500 C 9.955 63.500,10.000 63.616,10.000 64.337 C 10.000 65.068,10.053 65.198,10.417 65.364 C 10.683 65.485,10.833 65.690,10.833 65.933 C 10.833 66.555,11.149 67.193,11.502 67.286 C 11.752 67.351,11.833 67.514,11.833 67.947 C 11.833 68.692,12.095 69.167,12.506 69.167 C 12.788 69.167,12.833 69.283,12.833 70.004 C 12.833 70.724,12.889 70.866,13.231 71.022 C 13.541 71.163,13.652 71.378,13.734 72.001 C 13.823 72.670,13.907 72.816,14.253 72.903 C 14.596 72.989,14.667 73.107,14.667 73.597 C 14.667 74.353,14.925 74.833,15.330 74.833 C 15.598 74.833,15.657 74.975,15.700 75.708 C 15.743 76.457,15.802 76.591,16.107 76.634 C 16.404 76.677,16.483 76.835,16.575 77.577 C 16.671 78.340,16.746 78.484,17.093 78.571 C 17.429 78.655,17.500 78.777,17.500 79.264 C 17.500 80.019,17.758 80.500,18.164 80.500 C 18.431 80.500,18.491 80.642,18.533 81.375 C 18.576 82.123,18.635 82.257,18.940 82.301 C 19.237 82.343,19.316 82.502,19.409 83.244 C 19.504 84.006,19.579 84.150,19.927 84.238 C 20.262 84.322,20.333 84.443,20.333 84.931 C 20.333 85.686,20.591 86.167,20.997 86.167 C 21.264 86.167,21.324 86.309,21.366 87.042 C 21.409 87.790,21.468 87.924,21.774 87.968 C 22.071 88.010,22.149 88.168,22.242 88.910 C 22.337 89.673,22.412 89.817,22.760 89.904 C 23.095 89.988,23.167 90.110,23.167 90.597 C 23.167 91.352,23.425 91.833,23.830 91.833 C 24.092 91.833,24.157 91.975,24.199 92.625 C 24.239 93.247,24.327 93.450,24.608 93.574 C 24.876 93.692,24.992 93.933,25.073 94.539 C 25.158 95.180,25.265 95.385,25.590 95.533 C 25.920 95.684,26.000 95.843,26.000 96.348 C 26.000 96.987,26.336 97.500,26.753 97.500 C 26.908 97.500,26.998 97.756,27.033 98.292 C 27.072 98.907,27.161 99.118,27.433 99.237 C 27.685 99.348,27.824 99.626,27.933 100.237 C 28.056 100.932,28.150 101.093,28.458 101.137 C 28.782 101.183,28.833 101.290,28.833 101.916 C 28.833 102.659,29.143 103.167,29.595 103.167 C 29.749 103.167,29.833 103.344,29.833 103.667 C 29.833 104.086,29.899 104.167,30.241 104.167 C 30.616 104.167,30.653 104.238,30.700 105.042 C 30.747 105.858,30.781 105.920,31.208 105.969 C 31.611 106.016,31.667 106.093,31.667 106.605 C 31.667 107.358,31.927 107.833,32.339 107.833 C 32.592 107.833,32.667 107.947,32.667 108.333 C 32.667 108.752,32.733 108.833,33.072 108.833 C 33.391 108.833,33.489 108.932,33.531 109.292 C 33.572 109.652,33.682 109.761,34.042 109.803 C 34.453 109.850,34.500 109.921,34.500 110.499 C 34.500 111.152,34.831 111.667,35.250 111.667 C 35.375 111.667,35.501 111.832,35.530 112.035 C 35.563 112.266,35.736 112.439,35.994 112.499 C 36.251 112.560,36.440 112.749,36.501 113.006 C 36.586 113.369,36.699 113.423,37.465 113.467 C 38.304 113.516,38.333 113.534,38.333 114.009 C 38.333 114.418,38.401 114.500,38.739 114.500 C 39.058 114.500,39.156 114.598,39.197 114.958 C 39.238 115.315,39.349 115.428,39.698 115.468 C 40.012 115.505,40.162 115.630,40.198 115.885 C 40.235 116.143,40.384 116.265,40.708 116.303 C 41.029 116.340,41.167 116.451,41.167 116.672 C 41.167 117.076,41.649 117.333,42.406 117.333 C 42.867 117.333,43.000 117.401,43.000 117.633 C 43.000 118.112,43.348 118.333,44.099 118.333 C 44.705 118.333,44.811 118.388,44.902 118.750 C 44.997 119.131,45.084 119.167,45.920 119.167 C 46.824 119.167,46.833 119.172,46.833 119.667 C 46.833 120.160,46.846 120.167,47.723 120.167 C 48.496 120.167,48.637 120.218,48.792 120.560 C 49.006 121.030,49.565 121.167,51.271 121.167 C 52.471 121.167,52.500 121.177,52.500 121.583 L 52.500 122.000 54.833 122.000 C 56.796 122.000,57.167 122.040,57.167 122.250 C 57.167 122.466,57.796 122.500,61.833 122.500 C 65.831 122.500,66.500 122.465,66.500 122.255 C 66.500 122.053,66.906 122.001,68.792 121.963 C 71.013 121.918,71.085 121.905,71.136 121.548 C 71.184 121.207,71.289 121.176,72.552 121.132 C 73.898 121.084,73.917 121.077,73.969 120.632 C 74.020 120.186,74.039 120.179,75.385 120.132 C 76.737 120.084,76.751 120.079,76.803 119.625 C 76.853 119.188,76.897 119.167,77.758 119.167 C 78.581 119.167,78.669 119.130,78.765 118.750 C 78.851 118.406,78.970 118.333,79.446 118.333 C 80.186 118.333,80.667 118.073,80.667 117.672 C 80.667 117.451,80.804 117.340,81.125 117.303 C 81.483 117.262,81.595 117.151,81.635 116.800 C 81.683 116.383,81.751 116.346,82.552 116.300 C 83.296 116.257,83.424 116.199,83.469 115.885 C 83.505 115.630,83.655 115.505,83.969 115.468 C 84.318 115.428,84.428 115.315,84.469 114.958 C 84.511 114.598,84.609 114.500,84.928 114.500 C 85.267 114.500,85.333 114.419,85.333 114.000 C 85.333 113.556,85.389 113.500,85.833 113.500 C 86.252 113.500,86.333 113.434,86.333 113.094 C 86.333 112.776,86.432 112.677,86.792 112.636 C 87.152 112.595,87.261 112.485,87.303 112.125 C 87.344 111.765,87.442 111.667,87.761 111.667 C 88.101 111.667,88.167 111.585,88.167 111.167 C 88.167 110.722,88.222 110.667,88.667 110.667 C 89.085 110.667,89.167 110.601,89.167 110.261 C 89.167 109.942,89.265 109.844,89.625 109.803 C 89.982 109.762,90.095 109.651,90.135 109.302 C 90.171 108.988,90.296 108.838,90.552 108.802 C 90.866 108.757,90.924 108.629,90.967 107.885 C 91.013 107.084,91.050 107.017,91.467 106.969 C 91.818 106.928,91.928 106.816,91.969 106.458 C 92.004 106.155,92.120 106.000,92.311 106.000 C 92.779 106.000,93.000 105.647,93.000 104.901 C 93.000 104.295,93.055 104.189,93.417 104.098 C 93.798 104.003,93.833 103.916,93.833 103.080 C 93.833 102.176,93.839 102.167,94.333 102.167 C 94.828 102.167,94.833 102.157,94.833 101.250 C 94.833 100.394,94.860 100.333,95.232 100.333 C 95.692 100.333,95.833 100.061,95.833 99.171 C 95.833 98.633,95.897 98.520,96.250 98.432 C 96.625 98.338,96.667 98.243,96.667 97.497 C 96.667 96.809,96.718 96.667,96.967 96.667 C 97.460 96.667,97.667 96.312,97.667 95.467 C 97.667 94.734,97.700 94.667,98.066 94.667 C 98.527 94.667,98.667 94.394,98.667 93.498 C 98.667 92.960,98.727 92.848,99.042 92.803 C 99.368 92.757,99.423 92.637,99.467 91.875 C 99.507 91.172,99.575 91.000,99.809 91.000 C 100.293 91.000,100.500 90.641,100.500 89.800 C 100.500 89.058,100.530 89.000,100.917 89.000 C 101.310 89.000,101.333 88.949,101.333 88.094 C 101.333 87.230,101.354 87.186,101.792 87.136 C 102.219 87.087,102.253 87.024,102.300 86.208 C 102.341 85.506,102.408 85.333,102.642 85.333 C 103.127 85.333,103.333 84.975,103.333 84.133 C 103.333 83.391,103.363 83.333,103.750 83.333 C 104.143 83.333,104.167 83.283,104.167 82.428 C 104.167 81.564,104.188 81.520,104.625 81.469 C 105.052 81.420,105.087 81.358,105.134 80.542 C 105.174 79.839,105.241 79.667,105.475 79.667 C 105.960 79.667,106.167 79.308,106.167 78.467 C 106.167 77.724,106.197 77.667,106.583 77.667 C 106.977 77.667,107.000 77.616,107.000 76.761 C 107.000 75.897,107.021 75.853,107.458 75.803 C 107.886 75.754,107.920 75.691,107.967 74.875 C 108.009 74.146,108.070 74.000,108.332 74.000 C 108.505 74.000,108.708 73.906,108.782 73.792 C 108.856 73.677,108.954 77.033,109.000 81.250 L 109.083 88.917 109.542 88.969 L 110.000 89.022 110.000 92.344 L 110.000 95.667 110.417 95.667 C 110.830 95.667,110.833 95.677,110.833 97.178 C 110.833 98.806,110.996 99.333,111.498 99.333 C 111.769 99.333,111.824 99.476,111.867 100.292 C 111.914 101.199,111.941 101.253,112.375 101.303 C 112.812 101.353,112.833 101.397,112.833 102.261 C 112.833 103.111,112.859 103.167,113.241 103.167 C 113.616 103.167,113.653 103.238,113.700 104.042 C 113.747 104.858,113.781 104.920,114.208 104.969 C 114.646 105.020,114.667 105.063,114.667 105.932 C 114.667 106.809,114.684 106.845,115.167 106.942 C 115.554 107.019,115.667 107.131,115.667 107.438 C 115.667 107.740,115.757 107.833,116.053 107.833 C 116.388 107.833,116.460 107.949,116.595 108.708 C 116.722 109.423,116.817 109.593,117.115 109.635 C 117.370 109.672,117.495 109.822,117.532 110.135 C 117.572 110.484,117.685 110.595,118.042 110.636 C 118.426 110.680,118.500 110.768,118.500 111.178 C 118.500 111.585,118.568 111.667,118.906 111.667 C 119.224 111.667,119.323 111.765,119.364 112.125 C 119.405 112.485,119.515 112.595,119.875 112.636 C 120.235 112.677,120.333 112.776,120.333 113.094 C 120.333 113.432,120.415 113.500,120.822 113.500 C 121.232 113.500,121.320 113.574,121.364 113.958 C 121.402 114.286,121.523 114.432,121.791 114.470 C 122.020 114.502,122.204 114.675,122.264 114.912 C 122.368 115.328,122.754 115.494,123.625 115.498 C 124.091 115.500,124.167 115.558,124.167 115.917 C 124.167 116.244,124.251 116.333,124.563 116.333 C 124.869 116.333,124.981 116.446,125.058 116.833 C 125.155 117.316,125.189 117.333,126.079 117.333 C 126.991 117.333,127.000 117.338,127.000 117.833 C 127.000 118.275,127.057 118.333,127.488 118.333 C 127.868 118.333,127.989 118.417,128.030 118.708 C 128.076 119.035,128.196 119.090,128.958 119.134 C 129.691 119.176,129.833 119.236,129.833 119.503 C 129.833 119.972,130.343 120.167,131.572 120.167 C 132.615 120.167,132.667 120.185,132.667 120.566 C 132.667 121.073,132.927 121.167,134.335 121.167 C 135.392 121.167,135.481 121.194,135.530 121.542 C 135.583 121.911,135.623 121.917,138.375 121.962 C 140.704 122.000,141.167 122.049,141.167 122.254 C 141.167 122.464,141.771 122.500,145.333 122.500 C 148.926 122.500,149.500 122.466,149.500 122.250 C 149.500 122.039,149.897 122.000,152.071 122.000 C 154.652 122.000,155.167 121.887,155.167 121.321 C 155.167 121.236,155.659 121.167,156.261 121.167 C 157.497 121.167,158.000 120.972,158.000 120.494 C 158.000 120.208,158.117 120.167,158.917 120.167 C 159.821 120.167,159.833 120.160,159.833 119.674 L 159.833 119.181 161.125 119.132 C 162.273 119.089,162.435 119.042,162.578 118.716 C 162.671 118.503,162.917 118.328,163.161 118.299 C 163.480 118.262,163.596 118.140,163.635 117.800 C 163.683 117.383,163.751 117.346,164.552 117.300 C 165.357 117.253,165.420 117.218,165.469 116.792 C 165.514 116.408,165.602 116.333,166.011 116.333 C 166.414 116.333,166.500 116.264,166.500 115.938 C 166.500 115.590,166.599 115.530,167.332 115.433 C 168.027 115.340,168.180 115.257,168.264 114.921 C 168.334 114.643,168.501 114.503,168.807 114.468 C 169.151 114.428,169.262 114.314,169.303 113.958 C 169.344 113.599,169.443 113.500,169.758 113.500 C 170.044 113.500,170.189 113.384,170.261 113.098 C 170.321 112.858,170.525 112.655,170.764 112.595 C 171.051 112.523,171.167 112.378,171.167 112.091 C 171.167 111.776,171.266 111.677,171.625 111.636 C 171.985 111.595,172.095 111.485,172.136 111.125 C 172.177 110.770,172.277 110.667,172.581 110.667 C 172.880 110.667,172.999 110.550,173.081 110.177 C 173.154 109.843,173.305 109.670,173.553 109.635 C 173.866 109.591,173.924 109.462,173.967 108.708 C 174.016 107.862,174.034 107.833,174.509 107.833 C 174.918 107.833,175.000 107.766,175.000 107.428 C 175.000 107.153,175.121 106.985,175.375 106.905 C 175.885 106.746,175.994 106.536,175.997 105.708 C 176.000 105.065,176.038 105.000,176.417 105.000 C 176.811 105.000,176.833 104.950,176.833 104.083 C 176.833 103.176,176.838 103.167,177.333 103.167 C 177.829 103.167,177.833 103.158,177.850 102.208 C 177.862 101.542,177.902 101.377,177.982 101.667 C 178.051 101.918,178.239 102.104,178.455 102.135 C 178.703 102.171,178.829 102.325,178.865 102.635 C 178.905 102.982,179.019 103.095,179.365 103.135 C 179.711 103.175,179.825 103.289,179.865 103.635 C 179.902 103.953,180.026 104.099,180.292 104.137 C 180.563 104.175,180.667 104.302,180.667 104.595 C 180.667 104.934,180.748 105.000,181.167 105.000 C 181.611 105.000,181.667 105.056,181.667 105.500 C 181.667 105.944,181.722 106.000,182.167 106.000 C 182.645 106.000,182.667 106.031,182.667 106.717 C 182.667 107.617,182.883 107.833,183.783 107.833 C 184.469 107.833,184.500 107.855,184.500 108.333 C 184.500 108.778,184.556 108.833,185.000 108.833 C 185.444 108.833,185.500 108.889,185.500 109.333 C 185.500 109.752,185.566 109.833,185.905 109.833 C 186.198 109.833,186.325 109.937,186.363 110.208 C 186.401 110.474,186.547 110.598,186.865 110.635 C 187.211 110.675,187.325 110.789,187.365 111.135 C 187.413 111.550,187.481 111.587,188.281 111.633 C 189.082 111.680,189.150 111.717,189.198 112.133 C 189.238 112.482,189.351 112.595,189.698 112.635 C 190.012 112.671,190.162 112.796,190.198 113.052 C 190.243 113.365,190.371 113.424,191.106 113.466 C 191.905 113.513,191.968 113.549,192.060 114.008 C 192.154 114.481,192.194 114.500,193.068 114.500 C 193.937 114.500,193.980 114.521,194.031 114.958 C 194.080 115.386,194.142 115.420,194.958 115.467 C 195.762 115.513,195.833 115.551,195.833 115.925 C 195.833 116.308,195.890 116.333,196.729 116.333 C 197.591 116.333,197.629 116.352,197.725 116.833 C 197.821 117.315,197.858 117.333,198.726 117.333 C 199.486 117.333,199.641 117.386,199.714 117.665 C 199.827 118.097,200.478 118.333,201.555 118.333 C 202.293 118.333,202.445 118.389,202.585 118.708 C 202.738 119.057,202.870 119.087,204.439 119.131 L 206.127 119.178 206.226 119.672 L 206.325 120.167 208.162 120.167 C 209.989 120.167,210.000 120.169,210.000 120.566 C 210.000 121.114,210.228 121.167,212.597 121.167 C 213.760 121.167,214.667 121.234,214.667 121.321 C 214.667 121.944,215.080 122.000,219.679 122.000 C 223.557 122.000,224.167 122.034,224.167 122.250 C 224.167 122.466,224.741 122.500,228.333 122.500 C 231.904 122.500,232.500 122.465,232.500 122.253 C 232.500 122.042,233.120 121.999,236.708 121.961 L 240.917 121.917 240.970 121.542 C 241.022 121.175,241.071 121.167,243.166 121.167 C 245.378 121.167,245.833 121.037,245.833 120.405 C 245.833 120.213,246.178 120.167,247.587 120.167 L 249.342 120.167 249.440 119.673 C 249.539 119.180,249.540 119.179,250.895 119.131 C 252.156 119.087,252.254 119.057,252.303 118.708 C 252.349 118.386,252.457 118.333,253.074 118.333 C 254.266 118.333,254.846 118.154,255.041 117.726 C 255.197 117.385,255.337 117.333,256.110 117.333 C 256.988 117.333,257.000 117.326,257.000 116.833 C 257.000 116.339,257.010 116.333,257.913 116.333 C 258.749 116.333,258.836 116.298,258.932 115.917 C 259.020 115.563,259.133 115.500,259.671 115.500 C 260.557 115.500,260.833 115.359,260.833 114.908 C 260.833 114.554,260.916 114.513,261.708 114.467 C 262.524 114.420,262.587 114.386,262.636 113.958 C 262.680 113.574,262.768 113.500,263.178 113.500 C 263.588 113.500,263.667 113.433,263.667 113.083 C 263.667 112.710,263.734 112.667,264.320 112.667 C 265.228 112.667,265.500 112.528,265.500 112.066 C 265.500 111.733,265.584 111.667,266.000 111.667 C 266.442 111.667,266.500 111.610,266.500 111.176 C 266.500 110.708,266.538 110.682,267.292 110.634 C 267.916 110.594,268.117 110.507,268.242 110.222 C 268.329 110.023,268.609 109.820,268.867 109.768 C 269.230 109.696,269.333 109.582,269.333 109.254 C 269.333 108.915,269.415 108.833,269.754 108.833 C 270.088 108.833,270.196 108.730,270.275 108.333 C 270.352 107.946,270.464 107.833,270.771 107.833 C 271.079 107.833,271.167 107.744,271.167 107.428 C 271.167 107.109,271.265 107.011,271.625 106.969 C 271.982 106.928,272.095 106.818,272.135 106.468 C 272.175 106.122,272.289 106.008,272.635 105.968 C 272.984 105.928,273.095 105.815,273.136 105.458 C 273.177 105.098,273.276 105.000,273.594 105.000 C 273.910 105.000,274.000 104.912,274.000 104.604 C 274.000 104.298,274.113 104.186,274.500 104.108 C 274.896 104.029,275.000 103.921,275.000 103.591 C 275.000 103.288,275.111 103.145,275.403 103.072 C 275.739 102.988,275.825 102.834,275.919 102.152 C 276.018 101.430,276.078 101.333,276.432 101.333 C 276.763 101.333,276.833 101.249,276.833 100.852 C 276.833 100.147,277.757 99.995,277.894 100.678 C 277.954 100.978,278.121 101.161,278.400 101.231 C 278.768 101.323,278.822 101.435,278.866 102.209 C 278.913 103.020,278.949 103.087,279.367 103.135 C 279.783 103.183,279.820 103.251,279.867 104.052 C 279.909 104.781,279.971 104.924,280.263 104.966 C 280.537 105.005,280.640 105.193,280.763 105.883 C 280.890 106.598,280.982 106.759,281.292 106.803 C 281.583 106.845,281.667 106.965,281.667 107.345 C 281.667 107.776,281.725 107.833,282.167 107.833 C 282.611 107.833,282.667 107.889,282.667 108.333 C 282.667 108.745,282.735 108.833,283.053 108.833 C 283.388 108.833,283.460 108.949,283.595 109.708 C 283.722 110.423,283.817 110.593,284.115 110.635 C 284.370 110.672,284.495 110.822,284.532 111.135 C 284.572 111.484,284.685 111.595,285.042 111.636 C 285.401 111.677,285.500 111.776,285.500 112.091 C 285.500 112.378,285.616 112.523,285.902 112.595 C 286.142 112.655,286.345 112.858,286.405 113.098 C 286.477 113.382,286.623 113.500,286.902 113.500 C 287.184 113.500,287.327 113.619,287.401 113.914 C 287.464 114.164,287.663 114.368,287.905 114.429 C 288.140 114.488,288.345 114.692,288.404 114.926 C 288.487 115.256,288.643 115.341,289.335 115.433 C 290.068 115.530,290.167 115.590,290.167 115.938 C 290.167 116.264,290.252 116.333,290.656 116.333 C 291.065 116.333,291.153 116.408,291.197 116.792 C 291.246 117.218,291.310 117.253,292.115 117.300 C 292.916 117.346,292.983 117.383,293.031 117.800 C 293.079 118.217,293.147 118.254,293.948 118.300 C 294.693 118.343,294.820 118.401,294.865 118.717 C 294.910 119.039,295.033 119.089,295.875 119.133 C 296.814 119.182,296.833 119.193,296.833 119.675 C 296.833 120.160,296.846 120.167,297.750 120.167 C 298.550 120.167,298.667 120.208,298.667 120.494 C 298.667 120.972,299.170 121.167,300.406 121.167 C 301.008 121.167,301.500 121.236,301.500 121.321 C 301.500 121.887,302.015 122.000,304.595 122.000 C 306.770 122.000,307.167 122.039,307.167 122.250 C 307.167 122.466,307.741 122.500,311.333 122.500 C 314.896 122.500,315.500 122.464,315.500 122.254 C 315.500 122.049,315.962 122.000,318.292 121.962 C 321.044 121.917,321.084 121.911,321.137 121.542 C 321.186 121.194,321.274 121.167,322.331 121.167 C 323.739 121.167,324.000 121.073,324.000 120.566 C 324.000 120.185,324.051 120.167,325.094 120.167 C 326.324 120.167,326.833 119.972,326.833 119.503 C 326.833 119.236,326.975 119.176,327.708 119.134 C 328.455 119.091,328.591 119.031,328.634 118.729 C 328.675 118.439,328.837 118.354,329.516 118.264 C 330.180 118.176,330.384 118.071,330.533 117.743 C 330.655 117.476,330.857 117.333,331.114 117.333 C 331.419 117.333,331.531 117.220,331.608 116.833 C 331.701 116.369,331.760 116.333,332.441 116.333 C 333.055 116.333,333.204 116.268,333.358 115.929 C 333.459 115.707,333.719 115.481,333.935 115.427 C 334.170 115.368,334.370 115.162,334.432 114.914 C 334.507 114.617,334.649 114.500,334.935 114.500 C 335.267 114.500,335.333 114.416,335.333 114.000 C 335.333 113.556,335.389 113.500,335.833 113.500 C 336.256 113.500,336.333 113.435,336.333 113.083 C 336.333 112.483,337.196 112.483,337.470 113.083 C 337.581 113.328,337.799 113.500,337.996 113.500 C 338.220 113.500,338.333 113.610,338.333 113.827 C 338.333 114.240,338.808 114.500,339.561 114.500 C 340.074 114.500,340.151 114.556,340.197 114.958 C 340.239 115.318,340.348 115.428,340.708 115.469 C 341.068 115.511,341.167 115.609,341.167 115.928 C 341.167 116.267,341.248 116.333,341.667 116.333 C 342.037 116.333,342.167 116.411,342.167 116.633 C 342.167 117.113,342.515 117.333,343.272 117.333 C 343.918 117.333,343.982 117.372,344.031 117.792 C 344.080 118.219,344.142 118.253,344.958 118.300 C 345.762 118.347,345.833 118.384,345.833 118.759 C 345.833 119.141,345.890 119.167,346.729 119.167 C 347.591 119.167,347.629 119.186,347.725 119.667 C 347.821 120.148,347.858 120.167,348.726 120.167 C 349.486 120.167,349.641 120.219,349.714 120.498 C 349.839 120.972,350.500 121.167,351.993 121.167 C 353.245 121.167,353.301 121.183,353.402 121.583 L 353.506 122.000 355.753 122.000 C 357.639 122.000,358.000 122.040,358.000 122.250 C 358.000 122.466,358.583 122.500,362.250 122.500 C 365.886 122.500,366.500 122.464,366.500 122.254 C 366.500 122.049,366.962 122.000,369.292 121.962 C 372.029 121.918,372.084 121.909,372.136 121.548 C 372.184 121.207,372.289 121.176,373.552 121.132 C 374.903 121.084,374.917 121.079,374.969 120.625 C 375.022 120.168,375.025 120.167,376.349 120.167 L 377.675 120.167 377.773 119.675 C 377.865 119.215,377.928 119.179,378.728 119.133 C 379.470 119.090,379.590 119.034,379.637 118.708 C 379.674 118.445,379.803 118.333,380.070 118.333 C 380.772 118.333,381.500 117.986,381.500 117.650 C 381.500 117.409,381.620 117.333,382.000 117.333 C 382.444 117.333,382.500 117.278,382.500 116.833 C 382.500 116.363,382.539 116.333,383.153 116.333 C 384.009 116.333,384.333 116.197,384.333 115.836 C 384.333 115.642,384.504 115.508,384.833 115.442 C 385.230 115.362,385.333 115.255,385.333 114.921 C 385.333 114.564,385.410 114.500,385.833 114.500 C 386.278 114.500,386.333 114.444,386.333 114.000 C 386.333 113.556,386.389 113.500,386.833 113.500 C 387.256 113.500,387.333 113.435,387.333 113.083 C 387.333 112.750,387.417 112.667,387.750 112.667 C 388.102 112.667,388.167 112.589,388.167 112.167 C 388.167 111.722,388.222 111.667,388.667 111.667 C 389.109 111.667,389.167 111.610,389.167 111.178 C 389.167 110.768,389.241 110.680,389.625 110.636 C 389.946 110.599,390.099 110.476,390.135 110.224 C 390.166 110.005,390.345 109.825,390.593 109.762 C 390.880 109.690,391.000 109.545,391.000 109.268 C 391.000 108.965,391.114 108.852,391.500 108.775 C 391.975 108.680,392.000 108.633,392.000 107.849 C 392.000 107.071,392.027 107.019,392.458 106.969 C 392.815 106.928,392.928 106.818,392.968 106.469 C 393.005 106.155,393.130 106.005,393.385 105.969 C 393.699 105.924,393.757 105.796,393.800 105.061 C 393.846 104.262,393.882 104.199,394.341 104.107 C 394.815 104.012,394.833 103.974,394.833 103.087 C 394.833 102.283,394.875 102.167,395.161 102.167 C 395.575 102.167,395.833 101.691,395.833 100.928 C 395.833 100.601,395.903 100.333,395.988 100.333 C 396.488 100.333,396.667 99.780,396.667 98.238 C 396.667 96.836,396.699 96.667,396.967 96.667 C 397.579 96.667,397.667 96.338,397.667 94.050 L 397.667 91.833 398.066 91.833 C 398.688 91.833,398.667 92.900,398.667 61.186 C 398.667 29.642,398.690 30.667,397.967 30.667 C 397.694 30.667,397.667 30.479,397.667 28.597 C 397.667 26.228,397.614 26.000,397.066 26.000 C 396.676 26.000,396.667 25.966,396.667 24.583 C 396.667 23.183,396.662 23.167,396.250 23.167 C 395.848 23.167,395.833 23.129,395.833 22.072 C 395.833 20.843,395.639 20.333,395.170 20.333 C 394.902 20.333,394.843 20.191,394.800 19.458 C 394.753 18.642,394.719 18.580,394.292 18.531 C 393.880 18.483,393.833 18.412,393.833 17.836 C 393.833 16.985,393.695 16.667,393.327 16.667 C 393.118 16.667,393.005 16.522,392.969 16.208 C 392.928 15.848,392.818 15.739,392.458 15.697 C 392.056 15.651,392.000 15.574,392.000 15.061 C 392.000 14.308,391.740 13.833,391.327 13.833 C 391.075 13.833,391.000 13.719,391.000 13.333 C 391.000 12.915,390.934 12.833,390.594 12.833 C 390.276 12.833,390.177 12.735,390.136 12.375 C 390.095 12.018,389.984 11.905,389.635 11.865 C 389.289 11.825,389.175 11.711,389.135 11.365 C 389.095 11.016,388.982 10.905,388.625 10.864 C 388.265 10.823,388.167 10.724,388.167 10.406 C 388.167 10.087,388.080 10.000,387.761 10.000 C 387.442 10.000,387.344 9.902,387.303 9.542 C 387.261 9.182,387.152 9.072,386.792 9.031 C 386.430 8.989,386.333 8.891,386.333 8.568 C 386.333 8.248,386.226 8.137,385.842 8.060 C 385.508 7.993,385.335 7.849,385.301 7.606 C 385.257 7.302,385.122 7.243,384.375 7.200 C 383.529 7.151,383.500 7.133,383.500 6.658 C 383.500 6.226,383.441 6.167,383.011 6.167 C 382.602 6.167,382.514 6.092,382.469 5.708 C 382.420 5.281,382.358 5.247,381.542 5.200 C 380.738 5.153,380.667 5.116,380.667 4.741 C 380.667 4.399,380.586 4.333,380.167 4.333 C 379.781 4.333,379.667 4.259,379.667 4.006 C 379.667 3.529,379.164 3.333,377.939 3.333 C 376.881 3.333,376.854 3.323,376.803 2.875 C 376.754 2.448,376.690 2.413,375.885 2.367 C 375.140 2.324,375.014 2.266,374.969 1.950 C 374.919 1.600,374.829 1.581,373.052 1.536 L 371.188 1.489 371.136 1.036 L 371.083 0.583 362.863 0.540 C 354.227 0.495,353.618 0.534,353.530 1.135 C 353.480 1.477,353.390 1.500,352.075 1.500 C 350.719 1.500,350.670 1.514,350.568 1.917 C 350.470 2.308,350.398 2.333,349.357 2.336 C 348.126 2.339,347.931 2.415,347.761 2.958 C 347.661 3.281,347.529 3.333,346.818 3.333 C 346.033 3.333,345.987 3.358,345.892 3.833 C 345.804 4.273,345.722 4.333,345.218 4.333 C 344.536 4.333,344.000 4.588,344.000 4.911 C 344.000 5.042,343.798 5.168,343.542 5.197 C 343.184 5.238,343.072 5.349,343.031 5.700 C 342.983 6.117,342.916 6.154,342.115 6.200 C 341.310 6.247,341.246 6.282,341.197 6.708 C 341.153 7.092,341.065 7.167,340.656 7.167 C 340.249 7.167,340.167 7.235,340.167 7.572 C 340.167 7.891,340.068 7.989,339.708 8.031 C 339.348 8.072,339.239 8.182,339.197 8.542 C 339.156 8.902,339.058 9.000,338.739 9.000 C 338.399 9.000,338.333 9.081,338.333 9.500 C 338.333 9.941,338.276 10.000,337.847 10.000 C 337.580 10.000,337.323 10.094,337.277 10.208 C 337.210 10.375,337.190 10.375,337.180 10.208 C 337.173 10.094,336.984 10.000,336.761 10.000 C 336.442 10.000,336.344 9.902,336.303 9.542 C 336.261 9.182,336.152 9.072,335.792 9.031 C 335.430 8.989,335.333 8.891,335.333 8.568 C 335.333 8.246,335.226 8.137,334.833 8.058 C 334.504 7.992,334.333 7.858,334.333 7.664 C 334.333 7.303,334.009 7.167,333.153 7.167 C 332.539 7.167,332.500 7.137,332.500 6.667 C 332.500 6.245,332.435 6.167,332.087 6.167 C 331.789 6.167,331.645 6.054,331.572 5.766 C 331.465 5.339,331.085 5.173,330.208 5.169 C 329.742 5.167,329.667 5.109,329.667 4.750 C 329.667 4.356,329.617 4.333,328.750 4.333 C 327.843 4.333,327.833 4.328,327.833 3.833 C 327.833 3.340,327.822 3.333,326.938 3.333 C 326.075 3.333,326.038 3.314,325.942 2.833 C 325.845 2.350,325.811 2.333,324.921 2.333 C 324.223 2.333,324.000 2.274,324.000 2.089 C 324.000 1.664,323.400 1.500,321.844 1.500 C 320.500 1.500,320.333 1.467,320.333 1.200 C 320.333 0.504,320.285 0.500,311.592 0.502 C 302.543 0.505,302.500 0.508,302.500 1.103 C 302.500 1.490,302.465 1.500,301.083 1.500 C 299.683 1.500,299.667 1.505,299.667 1.917 C 299.667 2.319,299.629 2.333,298.572 2.333 C 297.336 2.333,296.833 2.528,296.833 3.006 C 296.833 3.292,296.717 3.333,295.912 3.333 C 295.026 3.333,294.988 3.352,294.893 3.825 C 294.801 4.285,294.738 4.321,293.939 4.367 C 293.197 4.410,293.076 4.466,293.030 4.792 C 292.992 5.060,292.865 5.167,292.583 5.167 C 291.952 5.167,291.308 5.477,291.217 5.826 C 291.166 6.022,290.960 6.168,290.691 6.199 C 290.349 6.238,290.238 6.353,290.197 6.708 C 290.153 7.092,290.065 7.167,289.656 7.167 C 289.250 7.167,289.167 7.235,289.167 7.568 C 289.167 7.922,289.070 7.982,288.348 8.081 C 287.679 8.173,287.512 8.264,287.433 8.579 C 287.376 8.807,287.166 9.006,286.918 9.068 C 286.612 9.145,286.500 9.284,286.500 9.587 C 286.500 9.874,286.408 10.000,286.200 10.000 C 285.816 10.000,285.500 10.316,285.500 10.700 C 285.500 10.905,285.374 11.000,285.103 11.000 C 284.669 11.000,284.506 11.351,284.502 12.292 C 284.500 12.782,284.453 12.833,284.000 12.833 C 283.578 12.833,283.500 12.898,283.500 13.250 C 283.500 13.583,283.417 13.667,283.083 13.667 C 282.734 13.667,282.667 13.745,282.667 14.156 C 282.667 14.565,282.592 14.653,282.208 14.697 C 281.782 14.746,281.747 14.810,281.700 15.615 C 281.654 16.416,281.617 16.483,281.200 16.531 C 280.852 16.572,280.738 16.685,280.698 17.031 C 280.662 17.345,280.537 17.495,280.282 17.531 C 279.969 17.576,279.910 17.704,279.867 18.425 C 279.823 19.184,279.771 19.284,279.326 19.452 C 278.870 19.624,278.833 19.701,278.833 20.474 C 278.833 21.209,278.789 21.317,278.465 21.363 C 278.026 21.427,277.873 21.882,277.850 23.197 C 277.835 24.046,277.795 24.149,277.458 24.197 C 277.211 24.232,277.057 24.392,277.006 24.667 C 276.955 24.937,276.897 24.761,276.839 24.167 C 276.765 23.401,276.693 23.242,276.404 23.201 C 276.129 23.161,276.027 22.973,275.904 22.284 C 275.778 21.577,275.683 21.407,275.385 21.365 C 275.130 21.328,275.005 21.178,274.968 20.865 C 274.928 20.516,274.815 20.405,274.458 20.364 C 274.074 20.320,274.000 20.232,274.000 19.822 C 274.000 19.417,273.931 19.333,273.599 19.333 C 273.245 19.333,273.185 19.237,273.085 18.515 C 272.992 17.833,272.905 17.679,272.570 17.595 C 272.278 17.521,272.167 17.379,272.167 17.076 C 272.167 16.745,272.063 16.638,271.667 16.558 C 271.280 16.481,271.167 16.369,271.167 16.062 C 271.167 15.757,271.076 15.667,270.771 15.667 C 270.464 15.667,270.352 15.554,270.275 15.167 C 270.196 14.770,270.088 14.667,269.754 14.667 C 269.415 14.667,269.333 14.585,269.333 14.246 C 269.333 13.918,269.230 13.804,268.867 13.732 C 268.609 13.680,268.329 13.477,268.242 13.278 C 268.155 13.079,267.915 12.893,267.708 12.863 C 267.442 12.826,267.333 12.698,267.333 12.423 C 267.333 11.973,267.056 11.833,266.164 11.833 C 265.588 11.833,265.517 11.787,265.469 11.375 C 265.432 11.047,265.310 10.902,265.042 10.863 C 264.808 10.830,264.629 10.658,264.566 10.405 C 264.474 10.039,264.378 10.000,263.565 10.000 C 262.678 10.000,262.667 9.994,262.667 9.500 C 262.667 9.058,262.610 9.000,262.178 9.000 C 261.799 9.000,261.678 8.916,261.637 8.625 C 261.593 8.316,261.432 8.223,260.716 8.096 C 260.027 7.973,259.839 7.871,259.799 7.596 C 259.758 7.305,259.614 7.242,258.894 7.200 C 258.095 7.154,258.032 7.118,257.940 6.659 C 257.846 6.186,257.806 6.167,256.932 6.167 C 256.122 6.167,256.017 6.127,255.970 5.798 C 255.907 5.367,255.453 5.207,254.220 5.183 C 253.457 5.169,253.350 5.123,253.303 4.792 C 253.254 4.442,253.157 4.413,251.885 4.368 C 250.539 4.321,250.520 4.314,250.469 3.868 C 250.417 3.424,250.396 3.416,249.076 3.369 C 247.760 3.322,247.732 3.312,247.549 2.827 L 247.362 2.333 245.609 2.333 C 243.918 2.333,243.855 2.320,243.803 1.958 C 243.751 1.589,243.711 1.583,240.958 1.538 L 238.167 1.492 238.167 1.097 C 238.167 0.491,238.352 0.500,226.111 0.502 C 213.797 0.505,213.881 0.501,213.730 1.103 C 213.633 1.491,213.588 1.500,211.815 1.500 L 210.000 1.500 210.000 1.917 C 210.000 2.332,209.997 2.333,208.375 2.336 C 206.616 2.339,206.438 2.391,206.261 2.958 C 206.155 3.299,206.040 3.333,205.022 3.333 C 203.867 3.333,203.500 3.500,203.500 4.025 C 203.500 4.263,203.324 4.326,202.542 4.367 C 201.700 4.411,201.577 4.461,201.531 4.783 C 201.486 5.099,201.360 5.157,200.615 5.200 C 199.810 5.247,199.746 5.282,199.697 5.708 C 199.647 6.146,199.603 6.167,198.735 6.167 C 197.861 6.167,197.821 6.186,197.727 6.659 C 197.635 7.118,197.572 7.154,196.772 7.200 C 196.045 7.243,195.909 7.303,195.866 7.605 C 195.825 7.894,195.663 7.980,194.993 8.069 C 194.306 8.160,194.154 8.244,194.069 8.579 C 194.000 8.857,193.832 8.997,193.526 9.032 C 193.185 9.072,193.071 9.187,193.031 9.533 C 192.984 9.941,192.908 9.987,192.198 10.033 C 191.584 10.073,191.383 10.161,191.258 10.444 C 191.171 10.644,190.891 10.847,190.633 10.898 C 190.274 10.970,190.167 11.086,190.167 11.401 C 190.167 11.725,190.070 11.822,189.708 11.864 C 189.348 11.905,189.239 12.015,189.197 12.375 C 189.156 12.735,189.058 12.833,188.739 12.833 C 188.426 12.833,188.333 12.922,188.333 13.220 C 188.333 13.555,188.217 13.626,187.458 13.761 C 186.766 13.884,186.573 13.988,186.535 14.258 C 186.506 14.458,186.282 14.676,185.993 14.785 C 185.664 14.909,185.500 15.087,185.500 15.319 C 185.500 15.560,185.394 15.667,185.152 15.667 C 184.920 15.667,184.743 15.830,184.618 16.160 C 184.509 16.449,184.291 16.673,184.091 16.701 C 183.896 16.729,183.729 16.896,183.701 17.091 C 183.673 17.291,183.449 17.509,183.160 17.618 C 182.830 17.743,182.667 17.920,182.667 18.152 C 182.667 18.387,182.560 18.500,182.339 18.500 C 181.927 18.500,181.667 18.975,181.667 19.728 C 181.667 20.240,181.611 20.318,181.208 20.364 C 180.848 20.405,180.739 20.515,180.697 20.875 C 180.656 21.235,180.558 21.333,180.239 21.333 C 179.928 21.333,179.833 21.422,179.833 21.713 C 179.833 21.983,179.688 22.149,179.333 22.282 C 178.868 22.458,178.833 22.530,178.833 23.319 C 178.833 24.150,178.823 24.167,178.333 24.167 C 177.912 24.167,177.833 24.232,177.833 24.580 C 177.833 24.882,177.721 25.022,177.417 25.098 C 177.045 25.191,177.000 25.289,177.000 25.997 C 177.000 26.747,176.972 26.797,176.500 26.892 C 176.018 26.988,176.000 27.024,176.000 27.901 C 176.000 28.770,175.979 28.814,175.542 28.864 C 175.114 28.913,175.080 28.976,175.033 29.792 C 174.987 30.595,174.949 30.667,174.575 30.667 C 174.193 30.667,174.167 30.724,174.167 31.547 C 174.167 32.372,174.135 32.439,173.667 32.616 C 173.172 32.802,173.167 32.817,173.167 34.066 C 173.167 35.273,173.149 35.331,172.749 35.432 C 172.421 35.514,172.309 35.674,172.229 36.177 C 172.140 36.736,172.096 36.787,171.885 36.575 C 171.752 36.442,171.541 36.333,171.416 36.333 C 171.292 36.333,171.166 36.168,171.137 35.965 C 171.103 35.734,170.930 35.561,170.673 35.501 C 170.416 35.440,170.226 35.251,170.166 34.994 C 170.081 34.631,169.968 34.577,169.202 34.533 C 168.363 34.484,168.333 34.466,168.333 33.991 C 168.333 33.582,168.266 33.500,167.928 33.500 C 167.609 33.500,167.511 33.402,167.469 33.042 C 167.428 32.685,167.318 32.572,166.969 32.532 C 166.655 32.495,166.505 32.370,166.469 32.115 C 166.424 31.801,166.296 31.743,165.552 31.700 C 164.751 31.654,164.683 31.617,164.635 31.200 C 164.596 30.855,164.481 30.738,164.148 30.699 C 163.882 30.669,163.642 30.495,163.532 30.253 C 163.396 29.955,163.168 29.829,162.612 29.746 C 162.052 29.662,161.828 29.537,161.690 29.234 C 161.532 28.888,161.392 28.833,160.670 28.833 C 159.949 28.833,159.833 28.788,159.833 28.506 C 159.833 28.028,159.330 27.833,158.094 27.833 C 157.118 27.833,157.000 27.798,157.000 27.506 C 157.000 26.997,156.480 26.833,154.862 26.833 C 153.407 26.833,153.367 26.823,153.264 26.415 L 153.159 25.997 145.288 26.040 L 137.417 26.083 137.363 26.458 C 137.312 26.820,137.248 26.833,135.557 26.833 L 133.804 26.833 133.616 27.333 C 133.436 27.810,133.382 27.833,132.453 27.833 C 131.336 27.833,130.833 28.040,130.833 28.498 C 130.833 28.769,130.691 28.824,129.875 28.867 C 129.026 28.911,128.911 28.959,128.863 29.292 C 128.820 29.599,128.705 29.667,128.227 29.667 C 127.475 29.667,127.000 29.927,127.000 30.339 C 127.000 30.592,126.886 30.667,126.500 30.667 C 126.056 30.667,126.000 30.722,126.000 31.167 C 126.000 31.662,125.991 31.667,125.083 31.667 C 124.228 31.667,124.167 31.693,124.167 32.064 C 124.167 32.379,124.062 32.478,123.667 32.536 L 123.167 32.609 123.167 31.338 C 123.167 30.025,123.016 29.667,122.467 29.667 C 122.193 29.667,122.167 29.475,122.167 27.486 L 122.167 25.304 121.673 25.118 C 121.193 24.937,121.178 24.897,121.131 23.674 C 121.087 22.514,121.054 22.413,120.708 22.363 C 120.385 22.318,120.333 22.210,120.333 21.585 C 120.333 20.604,120.203 20.333,119.732 20.333 C 119.360 20.333,119.333 20.272,119.333 19.417 C 119.333 18.509,119.328 18.500,118.833 18.500 C 118.340 18.500,118.333 18.489,118.333 17.601 C 118.333 16.782,118.297 16.694,117.917 16.598 C 117.612 16.522,117.500 16.382,117.500 16.080 C 117.500 15.732,117.421 15.667,117.000 15.667 C 116.547 15.667,116.500 15.615,116.498 15.125 C 116.494 14.184,116.331 13.833,115.897 13.833 C 115.567 13.833,115.500 13.749,115.500 13.333 C 115.500 12.915,115.434 12.833,115.094 12.833 C 114.776 12.833,114.677 12.735,114.636 12.375 C 114.595 12.018,114.484 11.905,114.135 11.865 C 113.789 11.825,113.675 11.711,113.635 11.365 C 113.595 11.016,113.482 10.905,113.125 10.864 C 112.765 10.823,112.667 10.724,112.667 10.406 C 112.667 10.087,112.580 10.000,112.261 10.000 C 111.942 10.000,111.844 9.902,111.803 9.542 C 111.762 9.185,111.651 9.072,111.302 9.032 C 110.955 8.992,110.842 8.878,110.802 8.532 C 110.761 8.182,110.649 8.072,110.292 8.031 C 109.932 7.989,109.833 7.891,109.833 7.572 C 109.833 7.233,109.752 7.167,109.333 7.167 C 108.963 7.167,108.833 7.089,108.833 6.867 C 108.833 6.387,108.485 6.167,107.728 6.167 C 107.082 6.167,107.018 6.128,106.969 5.708 C 106.920 5.281,106.858 5.247,106.042 5.200 C 105.238 5.153,105.167 5.116,105.167 4.741 C 105.167 4.399,105.086 4.333,104.667 4.333 C 104.281 4.333,104.167 4.259,104.167 4.006 C 104.167 3.529,103.664 3.333,102.439 3.333 C 101.381 3.333,101.354 3.323,101.303 2.875 C 101.254 2.448,101.191 2.413,100.375 2.366 C 99.894 2.339,99.500 2.250,99.500 2.170 C 99.500 1.679,98.939 1.500,97.405 1.500 C 95.954 1.500,95.833 1.475,95.833 1.173 C 95.833 0.532,95.429 0.500,87.275 0.500 C 78.804 0.500,78.833 0.498,78.833 1.101 C 78.833 1.491,78.801 1.500,77.375 1.502 C 75.610 1.505,75.167 1.607,75.167 2.011 C 75.167 2.266,75.008 2.325,74.208 2.367 C 73.301 2.414,73.247 2.441,73.197 2.875 C 73.145 3.325,73.125 3.333,72.001 3.333 C 70.841 3.333,70.333 3.562,70.333 4.084 C 70.333 4.209,70.127 4.335,69.875 4.364 C 69.547 4.402,69.402 4.523,69.363 4.792 C 69.319 5.106,69.207 5.167,68.669 5.167 C 67.772 5.167,67.500 5.307,67.500 5.768 C 67.500 6.114,67.421 6.167,66.906 6.167 C 66.149 6.167,65.667 6.424,65.667 6.828 C 65.667 7.049,65.529 7.160,65.208 7.197 C 64.884 7.235,64.735 7.357,64.698 7.615 C 64.662 7.870,64.512 7.995,64.198 8.032 C 63.849 8.072,63.738 8.185,63.697 8.542 C 63.656 8.902,63.558 9.000,63.239 9.000 C 62.903 9.000,62.833 9.082,62.833 9.482 C 62.833 10.297,60.896 10.345,60.802 9.532 C 60.761 9.182,60.649 9.072,60.292 9.031 C 59.930 8.989,59.833 8.891,59.833 8.568 C 59.833 8.248,59.726 8.137,59.342 8.060 C 59.008 7.993,58.835 7.849,58.801 7.606 C 58.757 7.302,58.622 7.243,57.875 7.200 C 57.029 7.151,57.000 7.133,57.000 6.658 C 57.000 6.249,56.932 6.167,56.595 6.167 C 56.320 6.167,56.151 6.046,56.072 5.792 C 55.913 5.281,55.703 5.172,54.875 5.169 C 54.231 5.167,54.167 5.129,54.167 4.750 C 54.167 4.356,54.117 4.333,53.250 4.333 C 52.343 4.333,52.333 4.328,52.333 3.833 C 52.333 3.338,52.324 3.333,51.417 3.333 C 50.645 3.333,50.500 3.286,50.500 3.033 C 50.500 2.540,50.146 2.333,49.300 2.333 C 48.709 2.333,48.500 2.270,48.500 2.089 C 48.500 1.664,47.900 1.500,46.344 1.500 C 44.953 1.500,44.833 1.474,44.833 1.173 C 44.833 0.992,44.688 0.767,44.511 0.673 C 44.022 0.411,28.297 0.437,28.033 0.700 M41.746 8.078 C 42.661 8.310,43.561 8.503,43.746 8.507 C 43.932 8.511,44.346 8.616,44.667 8.739 C 44.987 8.863,45.700 9.129,46.249 9.331 C 48.880 10.298,52.429 12.383,54.558 14.214 C 56.792 16.133,60.472 20.494,60.507 21.262 C 60.548 22.144,62.333 23.103,62.333 22.242 C 62.333 22.123,62.511 21.814,62.727 21.554 C 62.944 21.295,63.171 20.923,63.232 20.728 C 63.293 20.533,63.472 20.217,63.630 20.026 C 63.788 19.835,64.442 19.023,65.083 18.222 C 67.013 15.811,68.860 14.087,71.422 12.300 C 72.436 11.593,76.422 9.500,76.754 9.500 C 76.884 9.500,77.396 9.321,77.892 9.101 C 78.388 8.882,79.121 8.650,79.522 8.585 C 79.922 8.520,80.775 8.322,81.417 8.144 C 84.122 7.395,90.569 7.355,92.880 8.073 C 93.319 8.209,94.144 8.405,94.714 8.508 C 95.284 8.612,96.050 8.832,96.417 8.999 C 96.783 9.165,97.421 9.390,97.833 9.499 C 98.246 9.608,98.700 9.801,98.842 9.928 C 98.984 10.054,99.412 10.268,99.794 10.403 C 100.175 10.537,100.697 10.791,100.952 10.967 C 101.208 11.143,101.942 11.594,102.583 11.969 C 104.292 12.968,107.944 16.026,108.504 16.926 C 108.678 17.206,109.119 17.768,109.484 18.176 C 110.391 19.188,110.937 19.956,111.331 20.770 C 111.513 21.147,111.776 21.550,111.914 21.664 C 112.052 21.779,112.252 22.163,112.358 22.517 C 112.464 22.871,112.690 23.287,112.859 23.440 C 113.028 23.593,113.167 23.821,113.167 23.946 C 113.167 24.071,113.392 24.670,113.667 25.277 C 113.942 25.883,114.167 26.478,114.167 26.598 C 114.167 26.718,114.384 27.514,114.651 28.367 C 115.580 31.341,115.893 35.937,115.417 39.583 C 115.021 42.612,114.978 42.796,114.008 45.667 C 113.749 46.434,113.127 47.912,112.887 48.333 C 112.756 48.563,112.538 49.012,112.404 49.333 C 112.269 49.654,112.085 50.029,111.995 50.167 C 111.905 50.304,111.712 50.679,111.565 51.000 C 111.419 51.321,111.196 51.771,111.069 52.000 C 110.943 52.229,110.724 52.679,110.582 53.000 C 110.441 53.321,110.250 53.696,110.158 53.833 C 110.067 53.971,109.840 54.421,109.655 54.833 C 109.470 55.246,109.246 55.696,109.158 55.833 C 109.070 55.971,108.878 56.346,108.732 56.667 C 108.586 56.987,108.362 57.438,108.236 57.667 C 108.109 57.896,107.890 58.346,107.749 58.667 C 107.608 58.987,107.417 59.362,107.325 59.500 C 107.233 59.637,107.007 60.087,106.822 60.500 C 106.637 60.913,106.412 61.362,106.322 61.500 C 106.232 61.637,106.007 62.087,105.822 62.500 C 105.637 62.913,105.418 63.362,105.337 63.500 C 105.255 63.637,103.293 67.537,100.976 72.167 C 98.660 76.796,96.719 80.621,96.662 80.667 C 96.606 80.712,96.428 81.087,96.266 81.500 C 96.104 81.912,95.879 82.362,95.764 82.500 C 95.650 82.637,95.427 83.100,95.269 83.529 C 95.112 83.957,94.874 84.397,94.741 84.507 C 94.609 84.617,94.500 84.789,94.500 84.889 C 94.500 85.051,93.217 87.703,92.834 88.333 C 92.750 88.471,92.530 88.921,92.345 89.333 C 92.160 89.746,91.935 90.196,91.845 90.333 C 91.755 90.471,91.530 90.921,91.345 91.333 C 91.160 91.746,90.933 92.196,90.842 92.333 C 90.750 92.471,90.565 92.846,90.430 93.167 C 90.295 93.487,90.077 93.938,89.946 94.167 C 89.815 94.396,89.586 94.846,89.438 95.167 C 89.290 95.487,89.097 95.862,89.008 96.000 C 88.920 96.138,88.697 96.587,88.512 97.000 C 88.326 97.412,88.100 97.862,88.008 98.000 C 87.916 98.138,87.728 98.513,87.590 98.833 C 87.452 99.154,87.117 99.792,86.846 100.250 C 86.574 100.708,86.158 101.421,85.920 101.833 C 85.464 102.623,85.192 103.009,84.038 104.500 C 82.866 106.016,81.801 107.236,81.432 107.487 C 81.240 107.617,80.707 108.067,80.246 108.487 C 78.723 109.876,77.137 110.942,74.843 112.119 C 74.268 112.414,73.712 112.720,73.607 112.798 C 73.502 112.877,73.085 113.037,72.679 113.153 C 72.273 113.269,71.674 113.507,71.348 113.682 C 71.022 113.857,70.598 114.000,70.407 114.000 C 70.215 114.000,69.504 114.189,68.826 114.419 C 66.800 115.108,61.681 115.378,57.800 115.001 C 54.685 114.698,50.890 113.373,47.138 111.278 C 44.104 109.585,40.195 105.942,38.446 103.178 C 38.246 102.863,37.802 102.162,37.458 101.619 C 37.115 101.077,36.833 100.593,36.833 100.543 C 36.833 100.494,36.608 100.088,36.333 99.641 C 36.058 99.194,35.833 98.727,35.833 98.603 C 35.833 98.480,35.682 98.186,35.496 97.950 C 35.311 97.714,35.047 97.202,34.909 96.811 C 34.771 96.420,34.548 95.979,34.414 95.831 C 34.280 95.683,34.082 95.304,33.974 94.989 C 33.866 94.674,33.603 94.137,33.389 93.795 C 33.175 93.453,33.000 93.069,33.000 92.942 C 33.000 92.815,32.863 92.533,32.696 92.314 C 32.528 92.096,32.259 91.579,32.098 91.167 C 31.937 90.754,31.712 90.304,31.597 90.167 C 31.482 90.029,31.287 89.654,31.163 89.333 C 31.040 89.013,30.765 88.489,30.553 88.170 C 30.340 87.850,30.167 87.467,30.167 87.317 C 30.167 87.167,30.015 86.852,29.830 86.617 C 29.644 86.381,29.380 85.868,29.242 85.477 C 29.104 85.086,28.893 84.650,28.773 84.508 C 28.653 84.366,28.454 83.987,28.332 83.667 C 28.209 83.346,27.983 82.896,27.830 82.667 C 27.676 82.438,27.475 82.025,27.382 81.750 C 27.289 81.475,27.015 80.958,26.773 80.602 C 26.531 80.245,26.333 79.823,26.333 79.664 C 26.333 79.504,26.231 79.289,26.105 79.185 C 25.980 79.081,25.743 78.640,25.580 78.206 C 25.417 77.772,25.156 77.229,25.001 77.000 C 24.845 76.771,24.634 76.336,24.531 76.034 C 24.429 75.732,24.193 75.290,24.006 75.053 C 23.819 74.816,23.667 74.492,23.667 74.333 C 23.667 74.175,23.521 73.860,23.343 73.634 C 23.165 73.407,22.891 72.891,22.734 72.486 C 22.577 72.081,22.354 71.637,22.238 71.500 C 22.123 71.362,21.896 70.912,21.735 70.500 C 21.574 70.087,21.305 69.571,21.138 69.353 C 20.970 69.134,20.833 68.825,20.833 68.667 C 20.833 68.508,20.682 68.186,20.496 67.950 C 20.311 67.714,20.047 67.202,19.909 66.811 C 19.771 66.420,19.549 65.980,19.417 65.833 C 19.284 65.687,19.063 65.247,18.925 64.856 C 18.787 64.465,18.522 63.952,18.337 63.717 C 18.152 63.481,18.000 63.179,18.000 63.045 C 18.000 62.911,17.847 62.587,17.661 62.325 C 17.474 62.063,17.237 61.601,17.135 61.299 C 17.033 60.997,16.808 60.547,16.635 60.299 C 16.462 60.051,16.237 59.601,16.133 59.299 C 16.030 58.997,15.770 58.489,15.556 58.170 C 15.342 57.850,15.165 57.475,15.164 57.336 C 15.162 57.197,14.937 56.753,14.664 56.350 C 14.390 55.947,14.167 55.508,14.167 55.376 C 14.167 55.243,14.014 54.920,13.827 54.658 C 13.641 54.396,13.403 53.938,13.299 53.640 C 13.195 53.342,12.935 52.841,12.722 52.526 C 12.508 52.211,12.332 51.833,12.330 51.685 C 12.329 51.537,12.104 51.087,11.830 50.683 C 11.557 50.280,11.333 49.821,11.333 49.664 C 11.333 49.507,11.182 49.186,10.996 48.950 C 10.811 48.714,10.547 48.202,10.409 47.811 C 10.271 47.420,10.052 46.982,9.922 46.839 C 9.792 46.695,9.607 46.227,9.511 45.799 C 9.415 45.371,9.177 44.622,8.983 44.135 C 8.788 43.648,8.566 42.701,8.488 42.031 C 8.411 41.360,8.274 40.573,8.184 40.281 C 7.612 38.411,7.496 35.044,7.929 32.833 C 8.064 32.146,8.291 30.833,8.433 29.917 C 8.576 29.000,8.832 27.975,9.003 27.640 C 9.173 27.304,9.364 26.741,9.426 26.390 C 9.489 26.038,9.713 25.412,9.924 25.000 C 10.135 24.587,10.392 23.978,10.494 23.645 C 10.596 23.312,10.820 22.913,10.991 22.758 C 11.163 22.603,11.346 22.304,11.399 22.094 C 11.491 21.726,12.295 20.473,13.329 19.083 C 13.602 18.717,14.007 18.154,14.230 17.833 C 14.791 17.026,17.360 14.554,18.663 13.567 C 19.257 13.118,19.890 12.619,20.070 12.458 C 20.249 12.298,20.483 12.167,20.589 12.167 C 20.695 12.167,20.917 12.017,21.083 11.833 C 21.249 11.650,21.456 11.500,21.543 11.500 C 21.630 11.500,22.035 11.275,22.443 11.000 C 22.850 10.725,23.264 10.500,23.363 10.500 C 23.462 10.500,24.002 10.282,24.563 10.017 C 25.662 9.496,26.715 9.119,28.167 8.727 C 28.671 8.591,29.602 8.326,30.235 8.138 C 32.809 7.375,38.853 7.344,41.746 8.078 M230.750 7.670 C 232.125 7.750,233.925 7.934,234.750 8.077 C 235.575 8.221,237.037 8.415,238.000 8.508 C 238.963 8.601,240.245 8.823,240.849 9.002 C 241.454 9.181,242.489 9.404,243.151 9.498 C 243.812 9.592,244.555 9.770,244.801 9.895 C 245.048 10.020,245.662 10.219,246.167 10.337 C 247.493 10.648,250.528 11.672,250.912 11.939 C 251.093 12.064,251.355 12.167,251.495 12.167 C 251.635 12.167,252.271 12.430,252.907 12.751 C 253.544 13.071,254.195 13.333,254.356 13.333 C 254.516 13.333,254.694 13.410,254.752 13.504 C 254.810 13.597,255.283 13.900,255.804 14.175 C 257.440 15.041,258.221 15.498,258.503 15.753 C 258.653 15.889,258.851 16.000,258.942 16.000 C 259.034 16.000,259.285 16.187,259.500 16.417 C 259.715 16.646,259.984 16.833,260.097 16.833 C 260.281 16.833,260.701 17.136,262.224 18.367 C 264.625 20.306,268.322 24.539,269.744 26.975 C 269.832 27.126,270.114 27.562,270.369 27.944 C 270.624 28.326,270.833 28.703,270.833 28.782 C 270.833 28.862,271.211 29.674,271.672 30.588 C 272.134 31.502,272.596 32.587,272.700 33.000 C 272.804 33.412,273.025 34.014,273.192 34.337 C 273.358 34.661,273.611 35.598,273.754 36.421 C 273.896 37.244,274.083 38.142,274.169 38.417 C 274.740 40.249,274.602 45.315,273.933 47.083 C 273.795 47.450,273.678 47.932,273.674 48.153 C 273.670 48.375,273.448 49.013,273.180 49.570 C 272.912 50.127,272.575 50.846,272.430 51.167 C 272.285 51.487,271.974 52.087,271.738 52.500 C 271.202 53.438,271.270 54.012,272.058 55.205 C 273.293 57.074,274.930 60.506,275.498 62.417 C 275.662 62.967,275.877 63.604,275.977 63.833 C 277.218 66.686,277.983 76.604,277.262 80.500 C 276.902 82.447,276.169 85.518,275.980 85.871 C 275.886 86.047,275.699 86.612,275.565 87.127 C 275.431 87.643,275.174 88.302,274.994 88.593 C 274.814 88.885,274.667 89.252,274.667 89.411 C 274.667 89.569,274.310 90.335,273.875 91.112 C 273.440 91.889,272.923 92.841,272.727 93.227 C 272.531 93.612,272.250 94.029,272.102 94.151 C 271.954 94.274,271.830 94.459,271.827 94.562 C 271.823 94.665,271.598 95.010,271.327 95.327 C 271.055 95.644,270.833 95.994,270.833 96.103 C 270.833 96.658,265.401 102.499,263.378 104.119 C 261.898 105.304,261.492 105.612,261.061 105.870 C 260.257 106.353,259.939 106.568,259.440 106.965 C 259.176 107.174,258.725 107.459,258.438 107.598 C 258.151 107.737,257.542 108.072,257.083 108.342 C 256.625 108.611,255.912 108.984,255.500 109.170 C 255.088 109.355,254.473 109.656,254.134 109.837 C 253.795 110.018,253.440 110.167,253.346 110.167 C 253.251 110.167,252.613 110.429,251.928 110.750 C 251.243 111.071,250.563 111.333,250.418 111.333 C 250.272 111.333,249.875 111.472,249.535 111.640 C 249.195 111.809,248.542 112.041,248.083 112.155 C 247.625 112.269,246.987 112.467,246.667 112.595 C 246.346 112.722,245.352 112.976,244.457 113.158 C 243.563 113.340,242.685 113.567,242.507 113.663 C 242.329 113.758,241.560 113.910,240.800 114.000 C 239.010 114.212,237.748 114.419,236.917 114.637 C 234.222 115.346,223.087 115.264,218.833 114.505 C 218.329 114.415,217.017 114.227,215.918 114.088 C 214.819 113.948,213.544 113.726,213.085 113.594 C 212.626 113.462,211.575 113.229,210.750 113.076 C 209.925 112.924,209.128 112.734,208.978 112.654 C 208.829 112.575,208.079 112.362,207.312 112.181 C 206.544 112.000,205.279 111.617,204.500 111.329 C 203.721 111.041,202.596 110.631,202.000 110.418 C 200.618 109.922,195.566 107.392,194.946 106.885 C 194.686 106.673,194.384 106.500,194.274 106.500 C 194.164 106.500,193.828 106.275,193.527 106.000 C 193.226 105.725,192.880 105.500,192.758 105.500 C 192.636 105.500,192.494 105.391,192.443 105.259 C 192.392 105.126,192.103 104.890,191.800 104.734 C 191.498 104.578,190.891 104.106,190.452 103.686 C 190.013 103.266,189.536 102.857,189.391 102.776 C 188.714 102.397,184.833 97.939,184.833 97.540 C 184.833 97.458,184.646 97.215,184.417 97.000 C 184.188 96.785,184.000 96.522,184.000 96.417 C 184.000 96.312,183.777 95.931,183.505 95.571 C 183.232 95.211,183.007 94.843,183.005 94.753 C 183.002 94.663,182.627 93.838,182.170 92.920 C 181.402 91.374,181.114 90.663,180.447 88.667 C 179.522 85.897,179.448 85.567,178.987 82.167 C 178.654 79.701,178.986 74.609,179.586 72.997 C 179.739 72.586,179.965 71.897,180.087 71.466 C 180.331 70.611,182.008 67.553,182.925 66.294 L 183.499 65.505 183.220 64.806 C 183.066 64.422,182.691 63.694,182.387 63.189 C 182.082 62.683,181.833 62.196,181.833 62.106 C 181.833 62.016,181.733 61.825,181.611 61.680 C 181.488 61.535,181.295 61.154,181.181 60.833 C 181.067 60.512,180.800 59.875,180.588 59.417 C 180.051 58.257,179.167 55.441,179.165 54.881 C 179.163 54.626,179.000 53.929,178.800 53.333 C 177.873 50.557,178.400 42.362,179.761 38.404 C 179.984 37.756,180.167 37.131,180.167 37.015 C 180.167 36.538,183.033 30.436,183.348 30.241 C 183.435 30.187,183.694 29.792,183.922 29.363 C 184.151 28.934,184.597 28.246,184.913 27.833 C 185.229 27.421,185.654 26.802,185.858 26.458 C 186.061 26.115,186.287 25.833,186.359 25.833 C 186.431 25.833,186.585 25.650,186.703 25.427 C 187.332 24.230,193.893 17.833,194.491 17.833 C 194.560 17.833,194.845 17.627,195.124 17.375 C 195.402 17.123,195.882 16.747,196.190 16.539 C 197.899 15.385,198.504 15.000,198.608 15.000 C 198.672 15.000,198.855 14.881,199.015 14.736 C 199.383 14.403,200.525 13.757,201.500 13.329 C 201.912 13.148,202.362 12.927,202.500 12.837 C 203.079 12.460,205.145 11.449,205.917 11.166 C 206.375 10.997,207.387 10.625,208.167 10.338 C 208.946 10.051,210.108 9.675,210.750 9.503 C 211.392 9.331,212.226 9.079,212.605 8.943 C 212.983 8.807,213.733 8.644,214.271 8.581 C 214.810 8.518,215.963 8.314,216.833 8.127 C 219.605 7.532,225.216 7.348,230.750 7.670 M316.917 7.880 C 317.375 8.012,318.125 8.211,318.583 8.321 C 319.359 8.507,320.329 8.814,322.167 9.455 C 322.579 9.599,323.029 9.806,323.167 9.915 C 323.304 10.023,323.679 10.212,324.000 10.335 C 324.321 10.458,324.782 10.695,325.026 10.862 C 325.269 11.030,325.539 11.167,325.626 11.167 C 325.712 11.167,326.076 11.377,326.433 11.635 C 326.791 11.892,327.197 12.146,327.336 12.198 C 328.185 12.517,332.264 16.244,333.505 17.833 C 333.684 18.063,334.017 18.475,334.245 18.750 C 334.881 19.517,335.774 20.883,335.901 21.285 C 336.015 21.643,337.058 22.667,337.308 22.667 C 337.380 22.667,337.566 22.423,337.721 22.125 C 338.317 20.985,338.823 20.143,339.196 19.668 C 339.409 19.397,339.996 18.634,340.500 17.973 C 342.429 15.442,346.150 12.251,348.270 11.309 C 348.647 11.141,349.050 10.891,349.165 10.752 C 349.280 10.613,349.449 10.500,349.541 10.500 C 349.633 10.500,350.152 10.275,350.693 10.000 C 351.234 9.725,351.788 9.500,351.925 9.500 C 352.061 9.500,352.541 9.308,352.990 9.072 C 353.440 8.837,354.245 8.582,354.779 8.505 C 355.313 8.428,356.087 8.245,356.500 8.098 C 358.545 7.369,366.334 7.309,368.500 8.006 C 369.096 8.197,369.939 8.422,370.374 8.506 C 370.810 8.589,371.485 8.802,371.874 8.979 C 372.264 9.156,372.921 9.390,373.333 9.499 C 373.746 9.608,374.201 9.802,374.344 9.930 C 374.488 10.058,374.863 10.250,375.177 10.357 C 375.492 10.464,375.938 10.680,376.167 10.837 C 376.396 10.994,376.883 11.285,377.250 11.483 C 380.378 13.171,385.125 17.863,386.740 20.863 C 386.971 21.292,387.231 21.687,387.318 21.741 C 387.405 21.794,387.565 22.110,387.675 22.442 C 387.784 22.774,388.052 23.308,388.270 23.629 C 388.488 23.950,388.669 24.334,388.672 24.482 C 388.675 24.629,388.900 25.198,389.172 25.746 C 389.444 26.293,389.667 26.937,389.667 27.175 C 389.667 27.414,389.847 28.054,390.068 28.598 C 390.374 29.350,390.513 30.144,390.651 31.918 C 390.751 33.201,390.906 34.550,390.996 34.917 C 391.219 35.829,391.206 86.785,390.982 87.917 C 390.892 88.375,390.752 89.612,390.672 90.667 C 390.506 92.856,390.394 93.481,389.999 94.417 C 389.844 94.783,389.662 95.383,389.594 95.750 C 389.527 96.117,389.331 96.679,389.159 97.000 C 388.987 97.321,388.768 97.893,388.672 98.272 C 388.576 98.651,388.389 99.051,388.257 99.161 C 388.125 99.270,387.929 99.635,387.821 99.972 C 387.714 100.308,387.492 100.733,387.329 100.917 C 387.166 101.100,386.913 101.513,386.768 101.833 C 386.623 102.154,386.241 102.754,385.918 103.167 C 385.595 103.579,385.189 104.130,385.015 104.392 C 383.784 106.247,379.484 110.083,377.329 111.250 C 376.990 111.433,376.234 111.844,375.648 112.162 C 374.435 112.821,372.613 113.539,370.933 114.020 C 370.300 114.201,369.663 114.411,369.516 114.488 C 368.299 115.125,358.998 115.347,356.917 114.789 C 356.367 114.641,355.218 114.333,354.364 114.104 C 353.509 113.876,352.722 113.618,352.614 113.533 C 352.505 113.447,352.117 113.282,351.750 113.167 C 350.952 112.916,347.721 111.256,347.250 110.855 C 347.067 110.699,346.367 110.201,345.694 109.749 C 344.099 108.675,340.945 105.547,339.952 104.054 C 339.522 103.407,339.057 102.783,338.918 102.668 C 338.780 102.553,338.667 102.366,338.667 102.253 C 338.667 102.139,338.442 101.763,338.167 101.417 C 337.892 101.071,337.667 100.694,337.667 100.581 C 337.667 99.983,337.218 100.028,336.533 100.693 C 336.148 101.066,335.833 101.440,335.833 101.523 C 335.833 101.687,334.998 102.978,334.144 104.133 C 331.794 107.315,324.492 113.000,322.755 113.000 C 322.646 113.000,322.193 113.184,321.748 113.409 C 321.303 113.635,320.585 113.895,320.151 113.988 C 319.718 114.081,318.926 114.308,318.390 114.493 C 315.719 115.417,307.529 115.371,304.536 114.415 C 303.829 114.189,303.063 114.003,302.833 114.002 C 302.604 114.000,302.191 113.861,301.915 113.693 C 301.639 113.524,301.015 113.255,300.530 113.093 C 300.044 112.932,299.050 112.470,298.321 112.067 C 297.592 111.663,296.954 111.333,296.903 111.333 C 296.852 111.333,296.309 110.981,295.697 110.551 C 291.996 107.949,288.508 104.197,286.833 101.018 C 286.604 100.583,286.285 100.047,286.125 99.827 C 285.965 99.606,285.833 99.303,285.833 99.153 C 285.833 99.003,285.657 98.619,285.440 98.301 C 285.224 97.982,284.993 97.428,284.926 97.069 C 284.859 96.710,284.634 96.042,284.427 95.583 C 284.219 95.125,283.999 94.300,283.938 93.750 C 283.877 93.200,283.719 92.412,283.587 92.000 C 283.456 91.587,283.270 90.522,283.174 89.632 C 282.942 87.473,282.937 35.180,283.169 33.083 C 283.494 30.140,284.567 26.118,285.482 24.410 C 285.675 24.050,285.833 23.671,285.833 23.567 C 285.833 23.464,286.013 23.115,286.233 22.790 C 286.453 22.466,286.688 22.028,286.755 21.816 C 286.871 21.453,287.689 20.209,288.704 18.855 C 288.953 18.522,289.290 18.063,289.452 17.833 C 290.033 17.012,293.322 13.859,294.220 13.263 C 294.723 12.928,295.227 12.545,295.338 12.411 C 295.450 12.277,295.619 12.167,295.716 12.167 C 295.812 12.167,296.022 12.048,296.182 11.903 C 296.550 11.570,297.692 10.923,298.667 10.496 C 299.079 10.315,299.529 10.091,299.667 9.999 C 300.245 9.610,302.460 8.842,304.955 8.166 C 307.488 7.479,314.917 7.301,316.917 7.880 M31.917 13.602 C 31.550 13.736,30.725 13.965,30.083 14.110 C 29.442 14.255,28.716 14.476,28.471 14.601 C 28.226 14.726,27.664 14.951,27.221 15.102 C 26.779 15.252,26.238 15.515,26.019 15.687 C 25.801 15.859,25.527 16.000,25.411 16.000 C 24.810 16.000,20.455 19.409,19.403 20.702 C 19.084 21.095,18.669 21.604,18.483 21.833 C 17.610 22.906,17.003 23.766,17.002 23.933 C 17.001 24.033,16.853 24.248,16.673 24.411 C 16.493 24.574,16.258 24.979,16.150 25.312 C 16.042 25.644,15.819 26.109,15.653 26.345 C 15.488 26.581,15.264 27.143,15.154 27.595 C 15.045 28.047,14.820 28.642,14.655 28.919 C 14.490 29.195,14.307 29.832,14.248 30.335 C 14.188 30.838,14.067 31.475,13.978 31.750 C 13.280 33.909,13.183 36.168,13.683 38.667 C 13.876 39.629,14.100 40.851,14.182 41.383 C 14.264 41.914,14.519 42.746,14.749 43.232 C 14.979 43.718,15.167 44.213,15.167 44.333 C 15.167 44.528,15.992 46.371,16.362 47.000 C 16.442 47.137,16.660 47.587,16.845 48.000 C 17.030 48.413,17.254 48.862,17.342 49.000 C 17.430 49.137,17.622 49.512,17.768 49.833 C 17.914 50.154,18.136 50.604,18.262 50.833 C 18.387 51.063,18.613 51.512,18.765 51.833 C 18.916 52.154,19.108 52.529,19.191 52.667 C 19.274 52.804,19.493 53.254,19.678 53.667 C 19.863 54.079,20.088 54.529,20.178 54.667 C 20.268 54.804,20.493 55.254,20.678 55.667 C 20.863 56.079,21.084 56.529,21.168 56.667 C 21.252 56.804,21.891 58.079,22.589 59.500 C 23.286 60.921,23.922 62.196,24.002 62.333 C 24.082 62.471,26.371 67.046,29.089 72.500 C 31.806 77.954,34.140 82.604,34.274 82.833 C 34.408 83.063,34.628 83.512,34.763 83.833 C 34.898 84.154,35.078 84.529,35.164 84.667 C 35.251 84.804,35.669 85.629,36.094 86.500 C 36.520 87.371,36.977 88.271,37.110 88.500 C 37.243 88.729,37.462 89.179,37.596 89.500 C 37.731 89.821,37.916 90.196,38.008 90.333 C 38.100 90.471,38.326 90.921,38.512 91.333 C 38.697 91.746,38.920 92.196,39.008 92.333 C 39.097 92.471,39.290 92.846,39.438 93.167 C 39.586 93.487,39.773 93.862,39.854 94.000 C 39.935 94.138,40.161 94.587,40.356 95.000 C 40.550 95.412,40.777 95.862,40.858 96.000 C 40.940 96.138,41.175 96.587,41.379 97.000 C 41.584 97.412,41.885 97.938,42.049 98.167 C 42.890 99.348,43.183 99.787,43.380 100.167 C 43.973 101.312,47.841 105.071,49.080 105.707 C 49.391 105.866,49.683 106.058,49.729 106.133 C 49.775 106.208,50.399 106.554,51.115 106.902 C 51.831 107.250,52.679 107.666,53.000 107.827 C 56.345 109.505,64.414 110.104,67.332 108.892 C 67.652 108.759,68.252 108.575,68.665 108.484 C 69.079 108.392,69.717 108.178,70.083 108.008 C 70.450 107.838,71.087 107.541,71.500 107.349 C 71.912 107.156,72.601 106.793,73.030 106.541 C 73.459 106.289,74.059 105.942,74.363 105.768 C 75.786 104.959,80.167 100.660,80.167 100.074 C 80.167 100.017,80.381 99.659,80.642 99.277 C 81.636 97.826,83.000 95.294,83.000 94.901 C 83.000 94.797,83.153 94.518,83.339 94.280 C 83.526 94.043,83.762 93.602,83.865 93.299 C 83.967 92.997,84.192 92.547,84.365 92.299 C 84.538 92.051,84.763 91.601,84.867 91.299 C 84.970 90.997,85.230 90.489,85.444 90.170 C 85.658 89.850,85.833 89.487,85.833 89.362 C 85.833 89.237,85.986 88.920,86.173 88.658 C 86.359 88.396,86.596 87.934,86.698 87.632 C 86.801 87.330,87.026 86.880,87.198 86.632 C 87.371 86.384,87.597 85.934,87.700 85.632 C 87.803 85.330,88.063 84.822,88.277 84.503 C 88.491 84.184,88.668 83.809,88.670 83.670 C 88.671 83.531,88.896 83.087,89.170 82.683 C 89.443 82.280,89.667 81.841,89.667 81.709 C 89.667 81.577,89.819 81.254,90.006 80.991 C 90.193 80.729,90.430 80.271,90.534 79.973 C 90.638 79.675,90.898 79.174,91.112 78.859 C 91.325 78.544,91.501 78.166,91.503 78.018 C 91.505 77.871,91.730 77.420,92.003 77.017 C 92.276 76.613,92.500 76.155,92.500 75.997 C 92.500 75.840,92.653 75.518,92.839 75.280 C 93.026 75.043,93.261 74.602,93.362 74.299 C 93.463 73.997,93.677 73.600,93.836 73.417 C 93.995 73.233,94.219 72.783,94.333 72.417 C 94.448 72.050,94.673 71.600,94.833 71.417 C 94.994 71.233,95.219 70.783,95.334 70.417 C 95.448 70.050,95.644 69.633,95.769 69.489 C 95.894 69.346,96.082 68.971,96.188 68.656 C 96.293 68.341,96.510 67.933,96.669 67.750 C 96.829 67.567,97.052 67.117,97.167 66.750 C 97.281 66.383,97.506 65.933,97.667 65.750 C 97.827 65.567,98.053 65.117,98.167 64.750 C 98.282 64.383,98.478 63.966,98.602 63.823 C 98.727 63.679,98.915 63.304,99.021 62.989 C 99.127 62.674,99.340 62.267,99.495 62.083 C 99.651 61.900,99.907 61.400,100.064 60.971 C 100.222 60.543,100.459 60.103,100.592 59.993 C 100.725 59.883,100.833 59.704,100.833 59.595 C 100.833 59.486,101.096 58.877,101.416 58.240 C 101.737 57.604,101.999 57.013,101.999 56.927 C 102.000 56.842,102.137 56.617,102.306 56.427 C 102.474 56.238,102.740 55.733,102.898 55.305 C 103.055 54.877,103.293 54.436,103.425 54.326 C 103.558 54.216,103.667 54.029,103.667 53.910 C 103.667 53.791,103.929 53.200,104.250 52.595 C 104.571 51.990,104.833 51.395,104.833 51.273 C 104.833 51.151,104.979 50.920,105.157 50.759 C 105.335 50.597,105.528 50.251,105.586 49.988 C 105.644 49.726,105.856 49.265,106.059 48.964 C 106.262 48.663,106.563 48.060,106.728 47.625 C 106.893 47.190,107.084 46.833,107.154 46.833 C 107.223 46.833,107.380 46.515,107.503 46.125 C 107.625 45.735,107.856 45.267,108.016 45.083 C 108.176 44.900,108.430 44.272,108.580 43.687 C 108.730 43.103,108.956 42.465,109.082 42.270 C 110.050 40.772,110.002 31.616,109.015 29.449 C 108.829 29.042,108.597 28.352,108.500 27.915 C 108.402 27.478,108.174 26.934,107.994 26.705 C 107.814 26.476,107.667 26.165,107.667 26.014 C 107.667 25.744,106.842 24.325,106.205 23.500 C 106.029 23.271,105.787 22.896,105.669 22.667 C 104.716 20.822,99.838 16.597,97.917 15.953 C 97.642 15.860,97.320 15.710,97.203 15.618 C 96.792 15.296,94.485 14.363,93.621 14.169 C 93.142 14.062,92.450 13.856,92.083 13.713 C 91.255 13.389,85.630 13.217,84.000 13.466 C 82.770 13.653,79.841 14.402,79.386 14.645 C 79.219 14.734,78.334 15.165,77.417 15.603 C 75.838 16.358,74.517 17.145,74.030 17.619 C 73.909 17.737,73.742 17.833,73.660 17.833 C 73.147 17.833,68.833 22.370,68.833 22.910 C 68.833 23.018,68.646 23.270,68.417 23.469 C 68.188 23.668,68.000 23.918,68.000 24.025 C 68.000 24.131,67.824 24.451,67.609 24.734 C 67.393 25.018,67.127 25.525,67.017 25.862 C 66.906 26.198,66.714 26.558,66.589 26.662 C 66.465 26.765,66.271 27.240,66.159 27.717 C 66.047 28.193,65.812 28.867,65.638 29.214 C 65.325 29.835,64.948 31.955,64.680 34.591 C 64.438 36.975,64.118 37.635,62.911 38.246 C 61.570 38.924,59.960 38.454,59.493 37.250 C 59.387 36.975,59.239 36.600,59.164 36.417 C 58.946 35.883,58.696 34.210,58.579 32.500 C 58.504 31.401,58.356 30.660,58.094 30.076 C 57.886 29.614,57.665 28.939,57.602 28.576 C 57.503 28.009,56.786 26.293,56.317 25.500 C 56.236 25.363,55.987 24.908,55.764 24.490 C 55.542 24.071,55.241 23.631,55.096 23.511 C 54.952 23.391,54.833 23.208,54.833 23.105 C 54.833 23.001,54.571 22.622,54.250 22.261 C 53.929 21.901,53.667 21.559,53.667 21.501 C 53.667 21.444,53.001 20.736,52.187 19.928 C 50.792 18.542,50.393 18.222,48.187 16.718 C 47.201 16.045,45.136 15.000,44.792 15.000 C 44.672 15.000,44.419 14.891,44.229 14.758 C 43.922 14.543,41.584 13.881,39.750 13.490 C 38.574 13.239,32.675 13.323,31.917 13.602 M218.333 13.597 C 217.737 13.718,216.490 13.962,215.562 14.141 C 214.633 14.320,213.733 14.538,213.562 14.625 C 213.390 14.712,212.718 14.909,212.068 15.063 C 211.417 15.217,210.595 15.491,210.241 15.671 C 209.886 15.852,209.461 16.000,209.295 16.000 C 209.129 16.000,208.572 16.225,208.057 16.500 C 207.541 16.775,207.016 17.000,206.890 17.000 C 206.763 17.000,206.380 17.180,206.038 17.399 C 205.696 17.619,205.141 17.885,204.805 17.991 C 204.469 18.097,204.100 18.297,203.985 18.435 C 203.870 18.573,203.546 18.796,203.263 18.929 C 202.175 19.446,198.167 22.111,198.167 22.318 C 198.167 22.390,198.019 22.517,197.838 22.600 C 197.399 22.800,195.980 24.076,194.112 25.950 C 192.698 27.369,192.204 27.910,191.099 29.250 C 190.873 29.525,190.458 30.022,190.177 30.355 C 189.896 30.688,189.667 31.034,189.667 31.124 C 189.667 31.214,189.460 31.553,189.208 31.878 C 188.956 32.203,188.600 32.717,188.417 33.022 C 187.111 35.192,187.097 35.220,186.266 37.167 C 185.344 39.326,185.115 39.980,184.895 41.083 C 184.767 41.725,184.532 42.625,184.373 43.083 C 183.908 44.423,183.956 50.836,184.442 52.333 C 184.635 52.929,184.849 53.823,184.916 54.319 C 184.984 54.816,185.218 55.558,185.436 55.969 C 185.655 56.380,185.833 56.820,185.833 56.946 C 185.833 57.073,186.058 57.622,186.333 58.167 C 186.608 58.711,186.833 59.241,186.833 59.345 C 186.833 59.448,187.002 59.768,187.208 60.058 C 187.572 60.568,187.681 60.751,188.446 62.122 C 188.646 62.480,188.935 62.877,189.090 63.005 C 190.599 64.258,190.419 66.745,188.695 68.445 C 187.824 69.303,186.691 70.972,186.067 72.315 C 185.828 72.829,185.494 73.515,185.325 73.840 C 184.309 75.792,184.383 83.099,185.443 85.448 C 185.658 85.923,185.833 86.487,185.833 86.702 C 185.833 86.916,186.056 87.540,186.328 88.088 C 186.600 88.635,186.825 89.179,186.828 89.295 C 186.831 89.411,187.058 89.928,187.333 90.443 C 187.608 90.959,187.833 91.511,187.833 91.670 C 187.833 91.829,187.951 92.057,188.096 92.177 C 188.240 92.296,188.505 92.662,188.686 92.989 C 190.109 95.570,193.535 99.093,196.679 101.208 C 197.190 101.552,197.687 101.833,197.783 101.833 C 197.880 101.833,198.062 101.958,198.188 102.110 C 198.314 102.263,198.792 102.565,199.250 102.783 C 199.708 103.001,200.271 103.284,200.500 103.413 C 201.123 103.762,203.024 104.609,203.500 104.749 C 203.729 104.816,204.179 105.004,204.500 105.165 C 205.354 105.595,207.812 106.448,208.583 106.582 C 208.950 106.645,209.788 106.878,210.446 107.099 C 211.104 107.319,211.825 107.500,212.049 107.500 C 212.273 107.500,212.898 107.640,213.437 107.811 C 213.976 107.983,215.354 108.250,216.500 108.405 C 217.646 108.560,219.033 108.791,219.583 108.917 C 222.820 109.660,232.821 109.618,236.750 108.845 C 237.208 108.754,238.347 108.568,239.280 108.429 C 240.213 108.291,241.429 108.026,241.983 107.839 C 242.537 107.653,243.198 107.498,243.453 107.495 C 243.708 107.492,244.329 107.337,244.833 107.151 C 245.338 106.964,246.125 106.715,246.583 106.597 C 247.042 106.478,247.754 106.229,248.167 106.043 C 248.579 105.857,249.167 105.651,249.472 105.586 C 249.778 105.521,250.442 105.250,250.948 104.984 C 251.453 104.718,251.963 104.500,252.080 104.500 C 252.197 104.500,252.383 104.391,252.493 104.259 C 252.603 104.126,253.043 103.888,253.471 103.731 C 253.900 103.573,254.372 103.340,254.521 103.214 C 254.670 103.088,255.097 102.820,255.470 102.618 C 257.139 101.711,257.500 101.483,257.500 101.334 C 257.500 101.247,257.729 101.057,258.009 100.912 C 258.289 100.767,258.645 100.537,258.801 100.401 C 259.735 99.580,261.816 97.865,261.941 97.812 C 262.140 97.729,264.769 94.627,265.502 93.611 C 265.822 93.168,266.273 92.568,266.504 92.278 C 266.735 91.988,267.057 91.487,267.219 91.167 C 267.381 90.846,267.734 90.208,268.003 89.750 C 269.192 87.721,270.833 83.920,270.833 83.193 C 270.833 83.014,270.979 82.392,271.157 81.809 C 272.031 78.947,272.043 71.321,271.179 68.167 C 271.016 67.571,270.766 66.633,270.625 66.083 C 269.725 62.588,268.469 60.138,265.155 55.417 C 264.074 53.876,264.308 52.297,265.821 50.928 C 266.011 50.756,266.167 50.538,266.167 50.443 C 266.167 50.349,266.311 50.117,266.487 49.927 C 266.893 49.491,268.000 47.409,268.000 47.082 C 268.000 46.946,268.167 46.366,268.371 45.792 C 268.862 44.411,268.917 39.831,268.455 38.782 C 268.301 38.433,268.125 37.758,268.064 37.282 C 268.003 36.806,267.738 35.959,267.476 35.401 C 267.214 34.842,267.000 34.296,267.000 34.189 C 267.000 34.082,266.775 33.572,266.500 33.057 C 266.225 32.541,266.000 32.027,266.000 31.914 C 266.000 31.800,265.877 31.606,265.727 31.481 C 265.577 31.357,265.314 30.954,265.141 30.586 C 264.969 30.218,264.644 29.654,264.419 29.333 C 264.194 29.012,263.839 28.499,263.630 28.191 C 263.421 27.884,263.137 27.507,263.000 27.353 C 262.862 27.198,262.550 26.812,262.306 26.495 C 261.489 25.432,260.093 24.039,259.083 23.279 C 258.533 22.865,257.934 22.389,257.751 22.221 C 257.234 21.747,255.604 20.668,255.404 20.667 C 255.305 20.667,255.049 20.479,254.833 20.250 C 254.618 20.021,254.353 19.833,254.244 19.833 C 254.135 19.833,253.784 19.655,253.463 19.437 C 253.141 19.219,252.611 18.952,252.283 18.844 C 251.956 18.736,251.511 18.509,251.296 18.340 C 251.081 18.171,250.571 17.942,250.162 17.832 C 249.754 17.722,249.220 17.490,248.976 17.316 C 248.732 17.142,248.418 17.000,248.279 17.000 C 248.139 17.000,247.476 16.783,246.804 16.517 C 246.133 16.251,245.246 15.980,244.833 15.914 C 244.421 15.848,243.896 15.699,243.667 15.583 C 243.438 15.467,242.800 15.282,242.250 15.172 C 241.700 15.062,240.650 14.831,239.917 14.660 C 239.183 14.488,237.908 14.265,237.083 14.166 C 236.258 14.066,235.208 13.913,234.750 13.825 C 232.647 13.422,230.905 13.335,225.363 13.356 C 221.196 13.372,219.093 13.444,218.333 13.597 M306.917 13.590 C 306.458 13.722,305.596 13.949,305.000 14.095 C 304.404 14.240,303.692 14.492,303.417 14.655 C 303.142 14.818,302.564 15.046,302.133 15.162 C 301.703 15.277,301.222 15.513,301.066 15.686 C 300.910 15.859,300.697 16.000,300.594 16.000 C 300.363 16.000,298.751 16.999,298.126 17.529 C 297.875 17.742,297.440 18.104,297.160 18.333 C 296.281 19.053,294.333 20.982,294.333 21.133 C 294.333 21.213,294.127 21.471,293.875 21.708 C 293.623 21.944,293.246 22.387,293.037 22.693 C 292.828 23.000,292.476 23.512,292.256 23.833 C 291.756 24.562,290.500 27.053,290.500 27.317 C 290.500 27.425,290.347 27.813,290.160 28.180 C 289.973 28.547,289.744 29.275,289.651 29.799 C 289.559 30.322,289.318 31.238,289.117 31.833 L 288.750 32.917 288.750 61.500 C 288.750 85.521,288.787 90.148,288.980 90.489 C 289.252 90.967,289.652 92.560,289.661 93.199 C 289.664 93.446,289.823 93.913,290.014 94.236 C 290.205 94.560,290.460 95.199,290.581 95.657 C 290.701 96.114,290.958 96.689,291.150 96.933 C 291.343 97.178,291.500 97.452,291.500 97.542 C 291.500 97.632,291.856 98.228,292.292 98.866 C 292.727 99.505,293.158 100.156,293.250 100.314 C 293.537 100.806,296.035 103.667,296.178 103.667 C 296.253 103.667,296.787 104.060,297.366 104.542 C 298.619 105.585,299.910 106.500,300.129 106.500 C 300.216 106.500,300.552 106.680,300.876 106.900 C 301.200 107.120,301.642 107.354,301.858 107.421 C 302.074 107.487,302.716 107.757,303.285 108.021 C 303.854 108.284,304.491 108.500,304.701 108.501 C 304.911 108.502,305.301 108.616,305.567 108.754 C 307.512 109.769,314.702 109.727,317.786 108.684 C 318.356 108.491,318.911 108.333,319.018 108.333 C 319.275 108.333,323.084 106.416,323.833 105.910 C 327.139 103.676,329.663 100.979,331.250 97.985 C 332.136 96.313,332.804 94.843,332.910 94.329 C 332.976 94.011,333.209 93.245,333.427 92.628 C 333.704 91.844,333.881 90.812,334.012 89.211 C 334.282 85.918,334.684 85.015,336.120 84.470 C 338.309 83.638,339.765 85.029,339.817 88.001 C 339.826 88.506,339.910 89.181,340.003 89.501 C 340.096 89.821,340.318 90.883,340.495 91.861 C 340.673 92.839,340.971 93.925,341.159 94.275 C 341.347 94.625,341.500 95.071,341.500 95.267 C 341.500 95.462,341.654 95.817,341.842 96.056 C 342.030 96.296,342.297 96.823,342.435 97.229 C 342.573 97.634,342.832 98.098,343.010 98.259 C 343.188 98.420,343.333 98.642,343.333 98.753 C 343.333 98.943,343.571 99.287,344.866 100.964 C 345.543 101.843,347.231 103.577,348.064 104.250 C 348.404 104.525,348.869 104.919,349.099 105.125 C 349.328 105.331,349.575 105.500,349.649 105.500 C 349.723 105.500,350.076 105.706,350.433 105.958 C 350.791 106.210,351.683 106.713,352.417 107.075 C 353.150 107.438,353.855 107.813,353.983 107.909 C 354.226 108.090,356.184 108.687,357.917 109.108 C 360.232 109.671,366.752 109.546,368.045 108.914 C 368.299 108.790,368.936 108.601,369.462 108.494 C 369.987 108.387,370.679 108.166,371.000 108.003 C 371.321 107.840,372.099 107.457,372.728 107.152 C 373.358 106.846,374.220 106.350,374.645 106.048 C 375.069 105.747,375.481 105.500,375.560 105.500 C 375.935 105.500,379.665 101.926,380.549 100.719 C 381.684 99.170,383.000 96.983,383.000 96.645 C 383.000 96.548,383.147 96.261,383.328 96.008 C 383.508 95.755,383.739 95.181,383.842 94.732 C 383.945 94.284,384.179 93.617,384.361 93.250 C 384.562 92.847,384.757 91.957,384.854 91.000 C 384.943 90.129,385.092 88.817,385.185 88.083 C 385.429 86.173,385.289 35.032,385.033 32.642 C 384.929 31.667,384.722 30.542,384.574 30.142 C 384.425 29.743,384.228 29.117,384.136 28.750 C 384.044 28.383,383.758 27.633,383.500 27.083 C 383.243 26.533,382.914 25.821,382.770 25.500 C 381.976 23.737,379.167 20.086,377.661 18.858 C 375.746 17.298,373.901 16.009,373.574 16.003 C 373.477 16.001,373.149 15.816,372.845 15.592 C 372.541 15.368,372.058 15.134,371.771 15.072 C 371.485 15.010,370.988 14.829,370.667 14.671 C 370.346 14.512,369.558 14.249,368.917 14.086 C 368.275 13.923,367.429 13.687,367.036 13.561 C 366.202 13.295,359.519 13.248,358.417 13.501 C 356.645 13.906,355.081 14.378,354.530 14.674 C 354.196 14.853,353.827 15.000,353.711 15.000 C 353.473 15.000,350.961 16.307,350.833 16.498 C 350.787 16.566,350.450 16.785,350.083 16.984 C 348.058 18.085,344.601 21.690,343.170 24.193 C 342.256 25.793,341.729 26.858,341.494 27.583 C 341.345 28.042,341.103 28.649,340.954 28.932 C 340.806 29.216,340.636 29.853,340.576 30.349 C 340.516 30.845,340.361 31.673,340.233 32.191 C 340.105 32.708,339.922 33.893,339.826 34.823 C 339.623 36.808,339.479 37.251,338.885 37.729 C 336.477 39.665,334.320 38.073,334.076 34.178 C 333.917 31.650,333.222 28.777,332.353 27.050 C 332.159 26.665,332.000 26.238,332.000 26.101 C 332.000 25.965,331.917 25.801,331.815 25.739 C 331.713 25.676,331.443 25.202,331.215 24.687 C 330.987 24.172,330.750 23.712,330.687 23.667 C 330.625 23.621,330.135 22.983,329.598 22.250 C 328.556 20.825,326.380 18.595,325.367 17.911 C 325.028 17.683,324.345 17.202,323.850 16.843 C 322.342 15.750,319.952 14.667,317.333 13.888 C 315.402 13.313,308.556 13.118,306.917 13.590 M148.290 33.165 C 149.229 33.250,150.493 33.472,151.099 33.660 C 151.706 33.847,152.400 34.003,152.643 34.007 C 152.885 34.011,153.383 34.131,153.750 34.273 C 154.117 34.415,154.822 34.674,155.317 34.849 C 156.256 35.180,157.904 35.901,158.333 36.168 C 158.471 36.254,158.958 36.520,159.415 36.759 C 159.872 36.998,160.285 37.254,160.332 37.328 C 160.378 37.402,160.650 37.602,160.935 37.773 C 163.105 39.071,166.646 42.333,167.876 44.167 C 168.215 44.671,168.791 45.508,169.156 46.028 C 169.521 46.548,169.869 47.167,169.929 47.405 C 169.988 47.642,170.103 47.877,170.184 47.928 C 170.401 48.062,171.833 51.080,171.833 51.403 C 171.833 51.555,171.975 51.958,172.147 52.298 C 172.320 52.638,172.584 53.517,172.733 54.250 C 172.883 54.983,173.136 55.958,173.294 56.417 C 173.679 57.527,173.745 90.198,173.364 91.500 C 173.244 91.912,172.996 92.958,172.812 93.824 C 172.629 94.690,172.334 95.717,172.156 96.106 C 171.979 96.496,171.833 96.913,171.833 97.033 C 171.834 97.428,169.665 101.780,169.361 101.994 C 169.291 102.043,169.039 102.421,168.801 102.833 C 168.294 103.711,165.369 107.158,164.804 107.542 C 164.591 107.688,164.065 108.131,163.636 108.528 C 162.268 109.793,161.843 110.100,159.583 111.458 C 158.702 111.988,156.824 112.895,156.018 113.180 C 155.524 113.355,155.034 113.569,154.930 113.655 C 154.826 113.742,154.188 113.938,153.512 114.092 C 152.836 114.246,152.043 114.472,151.750 114.594 C 150.417 115.151,142.570 115.323,140.000 114.851 C 134.683 113.875,129.505 111.154,125.330 107.141 C 123.836 105.705,120.833 101.892,120.833 101.431 C 120.833 101.349,120.657 101.049,120.441 100.766 C 120.225 100.482,119.992 100.063,119.923 99.833 C 119.855 99.604,119.675 99.229,119.525 99.000 C 119.131 98.401,118.344 96.260,118.064 95.024 C 117.932 94.441,117.674 93.541,117.492 93.024 C 116.877 91.283,116.517 66.900,116.991 59.161 C 117.200 55.749,118.304 51.515,119.554 49.333 C 119.685 49.104,119.915 48.654,120.066 48.333 C 120.730 46.914,122.489 44.155,123.253 43.333 C 125.457 40.963,128.968 37.833,129.422 37.833 C 129.469 37.833,129.890 37.571,130.356 37.250 C 130.822 36.929,131.276 36.667,131.363 36.667 C 131.451 36.667,131.761 36.488,132.053 36.269 C 132.345 36.051,132.771 35.817,133.000 35.750 C 133.229 35.683,133.642 35.497,133.917 35.337 C 134.192 35.176,134.783 34.956,135.231 34.848 C 135.678 34.739,136.332 34.504,136.682 34.325 C 137.033 34.146,137.531 34.000,137.788 34.000 C 138.046 34.000,138.818 33.844,139.503 33.653 C 141.645 33.058,145.021 32.870,148.290 33.165 M142.750 38.827 C 139.561 39.264,135.262 40.784,133.463 42.111 C 133.173 42.325,132.869 42.500,132.789 42.500 C 132.184 42.500,128.135 46.442,126.794 48.337 C 125.453 50.232,123.667 53.769,123.667 54.530 C 123.667 54.676,123.483 55.348,123.259 56.023 C 122.548 58.167,122.462 60.554,122.542 75.917 C 122.620 90.594,122.592 90.007,123.328 92.583 C 123.433 92.950,123.594 93.550,123.685 93.917 C 123.777 94.283,124.035 94.972,124.259 95.448 C 124.483 95.924,124.667 96.382,124.667 96.467 C 124.667 96.552,124.803 96.801,124.970 97.019 C 125.136 97.238,125.375 97.679,125.501 98.000 C 125.626 98.321,125.871 98.771,126.045 99.000 C 126.220 99.229,126.662 99.829,127.028 100.333 C 130.508 105.122,136.412 108.665,142.051 109.346 C 144.064 109.589,148.521 109.455,149.917 109.109 C 151.967 108.600,153.340 108.158,153.870 107.834 C 154.171 107.651,154.580 107.501,154.779 107.501 C 154.978 107.500,155.358 107.317,155.623 107.094 C 155.889 106.871,156.293 106.641,156.523 106.584 C 156.752 106.526,157.142 106.315,157.388 106.114 C 157.635 105.914,158.141 105.525,158.512 105.250 C 160.799 103.559,164.167 100.054,164.167 99.365 C 164.167 99.270,164.343 98.980,164.559 98.721 C 164.775 98.462,165.041 97.975,165.151 97.638 C 165.261 97.302,165.455 96.940,165.583 96.834 C 165.711 96.728,165.944 96.254,166.101 95.781 C 166.258 95.308,166.524 94.695,166.693 94.419 C 166.861 94.143,166.999 93.764,166.999 93.578 C 167.000 93.392,167.112 92.829,167.249 92.328 C 168.024 89.494,168.014 89.739,167.964 73.545 C 167.921 59.703,167.890 58.179,167.637 57.500 C 167.483 57.087,167.244 56.225,167.107 55.583 C 166.970 54.942,166.666 53.967,166.433 53.417 C 166.199 52.867,166.006 52.316,166.004 52.192 C 166.002 52.069,165.859 51.769,165.686 51.526 C 165.513 51.282,165.249 50.821,165.099 50.500 C 164.259 48.702,162.154 46.147,159.996 44.304 C 158.238 42.803,157.913 42.559,157.381 42.346 C 157.086 42.227,156.767 42.038,156.673 41.924 C 156.274 41.444,152.415 39.782,151.220 39.577 C 150.870 39.516,150.123 39.329,149.559 39.161 C 148.372 38.806,144.345 38.609,142.750 38.827 " stroke="none" fill="#fcfcfc" fill-rule="evenodd"></path></g></svg>