<svg width="84" height="80" viewBox="0 0 84 80" fill="none" xmlns="http://www.w3.org/2000/svg">
<g clip-path="url(#clip0_496_107)">
<path d="M62.4435 14.7755V27.0901L57.6904 22.3369C57.3133 21.9598 56.8965 21.6026 56.5194 21.2553V15.3014C56.5194 9.40709 53.0265 5.89432 47.162 5.89432H36.7923C30.7789 5.89432 27.3455 9.35748 27.3455 15.3907V21.1064C26.9089 21.5232 26.4723 21.9598 26.0258 22.4262L21.5108 26.971V14.8946C21.4512 9.85363 22.6618 6.07293 25.0632 3.66162C27.4646 1.25031 31.2453 0 36.3458 0H47.6383C57.7499 0 62.4435 4.69362 62.4435 14.7755Z" fill="#EFF7FB"/>
<path d="M68.5463 37.4895L52.2824 21.166C48.7001 17.673 45.2171 15.877 41.8532 15.877C38.4892 15.877 35.1055 17.6036 31.6721 21.0072L31.4736 21.2057L31.3545 21.295L20.8261 31.9524L15.3486 37.4597C8.22381 44.7035 8.22381 51.1536 15.3486 58.3974L31.3843 74.6118C34.8971 78.1841 38.4198 80 41.8234 80C45.227 80 48.7696 78.1841 52.4014 74.582L68.5463 58.3974C72.0988 54.8449 73.8849 51.3322 73.8849 47.8988C73.8849 44.4654 72.1087 41.0122 68.5463 37.4895ZM64.1008 54.577L48.5612 70.067C47.7198 71.0209 46.6948 71.7955 45.5474 72.3445C44.4 72.8935 43.1537 73.2056 41.8829 73.2622C40.6113 73.203 39.3644 72.8898 38.2157 72.341C37.067 71.7922 36.0399 71.019 35.1948 70.067L19.8041 54.577C17.6904 52.4634 16.6088 50.2307 16.6088 47.9782C16.6088 45.7256 17.6904 43.4632 19.8041 41.3495L35.1948 25.8C36.0399 24.848 37.067 24.0748 38.2157 23.526C39.3644 22.9772 40.6113 22.664 41.8829 22.6048C44.2248 22.6048 46.4575 23.6964 48.591 25.8L64.071 41.3098C65.005 42.1451 65.7613 43.1598 66.2949 44.2935C66.8285 45.4272 67.1284 46.6567 67.1769 47.9087C67.149 49.1718 66.8615 50.4156 66.3323 51.5628C65.8031 52.71 65.0435 53.736 64.1008 54.577Z" fill="#EFF7FB"/>
<path d="M46.7154 50.4093L55.9836 47.4324L53.6616 41.3595L49.097 43.4036L45.4651 45.0012C45.9008 44.2656 46.1272 43.425 46.12 42.5701L46.1696 32.8256L39.7196 33.1531L40.2257 38.1146L40.7119 42.9869C40.1301 42.0738 39.2445 41.3955 38.2113 41.0717L28.9531 38.0253L27.2562 44.2967L32.1483 45.3485L36.832 46.3409C35.8097 46.6251 34.9163 47.2522 34.3016 48.1171L28.5462 55.9762L33.9444 59.5386L36.4748 55.2022L38.9357 51.0047C38.8859 52.0697 39.2009 53.1199 39.8288 53.9816L45.5246 61.9201L50.5755 57.8516L47.2215 54.1106L43.9667 50.449C44.866 50.7129 45.8241 50.699 46.7154 50.4093Z" fill="#9CD7F5"/>
</g>
<defs>
<clipPath id="clip0_496_107">
<rect width="63.9246" height="80" fill="white" transform="translate(10)"/>
</clipPath>
</defs>
</svg>
