<svg width="1163" height="170" viewBox="0 0 1163 170" fill="none" xmlns="http://www.w3.org/2000/svg">
<path d="M1158.84 85C1158.84 103.045 1155.42 118.397 1148.58 131.055C1141.8 143.714 1132.54 153.382 1120.8 160.062C1109.11 166.687 1095.98 170 1081.38 170C1066.68 170 1053.49 166.661 1041.81 159.981C1030.12 153.302 1020.89 143.633 1014.1 130.974C1007.32 118.316 1003.93 102.991 1003.93 85C1003.93 66.955 1007.32 51.6033 1014.1 38.9449C1020.89 26.2865 1030.12 16.6445 1041.81 10.019C1053.49 3.33967 1066.68 0 1081.38 0C1095.98 0 1109.11 3.33967 1120.8 10.019C1132.54 16.6445 1141.8 26.2865 1148.58 38.9449C1155.42 51.6033 1158.84 66.955 1158.84 85ZM1123.38 85C1123.38 73.3109 1121.63 63.4536 1118.13 55.428C1114.68 47.4018 1109.82 41.3149 1103.51 37.1673C1097.21 33.0196 1089.84 30.9458 1081.38 30.9458C1072.93 30.9458 1065.55 33.0196 1059.25 37.1673C1052.95 41.3149 1048.05 47.4018 1044.55 55.428C1041.11 63.4536 1039.38 73.3109 1039.38 85C1039.38 96.6891 1041.11 106.546 1044.55 114.572C1048.05 122.598 1052.95 128.685 1059.25 132.833C1065.55 136.98 1072.93 139.054 1081.38 139.054C1089.84 139.054 1097.21 136.98 1103.51 132.833C1109.82 128.685 1114.68 122.598 1118.13 114.572C1121.63 106.546 1123.38 96.6891 1123.38 85Z" fill="#4F4F4F"/>
<path d="M859.574 167.738V2.26245H924.834C937.383 2.26245 948.068 4.65947 956.899 9.45354C965.731 14.1937 972.459 20.7922 977.09 29.2491C981.779 37.6522 984.121 47.348 984.121 58.3366C984.121 69.3249 981.747 79.0208 977.01 87.4241C972.273 95.8269 965.407 102.372 956.416 107.058C947.478 111.744 936.656 114.088 923.948 114.088H882.35V86.0503H918.292C925.026 86.0503 930.57 84.8922 934.93 82.5759C939.348 80.206 942.63 76.9473 944.786 72.7993C946.995 68.5982 948.094 63.7771 948.094 58.3366C948.094 52.8423 946.995 48.0483 944.786 43.9545C942.63 39.8068 939.348 36.6018 934.93 34.3395C930.517 32.0232 924.914 30.8651 918.133 30.8651H894.549V167.738H859.574Z" fill="#4F4F4F"/>
<path d="M830.802 2.26245V167.738H795.827V2.26245H830.802Z" fill="#4F4F4F"/>
<path d="M637.605 31.1075V2.26245H773.459V31.1075H722.812V167.738H688.246V31.1075H637.605Z" fill="#4F4F4F"/>
<path d="M625.551 85C625.551 103.045 622.131 118.397 615.291 131.055C608.509 143.714 599.248 153.382 587.506 160.062C575.823 166.687 562.685 170 548.092 170C533.392 170 520.2 166.661 508.516 159.981C496.831 153.302 487.596 143.633 480.812 130.974C474.028 118.316 470.635 102.991 470.635 85C470.635 66.955 474.028 51.6033 480.812 38.9449C487.596 26.2865 496.831 16.6445 508.516 10.019C520.2 3.33967 533.392 0 548.092 0C562.685 0 575.823 3.33967 587.506 10.019C599.248 16.6445 608.509 26.2865 615.291 38.9449C622.131 51.6033 625.551 66.955 625.551 85ZM590.092 85C590.092 73.3109 588.34 63.4536 584.84 55.428C581.394 47.4018 576.524 41.3149 570.22 37.1673C563.922 33.0196 556.546 30.9458 548.092 30.9458C539.637 30.9458 532.261 33.0196 525.962 37.1673C519.662 41.3149 514.762 47.4018 511.262 55.428C507.816 63.4536 506.092 73.3109 506.092 85C506.092 96.6891 507.816 106.546 511.262 114.572C514.762 122.598 519.662 128.685 525.962 132.833C532.261 136.98 539.637 139.054 548.092 139.054C556.546 139.054 563.922 136.98 570.22 132.833C576.524 128.685 581.394 122.598 584.84 114.572C588.34 106.546 590.092 96.6891 590.092 85Z" fill="#4F4F4F"/>
<path d="M410.2 55.751C409.069 51.8188 407.481 48.3444 405.435 45.328C403.389 42.2576 400.885 39.672 397.923 37.5713C395.015 35.4167 391.677 33.7738 387.908 32.6426C384.193 31.5114 380.073 30.9458 375.55 30.9458C367.097 30.9458 359.666 33.0466 353.258 37.2481C346.905 41.4496 341.951 47.5633 338.397 55.5895C334.843 63.5614 333.066 73.3109 333.066 84.8385C333.066 96.3656 334.817 106.169 338.316 114.249C341.816 122.329 346.77 128.497 353.178 132.752C359.585 136.954 367.151 139.054 375.874 139.054C383.789 139.054 390.547 137.654 396.147 134.853C401.8 131.998 406.108 127.985 409.069 122.814C412.084 117.643 413.592 111.529 413.592 104.472L420.7 105.523H378.054V79.1823H447.272V100.029C447.272 114.572 444.203 127.069 438.065 137.519C431.927 147.915 423.473 155.941 412.704 161.597C401.934 167.199 389.604 170 375.712 170C360.205 170 346.582 166.579 334.843 159.738C323.105 152.844 313.951 143.067 307.382 130.409C300.867 117.696 297.609 102.614 297.609 85.1615C297.609 71.749 299.547 59.7911 303.425 49.2871C307.355 38.7294 312.848 29.7877 319.901 22.462C326.955 15.1363 335.167 9.56117 344.535 5.7367C353.905 1.91223 364.055 0 374.985 0C384.354 0 393.077 1.37357 401.154 4.12073C409.231 6.81402 416.392 10.6385 422.638 15.5941C428.938 20.5498 434.081 26.448 438.065 33.289C442.049 40.0761 444.607 47.5633 445.738 55.751H410.2Z" fill="#4F4F4F"/>
<path d="M274.611 85C274.611 103.045 271.192 118.397 264.353 131.055C257.569 143.714 248.307 153.382 236.569 160.062C224.884 166.687 211.746 170 197.154 170C182.454 170 169.262 166.661 157.578 159.981C145.893 153.302 136.659 143.633 129.874 130.974C123.09 118.316 119.698 102.991 119.698 85C119.698 66.955 123.09 51.6033 129.874 38.9449C136.659 26.2865 145.893 16.6445 157.578 10.019C169.262 3.33967 182.454 0 197.154 0C211.746 0 224.884 3.33967 236.569 10.019C248.307 16.6445 257.569 26.2865 264.353 38.9449C271.192 51.6033 274.611 66.955 274.611 85ZM239.154 85C239.154 73.3109 237.404 63.4536 233.904 55.428C230.458 47.4018 225.585 41.3149 219.284 37.1673C212.985 33.0196 205.608 30.9458 197.154 30.9458C188.701 30.9458 181.324 33.0196 175.024 37.1673C168.724 41.3149 163.824 47.4018 160.324 55.428C156.878 63.4536 155.155 73.3109 155.155 85C155.155 96.6891 156.878 106.546 160.324 114.572C163.824 122.598 168.724 128.685 175.024 132.833C181.324 136.98 188.701 139.054 197.154 139.054C205.608 139.054 212.985 136.98 219.284 132.833C225.585 128.685 230.458 122.598 233.904 114.572C237.404 106.546 239.154 96.6891 239.154 85Z" fill="#4F4F4F"/>
<path d="M0 167.738V2.26245H34.9726V138.893H105.887V167.738H0Z" fill="#4F4F4F"/>
</svg>
