<svg width="219" height="32" viewBox="0 0 219 32" fill="none" xmlns="http://www.w3.org/2000/svg">
<path d="M218.217 16C218.217 19.3967 217.573 22.2864 216.285 24.6692C215.008 27.052 213.264 28.872 211.053 30.1293C208.853 31.3764 206.379 32 203.631 32C200.863 32 198.379 31.3714 196.179 30.1141C193.978 28.8568 192.239 27.0368 190.962 24.654C189.684 22.2712 189.046 19.3866 189.046 16C189.046 12.6033 189.684 9.71356 190.962 7.3308C192.239 4.94804 193.978 3.13308 196.179 1.88593C198.379 0.628644 200.863 0 203.631 0C206.379 0 208.853 0.628644 211.053 1.88593C213.264 3.13308 215.008 4.94804 216.285 7.3308C217.573 9.71356 218.217 12.6033 218.217 16ZM211.54 16C211.54 13.7997 211.21 11.9442 210.551 10.4335C209.902 8.92269 208.985 7.77693 207.798 6.9962C206.612 6.21546 205.223 5.8251 203.631 5.8251C202.039 5.8251 200.65 6.21546 199.464 6.9962C198.277 7.77693 197.355 8.92269 196.696 10.4335C196.047 11.9442 195.722 13.7997 195.722 16C195.722 18.2003 196.047 20.0558 196.696 21.5665C197.355 23.0773 198.277 24.2231 199.464 25.0038C200.65 25.7845 202.039 26.1749 203.631 26.1749C205.223 26.1749 206.612 25.7845 207.798 25.0038C208.985 24.2231 209.902 23.0773 210.551 21.5665C211.21 20.0558 211.54 18.2003 211.54 16Z" fill="white"/>
<path d="M161.863 31.5742V0.425873H174.152C176.515 0.425873 178.527 0.877077 180.19 1.77949C181.853 2.67175 183.12 3.91383 183.992 5.50572C184.875 7.08747 185.316 8.91256 185.316 10.981C185.316 13.0494 184.869 14.8745 183.977 16.4563C183.085 18.038 181.792 19.27 180.099 20.1521C178.416 21.0342 176.378 21.4753 173.985 21.4753H166.152V16.1977H172.92C174.188 16.1977 175.232 15.9797 176.053 15.5437C176.885 15.0976 177.503 14.4842 177.909 13.7034C178.325 12.9126 178.532 12.0051 178.532 10.981C178.532 9.94678 178.325 9.04438 177.909 8.27378C177.503 7.49305 176.885 6.88975 176.053 6.4639C175.222 6.0279 174.167 5.8099 172.89 5.8099H168.449V31.5742H161.863Z" fill="white"/>
<path d="M156.445 0.425873V31.5742H149.859V0.425873H156.445Z" fill="white"/>
<path d="M120.065 5.85553V0.425873H145.647V5.85553H136.11V31.5742H129.601V5.85553H120.065Z" fill="white"/>
<path d="M117.795 16C117.795 19.3967 117.151 22.2864 115.863 24.6692C114.586 27.052 112.842 28.872 110.631 30.1293C108.431 31.3764 105.957 32 103.209 32C100.441 32 97.9569 31.3714 95.7566 30.1141C93.5564 28.8568 91.8174 27.0368 90.5399 24.654C89.2623 22.2712 88.6235 19.3866 88.6235 16C88.6235 12.6033 89.2623 9.71356 90.5399 7.3308C91.8174 4.94804 93.5564 3.13308 95.7566 1.88593C97.9569 0.628644 100.441 0 103.209 0C105.957 0 108.431 0.628644 110.631 1.88593C112.842 3.13308 114.586 4.94804 115.863 7.3308C117.151 9.71356 117.795 12.6033 117.795 16ZM111.118 16C111.118 13.7997 110.788 11.9442 110.129 10.4335C109.48 8.92269 108.563 7.77693 107.376 6.9962C106.19 6.21546 104.801 5.8251 103.209 5.8251C101.617 5.8251 100.228 6.21546 99.0418 6.9962C97.8555 7.77693 96.9328 8.92269 96.2737 10.4335C95.6248 11.9442 95.3003 13.7997 95.3003 16C95.3003 18.2003 95.6248 20.0558 96.2737 21.5665C96.9328 23.0773 97.8555 24.2231 99.0418 25.0038C100.228 25.7845 101.617 26.1749 103.209 26.1749C104.801 26.1749 106.19 25.7845 107.376 25.0038C108.563 24.2231 109.48 23.0773 110.129 21.5665C110.788 20.0558 111.118 18.2003 111.118 16Z" fill="white"/>
<path d="M77.2431 10.4943C77.0302 9.75412 76.7311 9.10013 76.3458 8.53232C75.9605 7.95437 75.489 7.46768 74.9314 7.07224C74.3838 6.66667 73.7552 6.35742 73.0454 6.14449C72.3458 5.93156 71.5701 5.8251 70.7184 5.8251C69.1265 5.8251 67.7273 6.22053 66.5207 7.01141C65.3243 7.80228 64.3914 8.9531 63.7222 10.4639C63.053 11.9645 62.7184 13.7997 62.7184 15.9696C62.7184 18.1394 63.048 19.9848 63.707 21.5057C64.3661 23.0266 65.2989 24.1876 66.5055 24.9886C67.7121 25.7795 69.1367 26.1749 70.7793 26.1749C72.2698 26.1749 73.5423 25.9113 74.5968 25.384C75.6614 24.8466 76.4726 24.0913 77.0302 23.1179C77.598 22.1445 77.8819 20.9937 77.8819 19.6654L79.2203 19.8631H71.1899V14.9049H84.2241V18.8289C84.2241 21.5665 83.6462 23.9189 82.4903 25.8859C81.3344 27.8428 79.7425 29.3536 77.7146 30.4183C75.6867 31.4728 73.3648 32 70.7488 32C67.8287 32 65.2634 31.3561 63.053 30.0684C60.8426 28.7706 59.1189 26.9303 57.8819 24.5475C56.6551 22.1546 56.0416 19.3156 56.0416 16.0304C56.0416 13.5057 56.4066 11.2548 57.1367 9.27757C57.8769 7.29024 58.9111 5.6071 60.2393 4.22814C61.5676 2.84918 63.1139 1.79975 64.8781 1.07985C66.6424 0.359949 68.5537 0 70.612 0C72.3762 0 74.0188 0.258555 75.5397 0.775666C77.0606 1.28264 78.4092 2.00254 79.5853 2.93536C80.7717 3.86819 81.74 4.97845 82.4903 6.26616C83.2406 7.54373 83.7222 8.9531 83.9352 10.4943H77.2431Z" fill="white"/>
<path d="M51.7109 16C51.7109 19.3967 51.0671 22.2864 49.7793 24.6692C48.5018 27.052 46.7578 28.872 44.5474 30.1293C42.3471 31.3764 39.8731 32 37.1253 32C34.3573 32 31.8731 31.3714 29.6729 30.1141C27.4726 28.8568 25.7337 27.0368 24.4561 24.654C23.1786 22.2712 22.5398 19.3866 22.5398 16C22.5398 12.6033 23.1786 9.71356 24.4561 7.3308C25.7337 4.94804 27.4726 3.13308 29.6729 1.88593C31.8731 0.628644 34.3573 0 37.1253 0C39.8731 0 42.3471 0.628644 44.5474 1.88593C46.7578 3.13308 48.5018 4.94804 49.7793 7.3308C51.0671 9.71356 51.7109 12.6033 51.7109 16ZM45.0341 16C45.0341 13.7997 44.7046 11.9442 44.0455 10.4335C43.3966 8.92269 42.479 7.77693 41.2926 6.9962C40.1063 6.21546 38.7172 5.8251 37.1253 5.8251C35.5335 5.8251 34.1444 6.21546 32.958 6.9962C31.7717 7.77693 30.849 8.92269 30.19 10.4335C29.5411 11.9442 29.2166 13.7997 29.2166 16C29.2166 18.2003 29.5411 20.0558 30.19 21.5665C30.849 23.0773 31.7717 24.2231 32.958 25.0038C34.1444 25.7845 35.5335 26.1749 37.1253 26.1749C38.7172 26.1749 40.1063 25.7845 41.2926 25.0038C42.479 24.2231 43.3966 23.0773 44.0455 21.5665C44.7046 20.0558 45.0341 18.2003 45.0341 16Z" fill="white"/>
<path d="M0 31.5742V0.425873H6.58555V26.1445H19.9392V31.5742H0Z" fill="white"/>
</svg>
