<svg id="svg" version="1.1" xmlns="http://www.w3.org/2000/svg" xmlns:xlink="http://www.w3.org/1999/xlink" width="400" height="387.2791519434629" viewBox="0, 0, 400,387.2791519434629"><g id="svgg"><path id="path0" d="M362.403 113.157 C 352.903 114.949,341.860 125.610,341.860 132.990 C 341.860 136.927,340.638 137.591,335.053 136.687 C 301.788 131.303,279.281 165.056,297.487 193.023 C 299.265 195.755,304.617 201.112,306.583 202.129 C 308.738 203.243,308.716 202.527,306.552 201.079 C 303.615 199.114,299.034 194.014,296.874 190.305 C 281.152 163.313,305.211 131.116,335.981 137.970 C 340.620 139.003,340.647 139.018,340.883 140.638 C 341.585 145.456,342.045 147.049,343.695 150.388 C 346.909 156.890,353.146 162.222,359.779 164.138 C 361.860 164.739,362.055 164.900,362.878 166.692 C 363.936 168.998,364.160 169.026,366.047 167.093 C 367.540 165.564,368.972 164.993,372.481 164.525 C 377.136 163.905,381.633 161.359,386.327 156.686 C 388.735 154.288,390.988 152.326,391.333 152.326 C 391.847 152.326,391.915 152.047,391.712 150.777 C 391.539 149.699,391.696 148.571,392.228 147.056 C 398.664 128.746,381.739 109.510,362.403 113.157 M374.163 124.936 C 387.308 132.115,385.441 150.176,371.124 154.336 C 364.452 156.274,356.784 152.946,353.600 146.730 C 353.266 146.077,352.849 145.449,352.674 145.335 C 351.904 144.834,351.032 138.648,351.490 136.934 C 351.736 136.014,351.938 134.911,351.938 134.485 C 351.938 131.889,356.056 126.942,359.744 125.107 C 363.600 123.189,363.269 123.261,367.636 123.381 C 371.285 123.481,371.667 123.572,374.163 124.936 M324.068 149.675 C 306.053 152.251,298.349 174.774,310.902 188.164 C 315.364 192.923,325.964 197.034,328.146 194.851 C 328.677 194.321,327.924 194.091,324.534 193.752 C 303.811 191.680,298.328 163.539,316.636 153.221 C 329.088 146.204,345.045 152.676,348.810 166.271 C 351.644 176.507,347.092 187.130,338.005 191.484 C 334.332 193.244,333.756 193.798,335.601 193.798 C 336.985 193.798,341.375 190.972,343.992 188.395 C 352.703 179.820,352.845 165.986,344.314 156.939 C 338.854 151.149,331.704 148.584,324.068 149.675 M194.767 175.474 C 194.341 175.579,193.815 175.808,193.598 175.983 C 193.381 176.158,191.550 176.673,189.528 177.126 C 187.507 177.579,184.981 178.202,183.915 178.510 C 181.771 179.128,178.259 180.044,175.581 180.682 C 174.622 180.910,173.637 181.258,173.391 181.455 C 173.146 181.652,171.850 181.990,170.511 182.206 C 166.955 182.778,162.403 185.851,162.403 187.678 C 162.403 189.481,165.211 190.531,167.177 189.462 C 167.642 189.209,168.940 188.875,170.061 188.720 C 171.960 188.457,175.518 187.055,175.977 186.388 C 176.088 186.227,176.611 185.902,177.140 185.667 C 177.668 185.431,178.537 184.986,179.070 184.679 C 180.187 184.035,181.783 183.927,181.783 184.496 C 181.783 184.709,181.647 184.884,181.482 184.884 C 181.316 184.884,180.301 185.545,179.226 186.353 C 178.151 187.161,175.321 188.674,172.938 189.716 C 166.880 192.364,167.126 193.325,173.952 193.685 C 182.499 194.136,187.491 192.482,188.148 188.979 C 188.275 188.302,188.726 187.066,189.151 186.234 C 189.575 185.401,189.922 184.510,189.922 184.254 C 189.922 183.096,196.736 178.634,199.296 178.116 C 200.456 177.881,201.075 176.603,200.414 175.807 C 199.991 175.297,196.361 175.083,194.767 175.474 M204.624 182.066 C 201.918 183.929,199.714 186.980,196.716 193.016 C 195.288 195.890,193.641 198.942,193.056 199.799 C 192.472 200.656,191.527 202.035,190.958 202.864 C 189.460 205.045,189.569 205.814,191.376 205.812 C 195.007 205.808,199.059 201.557,202.748 193.883 C 204.256 190.746,205.651 187.917,205.847 187.597 C 206.043 187.277,206.390 186.580,206.617 186.047 C 206.845 185.515,207.293 184.789,207.614 184.434 C 209.388 182.474,206.897 180.501,204.624 182.066 M206.202 183.346 C 206.202 183.566,205.614 184.830,204.896 186.156 C 204.179 187.481,202.845 189.961,201.934 191.667 C 198.893 197.355,197.214 199.984,195.865 201.168 C 193.799 202.982,193.302 201.771,195.210 199.576 C 195.839 198.853,198.062 194.584,198.062 194.101 C 198.062 192.838,202.224 185.474,203.607 184.291 C 205.167 182.955,206.202 182.579,206.202 183.346 M209.994 189.244 C 208.246 191.561,208.068 193.548,209.422 195.640 C 209.643 195.981,209.455 196.124,208.787 196.124 C 206.624 196.124,204.742 199.799,206.448 200.691 C 207.433 201.206,226.269 202.042,233.915 201.910 C 237.326 201.851,241.173 201.942,242.464 202.112 C 245.078 202.455,246.124 201.919,246.124 200.234 C 246.124 198.697,244.536 197.842,237.403 195.537 C 233.566 194.297,228.626 192.701,226.426 191.990 C 224.226 191.279,222.196 190.698,221.916 190.698 C 221.636 190.698,220.907 190.437,220.296 190.119 C 219.686 189.800,218.880 189.539,218.506 189.537 C 218.133 189.536,217.176 189.186,216.380 188.760 C 213.972 187.469,211.173 187.681,209.994 189.244 M212.888 196.010 C 212.408 196.102,211.623 196.102,211.143 196.010 C 210.664 195.918,211.056 195.842,212.016 195.842 C 212.975 195.842,213.367 195.918,212.888 196.010 M205.427 207.025 C 204.063 207.568,202.761 208.868,201.903 210.542 C 201.499 211.330,200.425 212.489,199.518 213.117 C 196.540 215.178,194.830 217.999,196.088 218.776 C 196.954 219.312,198.062 218.589,198.062 217.490 C 198.062 216.233,198.518 215.611,200.526 214.127 C 201.436 213.455,202.406 212.211,203.003 210.951 C 204.510 207.767,207.965 206.711,210.940 208.526 C 212.473 209.460,213.493 209.483,218.023 208.686 C 220.648 208.224,222.635 208.139,226.046 208.341 L 230.581 208.610 229.535 209.463 C 228.959 209.932,226.333 211.397,223.700 212.720 C 221.066 214.042,218.470 215.471,217.930 215.895 C 216.847 216.748,215.690 216.866,214.153 216.281 C 213.360 215.980,212.809 216.064,211.624 216.669 C 210.547 217.218,209.341 217.442,207.457 217.442 C 203.895 217.442,203.055 218.208,205.901 218.860 C 208.149 219.376,209.160 219.245,211.330 218.158 C 212.468 217.588,213.235 217.487,214.928 217.686 C 216.932 217.922,217.181 217.857,218.564 216.746 C 219.381 216.090,222.365 214.578,225.195 213.386 C 230.612 211.105,234.611 209.196,236.745 207.872 C 238.505 206.779,237.688 206.594,231.202 206.618 C 226.290 206.637,224.925 206.744,216.829 207.749 C 213.117 208.210,212.829 208.193,211.063 207.412 C 209.083 206.536,207.009 206.394,205.427 207.025 M199.483 218.475 C 199.010 218.948,199.216 220.069,199.819 220.300 C 200.317 220.491,201.163 219.287,201.163 218.386 C 201.163 218.116,199.768 218.191,199.483 218.475 M181.650 226.078 C 180.929 226.778,180.031 227.956,179.653 228.695 C 178.849 230.267,175.347 234.172,168.153 241.519 C 165.310 244.422,159.607 250.309,155.480 254.600 C 147.074 263.341,147.628 263.038,143.608 261.079 C 139.063 258.863,137.411 258.461,131.951 258.240 C 122.387 257.853,118.209 259.252,109.256 265.838 C 107.938 266.808,106.963 266.286,102.907 262.446 C 101.841 261.437,99.922 259.768,98.643 258.737 C 97.364 257.706,96.231 256.757,96.124 256.628 C 96.017 256.499,93.488 254.307,90.504 251.757 C 87.519 249.207,83.595 245.796,81.783 244.176 C 76.115 239.110,66.727 231.395,66.229 231.395 C 65.676 231.395,58.547 238.764,58.541 239.341 C 58.537 239.777,63.058 243.883,70.708 250.388 C 72.588 251.986,77.627 256.347,81.904 260.078 C 86.182 263.808,91.175 268.135,93.000 269.693 C 102.023 277.398,101.656 276.856,100.395 280.600 C 94.149 299.138,109.396 318.980,130.039 319.179 C 136.902 319.245,137.597 319.089,137.597 317.488 C 137.597 315.324,139.179 314.630,140.729 316.115 L 141.772 317.114 143.851 316.225 C 145.598 315.479,150.015 312.293,152.368 310.083 C 155.642 307.008,158.681 301.154,160.452 294.514 C 162.035 288.577,160.038 278.183,156.219 272.479 C 153.454 268.350,153.045 269.148,163.304 258.661 C 168.276 253.577,173.988 247.683,175.998 245.561 C 178.007 243.439,181.962 239.367,184.787 236.512 C 190.901 230.332,190.911 230.301,187.750 227.035 C 185.082 224.278,183.723 224.065,181.650 226.078 M237.781 245.493 C 232.360 247.135,222.868 254.029,222.868 256.326 C 222.868 256.510,222.520 257.104,222.094 257.645 C 220.377 259.827,218.844 266.103,218.926 270.614 C 219.226 287.117,233.040 298.435,249.684 295.816 C 253.619 295.197,253.777 295.320,258.527 302.704 C 259.060 303.532,260.594 305.923,261.935 308.016 C 263.277 310.109,265.835 313.959,267.620 316.571 C 269.406 319.183,270.925 321.451,270.996 321.610 C 271.067 321.769,271.953 323.151,272.965 324.680 C 275.227 328.097,275.231 328.360,273.055 331.537 C 271.353 334.023,269.439 338.416,268.600 341.762 C 267.751 345.153,268.976 344.963,248.086 344.949 C 226.991 344.935,228.799 345.273,227.151 341.029 C 221.588 326.704,207.889 319.287,193.628 322.880 C 189.261 323.981,178.447 330.504,176.935 332.950 C 176.584 333.519,173.970 333.414,172.105 332.756 C 170.655 332.245,170.374 332.245,169.644 332.756 C 169.191 333.074,168.112 333.333,167.248 333.333 C 166.253 333.333,164.651 333.825,162.884 334.671 L 160.091 336.010 154.665 335.737 C 148.782 335.442,147.433 335.736,148.306 337.123 C 148.661 337.687,149.486 337.807,153.638 337.899 C 158.602 338.009,160.106 337.749,162.994 336.284 C 163.821 335.864,165.780 335.638,169.642 335.514 C 175.663 335.322,175.872 335.257,178.853 332.627 C 190.471 322.377,201.469 320.181,212.967 325.816 C 218.688 328.620,226.354 337.537,226.356 341.391 C 226.357 342.477,227.991 345.012,228.917 345.364 C 229.493 345.584,237.682 345.736,248.849 345.736 C 270.341 345.736,268.836 345.488,268.360 348.962 C 268.229 349.919,268.339 351.605,268.604 352.712 C 269.443 356.206,270.790 355.979,247.914 356.202 C 226.343 356.412,227.239 356.311,226.353 358.637 C 221.759 370.694,213.363 376.522,200.581 376.525 C 185.675 376.528,174.910 366.997,173.722 352.744 C 173.366 348.475,172.527 348.009,172.769 352.216 C 174.369 379.954,213.450 387.398,225.568 362.273 C 226.659 360.013,227.818 357.896,228.144 357.570 C 228.661 357.053,231.245 356.977,248.223 356.977 C 270.580 356.977,268.157 356.501,269.947 361.240 C 275.230 375.225,285.699 382.038,301.357 381.678 L 309.109 381.500 312.747 380.037 C 320.048 377.101,326.293 371.944,329.408 366.279 C 338.096 350.475,335.103 333.867,321.609 323.003 C 318.469 320.476,318.455 320.378,320.566 315.477 C 321.431 313.466,322.915 309.816,323.863 307.364 C 324.811 304.913,325.934 302.161,326.359 301.249 C 327.719 298.332,327.487 297.998,323.480 297.104 C 322.857 296.965,320.615 296.165,318.499 295.326 C 316.383 294.487,314.533 293.874,314.388 293.963 C 313.962 294.227,312.205 298.244,309.883 304.264 C 305.119 316.617,305.441 316.215,300.302 316.226 C 296.443 316.234,294.246 316.611,290.405 317.924 C 286.228 319.352,288.199 321.600,271.378 296.229 C 265.097 286.754,264.753 285.923,266.517 284.460 C 267.071 284.000,268.104 281.956,269.626 278.306 C 271.010 274.988,270.681 264.919,269.066 261.175 C 263.634 248.583,250.055 241.776,237.781 245.493 M251.600 256.103 C 261.730 261.096,263.939 273.504,256.154 281.686 C 243.665 294.813,223.023 279.876,230.835 263.364 C 234.346 255.941,244.247 252.479,251.600 256.103 M133.940 270.181 C 142.449 271.711,150.474 281.946,149.027 289.420 C 148.953 289.803,148.675 291.236,148.410 292.604 C 147.932 295.072,147.318 296.420,145.239 299.560 C 144.004 301.425,141.523 303.876,140.871 303.876 C 140.628 303.876,140.115 304.225,139.729 304.651 C 139.343 305.078,138.836 305.427,138.603 305.429 C 138.369 305.430,137.655 305.726,137.016 306.087 C 136.082 306.614,134.781 306.747,130.426 306.763 C 124.653 306.784,124.554 306.759,119.828 304.088 C 117.649 302.856,114.815 299.446,112.728 295.543 C 110.899 292.124,110.985 284.758,112.902 280.620 C 114.812 276.499,117.216 274.159,122.481 271.300 C 124.955 269.955,129.966 269.466,133.940 270.181 M173.008 314.132 C 172.169 314.720,171.604 317.164,171.977 318.592 C 172.201 319.446,175.317 321.114,176.117 320.808 C 177.326 320.344,176.666 316.147,175.101 314.343 C 174.296 313.415,174.064 313.392,173.008 314.132 M79.167 329.262 C 76.845 330.930,78.782 332.086,84.109 332.211 L 88.178 332.307 88.052 331.177 C 87.856 329.415,87.309 329.032,85.115 329.122 C 84.029 329.166,82.442 329.075,81.589 328.919 C 80.431 328.707,79.818 328.794,79.167 329.262 M110.678 329.512 C 108.861 330.941,110.093 331.395,115.784 331.395 C 120.838 331.395,121.653 331.079,120.660 329.502 C 119.963 328.395,112.087 328.403,110.678 329.512 M308.201 330.232 C 322.737 335.537,326.447 354.370,315.037 364.933 C 305.698 373.580,292.248 372.049,284.300 361.434 C 272.246 345.335,289.143 323.277,308.201 330.232 M196.924 330.685 C 178.799 333.274,175.203 359.462,191.860 367.563 C 211.888 377.304,230.132 351.875,214.424 336.115 C 209.636 331.312,204.245 329.639,196.924 330.685 M55.334 331.424 C 53.605 332.431,53.741 333.092,56.586 337.512 C 58.080 339.833,59.302 341.931,59.302 342.174 C 59.302 344.134,67.529 344.744,89.932 344.446 C 110.007 344.179,129.498 343.322,128.908 342.732 C 128.788 342.612,128.866 342.300,129.082 342.039 C 129.383 341.677,128.860 341.499,126.869 341.286 C 123.547 340.930,122.481 340.518,122.481 339.590 C 122.481 338.759,123.523 338.597,131.876 338.133 C 136.607 337.870,137.806 337.426,136.861 336.287 C 136.376 335.703,136.825 334.004,137.589 333.532 C 138.074 333.232,137.720 331.739,137.060 331.304 C 136.529 330.955,130.975 330.926,128.939 331.262 C 127.164 331.555,126.285 332.896,127.056 334.132 C 128.175 335.923,126.613 336.787,123.121 336.308 C 121.268 336.054,120.736 336.298,120.736 337.403 C 120.736 338.537,111.798 338.385,110.823 337.235 C 110.294 336.611,109.499 336.495,104.952 336.377 C 99.272 336.229,97.897 335.737,98.129 333.935 C 98.337 332.326,97.826 332.120,94.249 332.370 C 89.246 332.719,89.129 332.759,89.386 334.043 C 89.551 334.866,89.344 335.439,88.537 336.398 L 87.470 337.666 83.643 337.534 C 80.935 337.442,79.720 337.248,79.488 336.872 C 79.297 336.563,78.375 336.307,77.274 336.259 C 75.656 336.188,72.719 335.247,66.279 332.734 C 65.533 332.443,63.767 332.197,62.355 332.188 C 60.943 332.178,59.046 331.909,58.140 331.589 C 56.219 330.911,56.214 330.911,55.334 331.424 M206.761 332.163 C 226.596 338.987,221.693 368.621,200.733 368.602 C 179.556 368.582,174.826 338.699,194.961 332.132 C 198.016 331.136,203.820 331.151,206.761 332.163 " stroke="none" fill="#ffffff" fill-rule="evenodd"></path><path id="path1" d="M215.116 149.869 C 205.699 151.338,198.256 154.611,190.623 160.637 C 188.172 162.573,181.132 171.106,181.002 172.300 C 180.809 174.061,180.691 174.031,187.803 174.031 C 193.127 174.031,194.911 174.164,196.040 174.643 C 198.422 175.655,199.886 175.460,201.494 173.916 C 213.309 162.580,232.656 164.694,243.726 178.530 C 255.354 193.063,247.253 216.465,228.487 222.551 C 222.020 224.648,206.783 222.693,206.783 219.767 C 206.783 219.145,206.031 218.676,204.963 218.632 C 204.602 218.617,203.643 219.214,202.832 219.959 C 200.931 221.705,199.762 221.705,197.674 219.961 C 195.703 218.314,195.912 218.311,195.110 220.002 C 194.384 221.531,192.337 222.649,189.147 223.257 C 184.518 224.140,184.999 225.185,192.829 231.252 C 212.303 246.342,242.382 242.212,256.718 222.481 C 260.851 216.792,260.357 216.804,271.512 222.110 C 272.791 222.718,274.709 223.558,275.775 223.975 C 278.868 225.187,282.938 226.927,285.643 228.196 C 287.020 228.842,288.329 229.299,288.550 229.211 C 289.161 228.970,293.893 219.024,293.672 218.447 C 293.492 217.976,291.765 217.174,282.264 213.144 C 280.187 212.263,276.570 210.705,274.225 209.681 C 271.880 208.657,269.113 207.498,268.077 207.107 C 265.690 206.206,264.939 205.148,265.302 203.200 C 270.774 173.842,243.978 145.366,215.116 149.869 M391.960 152.144 C 390.776 152.494,389.354 153.645,386.175 156.827 C 381.586 161.420,377.026 163.955,372.287 164.549 C 367.712 165.122,365.288 166.890,361.685 172.282 C 357.453 178.617,353.920 187.947,353.858 192.951 C 353.849 193.737,353.617 194.903,353.343 195.543 L 352.845 196.705 356.857 198.324 C 361.327 200.127,365.016 202.091,367.521 204.001 C 372.095 207.489,372.340 207.407,371.736 202.603 C 369.913 188.119,379.689 173.507,393.687 169.791 C 396.375 169.078,396.512 168.635,396.512 160.659 C 396.512 151.837,396.033 150.942,391.960 152.144 M208.636 183.729 C 208.161 183.920,207.659 184.561,207.516 185.158 C 207.374 185.753,207.128 186.415,206.971 186.628 C 206.813 186.841,206.555 187.452,206.397 187.984 C 206.238 188.517,205.432 190.403,204.605 192.174 C 203.778 193.945,203.101 195.466,203.101 195.554 C 203.101 196.400,198.878 202.553,197.578 203.600 C 194.230 206.296,189.672 208.114,185.614 208.371 C 183.613 208.497,181.279 208.852,180.426 209.159 C 179.506 209.491,176.279 209.846,172.481 210.033 L 166.085 210.349 174.732 210.407 C 193.180 210.531,199.293 208.792,203.887 202.116 C 205.312 200.045,207.570 195.150,208.528 192.054 C 209.465 189.028,210.850 186.947,212.432 186.187 C 215.773 184.583,212.223 182.285,208.636 183.729 M385.908 225.492 C 385.807 225.656,386.062 226.746,386.476 227.915 C 388.089 232.467,389.524 238.900,390.018 243.798 C 390.106 244.661,390.362 244.806,392.363 245.124 C 395.647 245.644,395.622 245.702,395.828 237.231 C 396.026 229.082,395.982 228.955,392.553 227.929 C 391.639 227.655,389.894 226.928,388.674 226.313 C 386.232 225.081,386.173 225.063,385.908 225.492 M93.542 328.969 C 87.484 329.260,88.910 330.993,95.214 331.002 L 99.536 331.008 100.336 332.364 L 101.137 333.721 104.800 333.721 C 109.090 333.721,109.535 333.594,110.276 332.161 C 111.021 330.721,110.703 330.620,105.415 330.620 C 101.667 330.620,101.003 330.513,99.381 329.651 C 98.379 329.118,97.280 328.717,96.938 328.759 C 96.597 328.802,95.069 328.896,93.542 328.969 M79.289 333.945 C 77.046 336.188,77.473 336.434,83.604 336.434 C 89.359 336.434,90.071 336.111,88.354 334.283 C 87.225 333.081,80.406 332.827,79.289 333.945 M137.235 333.902 C 135.451 336.148,136.327 336.569,142.578 336.465 C 148.030 336.375,150.052 335.941,148.608 335.170 C 148.201 334.953,147.545 334.494,147.149 334.151 C 146.301 333.415,137.791 333.201,137.235 333.902 M110.659 335.659 C 109.960 336.431,109.982 336.434,115.615 336.434 C 121.101 336.434,122.647 336.106,121.271 335.234 C 120.071 334.474,111.417 334.821,110.659 335.659 M58.316 343.975 C 56.577 345.714,57.578 347.587,60.686 348.411 C 61.787 348.703,78.636 348.801,116.500 348.736 C 159.379 348.663,170.914 348.745,171.585 349.129 C 172.832 349.842,173.043 347.166,171.877 345.428 C 171.834 345.366,149.933 345.319,123.206 345.326 C 92.777 345.333,73.743 345.193,72.287 344.952 C 71.008 344.740,68.122 344.419,65.875 344.239 C 63.628 344.059,61.415 343.712,60.959 343.468 C 59.770 342.831,59.385 342.905,58.316 343.975 " stroke="none" fill="#ffffff" fill-rule="evenodd"></path><path id="path2" d="M105.426 5.477 C 104.680 5.929,102.936 7.192,101.550 8.282 C 100.165 9.373,98.857 10.392,98.643 10.546 C 98.430 10.700,97.645 11.323,96.899 11.930 C 96.153 12.537,93.720 14.418,91.493 16.110 C 89.266 17.802,85.485 21.070,83.090 23.372 C 77.991 28.276,77.860 28.384,72.439 32.171 C 70.150 33.769,66.404 36.647,64.114 38.566 C 60.167 41.872,58.982 42.927,51.918 49.419 C 33.165 66.654,32.436 67.061,29.682 61.859 C 27.365 57.482,23.668 53.727,15.891 47.853 C 14.506 46.806,13.023 45.619,12.597 45.214 C 11.323 44.006,4.663 39.005,3.368 38.285 C 1.367 37.172,0.830 38.872,2.616 40.663 C 3.203 41.251,4.324 42.502,5.109 43.443 C 5.894 44.385,6.940 45.619,7.435 46.186 C 7.929 46.753,8.944 47.969,9.690 48.888 C 12.196 51.974,17.896 58.259,24.504 65.224 C 26.086 66.891,27.067 68.392,27.929 70.463 L 29.138 73.365 27.577 78.640 C 26.719 81.541,25.821 84.700,25.582 85.659 C 24.873 88.505,22.527 96.035,21.055 100.194 C 20.300 102.326,19.076 105.988,18.336 108.333 C 17.596 110.678,16.675 113.382,16.289 114.341 C 15.904 115.300,15.469 116.696,15.324 117.442 C 15.179 118.188,14.637 120.142,14.119 121.785 C 13.602 123.427,13.178 125.098,13.178 125.498 C 13.178 126.180,12.709 127.914,10.842 134.136 C 10.421 135.537,10.078 137.246,10.078 137.934 C 10.078 138.623,9.839 139.657,9.546 140.232 C 9.254 140.808,8.895 142.103,8.749 143.111 C 8.602 144.119,8.330 145.037,8.144 145.152 C 7.578 145.502,7.212 149.615,7.704 150.107 C 8.026 150.430,8.140 150.296,8.142 149.593 C 8.143 149.071,8.381 148.189,8.671 147.634 C 8.961 147.078,9.423 145.683,9.698 144.533 C 9.972 143.383,10.324 142.180,10.478 141.860 C 10.951 140.883,14.725 129.533,16.150 124.806 C 19.076 115.095,23.705 101.333,27.297 91.667 C 28.643 88.043,30.394 83.305,31.188 81.138 C 32.811 76.704,33.939 75.256,35.230 75.947 C 36.228 76.481,36.610 77.886,36.270 79.769 C 35.860 82.041,34.399 111.561,34.291 119.767 C 34.256 122.432,34.024 134.001,33.776 145.475 C 33.528 156.950,33.418 166.489,33.532 166.674 C 33.981 167.401,32.832 188.938,32.300 189.762 C 32.012 190.206,30.520 191.253,28.984 192.087 C 10.988 201.863,9.502 226.583,26.163 239.009 C 31.661 243.111,39.847 245.200,45.784 244.017 C 65.215 240.145,75.002 221.565,66.824 204.070 C 63.594 197.161,57.236 192.103,48.506 189.500 C 45.704 188.664,45.817 189.426,45.531 169.380 C 45.390 159.467,45.114 149.089,44.919 146.318 C 44.723 143.547,44.373 135.349,44.140 128.101 C 43.557 109.956,43.571 110.375,43.099 98.643 C 42.867 92.888,42.491 86.646,42.263 84.772 C 41.725 80.345,42.377 79.171,45.210 79.471 C 49.816 79.957,51.638 77.268,49.731 72.797 C 47.789 68.246,47.115 67.817,44.411 69.413 C 42.915 70.296,41.165 70.179,40.112 69.127 C 39.010 68.024,39.448 67.163,41.856 65.700 C 46.394 62.944,48.968 60.612,66.085 43.754 C 70.562 39.345,74.807 35.390,75.518 34.965 C 76.230 34.540,79.631 31.498,83.076 28.204 C 89.153 22.397,91.181 20.586,97.089 15.698 C 107.367 7.193,107.982 6.581,107.382 5.459 C 106.861 4.485,107.065 4.483,105.426 5.477 M157.248 197.578 C 154.713 202.898,154.563 207.463,156.862 209.367 C 158.943 211.090,182.602 209.714,181.910 207.910 C 181.770 207.546,182.693 206.381,184.481 204.665 L 187.271 201.989 187.000 199.735 C 186.470 195.323,183.949 194.824,180.071 198.363 L 178.680 199.633 178.068 198.351 C 177.259 196.655,175.865 196.200,169.380 195.518 C 166.502 195.216,163.260 194.705,162.175 194.383 C 159.171 193.492,159.205 193.470,157.248 197.578 M333.267 193.994 C 333.160 194.101,331.706 194.362,330.037 194.574 C 328.368 194.786,326.726 195.200,326.389 195.495 C 326.051 195.790,324.031 196.603,321.899 197.302 C 318.072 198.555,314.270 200.248,311.628 201.875 C 310.882 202.334,309.704 202.711,309.012 202.712 C 307.892 202.713,307.752 202.834,307.752 203.792 C 307.752 204.584,307.437 205.057,306.572 205.569 C 304.647 206.706,298.917 212.397,296.862 215.213 C 295.812 216.652,294.693 217.829,294.376 217.829 C 294.058 217.829,293.798 218.118,293.798 218.470 C 293.798 219.123,289.230 228.717,288.751 229.070 C 288.606 229.176,288.489 229.874,288.490 230.620 C 288.490 231.366,288.028 234.027,287.463 236.532 C 282.851 256.959,294.412 282.640,311.978 290.991 C 312.704 291.336,313.575 292.102,313.915 292.693 C 314.565 293.827,320.449 296.441,324.286 297.300 C 325.280 297.523,326.349 297.849,326.662 298.024 C 327.001 298.213,327.700 298.107,328.398 297.759 C 329.387 297.265,330.113 297.243,333.136 297.615 C 339.947 298.452,348.094 297.276,356.495 294.243 C 374.693 287.674,389.090 267.640,389.141 248.814 C 389.145 247.588,389.381 246.340,389.690 245.917 C 390.264 245.132,390.247 244.826,389.303 238.900 C 388.751 235.438,387.099 229.148,386.395 227.834 C 386.200 227.470,386.012 226.684,385.977 226.086 C 385.941 225.489,385.450 224.477,384.884 223.837 C 384.318 223.198,383.138 221.453,382.261 219.961 C 379.505 215.273,372.857 207.289,370.784 206.177 C 370.020 205.768,368.599 204.825,367.626 204.082 C 361.117 199.114,350.855 195.443,342.442 195.073 C 339.642 194.950,337.374 194.656,336.744 194.334 C 335.718 193.809,333.654 193.607,333.267 193.994 M45.814 197.714 C 51.682 198.933,56.662 202.888,59.429 208.527 L 61.047 211.822 61.047 216.473 L 61.047 221.124 59.447 224.419 C 51.376 241.036,27.925 238.637,23.455 220.736 C 20.204 207.719,32.590 194.965,45.814 197.714 M345.925 215.288 C 365.150 219.560,375.690 241.776,367.176 260.078 C 355.600 284.963,320.043 284.795,308.797 259.802 C 297.720 235.187,319.260 209.361,345.925 215.288 M83.457 315.535 C 83.197 315.796,83.099 316.536,83.224 317.307 C 83.362 318.154,83.192 319.180,82.752 320.155 C 82.156 321.477,82.133 321.841,82.578 322.915 C 83.235 324.501,83.082 327.114,82.281 327.999 C 81.380 328.995,81.897 329.247,84.671 329.164 C 86.229 329.118,87.268 329.265,87.502 329.565 C 88.160 330.407,88.335 331.853,87.869 332.600 C 87.486 333.213,87.588 333.495,88.522 334.396 L 89.630 335.465 89.399 334.210 C 89.129 332.739,89.151 332.730,94.131 332.376 C 97.558 332.132,98.511 332.434,98.190 333.661 C 97.528 336.193,108.244 337.928,110.641 335.676 C 111.474 334.893,111.857 334.846,116.426 334.958 L 121.319 335.078 121.313 334.109 C 121.296 331.361,121.368 331.395,115.652 331.395 C 112.453 331.395,110.465 331.544,110.465 331.783 C 110.465 333.174,108.930 333.721,105.026 333.721 L 101.137 333.721 100.336 332.364 L 99.536 331.008 95.214 331.002 C 90.526 330.995,89.437 330.703,90.286 329.681 C 90.724 329.152,90.662 329.070,89.828 329.070 C 86.978 329.070,85.538 325.961,86.022 320.853 C 86.464 316.184,85.274 313.718,83.457 315.535 M138.184 315.885 C 137.513 316.627,137.499 318.515,138.136 322.287 C 138.208 322.713,137.942 323.897,137.545 324.917 C 136.396 327.865,136.541 331.310,137.826 331.633 C 139.660 332.093,140.495 330.732,140.556 327.183 C 140.588 325.342,140.835 323.721,141.188 323.048 C 141.710 322.052,141.701 321.784,141.101 320.370 C 140.634 319.268,140.529 318.456,140.748 317.653 C 141.304 315.617,139.532 314.396,138.184 315.885 M62.403 321.705 C 61.972 321.984,62.202 322.083,63.298 322.087 C 64.185 322.091,64.679 321.938,64.535 321.705 C 64.232 321.216,63.161 321.216,62.403 321.705 M159.884 321.705 C 159.752 321.919,160.014 322.093,160.465 322.093 C 160.917 322.093,161.178 321.919,161.047 321.705 C 160.915 321.492,160.653 321.318,160.465 321.318 C 160.277 321.318,160.015 321.492,159.884 321.705 M149.031 331.944 C 144.958 333.809,146.201 334.966,152.491 335.164 C 157.498 335.321,159.330 334.403,158.003 332.400 C 157.321 331.371,150.987 331.049,149.031 331.944 M140.795 333.611 C 141.381 333.700,142.340 333.700,142.926 333.611 C 143.513 333.522,143.033 333.449,141.860 333.449 C 140.688 333.449,140.208 333.522,140.795 333.611 " stroke="none" fill="#ffffff" fill-rule="evenodd"></path><path id="path3" d="M318.247 138.226 C 292.342 145.102,283.311 177.302,301.825 196.783 C 307.012 202.241,309.192 203.374,311.628 201.876 C 314.286 200.240,317.584 198.754,321.404 197.470 C 325.882 195.965,326.547 194.998,323.134 194.956 C 320.282 194.920,313.912 191.387,310.906 188.174 C 292.594 168.598,316.995 138.971,339.744 153.158 C 354.147 162.140,354.211 182.468,339.866 191.697 C 335.612 194.434,335.860 194.939,341.473 194.969 C 343.498 194.980,346.289 195.249,347.674 195.568 C 353.384 196.881,353.876 196.661,353.876 192.796 C 353.876 188.043,357.477 178.606,361.750 172.161 C 363.889 168.935,363.889 168.933,363.318 167.565 C 362.313 165.161,361.874 164.742,359.694 164.113 C 353.149 162.223,346.892 156.855,343.695 150.388 C 342.045 147.049,341.585 145.456,340.883 140.638 C 340.647 139.018,340.620 139.003,335.981 137.970 C 330.837 136.824,323.109 136.936,318.247 138.226 M203.607 184.291 C 202.224 185.474,198.062 192.838,198.062 194.101 C 198.062 194.584,195.839 198.853,195.210 199.576 C 193.302 201.771,193.799 202.982,195.865 201.168 C 197.214 199.984,198.893 197.355,201.934 191.667 C 202.845 189.961,204.179 187.481,204.896 186.156 C 206.865 182.520,206.423 181.880,203.607 184.291 M204.994 208.334 C 204.419 208.646,203.558 209.778,203.001 210.953 C 202.406 212.211,201.435 213.456,200.526 214.127 C 198.555 215.584,198.062 216.234,198.062 217.376 C 198.062 217.898,197.781 218.531,197.438 218.782 C 196.885 219.186,196.956 219.359,198.049 220.278 C 199.733 221.696,201.036 221.609,202.832 219.959 C 203.643 219.214,204.188 218.605,204.044 218.605 C 203.899 218.605,203.998 218.343,204.264 218.023 C 204.607 217.609,205.517 217.442,207.427 217.442 C 209.341 217.442,210.542 217.221,211.624 216.669 C 212.809 216.064,213.360 215.980,214.153 216.281 C 215.690 216.866,216.847 216.748,217.930 215.895 C 218.470 215.471,221.066 214.042,223.700 212.720 C 226.333 211.397,228.959 209.932,229.535 209.463 L 230.581 208.610 226.046 208.341 C 222.635 208.139,220.648 208.224,218.023 208.686 C 213.493 209.483,212.473 209.460,210.940 208.526 C 209.438 207.610,206.500 207.515,204.994 208.334 M201.163 218.386 C 201.163 219.287,200.317 220.491,199.819 220.300 C 199.216 220.069,199.010 218.948,199.483 218.475 C 199.768 218.191,201.163 218.116,201.163 218.386 M194.380 323.505 C 189.513 324.684,184.552 327.599,178.853 332.627 C 175.872 335.257,175.663 335.322,169.645 335.514 C 165.422 335.649,163.815 335.852,162.609 336.405 C 159.412 337.870,158.778 337.984,153.861 337.984 C 149.264 337.984,148.803 337.920,148.360 337.209 C 147.652 336.076,138.603 336.033,137.165 337.156 C 136.442 337.721,135.270 337.934,131.783 338.135 C 123.433 338.615,122.481 338.763,122.481 339.590 C 122.481 340.518,123.547 340.930,126.869 341.286 C 128.860 341.499,129.383 341.677,129.082 342.039 C 128.866 342.300,128.788 342.612,128.908 342.732 C 129.507 343.331,110.228 344.173,88.953 344.476 C 78.721 344.622,71.221 344.865,72.287 345.015 C 73.353 345.166,95.940 345.299,122.481 345.310 C 149.021 345.322,171.020 345.335,171.366 345.340 C 171.757 345.345,172.087 345.803,172.235 346.543 C 172.366 347.199,172.720 348.289,173.022 348.965 C 173.324 349.641,173.671 351.536,173.794 353.177 C 174.823 366.905,185.864 376.528,200.581 376.525 C 213.363 376.522,221.759 370.694,226.353 358.637 C 227.239 356.311,226.343 356.412,247.914 356.202 C 270.790 355.979,269.443 356.206,268.604 352.712 C 268.339 351.605,268.229 349.919,268.360 348.962 C 268.836 345.488,270.341 345.736,248.849 345.736 C 237.682 345.736,229.493 345.584,228.917 345.364 C 227.991 345.012,226.357 342.477,226.356 341.391 C 226.355 339.258,222.267 333.112,218.547 329.651 C 212.721 324.231,202.311 321.583,194.380 323.505 M203.761 330.619 C 215.006 332.080,223.144 344.826,219.599 355.426 C 213.710 373.036,190.712 374.749,182.795 358.168 C 176.730 345.465,185.784 330.959,200.194 330.292 C 200.620 330.273,202.225 330.420,203.761 330.619 M79.457 336.776 C 79.457 337.757,87.189 337.974,87.984 337.016 C 88.409 336.504,87.923 336.434,83.962 336.434 C 81.485 336.434,79.457 336.588,79.457 336.776 M110.465 336.763 C 110.465 337.639,111.771 337.938,116.092 338.054 C 120.519 338.172,120.736 338.142,120.736 337.403 C 120.736 336.672,120.442 336.622,115.601 336.520 C 112.709 336.459,110.465 336.565,110.465 336.763 " stroke="none" fill="#ffffff" fill-rule="evenodd"></path></g></svg>