<svg width="428" height="139" viewBox="0 0 428 139" fill="none" xmlns="http://www.w3.org/2000/svg">
<path d="M61.7109 63.6328H21.2109V91.0547H68.7422V108H0.117188V5.625H68.6016V22.7109H21.2109V47.1094H61.7109V63.6328ZM81.1172 108V5.625H112.617C121.617 5.625 129.656 7.66406 136.734 11.7422C143.859 15.7734 149.414 21.5391 153.398 29.0391C157.383 36.4922 159.375 44.9766 159.375 54.4922V59.2031C159.375 68.7188 157.406 77.1797 153.469 84.5859C149.578 91.9922 144.07 97.7344 136.945 101.812C129.82 105.891 121.781 107.953 112.828 108H81.1172ZM102.211 22.7109V91.0547H112.406C120.656 91.0547 126.961 88.3594 131.32 82.9688C135.68 77.5781 137.906 69.8672 138 59.8359V54.4219C138 44.0156 135.844 36.1406 131.531 30.7969C127.219 25.4062 120.914 22.7109 112.617 22.7109H102.211ZM189.609 108H176.602V31.9219H189.609V108ZM175.547 11.7422C175.547 9.63281 176.18 7.85156 177.445 6.39844C178.758 4.94531 180.68 4.21875 183.211 4.21875C185.742 4.21875 187.664 4.94531 188.977 6.39844C190.289 7.85156 190.945 9.63281 190.945 11.7422C190.945 13.8516 190.289 15.6094 188.977 17.0156C187.664 18.4219 185.742 19.125 183.211 19.125C180.68 19.125 178.758 18.4219 177.445 17.0156C176.18 15.6094 175.547 13.8516 175.547 11.7422ZM274.758 70.8047C274.758 82.3828 272.109 91.7109 266.812 98.7891C261.516 105.867 254.344 109.406 245.297 109.406C236.062 109.406 228.797 106.477 223.5 100.617V137.25H210.492V31.9219H222.375L223.008 40.3594C228.305 33.7969 235.664 30.5156 245.086 30.5156C254.227 30.5156 261.445 33.9609 266.742 40.8516C272.086 47.7422 274.758 57.3281 274.758 69.6094V70.8047ZM261.75 69.3281C261.75 60.75 259.922 53.9766 256.266 49.0078C252.609 44.0391 247.594 41.5547 241.219 41.5547C233.344 41.5547 227.438 45.0469 223.5 52.0312V88.3828C227.391 95.3203 233.344 98.7891 241.359 98.7891C247.594 98.7891 252.539 96.3281 256.195 91.4062C259.898 86.4375 261.75 79.0781 261.75 69.3281ZM304.359 41.1328C310.125 34.0547 317.625 30.5156 326.859 30.5156C342.938 30.5156 351.047 39.5859 351.188 57.7266V108H338.18V57.6562C338.133 52.1719 336.867 48.1172 334.383 45.4922C331.945 42.8672 328.125 41.5547 322.922 41.5547C318.703 41.5547 315 42.6797 311.812 44.9297C308.625 47.1797 306.141 50.1328 304.359 53.7891V108H291.352V0H304.359V41.1328ZM395.555 88.9453L413.273 31.9219H427.195L396.609 119.742C391.875 132.398 384.352 138.727 374.039 138.727L371.578 138.516L366.727 137.602V127.055L370.242 127.336C374.648 127.336 378.07 126.445 380.508 124.664C382.992 122.883 385.031 119.625 386.625 114.891L389.508 107.156L362.367 31.9219H376.57L395.555 88.9453Z" fill="white"/>
</svg>
