<svg id="svg" version="1.1" xmlns="http://www.w3.org/2000/svg" xmlns:xlink="http://www.w3.org/1999/xlink" width="400" height="84.44863336475022" viewBox="0, 0, 400,84.44863336475022"><g id="svgg"><path id="path0" d="M168.833 19.917 C 168.832 19.962,168.832 29.919,168.831 42.042 L 168.831 64.083 173.832 64.127 L 178.833 64.172 178.833 42.002 L 178.833 19.833 173.833 19.833 C 171.083 19.833,168.833 19.871,168.833 19.917 M224.611 22.611 C 224.550 22.672,224.500 24.772,224.500 27.278 L 224.500 31.833 222.042 31.853 C 220.690 31.864,219.527 31.864,219.458 31.853 C 219.390 31.842,219.333 33.333,219.333 35.167 L 219.333 38.500 221.917 38.500 L 224.500 38.500 224.520 48.458 C 224.531 53.935,224.527 58.510,224.512 58.625 C 224.498 58.740,224.564 58.833,224.659 58.833 C 224.755 58.833,224.833 59.090,224.833 59.405 C 224.833 59.719,224.946 60.089,225.083 60.226 C 225.221 60.364,225.333 60.568,225.333 60.681 C 225.333 61.037,226.593 62.572,227.099 62.833 C 227.365 62.971,227.674 63.158,227.786 63.250 C 227.897 63.342,228.100 63.510,228.237 63.625 C 228.374 63.740,228.635 63.833,228.816 63.833 C 228.998 63.833,229.193 63.908,229.250 64.000 C 229.307 64.092,229.719 64.167,230.167 64.167 C 230.614 64.167,231.027 64.242,231.083 64.333 C 231.148 64.438,232.862 64.500,235.673 64.500 L 240.160 64.500 240.252 64.125 C 240.303 63.919,240.323 62.250,240.297 60.417 L 240.250 57.083 238.083 57.078 C 235.371 57.072,234.371 56.665,234.301 55.540 C 234.286 55.289,234.193 54.978,234.095 54.850 C 233.974 54.691,233.917 52.030,233.917 46.600 L 233.917 38.583 237.083 38.500 L 240.250 38.417 240.296 35.355 C 240.353 31.489,240.686 31.833,236.891 31.833 L 233.823 31.833 233.833 27.458 C 233.839 25.052,233.841 22.952,233.838 22.792 C 233.833 22.492,224.905 22.317,224.611 22.611 M378.000 27.167 L 378.000 31.833 375.595 31.833 C 372.438 31.833,372.667 31.552,372.667 35.429 L 372.667 38.500 375.333 38.500 L 378.000 38.500 378.000 48.752 C 378.000 54.524,378.066 59.131,378.150 59.294 C 378.233 59.453,378.398 59.910,378.516 60.309 C 378.635 60.709,378.830 61.073,378.949 61.119 C 379.069 61.165,379.167 61.301,379.167 61.421 C 379.167 61.749,380.395 63.000,380.718 63.000 C 380.873 63.000,381.000 63.063,381.000 63.140 C 381.000 63.218,381.281 63.416,381.625 63.582 C 381.969 63.747,382.380 63.946,382.539 64.025 C 382.699 64.103,383.130 64.167,383.498 64.167 C 383.866 64.167,384.167 64.242,384.167 64.333 C 384.167 64.440,385.767 64.500,388.635 64.500 C 394.398 64.500,393.855 64.926,393.795 60.455 L 393.750 57.096 391.417 57.081 C 389.178 57.068,388.167 56.878,388.167 56.473 C 388.167 56.396,388.054 56.333,387.917 56.333 C 387.750 56.333,387.667 56.167,387.667 55.833 C 387.667 55.558,387.592 55.333,387.500 55.333 C 387.391 55.333,387.333 52.417,387.333 46.917 L 387.333 38.500 390.482 38.500 C 394.218 38.500,393.834 38.869,393.831 35.278 C 393.828 31.430,394.220 31.833,390.481 31.833 L 387.333 31.833 387.333 27.167 L 387.333 22.500 382.667 22.500 L 378.000 22.500 378.000 27.167 M202.000 31.333 C 202.000 31.425,201.662 31.500,201.250 31.500 C 200.838 31.500,200.500 31.575,200.500 31.667 C 200.500 31.758,200.371 31.833,200.214 31.833 C 199.747 31.833,198.499 32.364,198.597 32.521 C 198.646 32.601,198.494 32.667,198.260 32.667 C 198.025 32.667,197.833 32.725,197.833 32.797 C 197.833 32.869,197.590 33.071,197.292 33.246 C 196.707 33.590,195.167 35.134,195.167 35.376 C 195.167 35.457,195.056 35.634,194.922 35.769 C 194.707 35.984,194.671 35.767,194.630 33.965 L 194.583 31.917 190.297 31.883 C 187.939 31.864,185.969 31.915,185.920 31.995 C 185.870 32.075,185.830 39.328,185.830 48.112 L 185.830 64.083 190.574 64.083 L 195.318 64.083 195.367 53.967 C 195.405 46.149,195.464 43.802,195.625 43.642 C 195.740 43.527,195.833 43.186,195.833 42.883 C 195.833 42.581,195.908 42.333,196.000 42.333 C 196.092 42.333,196.167 42.180,196.167 41.993 C 196.167 41.806,196.243 41.562,196.336 41.451 C 196.430 41.341,196.660 41.063,196.848 40.833 C 197.686 39.813,198.024 39.495,198.173 39.587 C 198.261 39.642,198.334 39.626,198.335 39.552 C 198.337 39.333,199.191 39.000,199.750 39.000 C 200.034 39.000,200.348 38.919,200.447 38.820 C 200.654 38.613,202.670 38.582,202.818 38.783 C 202.872 38.857,202.992 38.925,203.083 38.935 C 203.621 38.992,204.833 39.399,204.833 39.522 C 204.833 39.601,204.946 39.667,205.083 39.667 C 205.221 39.667,205.333 39.779,205.333 39.917 C 205.333 40.054,205.400 40.167,205.482 40.167 C 205.564 40.167,205.751 40.467,205.897 40.833 C 206.044 41.200,206.240 41.500,206.332 41.500 C 206.424 41.500,206.500 41.796,206.500 42.157 C 206.500 42.518,206.575 42.860,206.667 42.917 C 206.775 42.984,206.833 46.724,206.833 53.593 L 206.833 64.167 211.500 64.167 L 216.167 64.167 216.167 52.000 C 216.167 44.000,216.110 39.833,216.000 39.833 C 215.908 39.833,215.833 39.612,215.833 39.341 C 215.833 38.662,215.366 36.929,215.165 36.861 C 215.074 36.831,215.000 36.624,215.000 36.403 C 215.000 36.181,214.925 36.000,214.833 36.000 C 214.742 36.000,214.667 35.926,214.667 35.835 C 214.667 35.666,214.216 35.091,213.542 34.400 C 213.335 34.188,213.167 33.937,213.167 33.841 C 213.167 33.745,213.110 33.667,213.042 33.666 C 212.973 33.666,212.692 33.472,212.417 33.236 C 212.142 32.999,211.602 32.661,211.218 32.486 C 210.834 32.311,210.474 32.092,210.417 32.000 C 210.360 31.909,210.093 31.833,209.823 31.833 C 209.554 31.833,209.333 31.758,209.333 31.667 C 209.333 31.575,208.921 31.500,208.417 31.500 C 207.912 31.500,207.500 31.425,207.500 31.333 C 207.500 31.229,206.472 31.167,204.750 31.167 C 203.028 31.167,202.000 31.229,202.000 31.333 M255.917 31.333 C 255.860 31.425,255.448 31.500,255.000 31.500 C 254.552 31.500,254.140 31.575,254.083 31.667 C 254.027 31.758,253.760 31.833,253.490 31.833 C 253.221 31.833,253.000 31.902,253.000 31.987 C 253.000 32.071,252.769 32.191,252.486 32.253 C 251.671 32.432,249.276 33.768,248.436 34.511 C 247.026 35.760,246.000 36.774,246.000 36.920 C 246.000 37.015,245.850 37.201,245.667 37.333 C 245.483 37.465,245.333 37.645,245.333 37.732 C 245.333 37.819,245.228 38.009,245.100 38.154 C 244.742 38.558,244.167 39.648,244.167 39.922 C 244.167 40.056,244.092 40.167,244.000 40.167 C 243.908 40.167,243.833 40.307,243.833 40.480 C 243.833 40.652,243.721 40.886,243.583 41.000 C 243.446 41.114,243.333 41.419,243.333 41.677 C 243.333 41.936,243.258 42.193,243.167 42.250 C 243.075 42.307,243.000 42.607,243.000 42.917 C 243.000 43.227,242.925 43.527,242.833 43.583 C 242.742 43.640,242.667 44.088,242.667 44.579 C 242.667 45.097,242.587 45.499,242.478 45.535 C 242.223 45.620,242.232 50.632,242.487 50.887 C 242.586 50.986,242.667 51.502,242.667 52.033 C 242.667 52.567,242.741 53.000,242.833 53.000 C 242.925 53.000,243.000 53.300,243.000 53.667 C 243.000 54.033,243.075 54.333,243.167 54.333 C 243.258 54.333,243.333 54.515,243.333 54.738 C 243.333 54.961,243.446 55.255,243.583 55.393 C 243.721 55.530,243.833 55.836,243.833 56.071 C 243.833 56.307,243.908 56.500,244.000 56.500 C 244.092 56.500,244.167 56.650,244.167 56.833 C 244.167 57.017,244.223 57.167,244.293 57.167 C 244.362 57.167,244.525 57.408,244.656 57.702 C 244.786 57.997,245.067 58.399,245.280 58.596 C 245.493 58.793,245.667 59.046,245.667 59.157 C 245.667 59.269,246.004 59.697,246.417 60.110 C 246.829 60.522,247.167 60.929,247.167 61.013 C 247.167 61.098,247.247 61.167,247.345 61.167 C 247.443 61.167,247.620 61.260,247.739 61.375 C 248.584 62.195,249.195 62.667,249.412 62.667 C 249.552 62.667,249.667 62.742,249.667 62.833 C 249.667 62.925,249.773 63.000,249.903 63.000 C 250.033 63.000,250.164 63.068,250.194 63.151 C 250.225 63.235,250.400 63.328,250.583 63.360 C 250.767 63.391,251.016 63.510,251.137 63.625 C 251.258 63.740,251.539 63.833,251.762 63.833 C 251.985 63.833,252.167 63.890,252.167 63.959 C 252.167 64.135,253.393 64.500,253.983 64.500 C 254.252 64.500,254.503 64.594,254.542 64.708 C 254.589 64.850,255.125 64.935,256.222 64.974 C 257.108 65.006,257.833 65.094,257.833 65.169 C 257.833 65.342,259.720 65.328,259.835 65.154 C 259.882 65.083,260.623 65.005,261.481 64.980 C 262.488 64.951,263.118 64.858,263.259 64.717 C 263.378 64.598,263.782 64.500,264.155 64.500 C 264.528 64.500,264.833 64.425,264.833 64.333 C 264.833 64.242,265.021 64.167,265.250 64.167 C 265.479 64.167,265.667 64.092,265.667 64.000 C 265.667 63.908,265.857 63.833,266.089 63.833 C 266.321 63.833,266.552 63.726,266.602 63.594 C 266.653 63.462,266.800 63.395,266.929 63.444 C 267.058 63.494,267.210 63.414,267.266 63.267 C 267.323 63.120,267.548 63.000,267.768 63.000 C 267.987 63.000,268.167 62.925,268.167 62.833 C 268.167 62.742,268.241 62.667,268.332 62.667 C 268.672 62.667,271.411 60.031,271.692 59.432 C 272.098 58.570,272.462 58.018,272.560 58.116 C 272.651 58.207,272.700 57.915,272.652 57.560 C 272.645 57.502,272.707 57.408,272.790 57.352 C 273.017 57.200,273.500 56.159,273.500 55.822 C 273.500 55.660,273.568 55.503,273.650 55.472 C 273.733 55.442,273.827 55.042,273.859 54.583 L 273.917 53.750 269.833 53.750 L 265.750 53.750 265.697 54.125 C 265.667 54.331,265.574 54.500,265.488 54.500 C 265.403 54.500,265.333 54.596,265.333 54.713 C 265.333 54.830,265.202 55.041,265.042 55.181 C 264.881 55.321,264.601 55.637,264.419 55.884 C 264.237 56.131,263.993 56.333,263.877 56.333 C 263.761 56.333,263.667 56.391,263.667 56.460 C 263.667 56.588,263.173 56.889,262.625 57.096 C 262.465 57.156,262.333 57.272,262.333 57.353 C 262.333 57.434,262.071 57.500,261.750 57.500 C 261.429 57.500,261.167 57.575,261.167 57.667 C 261.167 57.769,260.337 57.833,259.010 57.833 C 257.752 57.833,256.810 57.764,256.750 57.667 C 256.693 57.575,256.504 57.500,256.329 57.500 C 255.982 57.500,254.450 56.702,254.361 56.475 C 254.331 56.397,254.231 56.333,254.141 56.333 C 253.921 56.333,253.500 55.903,253.500 55.679 C 253.500 55.580,253.425 55.500,253.333 55.500 C 253.242 55.500,253.167 55.387,253.167 55.250 C 253.167 55.112,253.092 55.000,253.000 55.000 C 252.908 55.000,252.833 54.859,252.833 54.687 C 252.833 54.515,252.721 54.281,252.583 54.167 C 252.446 54.053,252.333 53.743,252.333 53.480 C 252.333 53.216,252.258 53.000,252.167 53.000 C 252.075 53.000,252.000 52.592,252.000 52.093 C 252.000 51.594,251.925 51.140,251.833 51.083 C 251.241 50.717,252.505 50.666,263.125 50.626 L 274.583 50.583 274.614 47.920 C 274.631 46.455,274.582 45.217,274.505 45.170 C 274.429 45.122,274.314 44.671,274.251 44.167 C 274.188 43.663,274.068 43.225,273.985 43.194 C 273.902 43.164,273.833 42.887,273.833 42.579 C 273.833 42.271,273.758 41.973,273.667 41.917 C 273.575 41.860,273.500 41.656,273.500 41.463 C 273.500 41.032,272.986 39.833,272.801 39.833 C 272.727 39.833,272.667 39.641,272.667 39.407 C 272.667 39.165,272.595 39.025,272.500 39.083 C 272.406 39.141,272.333 39.006,272.333 38.774 C 272.333 38.547,272.270 38.336,272.192 38.306 C 272.066 38.256,271.389 37.300,270.912 36.497 C 270.613 35.994,269.092 34.505,268.875 34.503 C 268.760 34.501,268.667 34.425,268.667 34.333 C 268.667 34.242,268.584 34.167,268.482 34.167 C 268.381 34.167,268.150 33.979,267.970 33.750 C 267.790 33.521,267.498 33.333,267.321 33.333 C 267.145 33.333,267.000 33.258,267.000 33.167 C 267.000 33.075,266.856 33.000,266.681 33.000 C 266.505 33.000,266.336 32.944,266.306 32.875 C 266.218 32.678,265.227 32.167,264.933 32.167 C 264.786 32.167,264.667 32.092,264.667 32.000 C 264.667 31.908,264.442 31.833,264.167 31.833 C 263.892 31.833,263.667 31.758,263.667 31.667 C 263.667 31.575,263.259 31.500,262.760 31.500 C 262.261 31.500,261.807 31.425,261.750 31.333 C 261.688 31.233,260.529 31.167,258.833 31.167 C 257.137 31.167,255.979 31.233,255.917 31.333 M295.595 31.352 C 295.645 31.433,295.382 31.500,295.010 31.500 C 294.638 31.500,294.333 31.575,294.333 31.667 C 294.333 31.758,294.127 31.839,293.875 31.846 C 293.623 31.852,293.192 32.001,292.917 32.177 C 292.642 32.352,292.173 32.623,291.875 32.779 C 291.577 32.934,291.333 33.123,291.333 33.198 C 291.333 33.272,291.267 33.333,291.187 33.333 C 291.006 33.333,289.000 35.222,289.000 35.392 C 289.000 35.459,288.813 35.717,288.583 35.964 L 288.167 36.413 288.167 34.227 L 288.167 32.042 287.646 31.938 C 286.641 31.737,279.582 31.818,279.367 32.033 C 279.214 32.186,279.167 36.004,279.167 48.200 L 279.167 64.167 283.755 64.167 C 287.275 64.167,288.361 64.118,288.418 63.958 C 288.459 63.844,288.513 59.941,288.538 55.285 C 288.568 49.578,288.641 46.782,288.759 46.702 C 288.856 46.637,288.953 46.283,288.975 45.917 C 288.997 45.550,289.086 45.225,289.174 45.194 C 289.262 45.164,289.333 44.965,289.333 44.752 C 289.333 43.883,291.431 41.167,292.101 41.167 C 292.229 41.167,292.333 41.092,292.333 41.000 C 292.333 40.908,292.447 40.833,292.586 40.833 C 292.827 40.833,292.985 40.772,293.765 40.375 C 293.956 40.277,294.556 40.148,295.098 40.088 C 295.640 40.027,296.257 39.893,296.469 39.788 C 296.764 39.643,296.885 39.647,296.982 39.804 C 297.158 40.089,300.031 40.217,300.203 39.947 C 300.272 39.839,300.329 37.933,300.331 35.713 L 300.333 31.675 299.827 31.413 C 299.269 31.125,295.420 31.069,295.595 31.352 M320.088 31.342 C 320.143 31.430,319.928 31.500,319.601 31.500 C 319.279 31.500,318.806 31.584,318.550 31.687 C 318.293 31.790,317.896 31.949,317.667 32.040 C 317.438 32.131,317.137 32.274,317.000 32.357 C 316.862 32.441,316.619 32.554,316.458 32.608 C 316.298 32.661,316.167 32.772,316.167 32.853 C 316.167 32.934,316.035 33.002,315.875 33.005 C 315.592 33.010,314.667 33.712,314.667 33.921 C 314.667 34.054,314.221 34.500,314.088 34.500 C 313.933 34.500,313.229 35.235,313.121 35.509 C 313.069 35.642,313.020 34.873,313.013 33.802 L 313.000 31.854 308.679 31.839 C 306.221 31.830,304.318 31.890,304.264 31.977 C 304.212 32.061,304.168 39.319,304.165 48.106 L 304.160 64.083 308.788 64.083 L 313.417 64.083 313.460 54.424 C 313.487 48.318,313.564 44.703,313.668 44.599 C 313.759 44.508,313.833 44.110,313.833 43.714 C 313.833 43.064,313.914 42.801,314.357 42.000 C 314.433 41.862,314.609 41.496,314.749 41.185 C 314.888 40.875,315.171 40.482,315.376 40.313 C 315.582 40.144,315.842 39.928,315.955 39.833 C 316.068 39.738,316.209 39.668,316.270 39.677 C 316.330 39.687,316.425 39.632,316.481 39.556 C 316.680 39.285,317.334 39.000,317.759 39.000 C 317.995 39.000,318.334 38.922,318.512 38.827 C 318.897 38.621,320.553 38.577,320.857 38.765 C 320.975 38.837,321.336 38.924,321.661 38.957 C 321.985 38.989,322.275 39.088,322.306 39.175 C 322.336 39.262,322.487 39.333,322.641 39.333 C 322.795 39.333,323.070 39.533,323.252 39.778 C 323.434 40.022,323.677 40.316,323.792 40.432 C 323.906 40.548,324.000 40.726,324.000 40.827 C 324.000 40.928,324.112 41.054,324.250 41.106 C 324.404 41.166,324.500 41.419,324.500 41.768 C 324.500 42.079,324.575 42.333,324.667 42.333 C 324.761 42.333,324.833 42.802,324.833 43.407 C 324.833 43.997,324.908 44.527,325.000 44.583 C 325.108 44.650,325.167 48.113,325.167 54.427 L 325.167 64.167 329.833 64.167 L 334.500 64.167 334.515 53.792 C 334.533 42.075,334.531 41.975,334.320 41.758 C 334.236 41.671,334.167 41.015,334.167 40.300 C 334.167 39.544,334.097 39.000,334.000 39.000 C 333.908 39.000,333.833 38.752,333.833 38.448 C 333.833 37.912,332.760 35.472,332.476 35.361 C 332.397 35.331,332.333 35.218,332.333 35.111 C 332.331 34.746,330.918 33.372,330.083 32.924 C 329.625 32.678,329.025 32.337,328.750 32.167 C 328.475 31.997,328.048 31.852,327.802 31.846 C 327.555 31.839,327.307 31.758,327.250 31.667 C 327.193 31.575,326.809 31.500,326.397 31.500 C 325.966 31.500,325.689 31.433,325.745 31.342 C 325.805 31.244,324.722 31.183,322.917 31.183 C 321.111 31.183,320.028 31.244,320.088 31.342 M352.417 31.333 C 352.479 31.434,352.219 31.508,351.760 31.521 C 350.787 31.547,350.720 31.558,350.569 31.708 C 350.501 31.777,350.276 31.833,350.069 31.833 C 349.665 31.833,348.669 32.336,348.668 32.542 C 348.667 32.610,348.478 32.667,348.248 32.667 C 347.872 32.667,347.428 32.849,346.925 33.209 C 346.829 33.278,346.353 33.600,345.868 33.925 C 344.725 34.690,344.356 34.984,343.840 35.541 C 342.131 37.388,341.833 37.732,341.833 37.858 C 341.833 37.936,341.571 38.365,341.250 38.811 C 340.929 39.258,340.667 39.741,340.667 39.885 C 340.667 40.029,340.592 40.193,340.500 40.250 C 340.408 40.307,340.333 40.566,340.333 40.825 C 340.333 41.091,340.224 41.340,340.083 41.394 C 339.946 41.446,339.833 41.637,339.833 41.818 C 339.833 41.999,339.758 42.193,339.667 42.250 C 339.575 42.307,339.500 42.607,339.500 42.917 C 339.500 43.227,339.425 43.527,339.333 43.583 C 339.242 43.640,339.167 44.244,339.167 44.927 C 339.167 45.642,339.096 46.167,339.000 46.167 C 338.898 46.167,338.833 46.944,338.833 48.167 C 338.833 49.389,338.898 50.167,339.000 50.167 C 339.097 50.167,339.167 50.722,339.167 51.500 C 339.167 52.233,339.234 52.833,339.316 52.833 C 339.398 52.833,339.506 53.115,339.556 53.458 C 339.735 54.682,339.873 55.159,340.101 55.348 C 340.229 55.454,340.333 55.682,340.333 55.854 C 340.333 56.026,340.408 56.167,340.500 56.167 C 340.592 56.167,340.667 56.322,340.667 56.512 C 340.667 56.702,340.780 56.970,340.918 57.109 C 341.057 57.247,341.127 57.429,341.075 57.513 C 341.023 57.598,341.060 57.667,341.157 57.667 C 341.254 57.667,341.333 57.776,341.333 57.909 C 341.333 58.042,341.521 58.339,341.750 58.568 C 341.979 58.797,342.167 59.049,342.167 59.127 C 342.167 59.304,344.285 61.499,344.458 61.501 C 344.527 61.502,344.860 61.765,345.197 62.085 C 345.535 62.405,345.929 62.667,346.072 62.667 C 346.216 62.667,346.333 62.730,346.333 62.807 C 346.333 62.930,347.175 63.398,347.298 63.343 C 347.324 63.331,347.460 63.437,347.601 63.577 C 347.742 63.718,348.039 63.833,348.262 63.833 C 348.485 63.833,348.667 63.908,348.667 64.000 C 348.667 64.092,348.892 64.167,349.167 64.167 C 349.442 64.167,349.667 64.242,349.667 64.333 C 349.667 64.425,350.046 64.500,350.510 64.500 C 350.974 64.500,351.312 64.567,351.261 64.649 C 351.108 64.896,351.624 65.000,353.004 65.000 C 353.737 65.000,354.361 65.077,354.422 65.175 C 354.547 65.378,356.333 65.344,356.333 65.138 C 356.333 65.062,356.952 65.000,357.708 64.999 C 358.602 64.998,359.250 64.911,359.561 64.749 C 359.823 64.612,360.330 64.500,360.686 64.500 C 361.042 64.500,361.333 64.425,361.333 64.333 C 361.333 64.242,361.509 64.167,361.724 64.167 C 362.190 64.167,363.167 63.707,363.167 63.488 C 363.167 63.403,363.226 63.352,363.300 63.375 C 363.495 63.436,365.000 62.638,365.000 62.474 C 365.000 62.397,365.116 62.333,365.258 62.333 C 365.400 62.333,365.690 62.146,365.902 61.917 C 366.114 61.688,366.339 61.500,366.402 61.500 C 366.559 61.500,367.333 60.712,367.335 60.549 C 367.336 60.476,367.579 60.154,367.876 59.833 C 368.174 59.512,368.529 59.025,368.666 58.750 C 368.804 58.475,368.954 58.212,369.000 58.167 C 369.046 58.121,369.243 57.746,369.437 57.333 C 369.632 56.921,369.913 56.328,370.062 56.016 C 370.211 55.704,370.333 55.335,370.333 55.196 C 370.333 55.057,370.438 54.825,370.565 54.680 C 370.723 54.500,370.751 54.298,370.654 54.042 C 370.511 53.668,370.496 53.667,366.797 53.669 C 362.495 53.672,362.420 53.684,362.054 54.454 C 361.703 55.195,360.373 56.509,359.551 56.927 C 359.202 57.105,358.892 57.306,358.861 57.375 C 358.831 57.444,358.629 57.500,358.413 57.500 C 358.196 57.500,357.973 57.575,357.917 57.667 C 357.856 57.764,356.887 57.833,355.573 57.833 C 354.191 57.833,353.333 57.770,353.333 57.667 C 353.333 57.575,353.066 57.500,352.740 57.500 C 352.387 57.500,352.189 57.433,352.250 57.333 C 352.307 57.242,352.274 57.157,352.177 57.146 C 352.079 57.134,351.922 57.116,351.827 57.104 C 351.732 57.093,351.601 57.008,351.536 56.916 C 351.470 56.825,351.210 56.643,350.958 56.513 C 350.706 56.383,350.500 56.215,350.500 56.139 C 350.500 56.062,350.387 56.000,350.250 56.000 C 350.111 56.000,350.000 55.852,350.000 55.667 C 350.000 55.483,349.927 55.333,349.838 55.333 C 349.688 55.333,349.177 54.503,349.147 54.210 C 349.139 54.140,349.066 54.102,348.983 54.125 C 348.901 54.148,348.833 53.904,348.833 53.583 C 348.833 53.262,348.758 53.000,348.667 53.000 C 348.571 53.000,348.500 52.500,348.500 51.833 L 348.500 50.667 359.833 50.667 L 371.167 50.667 371.167 47.783 C 371.167 46.180,371.096 44.830,371.008 44.741 C 370.921 44.654,370.830 44.298,370.807 43.950 C 370.783 43.602,370.667 43.236,370.549 43.138 C 370.430 43.040,370.333 42.710,370.333 42.406 C 370.333 42.102,370.258 41.807,370.167 41.750 C 370.075 41.693,370.000 41.479,370.000 41.273 C 370.000 40.874,369.194 39.121,368.968 39.028 C 368.894 38.997,368.833 38.828,368.833 38.653 C 368.833 38.477,368.777 38.333,368.707 38.333 C 368.638 38.333,368.485 38.116,368.368 37.851 C 368.250 37.586,367.988 37.188,367.786 36.967 C 367.583 36.746,367.315 36.372,367.190 36.134 C 367.065 35.897,366.784 35.607,366.565 35.490 C 366.346 35.373,366.167 35.189,366.167 35.082 C 366.167 34.975,365.979 34.801,365.750 34.697 C 365.521 34.593,365.333 34.431,365.333 34.337 C 365.333 34.243,365.221 34.167,365.083 34.167 C 364.789 34.167,364.150 33.572,364.292 33.431 C 364.345 33.377,364.233 33.333,364.042 33.333 C 363.851 33.333,363.669 33.277,363.639 33.208 C 363.555 33.020,361.872 32.167,361.585 32.167 C 361.446 32.167,361.333 32.092,361.333 32.000 C 361.333 31.908,361.075 31.833,360.760 31.833 C 360.444 31.833,360.140 31.758,360.083 31.667 C 360.027 31.575,359.614 31.500,359.167 31.500 C 358.719 31.500,358.307 31.425,358.250 31.333 C 358.188 31.232,356.995 31.167,355.230 31.167 C 353.328 31.167,352.349 31.225,352.417 31.333 M259.361 38.313 C 259.392 38.393,259.791 38.504,260.249 38.559 C 260.706 38.614,261.106 38.736,261.138 38.829 C 261.169 38.923,261.328 39.000,261.491 39.000 C 261.655 39.000,261.979 39.150,262.212 39.333 C 262.445 39.517,262.686 39.667,262.747 39.667 C 262.888 39.667,263.333 40.109,263.333 40.250 C 263.333 40.309,263.427 40.462,263.542 40.589 C 264.074 41.183,264.167 41.342,264.167 41.660 C 264.167 41.847,264.242 42.000,264.333 42.000 C 264.425 42.000,264.500 42.225,264.500 42.500 C 264.500 42.775,264.567 43.000,264.649 43.000 C 264.731 43.000,264.827 43.300,264.862 43.667 L 264.925 44.333 258.254 44.320 C 254.585 44.313,251.677 44.269,251.792 44.223 C 251.908 44.176,252.000 43.854,252.000 43.492 C 252.000 42.881,252.695 41.324,253.025 41.194 C 253.103 41.164,253.167 41.028,253.167 40.893 C 253.167 40.758,253.242 40.693,253.333 40.750 C 253.425 40.807,253.500 40.765,253.500 40.657 C 253.500 40.550,253.777 40.208,254.116 39.897 C 254.684 39.377,254.809 39.308,255.106 39.348 C 255.165 39.355,255.259 39.299,255.315 39.223 C 255.537 38.919,256.175 38.680,257.025 38.584 C 257.515 38.528,257.942 38.412,257.972 38.325 C 258.042 38.126,259.286 38.115,259.361 38.313 M355.867 38.350 C 355.900 38.450,356.263 38.549,356.672 38.570 C 357.991 38.636,359.418 39.495,360.085 40.625 C 360.261 40.923,360.464 41.167,360.536 41.167 C 360.608 41.167,360.667 41.354,360.667 41.583 C 360.667 41.813,360.742 42.000,360.833 42.000 C 360.925 42.000,361.000 42.172,361.000 42.383 C 361.000 42.594,361.073 42.840,361.162 42.929 C 361.251 43.018,361.348 43.250,361.378 43.446 C 361.408 43.641,361.532 43.921,361.653 44.067 C 361.855 44.310,361.294 44.333,355.187 44.333 L 348.500 44.333 348.500 43.667 C 348.500 43.300,348.575 43.000,348.667 43.000 C 348.758 43.000,348.833 42.733,348.833 42.407 C 348.833 42.066,348.902 41.856,348.995 41.914 C 349.084 41.969,349.205 41.823,349.263 41.590 C 349.322 41.357,349.436 41.167,349.518 41.167 C 349.600 41.167,349.667 41.054,349.667 40.917 C 349.667 40.779,349.736 40.667,349.820 40.667 C 349.905 40.667,350.265 40.385,350.622 40.042 C 351.397 39.294,351.879 39.000,352.331 39.000 C 352.516 39.000,352.667 38.935,352.667 38.857 C 352.667 38.778,353.060 38.667,353.541 38.610 C 354.021 38.553,354.440 38.430,354.471 38.336 C 354.548 38.107,355.790 38.119,355.867 38.350 " stroke="none" fill="#ffffff" fill-rule="evenodd"></path><path id="path1" d="M5.500 42.000 L 5.500 64.167 20.750 64.167 L 36.000 64.167 36.000 62.667 L 36.000 61.167 22.417 61.167 L 8.833 61.167 8.833 51.917 L 8.833 42.667 21.506 42.667 L 34.180 42.667 34.131 41.208 L 34.083 39.750 21.458 39.707 L 8.833 39.665 8.833 31.249 L 8.833 22.833 22.250 22.833 L 35.667 22.833 35.667 21.333 L 35.667 19.833 20.583 19.833 L 5.500 19.833 5.500 42.000 M63.977 29.042 C 63.965 34.106,63.922 38.081,63.882 37.875 C 63.843 37.669,63.740 37.500,63.655 37.500 C 63.570 37.500,63.500 37.350,63.500 37.167 C 63.500 36.983,63.425 36.833,63.333 36.833 C 63.242 36.833,63.167 36.753,63.167 36.655 C 63.167 36.424,62.743 36.000,62.512 36.000 C 62.414 36.000,62.333 35.862,62.333 35.693 C 62.333 35.332,61.130 34.167,60.757 34.167 C 60.616 34.167,60.500 34.086,60.500 33.988 C 60.500 33.694,60.048 33.333,59.679 33.333 C 59.489 33.333,59.333 33.258,59.333 33.167 C 59.333 33.075,59.183 33.000,59.000 33.000 C 58.817 33.000,58.667 32.925,58.667 32.833 C 58.667 32.742,58.479 32.667,58.250 32.667 C 57.991 32.667,57.833 32.572,57.833 32.417 C 57.833 32.242,57.657 32.167,57.250 32.167 C 56.929 32.167,56.667 32.092,56.667 32.000 C 56.667 31.908,56.329 31.833,55.917 31.833 C 55.504 31.833,55.167 31.758,55.167 31.667 C 55.167 31.561,54.000 31.500,52.000 31.500 C 50.000 31.500,48.833 31.561,48.833 31.667 C 48.833 31.758,48.496 31.833,48.083 31.833 C 47.671 31.833,47.333 31.908,47.333 32.000 C 47.333 32.092,47.183 32.167,47.000 32.167 C 46.815 32.167,46.667 32.278,46.667 32.417 C 46.667 32.591,46.491 32.667,46.083 32.667 C 45.762 32.667,45.500 32.742,45.500 32.833 C 45.500 32.925,45.387 33.000,45.250 33.000 C 45.112 33.000,45.000 33.075,45.000 33.167 C 45.000 33.258,44.882 33.333,44.738 33.333 C 44.439 33.333,44.000 33.723,44.000 33.988 C 44.000 34.086,43.848 34.167,43.662 34.167 C 43.265 34.167,41.333 36.027,41.333 36.408 C 41.333 36.550,41.258 36.667,41.167 36.667 C 41.075 36.667,41.000 36.779,41.000 36.917 C 41.000 37.054,40.887 37.167,40.750 37.167 C 40.611 37.167,40.500 37.315,40.500 37.500 C 40.500 37.683,40.425 37.833,40.333 37.833 C 40.242 37.833,40.167 37.946,40.167 38.083 C 40.167 38.221,40.092 38.333,40.000 38.333 C 39.908 38.333,39.833 38.558,39.833 38.833 C 39.833 39.108,39.758 39.333,39.667 39.333 C 39.575 39.333,39.500 39.521,39.500 39.750 C 39.500 40.009,39.406 40.167,39.250 40.167 C 39.084 40.167,39.000 40.332,39.000 40.657 C 39.000 40.926,38.925 41.193,38.833 41.250 C 38.742 41.307,38.667 41.686,38.667 42.093 C 38.667 42.500,38.592 42.833,38.500 42.833 C 38.407 42.833,38.333 43.282,38.333 43.845 C 38.333 44.522,38.251 44.940,38.083 45.107 C 37.711 45.479,37.711 51.333,38.083 51.333 C 38.282 51.333,38.333 51.574,38.333 52.500 C 38.333 53.167,38.405 53.667,38.500 53.667 C 38.592 53.667,38.667 54.004,38.667 54.417 C 38.667 54.829,38.742 55.167,38.833 55.167 C 38.925 55.167,39.000 55.429,39.000 55.750 C 39.000 56.157,39.075 56.333,39.250 56.333 C 39.417 56.333,39.500 56.500,39.500 56.833 C 39.500 57.108,39.575 57.333,39.667 57.333 C 39.758 57.333,39.833 57.521,39.833 57.750 C 39.833 57.979,39.908 58.167,40.000 58.167 C 40.092 58.167,40.169 58.298,40.172 58.458 C 40.179 58.819,40.554 59.333,40.810 59.333 C 40.915 59.333,41.000 59.483,41.000 59.667 C 41.000 59.850,41.075 60.000,41.167 60.000 C 41.258 60.000,41.333 60.078,41.333 60.174 C 41.333 60.360,42.082 61.167,42.254 61.167 C 42.388 61.167,42.833 61.612,42.833 61.746 C 42.833 61.918,43.640 62.667,43.826 62.667 C 43.922 62.667,44.000 62.742,44.000 62.833 C 44.000 62.925,44.150 63.000,44.333 63.000 C 44.519 63.000,44.667 63.111,44.667 63.250 C 44.667 63.387,44.779 63.500,44.917 63.500 C 45.054 63.500,45.167 63.575,45.167 63.667 C 45.167 63.758,45.317 63.833,45.500 63.833 C 45.683 63.833,45.833 63.908,45.833 64.000 C 45.833 64.092,46.096 64.167,46.417 64.167 C 46.737 64.167,47.000 64.242,47.000 64.333 C 47.000 64.425,47.337 64.500,47.750 64.500 C 48.306 64.500,48.500 64.565,48.500 64.750 C 48.500 64.964,49.001 65.000,52.005 65.000 C 54.967 65.000,55.525 64.961,55.606 64.750 C 55.669 64.588,55.927 64.500,56.341 64.500 C 56.693 64.500,57.027 64.425,57.083 64.333 C 57.140 64.242,57.332 64.167,57.510 64.167 C 57.688 64.167,57.833 64.092,57.833 64.000 C 57.833 63.908,58.021 63.833,58.250 63.833 C 58.479 63.833,58.667 63.758,58.667 63.667 C 58.667 63.575,58.817 63.500,59.000 63.500 C 59.185 63.500,59.333 63.389,59.333 63.250 C 59.333 63.110,59.482 63.000,59.671 63.000 C 60.070 63.000,63.167 59.981,63.167 59.592 C 63.167 59.450,63.242 59.333,63.333 59.333 C 63.425 59.333,63.500 59.221,63.500 59.083 C 63.500 58.946,63.570 58.833,63.655 58.833 C 63.740 58.833,63.843 58.665,63.882 58.458 C 63.922 58.252,63.965 59.452,63.977 61.125 L 64.000 64.167 65.500 64.167 L 67.000 64.167 67.000 42.000 L 67.000 19.833 65.500 19.833 L 64.000 19.833 63.977 29.042 M115.500 31.667 C 115.500 31.758,115.162 31.833,114.750 31.833 C 114.337 31.833,114.000 31.908,114.000 32.000 C 114.000 32.092,113.775 32.167,113.500 32.167 C 113.167 32.167,113.000 32.250,113.000 32.417 C 113.000 32.572,112.843 32.667,112.583 32.667 C 112.354 32.667,112.167 32.742,112.167 32.833 C 112.167 32.925,112.017 33.000,111.833 33.000 C 111.650 33.000,111.500 33.075,111.500 33.167 C 111.500 33.258,111.345 33.333,111.155 33.333 C 110.786 33.333,110.333 33.694,110.333 33.988 C 110.333 34.086,110.190 34.167,110.015 34.167 C 109.572 34.167,107.333 36.380,107.333 36.818 C 107.333 37.010,107.253 37.167,107.155 37.167 C 106.889 37.167,106.500 37.605,106.500 37.905 C 106.500 38.049,106.425 38.167,106.333 38.167 C 106.242 38.167,106.167 38.354,106.167 38.583 C 106.167 38.813,106.092 39.000,106.000 39.000 C 105.908 39.000,105.833 39.142,105.833 39.316 C 105.833 39.489,105.721 39.674,105.583 39.727 C 105.446 39.780,105.333 39.975,105.333 40.161 C 105.333 40.348,105.258 40.500,105.167 40.500 C 105.075 40.500,105.000 40.762,105.000 41.083 C 105.000 41.404,104.925 41.667,104.833 41.667 C 104.742 41.667,104.667 42.004,104.667 42.417 C 104.667 42.829,104.592 43.167,104.500 43.167 C 104.406 43.167,104.333 43.633,104.333 44.232 C 104.333 45.026,104.269 45.322,104.083 45.394 C 103.876 45.473,103.833 45.931,103.833 48.078 C 103.833 50.268,103.872 50.667,104.083 50.667 C 104.283 50.667,104.333 50.916,104.333 51.907 C 104.333 52.589,104.408 53.193,104.500 53.250 C 104.592 53.307,104.667 53.686,104.667 54.093 C 104.667 54.500,104.742 54.833,104.833 54.833 C 104.925 54.833,105.000 55.058,105.000 55.333 C 105.000 55.608,105.075 55.833,105.167 55.833 C 105.258 55.833,105.333 56.015,105.333 56.238 C 105.333 56.461,105.446 56.755,105.583 56.893 C 105.721 57.030,105.833 57.298,105.833 57.488 C 105.833 57.678,105.908 57.833,106.000 57.833 C 106.092 57.833,106.167 57.983,106.167 58.167 C 106.167 58.350,106.242 58.500,106.333 58.500 C 106.425 58.500,106.500 58.612,106.500 58.750 C 106.500 58.887,106.575 59.000,106.667 59.000 C 106.758 59.000,106.833 59.102,106.833 59.227 C 106.833 59.351,107.021 59.594,107.250 59.766 C 107.479 59.938,107.667 60.174,107.667 60.290 C 107.667 60.405,107.742 60.500,107.833 60.500 C 107.925 60.500,108.000 60.594,108.000 60.710 C 108.000 60.825,108.267 61.144,108.594 61.418 C 108.920 61.692,109.290 62.010,109.415 62.125 C 109.540 62.240,109.707 62.333,109.785 62.333 C 109.863 62.333,110.035 62.483,110.167 62.667 C 110.299 62.850,110.532 63.000,110.686 63.000 C 110.839 63.000,111.008 63.112,111.060 63.250 C 111.113 63.387,111.309 63.500,111.495 63.500 C 111.681 63.500,111.833 63.575,111.833 63.667 C 111.833 63.758,111.983 63.833,112.167 63.833 C 112.350 63.833,112.500 63.908,112.500 64.000 C 112.500 64.092,112.763 64.167,113.083 64.167 C 113.404 64.167,113.667 64.242,113.667 64.333 C 113.667 64.425,113.921 64.500,114.232 64.500 C 114.581 64.500,114.834 64.596,114.894 64.750 C 114.975 64.962,115.551 65.000,118.661 65.000 C 121.814 65.000,122.333 64.965,122.333 64.750 C 122.333 64.565,122.528 64.500,123.083 64.500 C 123.496 64.500,123.833 64.425,123.833 64.333 C 123.833 64.242,124.021 64.167,124.250 64.167 C 124.479 64.167,124.667 64.092,124.667 64.000 C 124.667 63.908,124.817 63.833,125.000 63.833 C 125.183 63.833,125.333 63.758,125.333 63.667 C 125.333 63.575,125.486 63.500,125.672 63.500 C 125.858 63.500,126.054 63.387,126.106 63.250 C 126.159 63.112,126.328 63.000,126.481 63.000 C 126.634 63.000,126.868 62.850,127.000 62.667 C 127.132 62.483,127.355 62.331,127.495 62.328 C 127.778 62.322,128.333 61.947,128.333 61.761 C 128.333 61.592,128.781 61.167,128.960 61.167 C 129.043 61.167,129.211 60.979,129.333 60.750 C 129.456 60.521,129.619 60.333,129.695 60.333 C 129.771 60.333,129.833 60.183,129.833 60.000 C 129.833 59.817,129.919 59.667,130.023 59.667 C 130.279 59.667,130.655 59.152,130.661 58.792 C 130.664 58.631,130.742 58.500,130.833 58.500 C 130.925 58.500,131.000 58.350,131.000 58.167 C 131.000 57.983,131.075 57.833,131.167 57.833 C 131.258 57.833,131.333 57.678,131.333 57.488 C 131.333 57.298,131.446 57.030,131.583 56.893 C 131.721 56.755,131.833 56.461,131.833 56.238 C 131.833 56.015,131.908 55.833,132.000 55.833 C 132.092 55.833,132.167 55.496,132.167 55.083 C 132.167 54.671,132.242 54.333,132.333 54.333 C 132.425 54.333,132.500 53.921,132.500 53.417 L 132.500 52.500 131.000 52.500 C 129.778 52.500,129.500 52.546,129.500 52.750 C 129.500 52.887,129.425 53.000,129.333 53.000 C 129.242 53.000,129.167 53.337,129.167 53.750 C 129.167 54.163,129.092 54.500,129.000 54.500 C 128.908 54.500,128.833 54.717,128.833 54.982 C 128.833 55.257,128.726 55.506,128.583 55.560 C 128.446 55.613,128.333 55.769,128.333 55.906 C 128.333 56.044,128.183 56.424,128.000 56.750 C 127.817 57.076,127.667 57.422,127.667 57.517 C 127.667 57.744,127.240 58.167,127.012 58.167 C 126.914 58.167,126.833 58.249,126.833 58.350 C 126.833 58.558,125.354 60.000,125.140 60.000 C 125.063 60.000,125.000 60.112,125.000 60.250 C 125.000 60.389,124.852 60.500,124.667 60.500 C 124.483 60.500,124.333 60.575,124.333 60.667 C 124.333 60.758,124.221 60.833,124.083 60.833 C 123.946 60.833,123.833 60.908,123.833 61.000 C 123.833 61.092,123.683 61.167,123.500 61.167 C 123.317 61.167,123.167 61.242,123.167 61.333 C 123.167 61.425,122.939 61.500,122.661 61.500 C 122.366 61.500,122.116 61.604,122.060 61.750 C 121.995 61.920,121.729 62.000,121.232 62.000 C 120.829 62.000,120.500 62.075,120.500 62.167 C 120.500 62.268,119.750 62.333,118.583 62.333 C 117.417 62.333,116.667 62.268,116.667 62.167 C 116.667 62.075,116.337 62.000,115.934 62.000 C 115.437 62.000,115.172 61.920,115.106 61.750 C 115.050 61.604,114.801 61.500,114.505 61.500 C 114.227 61.500,114.000 61.425,114.000 61.333 C 114.000 61.242,113.850 61.167,113.667 61.167 C 113.483 61.167,113.333 61.092,113.333 61.000 C 113.333 60.908,113.221 60.833,113.083 60.833 C 112.946 60.833,112.833 60.758,112.833 60.667 C 112.833 60.575,112.683 60.500,112.500 60.500 C 112.317 60.500,112.167 60.420,112.167 60.321 C 112.167 60.135,111.759 59.667,111.597 59.667 C 111.458 59.667,109.500 57.664,109.500 57.521 C 109.500 57.307,108.609 55.586,108.468 55.528 C 108.394 55.497,108.333 55.328,108.333 55.153 C 108.333 54.977,108.258 54.833,108.167 54.833 C 108.075 54.833,108.000 54.571,108.000 54.250 C 108.000 53.929,107.925 53.667,107.833 53.667 C 107.742 53.667,107.667 53.329,107.667 52.917 C 107.667 52.504,107.592 52.167,107.500 52.167 C 107.401 52.167,107.333 51.556,107.333 50.667 C 107.333 49.444,107.287 49.167,107.083 49.167 C 106.891 49.167,106.833 48.952,106.833 48.238 C 106.833 47.635,106.921 47.222,107.083 47.060 C 107.253 46.890,107.333 46.469,107.333 45.748 C 107.333 45.164,107.408 44.640,107.500 44.583 C 107.592 44.527,107.667 44.185,107.667 43.823 C 107.667 43.462,107.742 43.167,107.833 43.167 C 107.925 43.167,108.000 42.904,108.000 42.583 C 108.000 42.262,108.075 42.000,108.167 42.000 C 108.258 42.000,108.333 41.813,108.333 41.583 C 108.333 41.354,108.390 41.166,108.458 41.166 C 108.626 41.164,109.167 40.201,109.167 39.903 C 109.167 39.773,109.242 39.667,109.333 39.667 C 109.425 39.667,109.500 39.554,109.500 39.417 C 109.500 39.079,112.572 36.000,112.909 36.000 C 113.057 36.000,113.220 35.887,113.273 35.750 C 113.326 35.612,113.511 35.500,113.684 35.500 C 113.858 35.500,114.000 35.425,114.000 35.333 C 114.000 35.242,114.188 35.167,114.417 35.167 C 114.646 35.167,114.833 35.092,114.833 35.000 C 114.833 34.908,114.983 34.833,115.167 34.833 C 115.350 34.833,115.500 34.758,115.500 34.667 C 115.500 34.575,115.915 34.500,116.422 34.500 C 117.088 34.500,117.370 34.431,117.440 34.250 C 117.515 34.054,117.854 34.000,119.018 34.000 C 120.224 34.000,120.500 34.047,120.500 34.250 C 120.500 34.442,120.713 34.500,121.417 34.500 C 121.921 34.500,122.333 34.575,122.333 34.667 C 122.333 34.758,122.596 34.833,122.917 34.833 C 123.237 34.833,123.500 34.908,123.500 35.000 C 123.500 35.092,123.646 35.167,123.823 35.167 C 124.001 35.167,124.193 35.242,124.250 35.333 C 124.307 35.425,124.499 35.500,124.677 35.500 C 124.854 35.500,125.000 35.585,125.000 35.690 C 125.000 35.922,125.502 36.321,125.804 36.328 C 126.032 36.334,126.500 36.729,126.500 36.917 C 126.500 37.056,126.944 37.500,127.083 37.500 C 127.254 37.500,127.667 37.959,127.667 38.150 C 127.667 38.245,127.817 38.590,128.000 38.917 C 128.183 39.243,128.333 39.623,128.333 39.760 C 128.333 39.898,128.446 40.054,128.583 40.106 C 128.746 40.169,128.833 40.428,128.833 40.851 C 128.833 41.208,128.908 41.500,129.000 41.500 C 129.092 41.500,129.167 41.762,129.167 42.083 L 129.167 42.667 130.667 42.667 L 132.167 42.667 132.167 41.583 C 132.167 40.972,132.094 40.500,132.000 40.500 C 131.908 40.500,131.833 40.198,131.833 39.828 C 131.833 39.385,131.748 39.124,131.583 39.060 C 131.429 39.001,131.333 38.748,131.333 38.399 C 131.333 38.088,131.258 37.833,131.167 37.833 C 131.075 37.833,131.000 37.683,131.000 37.500 C 131.000 37.317,130.925 37.167,130.833 37.167 C 130.742 37.167,130.667 37.054,130.667 36.917 C 130.667 36.779,130.592 36.667,130.500 36.667 C 130.408 36.667,130.333 36.565,130.333 36.440 C 130.333 36.315,130.146 36.073,129.917 35.900 C 129.688 35.728,129.500 35.525,129.500 35.449 C 129.500 35.287,129.073 34.833,128.921 34.833 C 128.749 34.833,128.000 34.027,128.000 33.841 C 128.000 33.745,127.829 33.667,127.620 33.667 C 127.411 33.667,127.132 33.517,127.000 33.333 C 126.868 33.150,126.631 33.000,126.473 33.000 C 126.315 33.000,126.140 32.925,126.083 32.833 C 126.027 32.742,125.760 32.667,125.490 32.667 C 125.166 32.667,125.000 32.582,125.000 32.417 C 125.000 32.242,124.824 32.167,124.417 32.167 C 124.096 32.167,123.833 32.092,123.833 32.000 C 123.833 31.908,123.496 31.833,123.083 31.833 C 122.671 31.833,122.333 31.758,122.333 31.667 C 122.333 31.561,121.083 31.500,118.917 31.500 C 116.750 31.500,115.500 31.561,115.500 31.667 M146.167 31.667 C 146.167 31.758,145.829 31.833,145.417 31.833 C 145.004 31.833,144.667 31.908,144.667 32.000 C 144.667 32.092,144.404 32.167,144.083 32.167 C 143.676 32.167,143.500 32.242,143.500 32.417 C 143.500 32.572,143.343 32.667,143.083 32.667 C 142.854 32.667,142.667 32.742,142.667 32.833 C 142.667 32.925,142.517 33.000,142.333 33.000 C 142.150 33.000,142.000 33.075,142.000 33.167 C 142.000 33.258,141.869 33.336,141.708 33.339 C 141.396 33.344,140.833 33.709,140.833 33.905 C 140.833 34.051,140.396 34.500,140.254 34.500 C 140.024 34.500,139.333 35.339,139.333 35.620 C 139.333 35.785,139.146 36.062,138.917 36.234 C 138.688 36.406,138.500 36.686,138.500 36.857 C 138.500 37.027,138.425 37.167,138.333 37.167 C 138.242 37.167,138.167 37.387,138.167 37.657 C 138.167 37.926,138.092 38.193,138.000 38.250 C 137.908 38.307,137.833 38.649,137.833 39.010 C 137.833 39.371,137.758 39.667,137.667 39.667 C 137.569 39.667,137.500 40.222,137.500 41.000 L 137.500 42.333 139.000 42.333 L 140.500 42.333 140.500 41.750 C 140.500 41.429,140.575 41.167,140.667 41.167 C 140.758 41.167,140.833 40.829,140.833 40.417 C 140.833 40.004,140.908 39.667,141.000 39.667 C 141.092 39.667,141.167 39.442,141.167 39.167 C 141.167 38.892,141.242 38.667,141.333 38.667 C 141.425 38.667,141.500 38.479,141.500 38.250 C 141.500 38.021,141.580 37.833,141.679 37.833 C 141.870 37.833,142.333 37.424,142.333 37.254 C 142.333 37.120,143.120 36.333,143.254 36.333 C 143.424 36.333,143.833 35.870,143.833 35.679 C 143.833 35.580,143.983 35.500,144.167 35.500 C 144.350 35.500,144.500 35.425,144.500 35.333 C 144.500 35.242,144.688 35.167,144.917 35.167 C 145.146 35.167,145.333 35.092,145.333 35.000 C 145.333 34.908,145.596 34.833,145.917 34.833 C 146.237 34.833,146.500 34.758,146.500 34.667 C 146.500 34.575,146.877 34.500,147.339 34.500 C 147.930 34.500,148.205 34.426,148.273 34.250 C 148.350 34.050,148.715 34.000,150.101 34.000 C 151.530 34.000,151.833 34.044,151.833 34.250 C 151.833 34.442,152.046 34.500,152.750 34.500 C 153.254 34.500,153.667 34.575,153.667 34.667 C 153.667 34.758,153.854 34.833,154.083 34.833 C 154.313 34.833,154.500 34.908,154.500 35.000 C 154.500 35.092,154.650 35.167,154.833 35.167 C 155.017 35.167,155.167 35.242,155.167 35.333 C 155.167 35.425,155.278 35.500,155.413 35.500 C 155.734 35.500,157.500 37.266,157.500 37.587 C 157.500 37.722,157.575 37.833,157.667 37.833 C 157.758 37.833,157.833 38.021,157.833 38.250 C 157.833 38.479,157.908 38.667,158.000 38.667 C 158.101 38.667,158.167 39.386,158.167 40.490 C 158.167 41.526,158.095 42.358,158.000 42.417 C 157.908 42.473,157.833 42.702,157.833 42.924 C 157.833 43.543,156.314 45.000,155.669 45.000 C 155.393 45.000,155.167 45.075,155.167 45.167 C 155.167 45.258,154.789 45.333,154.328 45.333 C 153.736 45.333,153.461 45.407,153.394 45.583 C 153.317 45.783,152.951 45.833,151.566 45.833 C 150.522 45.833,149.833 45.900,149.833 46.000 C 149.833 46.102,149.056 46.167,147.833 46.167 C 146.611 46.167,145.833 46.231,145.833 46.333 C 145.833 46.426,145.389 46.500,144.833 46.500 C 144.278 46.500,143.833 46.574,143.833 46.667 C 143.833 46.758,143.496 46.833,143.083 46.833 C 142.528 46.833,142.333 46.898,142.333 47.083 C 142.333 47.258,142.157 47.333,141.750 47.333 C 141.429 47.333,141.167 47.408,141.167 47.500 C 141.167 47.592,141.017 47.667,140.833 47.667 C 140.650 47.667,140.500 47.742,140.500 47.833 C 140.500 47.925,140.345 48.000,140.155 48.000 C 139.965 48.000,139.705 48.094,139.577 48.208 C 139.079 48.655,138.844 48.833,138.751 48.833 C 138.623 48.833,137.500 49.961,137.500 50.090 C 137.500 50.145,137.406 50.295,137.292 50.423 C 136.760 51.016,136.667 51.175,136.667 51.493 C 136.667 51.680,136.592 51.833,136.500 51.833 C 136.408 51.833,136.333 51.983,136.333 52.167 C 136.333 52.350,136.258 52.500,136.167 52.500 C 136.061 52.500,136.000 53.750,136.000 55.917 C 136.000 58.083,136.061 59.333,136.167 59.333 C 136.258 59.333,136.333 59.558,136.333 59.833 C 136.333 60.108,136.408 60.333,136.500 60.333 C 136.592 60.333,136.669 60.465,136.672 60.625 C 136.679 60.985,137.054 61.500,137.310 61.500 C 137.415 61.500,137.500 61.577,137.500 61.672 C 137.500 61.896,138.604 63.000,138.828 63.000 C 138.922 63.000,139.000 63.112,139.000 63.250 C 139.000 63.389,139.148 63.500,139.333 63.500 C 139.517 63.500,139.667 63.575,139.667 63.667 C 139.667 63.758,139.854 63.833,140.083 63.833 C 140.313 63.833,140.500 63.908,140.500 64.000 C 140.500 64.092,140.646 64.167,140.823 64.167 C 141.001 64.167,141.193 64.242,141.250 64.333 C 141.307 64.425,141.641 64.500,141.992 64.500 C 142.406 64.500,142.665 64.588,142.727 64.750 C 142.871 65.126,150.167 65.126,150.167 64.750 C 150.167 64.565,150.361 64.500,150.917 64.500 C 151.329 64.500,151.667 64.425,151.667 64.333 C 151.667 64.242,151.929 64.167,152.250 64.167 C 152.571 64.167,152.833 64.092,152.833 64.000 C 152.833 63.908,152.940 63.833,153.070 63.833 C 153.367 63.833,154.331 63.293,154.332 63.125 C 154.333 63.056,154.429 63.000,154.547 63.000 C 154.664 63.000,154.868 62.850,155.000 62.667 C 155.132 62.483,155.342 62.333,155.466 62.333 C 155.818 62.333,157.333 60.713,157.333 60.337 C 157.333 60.149,157.444 60.000,157.583 60.000 C 157.721 60.000,157.833 59.925,157.833 59.833 C 157.833 59.742,157.908 59.667,158.000 59.667 C 158.094 59.667,158.167 60.136,158.167 60.740 C 158.167 61.331,158.242 61.860,158.333 61.917 C 158.425 61.973,158.500 62.165,158.500 62.343 C 158.500 62.521,158.612 62.667,158.750 62.667 C 158.887 62.667,159.000 62.812,159.000 62.989 C 159.000 63.166,159.150 63.358,159.333 63.417 C 159.517 63.475,159.667 63.592,159.667 63.678 C 159.667 63.763,159.779 63.833,159.917 63.833 C 160.054 63.833,160.167 63.908,160.167 64.000 C 160.167 64.103,161.086 64.167,162.590 64.167 L 165.014 64.167 164.965 62.875 L 164.917 61.583 163.679 61.534 C 162.700 61.495,162.383 61.416,162.160 61.159 C 162.005 60.980,161.793 60.833,161.689 60.833 C 161.585 60.833,161.500 60.646,161.500 60.417 C 161.500 60.188,161.425 60.000,161.333 60.000 C 161.224 60.000,161.167 56.139,161.167 48.750 C 161.167 41.361,161.109 37.500,161.000 37.500 C 160.908 37.500,160.833 37.237,160.833 36.917 C 160.833 36.509,160.758 36.333,160.583 36.333 C 160.444 36.333,160.333 36.185,160.333 36.000 C 160.333 35.817,160.258 35.667,160.167 35.667 C 160.075 35.667,160.000 35.513,160.000 35.326 C 160.000 34.971,159.311 34.167,159.008 34.167 C 158.912 34.167,158.833 34.082,158.833 33.978 C 158.833 33.702,157.966 33.000,157.625 33.000 C 157.465 33.000,157.333 32.925,157.333 32.833 C 157.333 32.742,157.191 32.667,157.018 32.667 C 156.844 32.667,156.659 32.554,156.606 32.417 C 156.550 32.271,156.301 32.167,156.005 32.167 C 155.727 32.167,155.500 32.092,155.500 32.000 C 155.500 31.908,155.087 31.833,154.583 31.833 C 154.079 31.833,153.667 31.758,153.667 31.667 C 153.667 31.560,152.306 31.500,149.917 31.500 C 147.528 31.500,146.167 31.560,146.167 31.667 M73.333 42.500 C 73.333 49.278,73.391 52.833,73.500 52.833 C 73.602 52.833,73.667 53.639,73.667 54.917 C 73.667 56.657,73.708 57.000,73.917 57.000 C 74.102 57.000,74.167 57.194,74.167 57.750 C 74.167 58.163,74.242 58.500,74.333 58.500 C 74.425 58.500,74.500 58.762,74.500 59.083 C 74.500 59.404,74.575 59.667,74.667 59.667 C 74.758 59.667,74.833 59.817,74.833 60.000 C 74.833 60.183,74.908 60.333,75.000 60.333 C 75.092 60.333,75.167 60.446,75.167 60.583 C 75.167 60.721,75.279 60.833,75.417 60.833 C 75.554 60.833,75.667 60.945,75.667 61.081 C 75.667 61.580,77.087 63.000,77.585 63.000 C 77.722 63.000,77.833 63.112,77.833 63.250 C 77.833 63.387,77.946 63.500,78.083 63.500 C 78.221 63.500,78.333 63.575,78.333 63.667 C 78.333 63.758,78.483 63.833,78.667 63.833 C 78.850 63.833,79.000 63.908,79.000 64.000 C 79.000 64.092,79.262 64.167,79.583 64.167 C 79.904 64.167,80.167 64.242,80.167 64.333 C 80.167 64.425,80.429 64.500,80.750 64.500 C 81.157 64.500,81.333 64.575,81.333 64.750 C 81.333 64.964,81.833 65.000,84.833 65.000 C 87.833 65.000,88.333 64.964,88.333 64.750 C 88.333 64.565,88.528 64.500,89.083 64.500 C 89.496 64.500,89.833 64.425,89.833 64.333 C 89.833 64.242,90.021 64.167,90.250 64.167 C 90.479 64.167,90.667 64.092,90.667 64.000 C 90.667 63.908,90.854 63.833,91.083 63.833 C 91.313 63.833,91.500 63.758,91.500 63.667 C 91.500 63.575,91.650 63.500,91.833 63.500 C 92.019 63.500,92.167 63.389,92.167 63.250 C 92.167 63.111,92.315 63.000,92.500 63.000 C 92.683 63.000,92.833 62.925,92.833 62.833 C 92.833 62.742,92.912 62.667,93.008 62.667 C 93.234 62.667,94.000 61.900,94.000 61.674 C 94.000 61.578,94.078 61.500,94.174 61.500 C 94.400 61.500,95.167 60.734,95.167 60.508 C 95.167 60.412,95.242 60.333,95.333 60.333 C 95.425 60.333,95.500 60.183,95.500 60.000 C 95.500 59.815,95.611 59.667,95.750 59.667 C 95.889 59.667,96.000 59.519,96.000 59.333 C 96.000 59.150,96.075 59.000,96.167 59.000 C 96.271 59.000,96.333 59.972,96.333 61.583 L 96.333 64.167 97.833 64.167 L 99.333 64.167 99.333 48.167 L 99.333 32.167 97.833 32.167 L 96.333 32.167 96.333 40.990 C 96.333 46.693,96.274 49.850,96.167 49.917 C 96.075 49.973,96.000 50.690,96.000 51.510 C 96.000 52.392,95.932 53.000,95.833 53.000 C 95.742 53.000,95.667 53.337,95.667 53.750 C 95.667 54.306,95.602 54.500,95.417 54.500 C 95.250 54.500,95.167 54.667,95.167 55.000 C 95.167 55.275,95.092 55.500,95.000 55.500 C 94.908 55.500,94.833 55.688,94.833 55.917 C 94.833 56.146,94.758 56.333,94.667 56.333 C 94.575 56.333,94.500 56.483,94.500 56.667 C 94.500 56.850,94.425 57.000,94.333 57.000 C 94.242 57.000,94.167 57.188,94.167 57.417 C 94.167 57.646,94.072 57.833,93.956 57.833 C 93.840 57.833,93.597 58.034,93.415 58.280 C 92.994 58.847,92.514 59.327,91.947 59.748 C 91.701 59.930,91.500 60.174,91.500 60.290 C 91.500 60.405,91.329 60.500,91.120 60.500 C 90.911 60.500,90.632 60.650,90.500 60.833 C 90.368 61.017,90.131 61.167,89.973 61.167 C 89.815 61.167,89.640 61.242,89.583 61.333 C 89.527 61.425,89.340 61.500,89.169 61.500 C 88.997 61.500,88.745 61.612,88.607 61.750 C 88.467 61.890,88.060 62.000,87.679 62.000 C 87.305 62.000,87.000 62.075,87.000 62.167 C 87.000 62.268,86.250 62.333,85.083 62.333 C 83.917 62.333,83.167 62.268,83.167 62.167 C 83.167 62.075,82.837 62.000,82.434 62.000 C 81.937 62.000,81.672 61.920,81.606 61.750 C 81.554 61.612,81.358 61.500,81.172 61.500 C 80.986 61.500,80.833 61.425,80.833 61.333 C 80.833 61.242,80.683 61.167,80.500 61.167 C 80.317 61.167,80.167 61.092,80.167 61.000 C 80.167 60.908,80.072 60.833,79.956 60.833 C 79.840 60.833,79.601 60.641,79.425 60.406 C 78.842 59.629,78.547 59.333,78.355 59.333 C 78.252 59.333,78.167 59.183,78.167 59.000 C 78.167 58.817,78.092 58.667,78.000 58.667 C 77.908 58.667,77.833 58.554,77.833 58.417 C 77.833 58.279,77.758 58.167,77.667 58.167 C 77.575 58.167,77.500 57.946,77.500 57.677 C 77.500 57.407,77.425 57.140,77.333 57.083 C 77.242 57.027,77.167 56.760,77.167 56.490 C 77.167 56.166,77.082 56.000,76.917 56.000 C 76.697 56.000,76.667 54.565,76.667 44.083 L 76.667 32.167 75.000 32.167 L 73.333 32.167 73.333 42.500 M53.727 34.250 C 53.796 34.431,54.079 34.500,54.745 34.500 C 55.252 34.500,55.667 34.575,55.667 34.667 C 55.667 34.758,55.812 34.833,55.990 34.833 C 56.168 34.833,56.360 34.908,56.417 35.000 C 56.473 35.092,56.665 35.167,56.843 35.167 C 57.021 35.167,57.167 35.242,57.167 35.333 C 57.167 35.425,57.309 35.500,57.482 35.500 C 57.656 35.500,57.841 35.612,57.894 35.750 C 57.946 35.887,58.104 36.000,58.244 36.000 C 58.576 36.000,60.833 38.255,60.833 38.587 C 60.833 38.728,60.946 38.887,61.083 38.940 C 61.221 38.992,61.333 39.178,61.333 39.351 C 61.333 39.525,61.408 39.667,61.500 39.667 C 61.592 39.667,61.667 39.779,61.667 39.917 C 61.667 40.054,61.742 40.167,61.833 40.167 C 61.925 40.167,62.000 40.357,62.000 40.589 C 62.000 40.821,62.112 41.054,62.250 41.106 C 62.387 41.159,62.500 41.382,62.500 41.601 C 62.500 41.821,62.575 42.000,62.667 42.000 C 62.758 42.000,62.833 42.262,62.833 42.583 C 62.833 42.904,62.908 43.167,63.000 43.167 C 63.092 43.167,63.167 43.579,63.167 44.083 C 63.167 44.587,63.242 45.000,63.333 45.000 C 63.439 45.000,63.500 46.250,63.500 48.417 C 63.500 50.583,63.439 51.833,63.333 51.833 C 63.242 51.833,63.167 52.171,63.167 52.583 C 63.167 52.996,63.092 53.333,63.000 53.333 C 62.908 53.333,62.833 53.596,62.833 53.917 C 62.833 54.237,62.758 54.500,62.667 54.500 C 62.575 54.500,62.500 54.725,62.500 55.000 C 62.500 55.333,62.417 55.500,62.250 55.500 C 62.094 55.500,62.000 55.657,62.000 55.917 C 62.000 56.146,61.925 56.333,61.833 56.333 C 61.742 56.333,61.667 56.483,61.667 56.667 C 61.667 56.850,61.592 57.000,61.500 57.000 C 61.408 57.000,61.333 57.104,61.333 57.232 C 61.333 57.360,61.221 57.508,61.083 57.560 C 60.946 57.613,60.833 57.755,60.833 57.875 C 60.833 57.995,60.683 58.201,60.500 58.333 C 60.317 58.465,60.167 58.652,60.167 58.747 C 60.167 58.843,59.974 59.065,59.739 59.242 C 58.963 59.825,58.667 60.120,58.667 60.311 C 58.667 60.415,58.517 60.500,58.333 60.500 C 58.150 60.500,58.000 60.575,58.000 60.667 C 58.000 60.758,57.887 60.833,57.750 60.833 C 57.612 60.833,57.500 60.908,57.500 61.000 C 57.500 61.092,57.350 61.167,57.167 61.167 C 56.983 61.167,56.833 61.242,56.833 61.333 C 56.833 61.425,56.651 61.500,56.429 61.500 C 56.206 61.500,55.911 61.612,55.774 61.750 C 55.633 61.890,55.226 62.000,54.845 62.000 C 54.472 62.000,54.167 62.075,54.167 62.167 C 54.167 62.268,53.417 62.333,52.250 62.333 C 51.083 62.333,50.333 62.268,50.333 62.167 C 50.333 62.075,49.996 62.000,49.583 62.000 C 49.028 62.000,48.833 61.935,48.833 61.750 C 48.833 61.594,48.676 61.500,48.417 61.500 C 48.188 61.500,48.000 61.425,48.000 61.333 C 48.000 61.242,47.850 61.167,47.667 61.167 C 47.483 61.167,47.333 61.092,47.333 61.000 C 47.333 60.908,47.189 60.833,47.013 60.833 C 46.732 60.833,44.333 58.660,44.333 58.406 C 44.333 58.241,43.867 57.833,43.679 57.833 C 43.580 57.833,43.500 57.688,43.500 57.510 C 43.500 57.332,43.425 57.140,43.333 57.083 C 43.242 57.027,43.167 56.835,43.167 56.657 C 43.167 56.479,43.092 56.333,43.000 56.333 C 42.908 56.333,42.833 56.181,42.833 55.995 C 42.833 55.809,42.721 55.613,42.583 55.560 C 42.446 55.508,42.333 55.322,42.333 55.149 C 42.333 54.975,42.258 54.833,42.167 54.833 C 42.075 54.833,42.000 54.571,42.000 54.250 C 42.000 53.929,41.925 53.667,41.833 53.667 C 41.742 53.667,41.667 53.329,41.667 52.917 C 41.667 52.504,41.592 52.167,41.500 52.167 C 41.406 52.167,41.333 51.693,41.333 51.078 C 41.333 50.264,41.270 49.965,41.083 49.894 C 40.887 49.818,40.833 49.481,40.833 48.333 C 40.833 47.185,40.887 46.848,41.083 46.773 C 41.275 46.700,41.333 46.384,41.333 45.422 C 41.333 44.696,41.404 44.167,41.500 44.167 C 41.592 44.167,41.667 43.754,41.667 43.250 C 41.667 42.746,41.742 42.333,41.833 42.333 C 41.925 42.333,42.000 42.071,42.000 41.750 C 42.000 41.429,42.075 41.167,42.167 41.167 C 42.258 41.167,42.333 41.017,42.333 40.833 C 42.333 40.648,42.444 40.500,42.583 40.500 C 42.739 40.500,42.833 40.343,42.833 40.083 C 42.833 39.854,42.908 39.667,43.000 39.667 C 43.092 39.667,43.167 39.549,43.167 39.405 C 43.167 39.262,43.429 38.897,43.750 38.594 C 44.071 38.292,44.333 37.938,44.333 37.809 C 44.333 37.679,44.483 37.465,44.667 37.333 C 44.850 37.201,45.000 36.997,45.000 36.880 C 45.000 36.763,45.153 36.667,45.341 36.667 C 45.696 36.667,46.500 35.978,46.500 35.674 C 46.500 35.578,46.688 35.500,46.917 35.500 C 47.146 35.500,47.333 35.425,47.333 35.333 C 47.333 35.242,47.483 35.167,47.667 35.167 C 47.850 35.167,48.000 35.092,48.000 35.000 C 48.000 34.908,48.262 34.833,48.583 34.833 C 48.904 34.833,49.167 34.758,49.167 34.667 C 49.167 34.575,49.504 34.500,49.917 34.500 C 50.472 34.500,50.667 34.435,50.667 34.250 C 50.667 34.047,50.942 34.000,52.149 34.000 C 53.313 34.000,53.652 34.054,53.727 34.250 M158.167 50.083 C 158.167 51.917,158.105 53.000,158.000 53.000 C 157.908 53.000,157.833 53.413,157.833 53.917 C 157.833 54.421,157.758 54.833,157.667 54.833 C 157.575 54.833,157.500 55.096,157.500 55.417 C 157.500 55.824,157.425 56.000,157.250 56.000 C 157.111 56.000,157.000 56.148,157.000 56.333 C 157.000 56.517,156.925 56.667,156.833 56.667 C 156.742 56.667,156.667 56.779,156.667 56.917 C 156.667 57.054,156.592 57.167,156.500 57.167 C 156.408 57.167,156.333 57.317,156.333 57.500 C 156.333 57.685,156.222 57.833,156.083 57.833 C 155.946 57.833,155.833 57.896,155.833 57.973 C 155.833 58.143,154.413 59.667,154.255 59.667 C 154.078 59.667,153.667 60.125,153.667 60.321 C 153.667 60.420,153.517 60.500,153.333 60.500 C 153.150 60.500,153.000 60.575,153.000 60.667 C 153.000 60.758,152.887 60.833,152.750 60.833 C 152.612 60.833,152.500 60.908,152.500 61.000 C 152.500 61.092,152.350 61.167,152.167 61.167 C 151.983 61.167,151.833 61.242,151.833 61.333 C 151.833 61.425,151.606 61.500,151.328 61.500 C 151.033 61.500,150.783 61.604,150.727 61.750 C 150.662 61.920,150.396 62.000,149.899 62.000 C 149.496 62.000,149.167 62.075,149.167 62.167 C 149.167 62.270,148.278 62.333,146.833 62.333 C 145.389 62.333,144.500 62.270,144.500 62.167 C 144.500 62.075,144.162 62.000,143.750 62.000 C 143.194 62.000,143.000 61.935,143.000 61.750 C 143.000 61.611,142.852 61.500,142.667 61.500 C 142.483 61.500,142.333 61.425,142.333 61.333 C 142.333 61.242,142.162 61.167,141.953 61.167 C 141.745 61.167,141.465 61.017,141.333 60.833 C 141.201 60.650,140.997 60.500,140.880 60.500 C 140.604 60.500,140.000 59.896,140.000 59.620 C 140.000 59.503,139.850 59.299,139.667 59.167 C 139.450 59.010,139.333 58.735,139.333 58.380 C 139.333 58.079,139.258 57.833,139.167 57.833 C 139.065 57.833,139.000 57.087,139.000 55.927 C 139.000 54.835,139.071 53.976,139.167 53.917 C 139.258 53.860,139.333 53.593,139.333 53.323 C 139.333 53.054,139.408 52.833,139.500 52.833 C 139.592 52.833,139.667 52.722,139.667 52.586 C 139.667 52.324,141.227 50.667,141.472 50.667 C 141.744 50.667,142.667 50.142,142.667 49.988 C 142.667 49.903,142.854 49.833,143.083 49.833 C 143.313 49.833,143.500 49.758,143.500 49.667 C 143.500 49.575,143.837 49.500,144.250 49.500 C 144.662 49.500,145.000 49.425,145.000 49.333 C 145.000 49.239,145.472 49.167,146.083 49.167 C 146.694 49.167,147.167 49.094,147.167 49.000 C 147.167 48.900,147.835 48.833,148.839 48.833 C 150.171 48.833,150.530 48.783,150.606 48.583 C 150.684 48.382,151.058 48.333,152.518 48.333 C 153.617 48.333,154.333 48.268,154.333 48.167 C 154.333 48.073,154.802 48.000,155.407 48.000 C 155.997 48.000,156.527 47.925,156.583 47.833 C 156.640 47.742,156.832 47.667,157.010 47.667 C 157.188 47.667,157.333 47.554,157.333 47.417 C 157.333 47.261,157.491 47.167,157.750 47.167 L 158.167 47.167 158.167 50.083 " stroke="none" fill="#ffffff" fill-rule="evenodd"></path></g></svg>