<svg id="svg" version="1.1" xmlns="http://www.w3.org/2000/svg" xmlns:xlink="http://www.w3.org/1999/xlink" width="400" height="88.84792626728111" viewBox="0, 0, 400,88.84792626728111"><g id="svgg">
	<path id="path0"  d="M193.750 2.496 C 193.567 2.577,192.651 2.649,191.716 2.655 C 190.781 2.661,189.843 2.733,189.633 2.814 C 189.422 2.896,188.763 3.052,188.167 3.163 C 186.737 3.428,184.868 4.049,183.366 4.758 C 182.697 5.075,182.078 5.333,181.991 5.333 C 181.904 5.333,181.833 5.408,181.833 5.500 C 181.833 5.592,181.750 5.667,181.649 5.667 C 180.853 5.667,175.861 9.972,175.034 11.371 C 174.884 11.625,174.703 11.833,174.631 11.833 C 174.559 11.833,174.500 11.946,174.500 12.083 C 174.500 12.221,174.425 12.333,174.333 12.333 C 174.242 12.333,174.167 12.412,174.167 12.508 C 174.167 12.604,173.922 13.073,173.623 13.550 C 173.119 14.354,172.829 14.915,172.485 15.750 C 171.811 17.383,171.500 18.283,171.500 18.602 C 171.500 18.810,171.433 19.022,171.351 19.072 C 171.269 19.123,171.159 19.446,171.107 19.791 C 171.056 20.135,170.935 20.867,170.840 21.417 C 170.529 23.212,170.395 24.733,170.469 25.628 L 170.542 26.507 174.063 26.462 L 177.583 26.417 177.692 25.583 C 177.752 25.125,177.887 24.300,177.992 23.750 C 178.097 23.200,178.225 22.506,178.277 22.207 C 178.328 21.908,178.437 21.622,178.518 21.572 C 178.600 21.522,178.667 21.363,178.667 21.219 C 178.667 20.901,179.843 18.439,180.032 18.361 C 180.106 18.331,180.167 18.227,180.167 18.131 C 180.167 17.790,181.765 15.732,182.833 14.698 C 183.738 13.822,184.963 12.833,185.143 12.833 C 185.248 12.833,185.333 12.776,185.333 12.706 C 185.333 12.568,185.364 12.551,187.185 11.625 C 187.862 11.281,188.498 11.000,188.599 11.000 C 188.700 11.000,189.000 10.892,189.266 10.761 C 191.562 9.626,197.379 9.678,199.706 10.854 C 199.865 10.934,200.146 11.000,200.331 11.000 C 200.516 11.000,200.667 11.075,200.667 11.167 C 200.667 11.258,200.798 11.334,200.958 11.334 C 201.119 11.334,201.685 11.596,202.217 11.917 C 202.748 12.238,203.255 12.500,203.342 12.500 C 203.429 12.500,203.500 12.575,203.500 12.667 C 203.500 12.758,203.606 12.833,203.736 12.833 C 203.866 12.833,203.997 12.890,204.028 12.958 C 204.058 13.027,204.458 13.381,204.917 13.745 C 205.847 14.483,206.647 15.294,207.307 16.167 C 207.550 16.487,207.792 16.787,207.847 16.833 C 209.066 17.864,210.739 22.352,210.985 25.250 L 211.083 26.417 214.792 26.462 L 218.500 26.506 218.500 25.703 C 218.500 25.261,218.432 24.829,218.349 24.742 C 218.265 24.655,218.157 23.946,218.109 23.167 C 217.965 20.868,217.433 18.563,216.512 16.250 C 216.158 15.361,214.852 12.840,214.656 12.667 C 214.604 12.621,214.307 12.208,213.996 11.750 C 213.477 10.984,210.694 8.085,209.916 7.500 C 208.593 6.504,207.848 6.000,207.700 6.000 C 207.605 6.000,207.503 5.942,207.472 5.871 C 207.406 5.716,204.464 4.270,203.750 4.041 C 200.783 3.087,199.585 2.850,196.833 2.674 C 195.688 2.600,194.600 2.497,194.417 2.445 C 194.233 2.392,193.933 2.415,193.750 2.496 M125.083 3.518 C 123.265 3.637,121.553 3.807,119.238 4.097 C 118.774 4.156,118.211 4.341,117.988 4.509 L 117.583 4.814 117.583 23.502 C 117.583 42.015,117.586 42.192,117.917 42.383 C 118.582 42.769,119.434 42.995,120.250 43.001 C 120.708 43.005,121.383 43.078,121.750 43.163 C 124.133 43.716,133.113 43.706,135.246 43.149 C 135.615 43.052,136.217 42.897,136.583 42.804 C 136.950 42.711,137.380 42.566,137.539 42.484 C 137.699 42.401,137.935 42.333,138.066 42.333 C 138.689 42.333,141.447 40.600,142.755 39.385 C 144.560 37.709,146.173 34.585,146.698 31.750 C 147.176 29.165,147.304 16.404,146.856 15.956 C 146.752 15.852,146.667 15.554,146.667 15.293 C 146.667 14.618,146.061 12.745,145.279 11.000 C 144.641 9.575,142.108 6.774,140.746 5.987 C 139.458 5.242,137.913 4.506,137.635 4.503 C 137.480 4.501,137.312 4.433,137.261 4.352 C 137.211 4.270,136.925 4.161,136.627 4.109 C 136.328 4.057,135.671 3.935,135.167 3.839 C 132.523 3.336,129.373 3.235,125.083 3.518 M101.200 4.033 C 100.948 4.286,100.911 42.435,101.163 42.833 C 101.297 43.044,101.958 43.083,105.417 43.083 C 108.876 43.083,109.537 43.044,109.670 42.833 C 110.002 42.309,109.876 4.319,109.542 4.065 C 109.142 3.762,101.501 3.733,101.200 4.033 M265.120 4.269 C 265.058 4.331,264.424 4.444,263.712 4.520 C 261.874 4.716,259.602 5.194,258.961 5.520 C 258.801 5.601,258.525 5.667,258.345 5.667 C 258.166 5.667,257.973 5.742,257.917 5.833 C 257.860 5.925,257.667 6.000,257.488 6.000 C 257.309 6.000,257.032 6.069,256.873 6.153 C 256.714 6.237,255.833 6.665,254.917 7.105 C 251.963 8.521,249.728 10.264,247.250 13.083 C 246.633 13.786,245.333 15.599,245.333 15.758 C 245.333 15.831,245.230 16.009,245.104 16.154 C 244.830 16.468,244.024 18.033,243.422 19.417 C 243.183 19.967,242.915 20.547,242.827 20.706 C 242.739 20.865,242.667 21.142,242.667 21.321 C 242.667 21.500,242.600 21.688,242.519 21.738 C 242.438 21.788,242.333 22.036,242.285 22.290 C 242.237 22.543,241.996 23.500,241.751 24.417 C 240.565 28.840,240.358 31.858,240.360 44.667 C 240.363 57.128,240.564 59.992,241.751 64.417 C 241.996 65.333,242.237 66.291,242.285 66.544 C 242.333 66.797,242.438 67.045,242.519 67.095 C 242.600 67.145,242.667 67.318,242.667 67.479 C 242.667 67.639,242.807 68.066,242.978 68.427 C 243.149 68.788,243.419 69.383,243.577 69.750 C 244.045 70.838,244.858 72.397,245.104 72.680 C 245.230 72.825,245.333 72.996,245.333 73.062 C 245.333 73.176,245.987 74.163,246.175 74.333 C 246.226 74.379,246.489 74.716,246.759 75.081 C 249.143 78.305,252.520 80.873,256.750 82.677 C 262.285 85.038,272.465 85.417,281.417 83.595 C 282.150 83.446,283.033 83.278,283.379 83.223 C 283.725 83.167,284.048 83.057,284.097 82.978 C 284.146 82.898,284.294 82.833,284.425 82.833 C 284.764 82.833,285.466 82.186,285.755 81.607 C 286.083 80.949,286.107 73.738,285.784 72.811 C 285.326 71.498,285.114 71.438,281.750 71.679 C 273.285 72.286,267.685 72.460,265.917 72.171 C 260.666 71.314,257.156 68.180,255.416 62.797 C 254.717 60.631,254.667 60.430,254.667 59.790 C 254.667 59.458,254.603 59.147,254.525 59.099 C 253.899 58.712,253.899 30.122,254.525 29.735 C 254.603 29.686,254.667 29.375,254.667 29.044 C 254.667 28.431,254.694 28.315,255.333 26.250 C 255.786 24.786,257.027 22.250,257.628 21.561 C 257.878 21.274,258.249 20.830,258.451 20.575 C 261.428 16.825,266.397 16.084,280.750 17.248 C 286.133 17.684,286.000 17.824,286.000 11.709 C 286.000 7.263,285.565 6.000,284.036 6.000 C 283.844 6.000,283.640 5.925,283.583 5.833 C 283.527 5.742,283.287 5.667,283.051 5.667 C 282.815 5.667,282.351 5.597,282.019 5.512 C 278.785 4.682,265.672 3.717,265.120 4.269 M316.417 4.333 C 316.360 4.425,315.891 4.500,315.375 4.500 C 314.338 4.500,313.060 4.716,311.167 5.211 C 310.479 5.391,309.710 5.576,309.458 5.621 C 309.206 5.667,309.000 5.771,309.000 5.852 C 309.000 5.934,308.855 6.000,308.677 6.000 C 308.319 6.000,305.681 7.316,305.333 7.668 C 305.287 7.714,304.950 7.969,304.583 8.234 C 302.919 9.438,301.286 11.482,300.242 13.667 C 300.001 14.171,299.736 14.714,299.652 14.873 C 299.568 15.032,299.500 15.298,299.500 15.464 C 299.500 15.631,299.437 15.838,299.360 15.925 C 299.283 16.012,299.091 16.608,298.934 17.250 C 298.777 17.892,298.581 18.679,298.498 19.000 C 298.415 19.321,298.293 19.996,298.226 20.500 C 298.021 22.047,298.082 67.238,298.291 68.667 C 299.029 73.710,301.039 77.869,303.833 80.135 C 304.246 80.469,304.682 80.838,304.803 80.954 C 305.051 81.192,307.033 82.339,307.667 82.610 C 309.447 83.373,310.617 83.748,312.083 84.026 C 318.508 85.244,332.622 84.845,339.583 83.247 C 341.301 82.853,341.333 82.752,341.333 77.774 C 341.333 74.310,341.298 73.766,341.045 73.369 C 340.405 72.366,341.107 72.425,328.500 72.319 C 322.129 72.265,316.654 72.165,316.333 72.097 C 314.667 71.742,312.979 70.505,312.415 69.223 C 311.914 68.087,311.858 67.926,311.754 67.333 C 311.411 65.378,311.334 63.247,311.373 56.720 L 311.417 49.417 324.954 49.374 C 342.002 49.320,340.136 50.046,340.154 43.466 C 340.168 38.577,339.962 37.695,338.802 37.672 C 338.646 37.669,338.473 37.592,338.417 37.500 C 338.349 37.391,333.671 37.333,324.925 37.333 C 312.869 37.333,311.526 37.307,311.434 37.070 C 311.277 36.659,311.336 24.725,311.502 23.417 C 311.775 21.268,311.794 21.189,312.396 19.815 C 312.709 19.103,313.784 17.954,314.471 17.598 C 316.103 16.754,315.601 16.788,328.345 16.682 C 341.337 16.575,340.390 16.653,341.044 15.631 C 341.855 14.364,341.355 6.004,340.468 6.001 C 340.313 6.000,340.140 5.925,340.083 5.833 C 340.027 5.742,339.755 5.667,339.481 5.667 C 339.206 5.667,338.666 5.597,338.282 5.511 C 337.651 5.370,336.618 5.209,332.885 4.672 C 332.225 4.578,330.898 4.500,329.936 4.500 C 328.949 4.500,328.141 4.427,328.083 4.333 C 327.943 4.106,316.557 4.106,316.417 4.333 M373.417 4.331 C 373.233 4.411,372.658 4.482,372.138 4.488 C 371.618 4.495,370.793 4.580,370.304 4.678 C 369.498 4.839,368.992 4.965,366.917 5.521 C 366.550 5.619,366.120 5.767,365.961 5.850 C 365.801 5.932,365.560 6.000,365.424 6.000 C 365.288 6.000,364.931 6.137,364.630 6.304 C 364.329 6.471,363.671 6.826,363.167 7.094 C 362.662 7.362,362.212 7.619,362.167 7.666 C 362.121 7.713,361.804 7.960,361.462 8.215 C 360.070 9.252,358.393 11.243,357.453 12.973 C 356.858 14.068,355.833 16.777,355.833 17.256 C 355.833 17.445,355.766 17.671,355.683 17.758 C 355.600 17.845,355.486 18.292,355.430 18.750 C 355.373 19.208,355.244 20.108,355.143 20.750 C 354.822 22.781,354.760 82.208,355.078 82.823 C 355.684 83.995,355.710 84.000,361.645 84.000 L 366.989 84.000 367.577 83.412 L 368.165 82.824 368.208 66.120 L 368.250 49.417 381.917 49.333 C 396.622 49.244,395.988 49.286,396.655 48.350 C 397.062 47.778,397.197 39.356,396.811 38.614 C 396.178 37.397,396.617 37.434,381.750 37.338 L 368.250 37.250 368.195 31.417 C 368.125 23.937,368.337 21.790,369.348 19.750 C 369.722 18.995,370.544 18.000,370.793 18.000 C 370.884 18.000,371.045 17.897,371.149 17.771 C 371.967 16.786,373.474 16.672,386.424 16.624 L 397.099 16.583 397.591 16.091 L 398.083 15.598 398.083 11.079 C 398.083 6.167,398.110 6.313,397.117 5.873 C 396.861 5.760,396.468 5.667,396.245 5.667 C 396.021 5.667,395.518 5.596,395.127 5.510 C 391.298 4.664,386.975 4.319,379.250 4.241 C 376.225 4.210,373.600 4.251,373.417 4.331 M133.083 11.157 C 133.267 11.233,133.754 11.397,134.167 11.520 C 135.464 11.910,137.667 14.486,137.667 15.614 C 137.667 15.790,137.734 16.005,137.815 16.092 C 138.226 16.529,138.405 27.360,138.039 29.667 C 137.509 33.015,136.225 34.746,133.583 35.675 C 132.098 36.197,127.936 36.353,126.910 35.925 L 126.331 35.683 126.374 23.383 L 126.417 11.083 127.750 10.981 C 129.362 10.858,132.622 10.965,133.083 11.157 M79.000 13.195 C 75.219 13.976,72.376 15.999,70.842 19.000 C 70.631 19.412,70.393 19.880,70.312 20.039 C 70.232 20.199,70.167 20.443,70.167 20.583 C 70.167 20.723,70.098 20.968,70.015 21.127 C 69.327 22.438,69.112 32.554,69.729 34.583 C 69.896 35.133,70.072 35.753,70.120 35.961 C 70.167 36.168,70.273 36.379,70.353 36.429 C 70.434 36.479,70.500 36.630,70.500 36.764 C 70.500 37.686,73.520 41.056,74.969 41.751 C 75.351 41.934,75.664 42.140,75.665 42.208 C 75.666 42.277,75.802 42.333,75.967 42.333 C 76.132 42.333,76.338 42.395,76.425 42.471 C 76.512 42.547,76.921 42.701,77.333 42.815 C 77.746 42.928,78.308 43.100,78.583 43.198 C 79.870 43.656,86.669 43.538,90.333 42.995 C 92.803 42.629,92.898 42.601,93.118 42.167 C 93.338 41.732,93.418 38.417,93.226 37.700 L 93.124 37.317 90.603 37.411 C 83.890 37.661,81.236 37.682,80.583 37.490 C 77.861 36.691,76.252 34.621,76.251 31.917 L 76.250 30.583 85.250 30.500 L 94.250 30.417 94.302 27.083 C 94.363 23.136,94.050 21.322,92.951 19.250 C 92.854 19.067,92.694 18.766,92.595 18.581 C 91.177 15.917,88.417 14.048,84.623 13.181 C 83.680 12.966,80.066 12.975,79.000 13.195 M84.254 19.335 C 86.204 20.223,87.571 22.512,87.466 24.712 L 87.417 25.750 81.833 25.750 L 76.250 25.750 76.265 24.500 C 76.315 20.397,80.561 17.653,84.254 19.335 M165.948 29.997 C 165.315 30.313,164.770 30.882,164.375 31.639 C 164.211 31.953,164.168 37.477,164.171 57.644 L 164.175 83.250 164.727 84.000 C 165.047 84.435,165.594 84.907,166.032 85.125 L 166.787 85.500 194.410 85.500 C 225.175 85.500,222.631 85.598,223.791 84.367 C 224.889 83.202,224.833 84.633,224.833 57.627 C 224.833 39.691,224.782 32.939,224.641 32.365 C 224.378 31.298,223.724 30.428,222.871 30.013 L 222.158 29.667 194.371 29.673 C 167.396 29.680,166.565 29.689,165.948 29.997 M196.816 41.788 C 199.321 42.867,201.370 44.517,202.015 45.973 C 202.143 46.263,202.305 46.500,202.374 46.500 C 202.443 46.500,202.500 46.635,202.500 46.800 C 202.500 46.965,202.562 47.171,202.638 47.258 C 203.635 48.406,203.443 52.797,202.300 54.977 C 201.524 56.458,199.865 58.333,199.332 58.333 C 199.241 58.333,199.167 58.397,199.167 58.475 C 199.167 58.552,198.866 58.752,198.499 58.917 C 197.424 59.402,197.416 59.471,198.079 62.417 C 198.223 63.058,198.417 63.996,198.510 64.500 C 198.604 65.004,198.749 65.754,198.835 66.167 C 198.920 66.579,199.060 67.292,199.147 67.750 C 199.564 69.961,200.026 72.136,200.182 72.624 C 200.466 73.514,200.561 73.500,194.225 73.500 L 188.302 73.500 188.391 72.625 C 188.440 72.144,188.553 71.337,188.641 70.833 C 189.004 68.769,189.172 67.852,189.420 66.583 C 189.664 65.331,189.786 64.678,190.174 62.542 C 190.262 62.060,190.392 61.273,190.463 60.792 C 190.535 60.310,190.646 59.832,190.711 59.728 C 190.783 59.612,190.620 59.455,190.290 59.322 C 188.507 58.608,186.467 56.706,185.654 55.000 C 185.458 54.587,185.230 54.120,185.148 53.961 C 185.067 53.801,185.000 53.487,185.000 53.262 C 185.000 53.037,184.925 52.807,184.833 52.750 C 184.603 52.608,184.622 49.248,184.856 48.512 C 185.487 46.533,186.145 45.401,187.390 44.147 C 188.017 43.516,188.629 43.000,188.751 43.000 C 188.873 43.000,188.997 42.944,189.028 42.875 C 189.087 42.742,190.249 42.140,191.083 41.810 C 192.368 41.302,195.659 41.289,196.816 41.788 M9.250 54.331 C 7.719 54.465,7.236 54.559,6.500 54.871 C 4.362 55.774,3.388 56.759,2.557 58.855 C 2.240 59.656,2.002 84.065,2.300 85.219 L 2.437 85.750 3.902 85.798 C 6.022 85.868,5.833 86.597,5.833 78.332 L 5.833 71.206 6.208 71.105 C 6.415 71.050,9.457 71.004,12.970 71.002 C 20.275 71.000,19.833 71.094,19.833 69.538 C 19.833 67.910,20.247 68.000,12.792 68.000 C 9.255 68.000,6.242 67.954,6.097 67.899 C 5.868 67.811,5.834 67.327,5.836 64.191 C 5.840 57.671,6.052 57.503,14.255 57.501 C 19.986 57.500,19.833 57.541,19.833 55.991 C 19.833 54.372,19.752 54.334,16.292 54.332 C 14.710 54.332,12.817 54.302,12.083 54.265 C 11.350 54.229,10.075 54.258,9.250 54.331 M82.833 54.341 C 81.004 54.492,80.000 54.674,80.000 54.855 C 80.000 54.935,79.858 55.000,79.685 55.000 C 79.393 55.000,77.794 55.995,77.417 56.412 C 77.021 56.849,76.202 58.466,75.937 59.333 C 75.817 59.725,75.758 64.152,75.755 72.833 L 75.750 85.750 77.417 85.750 L 79.083 85.750 79.167 79.167 L 79.250 72.583 85.792 72.540 L 92.333 72.496 92.333 78.640 C 92.333 82.671,92.396 84.964,92.516 85.308 L 92.699 85.833 94.157 85.833 C 96.387 85.833,96.167 87.188,96.167 73.487 C 96.167 59.073,96.080 58.386,94.013 56.356 C 93.294 55.651,92.870 55.382,91.667 54.869 C 90.295 54.285,86.365 54.050,82.833 54.341 M107.250 54.352 C 105.508 54.416,103.840 54.522,103.542 54.587 L 103.000 54.704 103.000 70.168 C 103.000 84.114,103.026 85.641,103.264 85.732 C 103.647 85.879,106.047 85.851,106.290 85.697 C 106.447 85.597,106.506 84.013,106.540 79.075 L 106.583 72.583 109.488 72.631 C 112.270 72.677,112.405 72.694,112.655 73.048 C 113.121 73.705,114.000 75.203,114.000 75.340 C 114.000 75.413,114.057 75.497,114.128 75.528 C 114.291 75.599,115.500 77.640,115.500 77.845 C 115.500 77.930,115.575 78.000,115.667 78.000 C 115.758 78.000,115.833 78.074,115.833 78.165 C 115.833 78.256,116.171 78.856,116.583 79.500 C 116.996 80.144,117.333 80.712,117.333 80.763 C 117.333 80.815,117.549 81.170,117.812 81.553 C 118.075 81.936,118.432 82.512,118.605 82.833 C 118.778 83.154,119.257 83.962,119.668 84.628 L 120.417 85.838 122.248 85.794 C 124.643 85.736,124.658 85.682,122.995 83.025 C 122.631 82.443,122.333 81.937,122.333 81.902 C 122.333 81.866,121.996 81.310,121.583 80.667 C 121.171 80.023,120.833 79.461,120.833 79.417 C 120.833 79.373,120.496 78.810,120.083 78.167 C 119.671 77.523,119.333 76.922,119.333 76.832 C 119.333 76.741,119.258 76.667,119.167 76.667 C 119.075 76.667,119.000 76.593,119.000 76.503 C 119.000 76.413,118.737 75.929,118.417 75.428 C 118.096 74.926,117.833 74.437,117.833 74.341 C 117.833 74.245,117.758 74.167,117.667 74.167 C 117.575 74.167,117.500 74.084,117.500 73.984 C 117.500 73.884,117.345 73.584,117.157 73.319 C 116.521 72.426,116.631 72.025,117.606 71.677 C 119.207 71.106,121.599 69.168,121.909 68.191 C 121.971 67.994,122.092 67.833,122.178 67.833 C 122.263 67.833,122.333 67.696,122.333 67.528 C 122.333 67.360,122.387 67.169,122.453 67.103 C 123.158 66.398,123.158 60.269,122.453 59.564 C 122.387 59.498,122.333 59.336,122.333 59.203 C 122.333 58.942,121.273 57.408,120.811 57.000 C 120.229 56.486,119.828 56.167,119.764 56.167 C 119.728 56.167,119.234 55.904,118.667 55.583 C 118.099 55.262,117.459 55.000,117.244 55.000 C 117.029 55.000,116.807 54.925,116.750 54.833 C 116.693 54.742,116.384 54.667,116.063 54.667 C 115.741 54.667,115.352 54.602,115.197 54.523 C 114.772 54.305,110.800 54.219,107.250 54.352 M136.667 54.354 C 134.927 54.481,133.854 54.665,133.736 54.856 C 133.687 54.935,133.534 55.000,133.395 55.000 C 132.288 55.000,130.381 57.193,129.772 59.167 C 129.558 59.859,129.522 80.297,129.734 81.083 C 130.423 83.651,132.273 85.258,135.250 85.876 C 136.304 86.095,145.638 86.228,145.894 86.028 C 145.998 85.946,146.290 85.830,146.542 85.770 C 146.990 85.663,147.000 85.634,147.000 84.434 C 147.000 82.768,147.377 82.873,141.167 82.801 C 134.970 82.730,134.606 82.656,133.694 81.279 L 133.250 80.608 133.195 75.888 C 133.164 73.291,133.164 71.150,133.195 71.130 C 133.225 71.109,136.325 71.053,140.083 71.005 L 146.917 70.917 146.966 69.693 C 147.040 67.858,147.614 68.000,140.105 67.997 C 136.518 67.996,133.483 67.931,133.359 67.853 C 133.179 67.739,133.147 66.930,133.194 63.730 L 133.252 59.750 133.705 59.051 C 134.591 57.687,135.526 57.500,141.489 57.500 C 144.525 57.500,146.477 57.435,146.678 57.327 C 147.196 57.050,147.154 54.798,146.625 54.539 C 146.193 54.327,138.884 54.191,136.667 54.354 M26.375 54.663 L 26.000 54.823 26.000 70.128 C 26.000 81.810,26.047 85.481,26.200 85.633 C 26.325 85.758,26.941 85.833,27.833 85.833 C 28.726 85.833,29.342 85.758,29.467 85.633 C 29.718 85.382,29.755 55.231,29.504 54.835 C 29.317 54.539,26.972 54.410,26.375 54.663 M37.915 54.711 C 37.529 54.927,37.545 76.435,37.932 78.400 C 38.799 82.801,40.734 85.191,44.000 85.892 C 45.918 86.304,50.191 86.036,52.271 85.373 C 52.876 85.180,53.392 85.103,53.536 85.183 C 54.706 85.838,61.397 86.503,61.887 86.013 C 61.986 85.914,62.264 85.833,62.506 85.833 C 63.991 85.833,66.499 83.866,67.347 82.036 C 68.224 80.144,68.235 80.108,68.535 78.083 C 68.764 76.547,68.889 55.174,68.672 54.833 C 68.460 54.501,65.628 54.473,65.300 54.800 C 65.128 54.972,65.064 57.425,64.990 66.717 C 64.886 79.787,64.901 79.628,63.602 81.386 C 62.564 82.789,58.330 83.562,55.811 82.807 L 55.167 82.614 55.167 68.827 C 55.167 56.885,55.134 55.014,54.921 54.837 C 54.650 54.612,52.100 54.508,51.625 54.703 C 51.351 54.816,51.333 55.642,51.333 68.725 L 51.333 82.627 50.593 82.814 C 49.666 83.047,45.392 83.063,45.250 82.833 C 45.193 82.742,45.000 82.667,44.820 82.667 C 44.107 82.667,42.964 81.724,42.361 80.639 C 41.427 78.958,41.444 79.195,41.343 66.535 C 41.262 56.373,41.217 54.800,41.000 54.662 C 40.703 54.473,38.271 54.512,37.915 54.711 M90.182 57.874 C 92.133 58.749,92.351 59.473,92.295 64.920 L 92.250 69.250 85.936 69.294 C 81.414 69.325,79.558 69.284,79.395 69.148 C 79.216 69.000,79.167 68.238,79.167 65.605 C 79.167 59.849,79.771 58.191,82.046 57.694 C 82.525 57.590,83.067 57.469,83.250 57.427 C 84.430 57.155,89.275 57.467,90.182 57.874 M114.196 57.678 C 118.082 58.455,119.247 59.689,119.451 63.247 C 119.631 66.373,118.335 68.224,115.333 69.128 C 114.498 69.380,108.079 69.615,107.094 69.430 L 106.500 69.318 106.500 63.609 C 106.500 59.391,106.552 57.848,106.700 57.700 C 106.958 57.442,112.929 57.424,114.196 57.678 " stroke="none" fill="#ffffff" fill-rule="evenodd"></path>
</g></svg>