<?xml version="1.0" encoding="UTF-8"?>
<svg id="Capa_2" data-name="Capa 2" xmlns="http://www.w3.org/2000/svg" viewBox="0 0 519.73 125.84">
  <defs>
    <style>
      .cls-1 {
        fill: #60398c;
      }

      .cls-2 {
        fill: #23254b;
      }
    </style>
  </defs>
  <g id="Capa_1-2" data-name="Capa 1">
    <g>
      <g>
        <g>
          <path class="cls-2" d="m133.52,40.77c0-4.72.67-8.84,2-12.36,1.34-3.52,3.1-6.45,5.31-8.77,2.2-2.32,4.74-4.07,7.61-5.23,2.87-1.16,5.81-1.74,8.81-1.74,7.01,0,12.38,2.24,16.12,6.72,3.74,4.48,5.61,11.3,5.61,20.47v1.59c0,.65-.03,1.25-.1,1.8h-35.64c.4,5.54,1.97,9.74,4.7,12.62,2.74,2.87,7.01,4.31,12.81,4.31,3.27,0,6.02-.29,8.26-.87,2.24-.58,3.92-1.14,5.06-1.69l1.3,8c-1.14.61-3.12,1.27-5.96,1.95-2.84.68-6.06,1.03-9.66,1.03-4.54,0-8.46-.7-11.76-2.1-3.3-1.4-6.02-3.33-8.16-5.8-2.14-2.46-3.72-5.38-4.75-8.77-1.04-3.39-1.55-7.09-1.55-11.13Zm35.74-5.23c.07-4.31-.99-7.85-3.15-10.62-2.17-2.77-5.16-4.15-8.96-4.15-2.14,0-4.02.43-5.66,1.28-1.64.86-3.02,1.97-4.16,3.33-1.14,1.37-2.02,2.94-2.65,4.72-.64,1.78-1.05,3.59-1.25,5.44h25.83Z"/>
          <path class="cls-2" d="m233.83,65.8c-2.14.55-4.95,1.13-8.46,1.74-3.5.62-7.56.92-12.16.92-4,0-7.38-.6-10.11-1.8-2.74-1.19-4.94-2.89-6.61-5.08-1.67-2.19-2.87-4.77-3.61-7.74-.73-2.98-1.1-6.28-1.1-9.9V14h9.31v27.9c0,6.5,1,11.15,3,13.95,2,2.81,5.37,4.21,10.11,4.21,1,0,2.03-.03,3.1-.1,1.06-.07,2.07-.15,3-.26.93-.1,1.78-.21,2.55-.31.77-.1,1.32-.22,1.65-.36V14h9.31v51.81Z"/>
          <path class="cls-2" d="m249.85,15.54c2.13-.55,4.97-1.13,8.51-1.74,3.54-.62,7.61-.92,12.21-.92,4.14,0,7.57.6,10.31,1.79,2.74,1.2,4.92,2.87,6.56,5.03,1.63,2.15,2.78,4.74,3.45,7.74.67,3.01,1,6.33,1,9.95v29.95h-9.31v-27.9c0-3.28-.22-6.08-.65-8.41-.44-2.32-1.15-4.2-2.15-5.64-1-1.44-2.34-2.48-4.01-3.13-1.67-.65-3.74-.97-6.21-.97-1,0-2.04.03-3.1.1-1.07.07-2.09.15-3.05.26-.97.1-1.84.22-2.6.36s-1.32.24-1.65.31v45.03h-9.31V15.54Z"/>
          <path class="cls-2" d="m321.23,64.16l-13.05-13.48c-6.63-6.91-6.53-13.59,0-20.39l13.05-13.48c6.63-6.91,13.37-6.8,20,0l13.16,13.48c6.53,6.69,6.63,13.59,0,20.39l-13.16,13.48c-6.63,6.8-13.37,6.91-20,0Zm14.01-40.67c-2.67-2.74-5.35-2.74-8.02,0l-12.52,12.94c-2.67,2.74-2.67,5.37,0,8.11l12.52,12.94c2.67,2.74,5.35,2.74,8.02,0l12.62-12.94c2.57-2.63,2.57-5.48,0-8.11l-12.62-12.94Z"/>
          <path class="cls-2" d="m435.67,13.79c-3.54-.62-7.61-.92-12.21-.92-4.14,0-7.57.6-10.31,1.79-2.64,1.16-4.76,2.77-6.38,4.82-1.62-2.05-3.73-3.66-6.38-4.82-2.74-1.19-6.17-1.79-10.31-1.79-4.6,0-8.68.31-12.21.92-3.54.61-6.37,1.2-8.51,1.74v51.81h9.31V22.31c.33-.07.88-.17,1.65-.31s1.63-.26,2.6-.36c.97-.1,1.98-.19,3.05-.26,1.07-.07,2.1-.1,3.1-.1,2.47,0,4.54.33,6.21.97,1.67.65,3,1.69,4.01,3.13,1,1.44,1.72,3.32,2.15,5.64.43,2.33.65,5.13.65,8.41v27.9h9.35v-27.9c0-3.28.22-6.08.65-8.41.44-2.32,1.15-4.2,2.15-5.64,1-1.44,2.34-2.48,4.01-3.13,1.67-.65,3.74-.97,6.21-.97,1,0,2.04.03,3.1.1,1.07.07,2.09.15,3.05.26.97.1,1.84.22,2.6.36s1.32.24,1.65.31v45.03h9.31V15.54c-2.13-.55-4.97-1.13-8.51-1.74Z"/>
          <path class="cls-2" d="m466.88,67.34h-9.31V23.54c0-5.27,4.17-9.54,9.31-9.54h0v53.34Z"/>
          <path class="cls-2" d="m499.71,12.66c3.74,0,6.89.5,9.46,1.49,2.57.99,4.64,2.39,6.21,4.21,1.57,1.81,2.69,3.97,3.35,6.46.67,2.5,1,5.25,1,8.26v33.34c-.8.14-1.92.33-3.35.57-1.44.24-3.05.46-4.85.67-1.8.2-3.75.39-5.86.57-2.1.17-4.19.26-6.26.26-2.94,0-5.64-.31-8.11-.92-2.47-.61-4.6-1.59-6.41-2.92-1.8-1.33-3.2-3.09-4.21-5.28-1-2.19-1.5-4.82-1.5-7.9s.58-5.47,1.75-7.59c1.17-2.12,2.75-3.83,4.75-5.13,2-1.3,4.34-2.26,7.01-2.87,2.67-.61,5.47-.92,8.41-.92.93,0,1.9.05,2.9.15s1.95.24,2.85.41c.9.17,1.68.33,2.35.46.67.14,1.13.24,1.4.31v-2.67c0-1.57-.17-3.13-.5-4.67-.34-1.54-.94-2.9-1.8-4.1-.87-1.2-2.05-2.15-3.55-2.87-1.5-.72-3.45-1.08-5.86-1.08-3.07,0-5.76.22-8.06.67-2.3.45-4.02.91-5.16,1.38l-1.1-7.9c1.2-.55,3.2-1.08,6.01-1.59,2.8-.51,5.84-.77,9.11-.77Zm.8,47.8c2.2,0,4.16-.05,5.86-.15,1.7-.1,3.12-.29,4.26-.56v-15.9c-.67-.34-1.75-.63-3.25-.87-1.5-.24-3.32-.36-5.46-.36-1.4,0-2.89.1-4.45.31-1.57.21-3,.63-4.31,1.28-1.3.65-2.39,1.54-3.25,2.67-.87,1.13-1.3,2.62-1.3,4.46,0,3.42,1.07,5.8,3.2,7.13,2.13,1.34,5.04,2,8.71,2Z"/>
        </g>
        <g>
          <path class="cls-2" d="m142.26,112.96c-1.47,0-2.84-.28-4.1-.84-1.26-.56-2.38-1.34-3.36-2.34l1.76-2.13c.75.77,1.63,1.37,2.64,1.8,1.01.44,2.05.66,3.12.66,1.28,0,2.27-.29,2.96-.87.69-.58,1.04-1.34,1.04-2.28,0-.66-.14-1.19-.43-1.59-.29-.4-.69-.74-1.2-1.02-.51-.27-1.09-.55-1.73-.84l-2.94-1.31c-.68-.31-1.35-.7-2-1.18-.65-.48-1.19-1.08-1.62-1.8-.43-.72-.64-1.61-.64-2.66,0-1.11.29-2.11.88-3,.59-.89,1.39-1.58,2.42-2.1s2.21-.77,3.55-.77c1.26,0,2.43.24,3.52.72,1.09.48,2.02,1.11,2.78,1.9l-1.7,2.13c-.66-.59-1.38-1.05-2.16-1.39-.78-.34-1.6-.51-2.45-.51-1.09,0-1.96.25-2.62.75s-.99,1.19-.99,2.07c0,.63.17,1.15.5,1.54s.76.72,1.3.98c.53.26,1.08.52,1.63.79l2.91,1.28c.83.35,1.57.77,2.21,1.26s1.14,1.1,1.5,1.82c.36.72.54,1.61.54,2.66,0,1.16-.29,2.21-.86,3.17-.58.95-1.41,1.71-2.51,2.26-1.1.56-2.42.84-3.95.84Z"/>
          <path class="cls-2" d="m159.79,112.96c-1.45,0-2.75-.33-3.9-1-1.15-.67-2.06-1.62-2.74-2.87-.67-1.25-1.01-2.75-1.01-4.53s.34-3.25,1.02-4.51c.68-1.26,1.57-2.22,2.66-2.9,1.09-.68,2.24-1.02,3.46-1.02,1.39,0,2.55.32,3.49.97.94.64,1.65,1.53,2.13,2.66.48,1.13.72,2.44.72,3.95,0,.31-.01.61-.03.92-.02.31-.06.6-.13.89h-11.01v-2.53h8.35c0-1.36-.29-2.4-.86-3.13s-1.44-1.1-2.59-1.1c-.66,0-1.3.18-1.92.54-.62.36-1.13.96-1.54,1.8-.41.84-.61,1.98-.61,3.43,0,1.31.22,2.39.67,3.25.45.85,1.04,1.49,1.79,1.92.75.43,1.55.64,2.4.64.73,0,1.4-.1,2.03-.31.63-.21,1.21-.49,1.74-.84l1.12,2.1c-.7.5-1.5.91-2.38,1.21-.89.31-1.84.46-2.86.46Z"/>
          <path class="cls-2" d="m175.7,112.96c-1.43,0-2.71-.33-3.84-1-1.13-.67-2.03-1.62-2.69-2.87-.66-1.25-.99-2.75-.99-4.53s.36-3.28,1.07-4.54c.71-1.26,1.66-2.22,2.83-2.89,1.17-.67,2.43-1,3.78-1,1.02,0,1.91.17,2.66.52.75.35,1.4.79,1.95,1.31l-1.54,2.03c-.36-.35-.78-.63-1.26-.85-.48-.22-1.03-.33-1.65-.33-.88,0-1.65.24-2.34.72-.68.48-1.23,1.15-1.63,2-.41.85-.61,1.86-.61,3.02s.19,2.16.58,3.02c.38.85.92,1.52,1.6,2,.68.48,1.47.72,2.37.72.66,0,1.28-.13,1.86-.39s1.09-.6,1.54-1.02l1.34,2c-.66.63-1.42,1.14-2.27,1.51-.85.37-1.77.56-2.75.56Z"/>
          <path class="cls-2" d="m188.56,112.96c-1.64,0-2.85-.55-3.62-1.64-.77-1.09-1.15-2.66-1.15-4.69v-10.1h3.17v9.71c0,1.4.21,2.4.62,3s1.09.9,2.03.9c.75,0,1.4-.19,1.97-.57.56-.38,1.19-1,1.87-1.85v-11.18h3.17v16.04h-2.62l-.26-2.43h-.06c-.7.85-1.47,1.54-2.29,2.05s-1.77.77-2.83.77Z"/>
          <path class="cls-2" d="m201.58,112.56v-16.04h2.59l.26,2.89h.1c.53-1.03,1.19-1.83,1.97-2.41.78-.58,1.6-.87,2.48-.87.36,0,.68.03.94.08.27.05.52.14.75.25l-.64,2.79c-.23-.07-.46-.12-.67-.15-.21-.03-.48-.05-.8-.05-.64,0-1.31.26-2.02.77s-1.3,1.42-1.79,2.71v10.03h-3.17Z"/>
          <path class="cls-2" d="m219.31,112.96c-1.45,0-2.75-.33-3.9-1-1.15-.67-2.06-1.62-2.74-2.87-.67-1.25-1.01-2.75-1.01-4.53s.34-3.25,1.02-4.51c.68-1.26,1.57-2.22,2.66-2.9,1.09-.68,2.24-1.02,3.46-1.02,1.39,0,2.55.32,3.49.97.94.64,1.65,1.53,2.13,2.66.48,1.13.72,2.44.72,3.95,0,.31-.01.61-.03.92-.02.31-.06.6-.13.89h-11.01v-2.53h8.35c0-1.36-.29-2.4-.86-3.13s-1.44-1.1-2.59-1.1c-.66,0-1.3.18-1.92.54-.62.36-1.13.96-1.54,1.8-.41.84-.61,1.98-.61,3.43,0,1.31.22,2.39.67,3.25.45.85,1.04,1.49,1.79,1.92.75.43,1.55.64,2.4.64.73,0,1.4-.1,2.03-.31.63-.21,1.21-.49,1.74-.84l1.12,2.1c-.7.5-1.5.91-2.38,1.21-.89.31-1.84.46-2.86.46Z"/>
          <path class="cls-2" d="m235.47,112.56v-21.48h5.44c2.13,0,3.95.4,5.44,1.21,1.49.81,2.63,2.01,3.42,3.59.79,1.58,1.18,3.54,1.18,5.85s-.39,4.28-1.17,5.89c-.78,1.61-1.9,2.83-3.38,3.67-1.47.84-3.25,1.26-5.34,1.26h-5.6Zm3.2-2.66h2.02c1.51,0,2.79-.31,3.84-.93,1.04-.62,1.83-1.54,2.35-2.74.52-1.2.78-2.7.78-4.49s-.26-3.28-.78-4.46c-.52-1.18-1.31-2.07-2.35-2.66-1.05-.59-2.33-.88-3.84-.88h-2.02v16.17Z"/>
          <path class="cls-2" d="m258.74,112.96c-.9,0-1.69-.19-2.38-.56-.69-.37-1.24-.91-1.63-1.61-.4-.7-.59-1.52-.59-2.46,0-1.81.75-3.18,2.26-4.1,1.5-.92,3.89-1.56,7.15-1.93,0-.59-.09-1.15-.27-1.69-.18-.54-.5-.96-.94-1.28-.45-.32-1.06-.48-1.82-.48-.83,0-1.63.15-2.38.46-.76.31-1.48.68-2.16,1.12l-1.18-2.23c.53-.35,1.13-.68,1.79-1,.66-.32,1.37-.57,2.13-.77.76-.2,1.55-.29,2.38-.29,1.28,0,2.34.27,3.17.82.83.55,1.45,1.32,1.86,2.33.4,1,.61,2.22.61,3.64v9.64h-2.62l-.22-1.84h-.13c-.73.61-1.5,1.14-2.32,1.57-.82.44-1.71.66-2.67.66Zm.96-2.66c.68,0,1.33-.16,1.94-.48.61-.32,1.24-.78,1.9-1.39v-3.84c-1.58.2-2.83.45-3.76.77-.93.32-1.59.7-1.98,1.15-.4.45-.59.98-.59,1.59,0,.79.24,1.35.72,1.69s1.07.51,1.78.51Z"/>
          <path class="cls-2" d="m276.11,112.89c-1.75,0-2.98-.52-3.68-1.56-.7-1.04-1.06-2.39-1.06-4.05v-8.13h-2.27v-2.46l2.43-.16.38-5.08h2.66v5.08h4.1v2.62h-4.1v8.17c0,.96.18,1.69.53,2.2s.94.75,1.78.75c.28,0,.56-.03.85-.08s.57-.15.85-.28l.61,2.26c-.41.22-.88.39-1.41.52-.53.13-1.09.2-1.66.2Z"/>
          <path class="cls-2" d="m285.1,112.96c-.9,0-1.69-.19-2.38-.56-.69-.37-1.24-.91-1.63-1.61-.4-.7-.59-1.52-.59-2.46,0-1.81.75-3.18,2.26-4.1,1.5-.92,3.89-1.56,7.15-1.93,0-.59-.09-1.15-.27-1.69-.18-.54-.5-.96-.94-1.28-.45-.32-1.06-.48-1.82-.48-.83,0-1.63.15-2.38.46-.76.31-1.48.68-2.16,1.12l-1.18-2.23c.53-.35,1.13-.68,1.79-1,.66-.32,1.37-.57,2.13-.77.76-.2,1.55-.29,2.38-.29,1.28,0,2.34.27,3.17.82.83.55,1.45,1.32,1.86,2.33.4,1,.61,2.22.61,3.64v9.64h-2.62l-.22-1.84h-.13c-.73.61-1.5,1.14-2.32,1.57-.82.44-1.71.66-2.67.66Zm.96-2.66c.68,0,1.33-.16,1.94-.48.61-.32,1.24-.78,1.9-1.39v-3.84c-1.58.2-2.83.45-3.76.77-.93.32-1.59.7-1.98,1.15-.4.45-.59.98-.59,1.59,0,.79.24,1.35.72,1.69s1.07.51,1.78.51Z"/>
          <path class="cls-2" d="m310.38,112.96c-1.47,0-2.84-.28-4.1-.84-1.26-.56-2.38-1.34-3.36-2.34l1.76-2.13c.75.77,1.63,1.37,2.64,1.8,1.01.44,2.05.66,3.12.66,1.28,0,2.27-.29,2.96-.87.69-.58,1.04-1.34,1.04-2.28,0-.66-.14-1.19-.43-1.59-.29-.4-.69-.74-1.2-1.02-.51-.27-1.09-.55-1.73-.84l-2.94-1.31c-.68-.31-1.35-.7-2-1.18-.65-.48-1.19-1.08-1.62-1.8-.43-.72-.64-1.61-.64-2.66,0-1.11.29-2.11.88-3,.59-.89,1.39-1.58,2.42-2.1s2.21-.77,3.55-.77c1.26,0,2.43.24,3.52.72,1.09.48,2.02,1.11,2.78,1.9l-1.7,2.13c-.66-.59-1.38-1.05-2.16-1.39-.78-.34-1.6-.51-2.45-.51-1.09,0-1.96.25-2.62.75s-.99,1.19-.99,2.07c0,.63.17,1.15.5,1.54s.76.72,1.3.98c.53.26,1.08.52,1.63.79l2.91,1.28c.83.35,1.57.77,2.21,1.26s1.14,1.1,1.5,1.82c.36.72.54,1.61.54,2.66,0,1.16-.29,2.21-.86,3.17-.58.95-1.41,1.71-2.51,2.26-1.1.56-2.42.84-3.95.84Z"/>
          <path class="cls-2" d="m321.39,119.12v-22.59h2.59l.26,1.8h.1c.68-.61,1.44-1.13,2.27-1.56.83-.43,1.69-.64,2.56-.64,1.32,0,2.44.34,3.36,1.02.92.68,1.62,1.63,2.1,2.85.48,1.22.72,2.66.72,4.3,0,1.84-.32,3.4-.94,4.69-.63,1.29-1.46,2.27-2.48,2.95s-2.12,1.02-3.3,1.02c-.68,0-1.38-.16-2.1-.48s-1.4-.76-2.06-1.33l.1,2.72v5.25h-3.17Zm6.62-8.85c.77,0,1.46-.23,2.08-.69.62-.46,1.1-1.13,1.46-2.02.35-.88.53-1.96.53-3.23,0-1.12-.13-2.08-.38-2.9-.26-.82-.66-1.45-1.22-1.9-.56-.45-1.27-.67-2.14-.67-.6,0-1.21.16-1.82.49-.62.33-1.27.82-1.95,1.48v7.94c.62.55,1.23.93,1.84,1.16s1.15.34,1.62.34Z"/>
          <path class="cls-2" d="m342.54,112.96c-.9,0-1.69-.19-2.38-.56-.69-.37-1.24-.91-1.63-1.61-.4-.7-.59-1.52-.59-2.46,0-1.81.75-3.18,2.26-4.1,1.5-.92,3.89-1.56,7.15-1.93,0-.59-.09-1.15-.27-1.69-.18-.54-.5-.96-.94-1.28-.45-.32-1.06-.48-1.82-.48-.83,0-1.63.15-2.38.46-.76.31-1.48.68-2.16,1.12l-1.18-2.23c.53-.35,1.13-.68,1.79-1,.66-.32,1.37-.57,2.13-.77.76-.2,1.55-.29,2.38-.29,1.28,0,2.34.27,3.17.82.83.55,1.45,1.32,1.86,2.33.4,1,.61,2.22.61,3.64v9.64h-2.62l-.22-1.84h-.13c-.73.61-1.5,1.14-2.32,1.57-.82.44-1.71.66-2.67.66Zm.96-2.66c.68,0,1.33-.16,1.94-.48.61-.32,1.24-.78,1.9-1.39v-3.84c-1.58.2-2.83.45-3.76.77-.93.32-1.59.7-1.98,1.15-.4.45-.59.98-.59,1.59,0,.79.24,1.35.72,1.69s1.07.51,1.78.51Z"/>
          <path class="cls-2" d="m361.58,112.96c-1.43,0-2.71-.33-3.84-1-1.13-.67-2.03-1.62-2.69-2.87-.66-1.25-.99-2.75-.99-4.53s.36-3.28,1.07-4.54c.71-1.26,1.66-2.22,2.83-2.89,1.17-.67,2.43-1,3.78-1,1.02,0,1.91.17,2.66.52.75.35,1.4.79,1.95,1.31l-1.54,2.03c-.36-.35-.78-.63-1.26-.85-.48-.22-1.03-.33-1.65-.33-.88,0-1.65.24-2.34.72-.68.48-1.23,1.15-1.63,2-.41.85-.61,1.86-.61,3.02s.19,2.16.58,3.02c.38.85.92,1.52,1.6,2,.68.48,1.47.72,2.37.72.66,0,1.28-.13,1.86-.39s1.09-.6,1.54-1.02l1.34,2c-.66.63-1.42,1.14-2.27,1.51-.85.37-1.77.56-2.75.56Z"/>
          <path class="cls-2" d="m375.66,112.96c-1.45,0-2.75-.33-3.9-1-1.15-.67-2.06-1.62-2.74-2.87-.67-1.25-1.01-2.75-1.01-4.53s.34-3.25,1.02-4.51c.68-1.26,1.57-2.22,2.66-2.9,1.09-.68,2.24-1.02,3.46-1.02,1.39,0,2.55.32,3.49.97.94.64,1.65,1.53,2.13,2.66.48,1.13.72,2.44.72,3.95,0,.31-.01.61-.03.92-.02.31-.06.6-.13.89h-11.01v-2.53h8.35c0-1.36-.29-2.4-.86-3.13s-1.44-1.1-2.59-1.1c-.66,0-1.3.18-1.92.54-.62.36-1.13.96-1.54,1.8-.41.84-.61,1.98-.61,3.43,0,1.31.22,2.39.67,3.25.45.85,1.04,1.49,1.79,1.92.75.43,1.55.64,2.4.64.73,0,1.4-.1,2.03-.31.63-.21,1.21-.49,1.74-.84l1.12,2.1c-.7.5-1.5.91-2.38,1.21-.89.31-1.84.46-2.86.46Z"/>
          <path class="cls-2" d="m389.39,112.96c-1.13,0-2.21-.2-3.23-.61-1.02-.4-1.91-.98-2.66-1.72l1.41-1.87c.7.57,1.42,1,2.14,1.28.73.29,1.54.43,2.43.43s1.64-.21,2.1-.64c.46-.43.69-.95.69-1.56,0-.48-.17-.89-.5-1.23-.33-.34-.75-.62-1.26-.85-.51-.23-1.06-.45-1.63-.67-.77-.28-1.5-.63-2.19-1.03-.69-.4-1.25-.9-1.68-1.49s-.64-1.31-.64-2.16c0-1.36.5-2.48,1.49-3.36.99-.89,2.35-1.33,4.08-1.33,1,0,1.94.17,2.8.52.86.35,1.6.8,2.22,1.34l-1.41,1.87c-.55-.39-1.12-.7-1.7-.92s-1.21-.33-1.89-.33c-.88,0-1.53.2-1.95.61-.43.41-.64.88-.64,1.43,0,.44.13.8.4,1.1.27.29.64.55,1.12.77s1.05.45,1.71.69c.81.28,1.57.62,2.29,1.02.71.39,1.29.9,1.73,1.51.44.61.66,1.39.66,2.33s-.22,1.72-.67,2.46-1.11,1.33-1.98,1.77c-.88.44-1.95.66-3.23.66Z"/>
        </g>
      </g>
      <g>
        <path class="cls-2" d="m80.5,23.24v19.37l-7.29-7.47c-.59-.6-1.22-1.15-1.8-1.71v-9.41c0-9.27-5.35-14.8-14.36-14.8h-15.89c-9.23,0-14.49,5.44-14.49,14.94v8.99c-.68.65-1.35,1.34-2.02,2.08l-6.98,7.19-.05-19c-.09-7.93,1.75-13.88,5.45-17.66C26.76,1.94,32.61,0,40.44,0h17.33c15.53,0,22.73,7.38,22.73,23.24Z"/>
        <path class="cls-2" d="m89.93,58.97l-25.02-25.69c-5.49-5.49-10.85-8.3-16.02-8.3s-10.35,2.72-15.62,8.07l-.32.32-.18.14-16.16,16.74-8.42,8.67c-10.94,11.39-10.94,21.54-.05,32.93l24.66,25.5c5.4,5.63,10.8,8.49,16.02,8.49s10.71-2.86,16.25-8.53l24.84-25.46c5.45-5.58,8.19-11.11,8.19-16.51-.04-5.35-2.79-10.84-8.19-16.37Zm-6.89,26.84l-23.85,24.4c-3.24,3.32-6.66,5.03-10.26,5.03s-7.02-1.71-10.26-5.03l-23.63-24.4c-3.24-3.32-4.91-6.83-4.91-10.38s1.67-7.1,4.91-10.42l23.63-24.44c3.24-3.32,6.71-5.03,10.26-5.03s7.02,1.71,10.31,5.03l23.76,24.4c3.15,3.23,4.77,6.73,4.77,10.38.05,3.74-1.57,7.24-4.72,10.47Z"/>
        <path class="cls-1" d="m58.14,77.58l13.03-7.49v-.04s-5.31-8.61-5.31-8.61l-6.28,4.6-4.98,3.61c.41-1.23.53-2.59.24-3.96l-2.92-15.04-.05-.03-9.6,2.53,2.31,7.56,2.24,7.36c-1.14-1.18-2.64-1.99-4.35-2.16l-14.84-1.81-.61,10.2,7.68.07,7.36.1c-1.4.75-2.58,1.94-3.26,3.53l-6.22,13.93,9.22,3.77,2.46-7.48,2.4-7.25c.25,1.62,1,3.18,2.28,4.36l11,10.4,6.34-7.86-6.2-4.71-6.02-4.62c1.38.1,2.81-.21,4.1-.99Z"/>
      </g>
    </g>
  </g>
</svg>