<svg width="201" height="256" viewBox="0 0 201 256" fill="none" xmlns="http://www.w3.org/2000/svg">
<path d="M165 47.3966V86.8814L150.035 71.652C148.83 70.4263 147.553 69.3119 146.385 68.1604V48.9938C146.385 30.0872 135.434 18.7952 116.892 18.7952H84.2603C65.4259 18.7952 54.4756 29.9015 54.4756 49.291V67.6033C53.0886 68.9405 51.7016 70.352 50.3145 71.8378L36.0062 86.5099V47.768C35.8237 31.6101 39.6563 19.4638 47.1755 11.7377C54.6946 4.01162 66.7034 0 82.7637 0H118.352C150.217 0 165 15.0436 165 47.3966Z" fill="#9CD7F5"/>
<path d="M184.078 119.672L132.875 67.5125C121.63 56.4147 110.64 50.6808 100.122 50.6808C89.6053 50.6808 78.9425 56.1927 68.1706 67.0686L67.5155 67.6974L67.1516 67.9934L33.9989 101.99L16.7856 119.598C-5.59521 142.719 -5.59521 163.324 16.7856 186.444L67.2608 238.234C78.1783 249.665 89.3869 255.473 100.013 255.473C110.64 255.473 121.848 249.665 133.275 238.16L184.223 186.37C195.359 175.05 201 163.805 201 152.855C201 141.905 195.141 130.918 184.078 119.672ZM169.994 174.2L121.157 223.733C118.511 226.781 115.288 229.256 111.68 231.01C108.073 232.765 104.154 233.762 100.159 233.943C96.1648 233.756 92.2484 232.756 88.6415 231.002C85.0346 229.248 81.8108 226.776 79.1609 223.733L30.76 174.2C27.7946 171.539 25.3818 168.304 23.6633 164.683C21.9447 161.062 20.9551 157.129 20.7523 153.114C20.9435 149.086 21.9277 145.137 23.6466 141.503C25.3656 137.868 27.7845 134.621 30.76 131.954L79.1609 82.3096C81.8108 79.2661 85.0346 76.7943 88.6415 75.0405C92.2484 73.2867 96.1648 72.2866 100.159 72.0996C104.168 72.2886 108.1 73.2889 111.725 75.0421C115.349 76.7953 118.593 79.266 121.266 82.3096L169.885 131.843C172.82 134.514 175.199 137.756 176.88 141.378C178.562 145 179.512 148.927 179.675 152.929C179.571 156.957 178.659 160.922 176.994 164.58C175.33 168.237 172.948 171.511 169.994 174.2Z" fill="#9CD7F5"/>
<path d="M120.586 157.18L147.09 142.002L136.051 124.505L123.16 133.835L113.039 141.153C113.904 138.572 114.058 135.793 113.486 133.116L107.164 102.612L87.581 107.73L92.4354 123.104L97.093 138.065C94.7013 135.587 91.5483 134.022 88.1694 133.635L57.7491 129.916L56.918 150.402L72.6334 150.587L87.509 150.833C84.6393 152.397 82.3782 154.905 81.0903 157.951L68.4276 186.262L87.2949 193.965L92.2298 178.794L97.1763 164.037C97.7095 167.459 99.3812 170.599 101.91 172.929L124.528 194.079L137.177 178.217L124.444 168.637L112.075 159.209C115.057 159.442 118.029 158.734 120.586 157.18Z" fill="#EFF7FB"/>
</svg>
