<svg id="svg" version="1.1" xmlns="http://www.w3.org/2000/svg" xmlns:xlink="http://www.w3.org/1999/xlink" width="400" height="84.32432432432432" viewBox="0, 0, 400,84.32432432432432"><g id="svgg"><path id="path0" d="M187.750 6.279 C 184.744 6.427,184.683 6.445,183.587 7.517 C 183.035 8.057,182.340 8.731,182.042 9.015 C 181.744 9.299,181.499 9.655,181.498 9.807 C 181.496 9.959,181.186 10.983,180.808 12.083 C 179.777 15.085,179.704 19.210,180.652 20.873 C 180.823 21.172,181.201 22.145,181.492 23.034 C 182.134 24.992,182.558 25.433,184.347 25.997 C 185.027 26.211,186.021 26.611,186.556 26.885 C 189.489 28.385,194.903 27.154,197.674 24.356 C 199.085 22.932,199.151 22.782,198.730 21.950 C 198.214 20.931,198.045 20.833,196.804 20.833 C 195.563 20.833,193.482 21.688,192.750 22.499 C 191.519 23.864,187.594 23.665,186.618 22.188 C 185.534 20.549,185.528 19.991,186.586 18.997 C 187.142 18.475,194.004 18.476,195.725 18.999 C 197.777 19.623,197.775 19.623,198.422 18.000 C 199.602 15.040,199.223 10.983,197.601 9.197 C 197.128 8.676,196.539 7.977,196.292 7.642 C 195.586 6.687,192.596 6.070,189.333 6.205 C 189.012 6.219,188.300 6.252,187.750 6.279 M229.083 6.334 C 226.509 6.517,225.928 6.723,225.132 7.732 C 224.762 8.200,224.169 8.832,223.814 9.137 C 222.708 10.086,222.609 10.720,222.615 16.762 C 222.622 22.583,222.667 22.875,223.673 23.672 C 224.031 23.955,224.481 24.468,224.674 24.811 C 225.095 25.559,225.357 25.735,226.806 26.243 C 227.417 26.456,228.479 26.835,229.167 27.084 C 230.881 27.705,233.818 27.643,235.011 26.961 C 235.417 26.728,236.387 26.330,237.167 26.076 C 239.927 25.175,240.955 22.859,239.411 21.024 C 238.736 20.221,236.871 20.573,235.387 21.782 C 233.656 23.191,230.758 23.528,229.758 22.437 C 229.478 22.132,228.950 21.729,228.583 21.542 C 227.247 20.860,227.255 20.889,227.206 17.024 C 227.134 11.393,228.090 10.380,233.133 10.746 L 234.750 10.863 235.695 11.872 L 236.640 12.882 237.878 12.961 C 239.691 13.077,240.268 12.564,240.193 10.901 C 240.131 9.528,239.864 8.969,238.995 8.394 C 238.631 8.153,238.182 7.711,237.997 7.412 C 237.359 6.380,234.056 5.981,229.083 6.334 M274.250 6.357 C 273.425 6.420,272.450 6.573,272.083 6.698 C 271.500 6.897,271.285 6.889,270.365 6.637 C 269.201 6.318,267.951 6.449,267.071 6.980 L 266.622 7.253 266.632 16.230 L 266.643 25.207 267.084 25.667 C 267.835 26.451,269.035 27.015,269.598 26.849 C 272.208 26.079,272.164 26.203,272.175 19.548 C 272.189 11.484,272.327 10.992,274.640 10.764 C 277.282 10.504,277.870 10.718,279.356 12.479 C 280.054 13.308,282.728 13.181,283.471 12.285 C 284.043 11.595,283.381 9.531,282.216 8.376 C 281.639 7.804,281.166 7.279,281.166 7.210 C 281.159 6.454,278.038 6.069,274.250 6.357 M290.417 6.312 C 288.164 6.430,287.970 6.504,286.699 7.730 C 285.085 9.287,284.605 11.224,285.057 14.356 C 285.374 16.552,285.614 16.986,286.682 17.299 C 287.086 17.417,288.242 17.775,289.250 18.094 C 290.550 18.505,291.666 18.727,293.083 18.859 C 294.795 19.019,295.241 19.124,296.176 19.592 C 297.682 20.345,297.764 20.473,297.185 21.177 C 296.927 21.492,296.593 21.987,296.444 22.277 C 295.878 23.379,295.539 23.500,293.029 23.500 L 290.770 23.500 289.927 22.592 C 289.257 21.872,288.799 21.565,287.706 21.107 L 286.328 20.529 285.551 21.056 C 284.484 21.780,284.025 22.419,284.301 22.798 C 284.415 22.955,284.765 23.623,285.079 24.282 C 285.714 25.615,286.001 25.863,287.333 26.221 C 287.837 26.357,288.906 26.700,289.708 26.984 C 291.837 27.738,294.489 27.740,296.530 26.990 C 297.292 26.710,298.356 26.340,298.893 26.167 C 299.978 25.818,300.413 25.492,300.785 24.750 C 300.923 24.475,301.356 23.912,301.747 23.500 C 303.101 22.073,303.006 19.047,301.557 17.472 C 301.067 16.939,300.667 16.398,300.667 16.269 C 300.667 15.503,299.619 15.055,297.565 14.943 C 291.381 14.606,290.713 14.482,290.327 13.603 C 289.464 11.635,289.845 10.896,291.947 10.455 C 294.351 9.952,297.187 10.586,298.145 11.842 C 299.010 12.976,299.175 13.050,300.537 12.913 C 302.872 12.678,303.340 10.589,301.466 8.765 C 300.981 8.293,300.358 7.621,300.083 7.273 C 299.389 6.393,295.756 6.032,290.417 6.312 M321.000 6.342 C 318.700 6.508,318.312 6.642,317.821 7.437 C 317.637 7.734,317.154 8.188,316.748 8.445 C 315.869 9.001,315.711 9.305,314.931 11.935 C 313.857 15.558,313.921 18.096,315.181 21.889 C 316.187 24.917,316.772 25.572,319.003 26.165 C 319.414 26.274,320.087 26.543,320.500 26.761 C 322.420 27.779,326.275 27.772,328.083 26.749 C 328.450 26.541,329.238 26.213,329.834 26.019 C 332.261 25.231,333.460 23.021,334.009 18.326 C 334.350 15.414,333.422 9.769,332.477 9.000 C 332.195 8.771,331.502 8.127,330.937 7.569 L 329.909 6.554 328.580 6.446 C 325.973 6.234,323.052 6.194,321.000 6.342 M345.417 6.337 C 344.683 6.414,343.758 6.594,343.360 6.737 C 342.909 6.898,342.533 6.942,342.360 6.853 C 341.091 6.200,338.406 6.245,337.720 6.932 L 337.333 7.318 337.333 16.186 L 337.333 25.054 337.756 25.775 C 337.995 26.183,338.339 26.533,338.548 26.580 C 340.763 27.083,341.149 26.989,342.121 25.716 L 342.567 25.130 342.575 19.690 L 342.583 14.250 343.125 13.320 C 343.423 12.808,343.667 12.272,343.667 12.129 C 343.667 11.140,345.786 10.516,348.276 10.771 C 350.539 11.003,350.759 11.853,350.633 19.908 C 350.551 25.192,350.570 25.384,351.258 26.142 C 351.287 26.174,351.806 26.380,352.412 26.600 L 353.513 26.999 354.313 26.594 C 354.753 26.371,355.341 25.929,355.619 25.613 L 356.124 25.037 356.060 20.060 C 355.971 13.158,355.915 11.882,355.690 11.611 C 355.582 11.482,355.307 10.824,355.078 10.150 C 353.906 6.705,351.374 5.706,345.417 6.337 M201.513 6.846 C 200.772 7.587,200.886 7.922,202.211 8.894 C 202.556 9.147,203.027 9.727,203.258 10.183 C 203.490 10.639,203.871 11.179,204.106 11.381 C 204.342 11.584,204.823 12.323,205.177 13.024 C 205.530 13.724,206.074 14.512,206.385 14.774 C 207.706 15.885,207.688 16.758,206.309 18.425 C 205.934 18.879,205.460 19.626,205.257 20.085 C 205.009 20.645,204.672 21.063,204.235 21.354 C 203.877 21.592,203.396 22.128,203.167 22.545 C 202.938 22.962,202.412 23.557,202.000 23.868 C 201.003 24.617,200.934 25.830,201.834 26.796 C 202.310 27.307,203.919 27.157,205.009 26.501 C 205.427 26.249,205.927 25.993,206.120 25.931 C 206.810 25.713,207.280 25.175,207.679 24.149 C 207.934 23.493,208.398 22.765,208.935 22.179 C 209.403 21.668,209.913 21.002,210.068 20.700 C 210.616 19.633,211.065 19.810,211.853 21.403 C 212.129 21.961,212.581 22.652,212.858 22.939 C 213.135 23.227,213.599 23.939,213.890 24.522 C 214.288 25.320,214.563 25.653,215.001 25.865 C 218.587 27.598,219.731 27.559,220.276 25.685 L 220.544 24.762 219.619 23.923 C 219.111 23.461,218.577 22.846,218.433 22.555 C 218.289 22.264,217.823 21.741,217.397 21.392 C 216.964 21.037,216.493 20.457,216.331 20.079 C 216.171 19.706,215.739 19.052,215.370 18.626 C 213.961 16.998,213.932 16.056,215.250 14.667 C 215.641 14.254,216.167 13.450,216.418 12.879 C 216.697 12.247,217.090 11.677,217.423 11.423 C 217.724 11.194,218.142 10.626,218.352 10.161 C 218.618 9.573,218.974 9.144,219.524 8.749 C 221.814 7.103,219.676 5.698,216.243 6.592 C 214.989 6.919,214.503 7.387,213.991 8.760 C 213.680 9.594,213.411 9.996,212.855 10.454 C 212.454 10.785,212.030 11.286,211.911 11.569 C 211.285 13.063,210.462 13.068,209.724 11.583 C 209.497 11.125,209.057 10.525,208.748 10.250 C 208.382 9.924,208.015 9.314,207.696 8.501 C 207.112 7.017,206.778 6.735,205.333 6.507 C 203.186 6.168,202.094 6.265,201.513 6.846 M244.963 6.593 C 244.171 7.023,244.167 7.064,244.167 15.051 C 244.167 24.891,244.176 24.918,248.008 26.420 C 248.583 26.645,249.199 26.961,249.377 27.123 C 250.019 27.703,253.615 27.546,254.523 26.897 C 255.814 25.976,256.105 25.955,258.794 26.590 C 261.898 27.323,261.833 27.544,261.833 16.186 L 261.833 7.368 261.244 6.851 C 260.387 6.098,258.620 6.082,257.794 6.819 L 257.250 7.305 257.167 13.886 C 257.073 21.290,257.158 20.831,255.750 21.536 C 255.383 21.719,254.841 22.100,254.544 22.382 C 253.280 23.583,251.325 23.207,249.392 21.392 L 248.833 20.867 248.833 14.167 L 248.833 7.467 248.267 6.900 C 247.616 6.250,245.891 6.090,244.963 6.593 M307.583 6.446 C 306.833 6.644,305.666 7.220,305.658 7.396 C 305.559 9.431,305.703 25.090,305.822 25.313 C 306.012 25.667,306.862 26.336,307.613 26.724 C 308.425 27.142,310.154 26.580,310.748 25.705 L 311.167 25.089 311.167 16.226 L 311.167 7.363 310.654 6.931 C 310.340 6.667,309.936 6.499,309.612 6.498 C 309.321 6.497,308.821 6.465,308.500 6.427 C 308.179 6.389,307.767 6.397,307.583 6.446 M192.551 10.834 C 194.038 11.242,194.333 11.561,194.333 12.761 C 194.333 14.646,194.400 14.615,190.044 14.731 L 186.839 14.817 186.325 14.384 C 185.663 13.827,185.726 12.070,186.435 11.333 C 187.356 10.376,190.077 10.154,192.551 10.834 M328.068 11.325 C 328.546 11.803,328.558 11.857,328.725 14.428 C 329.031 19.146,328.654 21.195,327.357 21.857 C 327.062 22.008,326.525 22.326,326.164 22.565 C 324.688 23.542,321.426 22.749,320.410 21.167 C 319.211 19.299,319.510 11.905,320.818 11.083 C 321.827 10.450,327.378 10.635,328.068 11.325 M19.833 14.414 C 18.962 14.528,17.805 14.707,17.261 14.811 C 16.717 14.915,15.920 15.000,15.490 15.000 C 14.106 15.000,13.638 15.178,12.839 16.005 C 12.423 16.435,11.877 16.893,11.625 17.023 C 11.013 17.339,8.693 19.904,8.593 20.376 C 8.549 20.582,8.426 21.200,8.320 21.750 C 8.214 22.300,7.914 23.327,7.654 24.033 C 6.899 26.082,6.798 27.464,6.863 34.785 L 6.923 41.417 7.618 43.417 C 8.000 44.517,8.467 46.127,8.657 46.995 C 8.993 48.534,9.025 48.596,9.959 49.515 C 10.486 50.033,11.106 50.698,11.337 50.993 C 11.692 51.446,11.974 51.580,13.165 51.862 C 14.565 52.194,15.204 52.453,16.000 53.010 C 17.674 54.183,25.572 54.059,27.462 52.829 C 29.818 51.297,31.890 51.139,33.284 52.387 C 33.632 52.698,34.324 53.086,34.822 53.250 L 35.727 53.547 36.188 53.030 C 37.135 51.970,37.167 51.611,37.164 42.011 C 37.161 32.380,37.098 31.604,36.253 30.877 L 35.815 30.500 29.169 30.500 L 22.524 30.500 22.197 30.916 C 21.368 31.970,21.429 34.148,22.316 35.141 L 22.750 35.626 27.000 35.513 C 31.735 35.386,31.520 35.339,31.994 36.605 C 32.886 38.989,32.322 43.281,30.911 44.856 C 30.613 45.190,30.319 45.685,30.259 45.958 C 30.071 46.817,29.406 47.253,27.829 47.553 C 27.048 47.702,25.923 47.979,25.329 48.170 C 23.754 48.675,21.299 48.793,19.968 48.427 C 15.954 47.324,15.861 47.280,14.403 45.791 L 13.056 44.416 12.944 41.348 C 12.769 36.515,12.812 28.164,13.027 25.333 L 13.223 22.750 13.758 22.250 C 14.052 21.975,14.508 21.556,14.771 21.319 C 15.034 21.082,15.475 20.612,15.750 20.275 L 16.250 19.662 19.333 19.468 C 21.610 19.324,23.331 19.320,25.910 19.451 L 29.403 19.630 29.827 20.169 C 30.059 20.466,30.644 21.099,31.125 21.577 C 31.829 22.274,32.083 22.684,32.417 23.667 C 33.004 25.392,33.132 25.500,34.594 25.500 C 36.469 25.500,37.189 24.239,36.913 21.442 C 36.766 19.963,36.625 19.701,35.195 18.250 C 32.531 15.546,31.757 15.014,30.481 15.006 C 29.967 15.003,29.142 14.923,28.648 14.828 C 25.126 14.156,22.670 14.040,19.833 14.414 M77.333 14.418 C 76.554 14.551,75.013 14.764,73.909 14.891 C 71.850 15.129,71.165 15.357,70.583 16.001 C 70.400 16.203,69.679 16.771,68.981 17.263 C 67.620 18.223,67.357 18.630,66.767 20.697 C 66.619 21.218,66.309 21.868,66.079 22.142 C 65.035 23.382,64.933 24.393,64.928 33.583 C 64.922 42.911,64.972 43.429,66.045 45.202 C 66.386 45.767,66.701 46.581,66.818 47.202 C 67.113 48.772,67.298 49.114,68.105 49.587 C 68.510 49.824,69.016 50.297,69.231 50.637 C 69.805 51.545,69.995 51.653,71.524 51.936 C 72.396 52.098,73.294 52.399,73.927 52.743 C 76.545 54.166,83.670 54.264,86.667 52.917 C 87.354 52.608,88.472 52.207,89.150 52.025 C 90.254 51.731,90.478 51.597,91.271 50.765 C 91.760 50.252,92.232 49.833,92.322 49.833 C 92.411 49.833,92.744 49.389,93.063 48.846 C 93.381 48.303,93.936 47.564,94.296 47.204 C 95.084 46.416,95.085 46.410,95.420 40.786 C 95.729 35.577,95.728 31.346,95.415 26.303 C 95.102 21.242,95.022 20.879,93.978 19.726 C 93.532 19.233,93.167 18.728,93.167 18.604 C 93.167 18.218,92.499 17.506,91.803 17.151 C 91.437 16.964,90.825 16.478,90.444 16.071 L 89.750 15.331 86.333 14.823 C 82.219 14.211,79.317 14.081,77.333 14.418 M43.733 15.233 L 43.167 15.800 43.167 33.560 C 43.167 52.599,43.173 52.739,44.005 53.253 C 44.529 53.577,63.898 53.331,64.255 52.996 C 65.079 52.221,65.295 50.873,64.821 49.453 C 64.268 47.794,64.912 47.921,57.290 47.964 C 49.864 48.006,48.867 47.915,48.295 47.149 C 47.987 46.736,47.977 46.239,47.994 31.391 L 48.011 16.059 47.657 15.610 C 46.761 14.469,44.695 14.271,43.733 15.233 M101.718 14.863 C 100.550 14.993,100.087 15.192,99.828 15.676 C 99.703 15.910,99.653 21.324,99.662 33.542 L 99.675 51.072 100.062 51.917 C 100.662 53.228,100.619 53.221,108.417 53.294 C 115.907 53.363,118.575 53.212,120.607 52.602 C 121.353 52.378,122.403 52.142,122.940 52.077 C 124.343 51.908,124.919 51.621,125.408 50.847 C 125.643 50.474,126.133 49.981,126.497 49.752 C 127.393 49.186,127.612 48.781,127.748 47.435 C 127.812 46.804,128.054 45.679,128.286 44.935 C 128.843 43.144,128.873 40.823,128.363 39.000 C 128.171 38.313,127.925 37.225,127.816 36.584 C 127.609 35.364,127.486 35.189,125.989 33.990 C 125.329 33.461,125.405 33.103,126.412 32.013 C 127.944 30.354,128.542 25.173,127.770 20.250 C 127.436 18.125,127.317 17.878,126.309 17.237 C 125.975 17.025,125.388 16.517,125.005 16.108 C 124.017 15.053,123.469 14.977,116.333 14.897 C 113.079 14.861,108.692 14.813,106.583 14.790 C 104.475 14.766,102.286 14.799,101.718 14.863 M144.609 14.815 C 143.185 14.942,142.812 15.333,142.416 17.110 C 142.209 18.042,141.997 18.502,141.497 19.107 C 140.858 19.880,140.500 20.915,140.500 21.987 C 140.500 22.728,140.047 23.825,139.431 24.577 C 138.686 25.486,138.400 26.207,138.163 27.781 C 137.947 29.210,137.817 29.545,137.238 30.167 C 136.734 30.709,136.393 31.547,136.253 32.583 C 136.073 33.911,135.679 34.958,135.047 35.786 C 134.267 36.808,134.056 37.358,133.912 38.750 C 133.782 40.004,133.522 40.674,132.906 41.333 C 132.390 41.887,132.070 42.688,131.840 44.001 C 131.557 45.617,131.205 46.572,130.729 47.018 C 129.914 47.779,129.339 50.094,129.585 51.624 C 129.779 52.831,129.829 52.944,130.243 53.133 C 132.143 53.999,133.229 53.574,134.205 51.583 C 134.565 50.850,135.109 49.896,135.414 49.463 C 135.827 48.876,136.017 48.369,136.162 47.463 C 136.616 44.629,136.939 44.041,138.476 43.262 L 139.328 42.830 145.923 42.815 L 152.518 42.800 153.172 43.254 C 154.644 44.274,155.400 45.580,155.583 47.417 C 155.725 48.844,156.147 49.753,157.635 51.833 L 158.768 53.417 159.926 53.377 C 162.097 53.304,162.260 53.094,162.225 50.412 C 162.201 48.603,161.952 47.733,161.250 47.000 C 160.696 46.421,160.378 45.586,160.004 43.731 C 159.767 42.550,159.563 41.986,159.217 41.552 C 158.360 40.478,158.183 40.109,158.079 39.176 C 157.910 37.674,157.535 36.572,156.919 35.764 C 156.151 34.758,155.898 34.112,155.663 32.553 C 155.441 31.089,155.341 30.849,154.573 29.946 C 154.125 29.421,153.981 29.040,153.752 27.779 C 153.439 26.064,153.008 24.951,152.417 24.333 C 151.849 23.740,151.551 22.925,151.412 21.583 C 151.280 20.308,151.034 19.700,150.317 18.877 C 149.875 18.369,149.333 16.959,149.333 16.315 C 149.333 15.614,148.271 14.833,147.314 14.831 C 146.820 14.830,146.267 14.803,146.083 14.771 C 145.900 14.739,145.237 14.758,144.609 14.815 M166.596 15.069 C 166.053 15.299,165.504 15.592,165.375 15.721 C 165.176 15.919,165.142 18.633,165.150 33.500 L 165.161 51.045 165.834 51.937 C 166.960 53.428,166.177 53.333,177.377 53.333 C 188.639 53.333,187.584 53.477,188.418 51.832 C 188.931 50.818,188.934 50.472,188.439 49.417 C 187.693 47.829,188.401 47.947,179.470 47.931 L 171.611 47.917 171.222 47.182 L 170.833 46.448 170.833 31.143 L 170.833 15.839 170.375 15.328 C 169.704 14.581,168.025 14.466,166.596 15.069 M86.297 19.834 C 87.346 20.285,88.127 21.116,88.919 22.621 C 89.245 23.242,89.691 23.996,89.910 24.298 C 90.504 25.115,90.583 26.279,90.583 34.167 C 90.583 42.041,90.565 42.208,89.509 44.000 C 89.157 44.596,88.776 45.398,88.661 45.783 C 88.346 46.840,87.802 47.233,86.197 47.567 C 85.434 47.725,84.347 48.004,83.780 48.188 C 82.472 48.610,79.517 48.792,78.392 48.518 C 77.441 48.287,74.965 47.549,74.250 47.283 C 73.646 47.059,72.059 45.598,71.732 44.966 C 70.760 43.086,70.203 32.386,70.826 27.583 C 70.910 26.942,71.063 25.742,71.167 24.917 C 71.444 22.729,71.604 22.238,72.186 21.801 C 72.706 21.410,73.068 21.044,73.861 20.108 C 74.412 19.457,75.656 19.345,81.590 19.415 C 85.140 19.457,85.496 19.489,86.297 19.834 M120.506 19.793 C 121.052 20.168,122.499 21.615,122.874 22.160 C 123.323 22.814,123.295 26.645,122.832 27.883 C 121.954 30.227,120.346 30.633,112.122 30.580 C 104.964 30.535,105.493 31.004,105.546 24.755 L 105.583 20.260 106.250 19.883 C 107.174 19.360,119.760 19.280,120.506 19.793 M378.953 22.168 C 378.673 22.388,378.490 22.778,378.358 23.437 C 378.072 24.860,378.113 25.106,378.753 25.815 L 379.339 26.463 382.461 26.382 C 386.597 26.273,388.079 26.459,388.623 27.154 C 388.844 27.436,389.345 27.855,389.738 28.085 C 391.150 28.913,391.083 28.632,391.083 33.726 C 391.083 41.689,392.397 41.149,373.025 41.159 L 359.800 41.167 359.215 40.581 C 358.532 39.899,358.557 39.837,359.947 38.811 C 360.422 38.460,360.936 37.961,361.089 37.701 C 361.243 37.442,361.699 37.021,362.103 36.765 C 363.260 36.033,363.375 35.780,363.002 34.798 C 362.186 32.652,360.224 31.679,359.225 32.926 C 358.964 33.252,358.542 33.721,358.287 33.968 C 358.033 34.215,357.531 34.717,357.173 35.083 C 356.815 35.450,356.338 35.928,356.114 36.145 C 355.741 36.506,355.084 37.159,353.936 38.311 C 353.695 38.553,353.255 38.986,352.958 39.275 C 352.660 39.564,352.179 40.052,351.890 40.359 C 351.600 40.666,351.121 41.109,350.826 41.344 C 350.482 41.617,350.156 42.126,349.918 42.760 C 349.714 43.305,349.489 43.887,349.417 44.055 C 349.315 44.295,349.499 44.556,350.269 45.264 C 351.453 46.355,351.147 46.055,353.226 48.167 C 354.174 49.129,355.167 50.111,355.433 50.348 C 355.699 50.585,356.183 51.073,356.509 51.431 C 356.834 51.790,357.360 52.308,357.678 52.583 C 357.995 52.858,358.404 53.271,358.586 53.500 C 358.768 53.729,359.159 54.117,359.456 54.362 L 359.994 54.807 360.872 54.466 C 362.585 53.802,362.820 53.675,363.080 53.279 C 363.529 52.593,361.840 50.149,360.227 49.153 C 359.915 48.959,359.542 48.575,359.398 48.298 C 359.255 48.022,358.836 47.467,358.466 47.066 L 357.794 46.336 358.689 45.919 L 359.583 45.501 374.833 45.502 C 393.096 45.503,391.519 45.692,393.887 43.226 C 395.822 41.211,395.836 41.148,395.823 34.527 C 395.809 27.212,395.783 27.009,394.742 26.008 C 394.288 25.572,393.717 24.912,393.472 24.542 C 393.166 24.078,392.830 23.804,392.389 23.662 C 392.038 23.549,391.052 23.160,390.199 22.798 C 388.432 22.049,388.347 22.038,383.136 21.930 C 379.604 21.856,379.330 21.871,378.953 22.168 M146.375 22.292 C 146.518 22.452,146.725 23.183,146.834 23.917 C 147.066 25.468,147.335 26.192,147.982 27.000 C 148.761 27.974,149.010 28.619,149.179 30.109 C 149.353 31.641,149.458 31.922,150.203 32.852 C 151.241 34.148,151.495 36.964,150.658 37.895 C 150.413 38.167,141.473 38.051,141.147 37.772 C 140.412 37.142,140.603 33.837,141.445 32.632 C 142.386 31.284,142.469 31.118,142.582 30.366 C 142.822 28.767,143.336 27.128,143.755 26.631 C 144.394 25.871,144.761 25.040,144.990 23.833 C 145.271 22.349,145.851 21.704,146.375 22.292 M118.333 36.012 C 122.862 36.862,123.130 37.186,123.154 41.867 C 123.176 45.881,122.881 46.629,121.045 47.222 C 118.936 47.904,117.856 48.000,112.272 48.000 C 105.032 48.000,105.500 48.410,105.501 42.064 C 105.502 37.442,105.504 37.432,106.415 36.238 L 106.807 35.723 112.112 35.782 C 115.030 35.814,117.829 35.918,118.333 36.012 M262.424 61.488 C 262.301 61.688,262.614 61.886,262.836 61.748 C 263.022 61.633,262.900 61.333,262.667 61.333 C 262.586 61.333,262.477 61.403,262.424 61.488 M76.319 62.348 C 76.127 62.539,75.858 62.971,75.719 63.306 C 75.243 64.463,74.922 64.667,73.572 64.667 C 71.620 64.667,71.417 64.951,71.285 67.862 C 71.075 72.513,72.106 73.721,75.820 73.175 C 77.735 72.893,78.050 71.937,77.968 66.661 C 77.905 62.642,77.385 61.282,76.319 62.348 M59.050 62.542 C 58.862 62.748,58.575 63.204,58.412 63.554 C 58.009 64.424,57.569 64.666,56.182 64.783 C 54.253 64.944,54.055 65.275,53.904 68.583 L 53.812 70.583 54.379 71.583 C 55.794 74.077,59.929 73.924,60.479 71.359 C 60.729 70.192,60.729 63.767,60.479 63.281 C 60.259 62.853,59.656 62.167,59.500 62.167 C 59.440 62.167,59.238 62.335,59.050 62.542 M136.704 62.733 L 136.207 63.299 136.279 66.691 C 136.379 71.352,136.896 73.484,137.648 72.335 C 138.230 71.446,138.936 70.777,139.588 70.498 L 140.270 70.206 139.968 68.083 C 139.699 66.189,139.613 65.900,139.174 65.399 C 138.903 65.090,138.569 64.459,138.431 63.997 C 137.913 62.252,137.434 61.901,136.704 62.733 M164.990 62.510 C 164.801 62.699,164.504 63.185,164.331 63.589 C 164.158 63.993,163.711 64.654,163.339 65.058 C 162.631 65.826,162.591 66.192,163.180 66.507 C 164.028 66.961,164.382 67.772,164.348 69.185 C 164.315 70.555,164.643 72.006,165.095 72.486 C 165.682 73.110,166.333 71.384,166.333 69.200 L 166.333 67.794 166.975 67.189 C 167.328 66.856,167.789 66.466,168.001 66.323 C 168.502 65.984,168.380 65.464,167.599 64.612 C 167.193 64.169,166.983 63.751,166.906 63.234 C 166.744 62.155,165.728 61.772,164.990 62.510 M13.552 62.659 C 12.728 63.161,12.699 63.321,12.765 67.083 C 12.874 73.315,12.744 73.081,16.181 73.248 L 18.446 73.357 18.973 72.914 C 20.024 72.030,19.266 71.333,17.253 71.333 C 15.219 71.333,14.494 70.450,15.567 69.280 L 16.133 68.661 17.295 68.769 C 18.938 68.922,19.686 68.212,18.779 67.361 C 18.422 67.025,18.309 67.009,17.321 67.153 L 16.250 67.310 15.625 66.661 C 14.866 65.874,14.864 65.833,15.536 65.068 L 16.072 64.457 17.259 64.558 C 18.776 64.686,19.617 64.087,19.077 63.263 C 18.665 62.635,18.478 62.572,17.303 62.669 C 16.724 62.717,16.025 62.706,15.750 62.644 C 14.382 62.334,14.081 62.336,13.552 62.659 M247.191 62.601 C 245.723 63.630,246.076 73.000,247.583 73.000 C 249.157 73.000,249.419 63.349,247.868 62.519 C 247.636 62.394,247.456 62.416,247.191 62.601 M259.938 62.811 C 259.202 63.580,258.756 65.617,259.083 66.718 C 259.221 67.182,259.333 68.122,259.333 68.808 C 259.333 73.716,261.386 74.636,261.622 69.833 C 261.721 67.833,261.914 67.330,262.799 66.772 C 264.038 65.990,264.096 65.358,262.991 64.685 C 262.355 64.299,262.078 63.914,261.923 63.198 C 261.717 62.255,260.667 62.050,259.938 62.811 M320.694 62.600 C 319.817 63.214,319.378 65.294,319.772 66.972 C 319.934 67.661,320.000 68.459,319.946 69.071 C 319.791 70.838,321.746 73.333,323.284 73.333 C 325.024 73.333,325.182 71.559,323.469 71.246 C 321.706 70.924,321.644 67.689,323.385 66.862 C 325.007 66.091,325.091 65.649,323.740 64.995 C 322.989 64.632,322.460 64.094,321.974 63.202 C 321.588 62.491,321.145 62.283,320.694 62.600 M30.683 62.899 C 30.007 63.619,29.608 65.644,29.912 66.817 C 30.052 67.357,30.167 68.371,30.167 69.071 C 30.167 71.728,32.551 74.050,34.220 73.019 C 35.231 72.394,35.063 71.682,33.816 71.308 C 32.021 70.771,31.909 67.730,33.650 66.841 C 35.094 66.105,35.082 65.637,33.594 64.765 C 33.215 64.543,32.798 64.148,32.669 63.889 C 32.017 62.584,31.310 62.232,30.683 62.899 M84.907 62.673 C 84.493 62.827,83.667 63.651,83.667 63.910 C 83.667 64.019,83.470 64.290,83.229 64.513 C 81.863 65.772,82.091 70.833,83.514 70.833 C 83.859 70.833,84.500 71.586,84.500 71.991 C 84.500 73.431,89.199 73.802,90.085 72.433 C 90.568 71.686,90.580 70.129,90.106 69.686 L 89.681 69.289 89.299 69.752 C 88.385 70.860,88.012 71.167,87.580 71.167 C 86.914 71.167,86.131 70.731,85.704 70.123 C 85.495 69.826,85.139 69.328,84.912 69.017 C 84.548 68.517,84.500 68.280,84.500 66.989 L 84.500 65.528 85.292 65.235 C 85.727 65.074,86.411 64.818,86.812 64.666 C 87.498 64.405,87.605 64.407,88.645 64.696 C 90.335 65.165,91.475 64.105,90.442 63.027 L 89.988 62.552 87.609 62.552 C 86.301 62.552,85.085 62.606,84.907 62.673 M191.755 62.625 C 188.464 62.687,188.280 62.790,188.095 64.669 C 187.937 66.271,188.475 67.188,189.673 67.360 C 189.967 67.402,190.115 67.571,190.234 68.000 C 190.452 68.786,190.546 68.828,192.088 68.831 C 193.963 68.834,194.953 69.701,194.271 70.741 C 193.541 71.855,190.167 71.434,190.167 70.229 C 190.167 68.999,189.303 68.607,188.620 69.527 C 188.194 70.100,188.338 70.722,189.054 71.408 C 189.346 71.688,189.710 72.112,189.863 72.350 C 190.755 73.739,193.642 73.715,194.925 72.307 C 195.204 72.001,195.671 71.623,195.963 71.468 C 198.220 70.268,197.310 66.448,194.863 66.852 C 193.599 67.060,190.927 67.027,190.700 66.800 C 190.372 66.472,190.465 65.559,190.875 65.084 C 191.370 64.510,192.619 64.378,194.377 64.714 C 195.784 64.982,196.215 64.843,196.683 63.969 C 196.988 63.400,195.976 62.489,195.092 62.537 C 194.721 62.558,193.219 62.597,191.755 62.625 M290.231 63.055 C 289.967 63.366,289.544 64.007,289.292 64.477 C 288.761 65.469,288.918 65.439,286.077 65.085 C 281.590 64.525,281.004 64.801,281.001 67.480 C 280.999 69.795,282.492 70.238,283.976 68.363 C 284.341 67.902,284.733 67.655,285.524 67.387 C 286.107 67.189,287.031 66.839,287.579 66.608 C 288.699 66.135,288.782 66.162,289.439 67.203 C 289.778 67.739,289.833 68.037,289.833 69.322 C 289.833 72.296,290.138 72.880,291.835 73.156 C 293.989 73.506,294.743 71.958,292.809 71.157 C 292.128 70.875,291.833 70.210,291.833 68.957 C 291.833 67.761,291.927 67.596,293.031 66.856 C 294.242 66.044,294.224 65.383,292.973 64.736 C 292.728 64.609,292.203 64.079,291.806 63.558 C 290.909 62.381,290.825 62.354,290.231 63.055 M354.991 62.984 L 354.547 63.427 354.463 66.838 C 354.365 70.768,354.458 71.161,355.760 72.307 C 357.520 73.857,361.000 73.601,361.000 71.923 C 361.000 71.476,361.596 71.048,362.383 70.930 C 364.008 70.687,364.200 70.186,363.825 67.162 C 363.596 65.316,362.467 63.582,361.009 62.838 C 359.936 62.290,355.578 62.396,354.991 62.984 M372.639 63.208 C 372.526 63.415,372.381 64.067,372.318 64.659 C 372.142 66.301,371.143 66.893,370.352 65.823 C 369.244 64.325,366.168 64.194,365.064 65.599 C 364.737 66.015,365.070 67.192,365.652 67.678 C 366.124 68.072,366.167 68.192,366.167 69.127 C 366.167 70.588,366.474 70.605,366.534 69.147 C 366.591 67.773,366.815 67.502,368.192 67.142 C 369.507 66.799,369.833 67.146,369.833 68.890 C 369.833 72.635,371.002 73.475,372.893 71.090 C 373.407 70.442,373.417 70.396,373.425 68.590 C 373.430 67.462,373.556 66.146,373.752 65.188 L 374.072 63.626 373.578 63.230 C 372.967 62.742,372.896 62.740,372.639 63.208 M376.648 63.238 L 376.052 63.643 375.943 65.681 C 375.692 70.343,375.933 72.128,376.885 72.666 C 377.498 73.011,377.958 72.531,378.265 71.228 C 378.726 69.266,378.288 63.900,377.610 63.209 L 377.243 62.834 376.648 63.238 M359.190 64.755 C 360.996 65.135,361.047 65.211,360.968 67.416 C 360.875 70.024,359.997 71.159,358.067 71.165 C 356.501 71.170,355.856 66.426,357.224 64.958 C 357.725 64.421,357.642 64.429,359.190 64.755 M22.205 64.925 C 21.307 65.554,21.438 66.371,22.584 67.285 C 23.293 67.851,23.305 68.092,22.677 69.211 C 21.422 71.447,22.108 74.239,23.407 72.182 C 24.159 70.990,25.580 70.912,26.056 72.036 C 26.534 73.167,27.208 73.388,27.733 72.586 C 27.968 72.227,27.951 72.134,27.505 71.308 C 26.502 69.452,26.300 68.939,26.275 68.189 L 26.250 67.417 27.167 66.978 C 27.671 66.737,28.233 66.373,28.417 66.169 L 28.750 65.797 28.191 65.330 C 27.207 64.508,25.833 64.988,25.833 66.154 C 25.833 67.136,24.385 66.915,23.842 65.851 C 23.308 64.804,22.793 64.513,22.205 64.925 M45.991 65.126 C 44.784 66.204,44.859 71.516,46.097 72.679 L 46.508 73.066 46.855 72.719 C 47.312 72.262,47.661 70.722,47.664 69.147 C 47.668 67.242,48.282 66.585,49.349 67.345 C 49.811 67.674,49.833 67.748,49.835 68.970 C 49.839 71.132,50.446 72.918,51.006 72.411 C 51.695 71.787,52.038 70.162,51.975 67.811 L 51.917 65.639 51.372 65.153 C 50.548 64.416,46.806 64.398,45.991 65.126 M93.478 65.138 L 92.948 65.611 92.932 68.191 L 92.917 70.770 93.418 71.584 C 94.156 72.782,95.169 73.261,96.869 73.216 C 99.164 73.154,99.419 72.715,99.411 68.833 C 99.405 65.875,99.328 65.446,98.726 65.052 C 97.830 64.465,97.401 65.345,97.294 67.993 C 97.198 70.350,96.970 71.020,96.224 71.132 C 95.465 71.247,95.254 70.638,95.203 68.191 C 95.140 65.098,94.597 64.138,93.478 65.138 M102.013 65.179 L 101.500 65.692 101.500 67.855 C 101.500 73.468,103.459 74.911,103.808 69.554 C 103.939 67.533,104.197 67.128,105.533 66.842 C 105.987 66.744,106.509 66.584,106.693 66.486 C 107.414 66.100,107.998 67.304,108.003 69.186 C 108.014 73.783,110.077 74.037,110.292 69.468 C 110.403 67.096,110.566 66.915,112.547 66.971 C 115.054 67.041,115.167 67.127,115.167 68.964 C 115.167 70.036,115.379 71.065,115.668 71.387 C 115.990 71.747,116.500 70.371,116.500 69.141 C 116.500 67.949,116.413 67.647,115.710 66.417 C 115.606 66.233,115.477 65.879,115.425 65.630 C 115.219 64.651,113.200 64.431,109.543 64.986 L 107.169 65.347 106.067 65.007 C 104.293 64.459,102.664 64.528,102.013 65.179 M121.250 64.931 C 118.144 66.038,117.141 70.304,119.684 71.592 C 120.126 71.816,120.565 72.143,120.659 72.318 C 121.220 73.367,123.685 73.659,124.625 72.789 C 125.370 72.099,124.741 70.740,123.801 71.009 C 121.829 71.575,121.167 71.108,121.167 69.152 C 121.167 67.272,121.423 67.000,123.195 67.000 C 124.477 67.000,124.553 66.978,125.016 66.482 C 126.271 65.140,123.669 64.068,121.250 64.931 M132.358 65.194 L 131.833 65.706 131.833 68.033 L 131.833 70.359 131.339 70.854 C 130.865 71.327,130.827 71.337,130.436 71.081 C 129.877 70.715,129.864 70.656,129.733 68.014 C 129.604 65.398,129.209 64.531,128.354 64.989 C 126.968 65.731,127.197 71.994,128.638 72.733 C 129.952 73.408,132.689 73.386,133.379 72.695 C 134.197 71.877,134.533 66.344,133.820 65.438 C 133.212 64.665,132.944 64.620,132.358 65.194 M149.340 65.024 C 148.839 65.196,148.372 65.394,148.302 65.464 C 148.232 65.534,147.667 65.547,147.046 65.493 C 145.397 65.348,145.167 65.596,145.167 67.513 C 145.167 70.151,144.757 70.667,142.661 70.667 C 140.870 70.667,140.777 70.714,140.597 71.713 C 140.398 72.813,141.165 73.393,142.625 73.249 C 143.881 73.125,145.163 72.590,145.417 72.083 C 145.779 71.359,145.793 71.353,146.625 71.573 C 147.061 71.688,147.587 71.837,147.795 71.904 C 148.406 72.099,149.038 70.556,148.975 69.021 C 148.905 67.294,149.571 66.814,151.099 67.490 L 151.881 67.836 151.782 69.020 C 151.681 70.231,152.137 71.808,152.520 71.571 C 153.029 71.256,153.349 70.124,153.241 69.023 L 153.130 67.900 153.832 67.584 C 154.522 67.273,154.548 67.273,155.475 67.592 C 156.511 67.949,156.517 67.962,156.283 69.500 C 156.191 70.106,156.232 70.330,156.495 70.667 L 156.820 71.083 157.353 70.554 L 157.886 70.025 157.643 69.031 C 157.418 68.111,157.422 68.010,157.700 67.667 C 158.158 67.101,158.106 65.808,157.602 65.222 L 157.203 64.759 153.727 64.735 C 150.718 64.714,150.127 64.753,149.340 65.024 M171.179 65.098 C 170.897 65.335,170.666 65.692,170.664 65.890 C 170.660 66.644,170.468 66.981,169.981 67.087 C 168.569 67.398,168.546 70.558,169.954 70.911 C 170.621 71.079,170.833 71.310,170.833 71.870 C 170.833 73.568,174.425 73.963,175.173 72.347 C 175.282 72.110,175.428 71.804,175.495 71.667 C 175.568 71.520,175.959 71.374,176.440 71.314 C 178.072 71.111,178.906 70.408,178.521 69.562 C 178.418 69.336,178.333 68.852,178.333 68.487 C 178.333 67.641,177.953 66.723,177.557 66.614 C 177.388 66.567,176.982 66.484,176.655 66.429 C 176.256 66.362,175.936 66.162,175.684 65.821 C 174.759 64.570,172.280 64.172,171.179 65.098 M179.655 65.125 C 177.716 66.107,178.882 68.515,180.838 67.567 C 181.070 67.455,181.697 67.249,182.232 67.109 C 183.922 66.668,184.414 65.878,183.487 65.098 C 182.731 64.462,180.940 64.474,179.655 65.125 M199.406 65.227 C 198.874 65.760,198.820 65.889,198.932 66.372 C 199.002 66.672,199.046 67.753,199.030 68.775 C 198.978 72.257,199.272 72.903,201.045 73.197 C 202.289 73.403,202.866 73.258,203.502 72.581 L 203.871 72.189 203.443 71.761 C 203.208 71.526,202.880 71.332,202.716 71.330 C 201.927 71.320,201.022 70.701,200.852 70.054 C 200.312 67.999,200.702 67.249,202.488 66.914 C 202.816 66.853,203.346 66.684,203.667 66.538 C 203.987 66.392,204.512 66.185,204.833 66.077 C 205.345 65.905,205.376 65.866,205.083 65.753 C 204.900 65.683,204.338 65.437,203.833 65.206 C 203.157 64.897,202.535 64.766,201.462 64.707 L 200.007 64.626 199.406 65.227 M220.147 64.789 C 218.958 64.865,218.571 65.247,218.225 66.688 C 217.781 68.542,218.280 71.912,219.114 72.695 L 219.528 73.083 219.911 72.638 C 220.355 72.123,220.667 70.608,220.667 68.967 C 220.667 67.183,221.429 66.541,222.487 67.431 C 222.985 67.850,223.000 67.906,223.013 69.306 C 223.055 74.051,224.705 72.985,224.803 68.149 L 224.856 65.548 224.332 65.108 C 223.780 64.644,223.169 64.597,220.147 64.789 M228.930 64.833 C 226.277 65.310,225.771 70.337,228.179 72.295 C 230.069 73.833,233.259 73.380,232.691 71.655 L 232.502 71.083 231.490 71.140 C 229.601 71.247,229.437 71.101,229.259 69.159 C 229.099 67.403,229.403 67.089,231.426 66.921 C 232.920 66.796,233.449 66.463,233.305 65.734 C 233.147 64.928,230.934 64.472,228.930 64.833 M251.174 65.159 L 250.667 65.702 250.667 67.860 C 250.667 70.389,250.988 72.108,251.562 72.647 L 251.940 73.002 252.280 72.626 C 252.743 72.114,253.000 70.949,253.000 69.356 C 253.000 68.168,253.046 67.971,253.431 67.513 C 254.269 66.517,255.000 67.161,255.000 68.895 C 255.000 71.220,255.749 73.175,256.468 72.727 C 257.051 72.363,257.292 70.904,257.552 66.172 C 257.605 65.203,256.780 64.873,253.957 64.731 L 251.680 64.617 251.174 65.159 M266.553 64.834 C 265.899 65.098,265.806 65.542,265.863 68.136 C 265.970 73.005,267.457 74.058,267.834 69.530 C 267.981 67.764,268.255 67.303,269.359 66.973 C 270.465 66.641,271.151 65.944,270.777 65.530 C 270.071 64.749,267.723 64.363,266.553 64.834 M296.679 65.179 C 296.206 65.653,296.166 65.784,296.153 66.888 C 296.145 67.545,296.078 68.533,296.003 69.083 C 295.837 70.310,296.275 72.064,296.893 72.644 L 297.289 73.017 297.709 72.518 C 298.186 71.952,298.500 70.496,298.500 68.854 C 298.500 67.623,298.895 67.090,299.940 66.912 C 300.294 66.852,300.821 66.742,301.112 66.668 C 302.076 66.423,302.639 67.484,302.661 69.583 C 302.670 70.498,303.025 71.191,303.720 71.647 C 303.952 71.799,304.304 72.130,304.502 72.382 C 305.331 73.435,307.272 73.623,308.536 72.773 C 309.178 72.341,309.439 70.787,309.127 69.250 C 309.034 68.792,308.911 67.824,308.854 67.101 C 308.687 64.986,307.667 64.810,307.666 66.895 C 307.666 69.461,306.978 71.171,305.949 71.164 C 305.076 71.158,304.860 70.460,304.843 67.579 C 304.829 65.171,304.445 64.713,302.696 65.021 C 301.878 65.165,301.483 65.148,300.623 64.933 C 298.784 64.472,297.294 64.565,296.679 65.179 M313.006 65.281 C 311.313 66.152,310.847 66.979,310.837 69.136 C 310.832 70.300,311.619 71.667,312.295 71.667 C 312.424 71.667,312.766 71.936,313.056 72.266 C 314.107 73.459,316.040 73.690,317.131 72.751 L 317.581 72.364 317.202 71.583 C 316.906 70.975,316.759 70.827,316.536 70.916 C 314.571 71.703,313.667 71.143,313.667 69.141 C 313.667 67.173,313.826 67.000,315.630 67.000 C 317.879 67.000,318.889 65.937,317.444 65.090 C 316.270 64.402,314.573 64.475,313.006 65.281 M337.283 64.855 C 334.979 65.151,334.766 65.430,334.693 68.250 C 334.630 70.664,334.887 71.689,335.762 72.511 C 336.564 73.264,337.333 71.482,337.333 68.871 C 337.333 67.152,337.630 66.927,339.823 66.981 C 341.987 67.034,342.476 66.443,341.267 65.233 C 340.637 64.603,339.832 64.527,337.283 64.855 M344.254 65.185 C 343.929 65.470,343.618 65.884,343.563 66.105 C 343.445 66.573,342.752 67.167,342.322 67.167 C 341.200 67.167,341.887 70.573,343.112 71.084 C 343.527 71.258,343.688 71.461,343.830 71.988 C 344.158 73.205,346.301 73.777,347.500 72.966 C 348.746 72.124,348.176 71.174,346.166 70.740 C 344.563 70.393,344.308 70.175,344.933 69.683 C 345.880 68.939,346.863 68.804,348.027 69.260 C 349.329 69.771,349.203 69.798,349.633 68.912 C 350.113 67.926,350.124 67.980,349.208 66.927 C 348.773 66.426,348.244 65.790,348.034 65.514 C 347.278 64.523,345.213 64.343,344.254 65.185 M381.013 65.098 L 380.500 65.530 380.500 67.730 C 380.500 73.089,382.344 74.453,382.627 69.304 C 382.801 66.133,384.833 66.222,384.833 69.400 C 384.833 71.851,385.545 73.464,386.317 72.765 C 387.820 71.405,387.798 66.758,386.282 65.373 C 385.432 64.596,381.833 64.408,381.013 65.098 M38.730 65.259 C 37.132 66.032,36.977 66.286,36.447 69.000 C 36.138 70.581,36.322 71.036,37.470 71.534 C 37.899 71.720,38.425 72.090,38.640 72.356 C 39.519 73.447,41.671 73.628,42.559 72.685 L 42.969 72.250 42.640 71.192 L 42.311 70.133 42.730 69.525 C 43.418 68.525,43.521 68.085,43.336 66.944 C 43.244 66.379,43.169 65.857,43.168 65.784 C 43.159 64.804,40.355 64.472,38.730 65.259 M64.396 64.944 C 62.120 65.186,61.731 70.761,63.876 72.397 C 65.882 73.927,68.349 73.351,68.588 71.296 C 68.652 70.739,68.883 69.901,69.101 69.433 C 69.711 68.123,69.446 66.323,68.512 65.429 C 68.061 64.996,66.088 64.764,64.396 64.944 M211.917 65.244 C 211.550 65.467,210.888 65.845,210.446 66.084 C 208.532 67.117,208.564 70.797,210.494 71.514 C 210.884 71.659,211.439 72.046,211.726 72.374 C 212.479 73.233,212.840 73.367,214.045 73.236 C 215.834 73.041,216.130 72.702,215.678 71.366 C 215.298 70.244,215.312 70.253,214.558 70.635 C 212.510 71.672,211.700 70.938,212.476 68.750 C 212.639 68.292,212.848 67.917,212.942 67.917 C 213.036 67.917,213.436 68.292,213.832 68.750 C 215.001 70.105,215.130 70.156,215.684 69.485 C 216.655 68.308,216.684 66.274,215.745 65.260 C 215.170 64.640,212.925 64.631,211.917 65.244 M236.132 65.292 C 235.895 65.544,235.649 66.012,235.585 66.333 C 235.520 66.654,235.321 67.172,235.142 67.483 C 234.752 68.160,234.847 69.597,235.337 70.417 C 235.502 70.692,235.725 71.254,235.833 71.667 C 236.138 72.830,236.489 73.102,237.846 73.228 C 240.317 73.458,241.653 71.479,239.258 71.136 C 237.617 70.901,237.341 70.134,238.348 68.613 L 238.876 67.817 239.417 68.617 C 239.714 69.057,240.117 69.560,240.312 69.734 C 240.507 69.909,240.667 70.143,240.667 70.255 C 240.667 71.044,241.148 70.768,241.642 69.695 C 242.249 68.378,242.287 67.890,241.851 67.035 C 240.863 65.101,237.324 64.022,236.132 65.292 M273.833 64.989 C 273.109 65.097,272.000 65.572,272.000 65.774 C 272.000 65.829,272.272 66.321,272.605 66.869 L 273.210 67.865 272.856 68.574 C 271.791 70.705,272.541 72.708,274.542 73.078 C 278.562 73.821,279.847 71.804,278.834 66.337 C 278.567 64.897,277.106 64.503,273.833 64.989 M326.969 65.177 C 326.143 65.607,326.119 65.674,326.351 66.858 C 326.526 67.748,326.513 68.049,326.251 69.100 C 325.873 70.618,326.061 71.030,327.292 71.385 C 327.912 71.564,328.140 71.731,328.344 72.154 C 328.936 73.381,331.000 73.694,332.380 72.766 C 333.128 72.262,333.332 70.430,332.800 69.000 C 332.612 68.496,332.423 67.633,332.380 67.083 C 332.234 65.228,331.721 65.351,331.684 67.250 C 331.638 69.606,330.804 71.167,329.591 71.167 C 328.782 71.167,328.722 70.987,328.609 68.257 C 328.509 65.813,328.498 65.754,328.045 65.310 L 327.583 64.856 326.969 65.177 M389.679 65.237 C 388.857 66.112,388.707 68.332,389.287 71.042 C 389.633 72.662,389.922 72.958,391.381 73.185 C 392.961 73.431,394.167 72.799,394.167 71.724 C 394.167 71.367,394.248 71.167,394.392 71.167 C 394.611 71.167,395.339 69.649,395.663 68.515 C 395.847 67.872,395.450 66.747,394.784 66.022 C 393.699 64.842,390.510 64.352,389.679 65.237 M75.580 69.223 C 75.297 72.089,73.538 71.949,73.370 69.047 L 73.293 67.706 73.938 67.264 L 74.583 66.823 75.140 67.426 C 75.695 68.026,75.697 68.034,75.580 69.223 M57.977 67.458 C 58.950 68.446,58.245 71.390,57.103 71.103 C 56.187 70.873,55.815 68.230,56.590 67.455 C 57.162 66.883,57.411 66.884,57.977 67.458 M174.758 67.409 C 175.119 67.771,175.167 67.963,175.167 69.065 C 175.167 71.053,175.044 71.235,173.787 71.114 C 171.332 70.878,170.687 70.201,170.865 68.048 L 170.917 67.417 172.167 67.228 C 174.075 66.939,174.304 66.955,174.758 67.409 M206.258 68.375 C 206.198 68.948,206.112 69.613,206.066 69.854 C 205.971 70.355,206.392 70.631,206.771 70.316 C 207.243 69.925,206.969 67.333,206.456 67.333 C 206.407 67.333,206.317 67.802,206.258 68.375 M41.643 69.711 C 42.180 70.294,41.871 70.696,40.632 71.024 C 39.295 71.378,38.880 70.672,39.403 68.935 C 39.802 67.609,39.951 67.551,40.628 68.460 C 40.952 68.894,41.409 69.458,41.643 69.711 M66.167 67.799 C 66.167 67.873,66.500 68.440,66.907 69.060 C 67.706 70.277,67.718 70.545,66.988 70.923 C 65.319 71.786,64.563 70.497,65.498 68.382 C 65.775 67.757,66.167 67.415,66.167 67.799 M393.440 69.243 C 394.412 70.713,394.320 71.167,393.051 71.167 C 392.266 71.167,392.074 71.099,391.651 70.676 L 391.161 70.186 391.485 69.332 C 392.000 67.977,392.344 67.522,392.569 67.898 C 392.669 68.064,393.060 68.670,393.440 69.243 M276.010 68.714 C 276.783 69.812,276.770 70.755,275.977 71.179 C 274.963 71.722,274.252 69.596,275.123 68.625 C 275.468 68.241,275.694 68.264,276.010 68.714 M285.733 68.628 C 285.463 68.808,285.167 69.429,285.167 69.815 C 285.167 70.918,284.588 71.264,283.125 71.034 C 282.076 70.870,281.855 70.984,281.519 71.866 C 281.099 72.971,283.305 73.687,284.963 72.984 C 286.693 72.250,287.971 70.564,287.495 69.643 C 286.999 68.684,286.275 68.266,285.733 68.628 " stroke="none" fill="#ffffff" fill-rule="evenodd"></path></g></svg>