<svg id="svg" version="1.1" xmlns="http://www.w3.org/2000/svg" xmlns:xlink="http://www.w3.org/1999/xlink" width="400" height="156.29522431259045" viewBox="0, 0, 400,156.29522431259045"><g id="svgg"><path id="path0" d="M335.045 114.000 C 334.886 114.185,334.553 114.333,334.296 114.333 C 334.035 114.333,333.833 114.425,333.833 114.543 C 333.833 114.659,333.683 114.847,333.500 114.961 C 333.185 115.158,333.167 115.350,333.167 118.491 L 333.167 121.812 332.625 121.864 L 332.083 121.917 332.083 122.917 L 332.083 123.917 332.625 123.969 L 333.167 124.021 333.167 128.477 C 333.167 133.240,333.183 133.333,334.000 133.333 C 334.817 133.333,334.833 133.241,334.833 128.467 L 334.833 124.000 336.055 124.000 C 337.198 124.000,337.292 123.972,337.507 123.570 C 338.108 122.448,337.569 121.846,335.958 121.839 L 334.833 121.833 334.833 119.167 C 334.833 117.288,334.889 116.500,335.023 116.500 C 335.230 116.500,335.914 115.815,336.053 115.468 C 336.108 115.330,336.145 115.360,336.154 115.551 C 336.187 116.321,337.572 115.834,337.681 115.015 C 337.850 113.749,335.902 112.999,335.045 114.000 M134.667 123.633 C 134.667 133.569,134.646 133.333,135.500 133.333 C 136.029 133.333,136.333 133.054,136.333 132.568 C 136.333 132.159,137.127 132.437,137.757 133.067 C 138.199 133.509,141.838 133.434,141.957 132.981 C 142.017 132.751,142.190 132.667,142.603 132.667 C 142.972 132.667,143.167 132.587,143.167 132.436 C 143.167 132.309,143.317 132.166,143.500 132.118 C 143.683 132.070,143.833 131.912,143.833 131.766 C 143.833 131.620,143.946 131.500,144.083 131.500 C 144.221 131.500,144.333 131.391,144.333 131.258 C 144.333 131.125,144.458 130.947,144.610 130.862 C 144.799 130.756,144.911 130.407,144.965 129.748 C 145.018 129.116,145.151 128.682,145.356 128.477 C 145.807 128.026,145.726 126.500,145.251 126.500 C 145.112 126.500,145.015 126.149,144.965 125.468 C 144.924 124.889,144.805 124.407,144.695 124.371 C 144.588 124.335,144.500 124.220,144.500 124.116 C 144.500 123.768,142.804 122.333,142.393 122.333 C 142.155 122.333,142.000 122.235,142.000 122.083 C 142.000 121.874,141.657 121.833,139.911 121.833 C 138.209 121.833,137.805 121.880,137.727 122.083 C 137.674 122.221,137.489 122.333,137.316 122.333 C 137.142 122.333,136.850 122.483,136.667 122.667 L 136.333 123.000 136.333 118.667 L 136.333 114.333 135.500 114.333 L 134.667 114.333 134.667 123.633 M225.500 123.633 C 225.500 133.569,225.480 133.333,226.333 133.333 C 227.187 133.333,227.167 133.569,227.167 123.633 L 227.167 114.333 226.333 114.333 L 225.500 114.333 225.500 123.633 M309.540 123.792 L 309.583 133.250 310.136 133.303 C 311.219 133.407,311.167 133.897,311.167 123.646 L 311.167 114.333 310.332 114.333 L 309.497 114.333 309.540 123.792 M24.875 115.610 C 24.712 115.676,24.667 117.560,24.667 124.245 L 24.667 132.795 25.077 133.064 C 25.651 133.440,30.518 133.463,30.826 133.092 C 31.053 132.819,31.024 131.525,30.784 131.208 C 30.674 131.064,30.068 131.000,28.813 131.000 L 27.000 131.000 26.998 123.625 C 26.996 119.569,26.950 116.081,26.895 115.875 C 26.796 115.505,25.542 115.341,24.875 115.610 M120.167 115.750 C 120.167 115.924,119.992 116.000,119.595 116.000 C 119.281 116.000,118.911 116.112,118.774 116.250 C 118.636 116.388,118.444 116.500,118.347 116.500 C 118.249 116.500,118.076 116.650,117.961 116.833 C 117.847 117.017,117.659 117.167,117.543 117.167 C 117.428 117.167,117.333 117.274,117.333 117.405 C 117.333 117.537,117.183 117.692,117.000 117.750 C 116.817 117.808,116.667 117.963,116.667 118.095 C 116.667 118.226,116.554 118.333,116.417 118.333 C 116.279 118.333,116.167 118.428,116.167 118.543 C 116.167 118.659,116.017 118.847,115.833 118.961 C 115.650 119.076,115.500 119.275,115.500 119.404 C 115.500 119.533,115.420 119.666,115.323 119.698 C 115.225 119.731,115.103 120.074,115.051 120.462 C 114.996 120.868,114.867 121.167,114.746 121.167 C 114.176 121.167,114.102 127.019,114.667 127.372 C 114.889 127.511,115.000 127.761,115.000 128.123 C 115.000 128.495,115.079 128.667,115.250 128.667 C 115.388 128.667,115.500 128.811,115.500 128.986 C 115.500 129.483,115.680 129.833,115.934 129.833 C 116.062 129.833,116.167 129.946,116.167 130.083 C 116.167 130.221,116.279 130.333,116.417 130.333 C 116.554 130.333,116.667 130.453,116.667 130.599 C 116.667 130.745,116.817 130.904,117.000 130.952 C 117.183 131.000,117.333 131.143,117.333 131.269 C 117.333 131.396,117.437 131.500,117.564 131.500 C 117.691 131.500,117.834 131.650,117.882 131.833 C 117.944 132.073,118.109 132.167,118.467 132.167 C 118.755 132.167,119.005 132.272,119.060 132.417 C 119.120 132.574,119.375 132.667,119.745 132.667 C 120.068 132.667,120.333 132.730,120.333 132.807 C 120.333 133.151,121.304 133.333,123.133 133.331 C 125.288 133.329,125.833 133.241,125.833 132.897 C 125.833 132.747,126.026 132.667,126.385 132.667 C 126.688 132.667,127.082 132.557,127.260 132.422 C 127.438 132.287,127.715 132.175,127.875 132.172 C 128.035 132.169,128.167 132.059,128.167 131.928 C 128.167 131.797,128.335 131.636,128.542 131.571 C 128.748 131.505,129.016 131.312,129.136 131.140 C 129.257 130.968,129.417 130.865,129.491 130.911 C 129.658 131.014,130.500 129.769,130.500 129.420 C 130.500 129.281,130.584 129.185,130.687 129.208 C 130.789 129.231,130.963 128.992,131.073 128.677 C 131.183 128.361,131.362 128.074,131.470 128.038 C 131.586 127.999,131.667 127.635,131.667 127.153 C 131.667 126.566,131.732 126.333,131.897 126.333 C 132.432 126.333,132.489 122.444,131.958 122.147 C 131.776 122.044,131.666 121.784,131.666 121.450 C 131.665 120.877,130.786 118.937,130.607 119.115 C 130.548 119.174,130.500 119.087,130.500 118.922 C 130.500 118.615,129.776 117.833,129.491 117.833 C 129.404 117.833,129.333 117.726,129.333 117.595 C 129.333 117.463,129.165 117.303,128.958 117.239 C 128.752 117.174,128.546 117.075,128.500 117.018 C 128.184 116.626,127.115 116.000,126.761 116.000 C 126.492 116.000,126.333 115.907,126.333 115.750 C 126.333 115.537,125.880 115.500,123.250 115.500 C 120.620 115.500,120.167 115.537,120.167 115.750 M190.281 115.608 C 189.949 115.940,190.161 132.985,190.500 133.167 C 190.926 133.395,198.111 133.375,198.542 133.144 C 198.943 132.930,198.919 131.391,198.511 131.173 C 198.166 130.988,198.417 131.000,194.917 131.000 L 191.833 131.000 191.833 127.833 L 191.833 124.667 194.971 124.667 C 198.706 124.667,199.380 124.351,198.642 122.947 C 198.331 122.357,198.222 122.339,194.958 122.336 L 191.833 122.333 191.833 119.753 L 191.833 117.173 195.292 117.128 L 198.750 117.083 198.750 116.333 L 198.750 115.583 194.572 115.539 C 192.274 115.514,190.343 115.546,190.281 115.608 M297.932 115.916 C 297.874 116.144,297.833 119.988,297.839 124.457 C 297.852 133.493,297.805 133.126,298.979 133.242 C 300.159 133.360,300.167 133.334,300.167 128.988 L 300.167 125.167 302.089 125.167 C 303.643 125.167,304.029 125.119,304.106 124.917 C 304.159 124.779,304.338 124.667,304.504 124.667 C 304.984 124.667,305.333 124.484,305.333 124.232 C 305.333 124.104,305.412 124.000,305.508 124.000 C 305.853 124.000,306.500 123.115,306.500 122.642 C 306.500 122.348,306.588 122.167,306.731 122.167 C 307.242 122.167,307.297 118.962,306.792 118.593 C 306.618 118.466,306.500 118.162,306.500 117.841 C 306.500 117.442,306.413 117.279,306.167 117.215 C 305.983 117.167,305.833 117.024,305.833 116.897 C 305.833 116.770,305.730 116.667,305.603 116.667 C 305.476 116.667,305.333 116.517,305.285 116.333 C 305.225 116.105,305.058 116.000,304.754 116.000 C 304.509 116.000,304.197 115.888,304.060 115.750 C 303.857 115.547,303.267 115.500,300.923 115.500 L 298.036 115.500 297.932 115.916 M124.894 117.417 C 124.954 117.574,125.209 117.667,125.578 117.667 C 125.902 117.667,126.167 117.729,126.167 117.805 C 126.167 117.881,126.372 118.050,126.623 118.180 C 126.874 118.310,127.284 118.623,127.534 118.875 C 127.784 119.127,128.066 119.333,128.161 119.333 C 128.256 119.333,128.333 119.438,128.333 119.566 C 128.333 119.693,128.446 119.841,128.583 119.894 C 128.721 119.946,128.833 120.096,128.833 120.227 C 128.833 120.358,128.939 120.505,129.068 120.554 C 129.196 120.604,129.352 120.874,129.414 121.155 C 129.476 121.437,129.633 121.667,129.763 121.667 C 130.104 121.667,130.114 126.421,129.774 126.551 C 129.649 126.599,129.500 126.874,129.443 127.162 C 129.385 127.450,129.224 127.800,129.086 127.938 C 128.947 128.077,128.833 128.335,128.833 128.512 C 128.833 128.689,128.721 128.833,128.583 128.833 C 128.446 128.833,128.333 128.946,128.333 129.083 C 128.333 129.222,128.185 129.333,128.000 129.333 C 127.817 129.333,127.667 129.438,127.667 129.566 C 127.667 129.693,127.554 129.841,127.417 129.894 C 127.279 129.946,127.167 130.104,127.167 130.245 C 127.167 130.425,126.996 130.500,126.583 130.500 C 126.176 130.500,126.000 130.575,126.000 130.750 C 126.000 130.923,125.826 131.000,125.430 131.000 C 124.696 131.000,124.333 131.144,124.333 131.434 C 124.333 131.854,121.896 131.757,121.785 131.333 C 121.718 131.078,121.558 131.000,121.099 131.000 C 120.770 131.000,120.500 130.931,120.500 130.847 C 120.500 130.762,120.270 130.643,119.989 130.581 C 119.708 130.519,119.437 130.363,119.388 130.234 C 119.338 130.105,119.212 129.998,119.107 129.997 C 119.002 129.995,118.692 129.732,118.417 129.412 C 118.142 129.093,117.749 128.642,117.543 128.410 C 117.338 128.178,117.124 127.803,117.067 127.577 C 117.010 127.352,116.897 127.167,116.815 127.167 C 116.734 127.167,116.667 126.942,116.667 126.668 C 116.667 126.350,116.546 126.094,116.333 125.961 C 115.910 125.697,115.816 122.833,116.231 122.833 C 116.483 122.833,116.661 122.339,116.664 121.625 C 116.666 121.330,116.756 121.167,116.917 121.167 C 117.055 121.167,117.167 121.019,117.167 120.835 C 117.167 120.518,117.405 120.148,118.042 119.475 C 118.202 119.305,118.333 119.092,118.333 119.000 C 118.333 118.908,118.484 118.833,118.668 118.833 C 118.853 118.833,119.132 118.683,119.289 118.500 C 119.446 118.317,119.670 118.167,119.787 118.167 C 119.904 118.167,120.000 118.054,120.000 117.917 C 120.000 117.744,120.174 117.667,120.566 117.667 C 120.914 117.667,121.168 117.571,121.227 117.417 C 121.304 117.217,121.670 117.167,123.060 117.167 C 124.451 117.167,124.817 117.217,124.894 117.417 M302.167 117.417 C 302.281 117.554,302.624 117.667,302.928 117.667 C 303.487 117.667,304.333 118.256,304.333 118.644 C 304.333 118.748,304.446 118.833,304.583 118.833 C 304.917 118.833,304.959 121.831,304.625 121.838 C 304.510 121.840,304.229 122.101,304.000 122.417 C 303.690 122.844,303.455 122.993,303.083 123.001 C 302.808 123.006,302.438 123.121,302.260 123.255 C 302.070 123.399,301.571 123.500,301.051 123.500 L 300.167 123.500 300.167 120.333 L 300.167 117.167 301.063 117.167 C 301.656 117.167,302.029 117.251,302.167 117.417 M77.142 117.778 C 76.514 117.945,76.466 119.765,77.083 120.000 C 77.313 120.087,77.500 120.235,77.500 120.329 C 77.500 120.724,78.389 120.478,78.933 119.933 C 79.478 119.389,79.724 118.500,79.329 118.500 C 79.235 118.500,79.087 118.313,79.000 118.083 C 78.842 117.669,78.046 117.538,77.142 117.778 M148.208 117.777 C 147.879 117.910,147.923 120.000,148.255 120.000 C 148.396 120.000,148.551 120.107,148.601 120.237 C 148.754 120.634,149.160 120.678,149.458 120.330 C 149.614 120.148,149.837 120.000,149.954 120.000 C 150.294 120.000,150.246 117.899,149.903 117.768 C 149.595 117.650,148.510 117.655,148.208 117.777 M260.642 117.778 C 260.014 117.945,259.966 119.765,260.583 120.000 C 260.813 120.087,261.000 120.241,261.000 120.342 C 261.000 120.762,262.084 120.419,262.542 119.854 C 262.993 119.296,263.162 118.500,262.829 118.500 C 262.735 118.500,262.587 118.313,262.500 118.083 C 262.342 117.669,261.546 117.538,260.642 117.778 M176.979 118.583 C 176.968 118.721,176.940 118.908,176.917 119.000 C 176.894 119.092,176.866 119.757,176.854 120.479 L 176.833 121.792 176.342 121.890 C 175.426 122.073,175.491 124.000,176.413 124.000 L 176.833 124.000 176.833 128.167 C 176.833 130.458,176.841 132.390,176.850 132.458 C 176.955 133.257,178.128 133.585,178.759 132.991 L 179.167 132.609 179.167 128.304 L 179.167 124.000 179.762 124.000 C 180.531 124.000,180.833 123.681,180.833 122.872 C 180.833 122.166,180.430 121.833,179.575 121.833 C 179.171 121.833,179.167 121.818,179.167 120.283 C 179.167 119.300,179.094 118.660,178.967 118.533 C 178.662 118.229,177.005 118.270,176.979 118.583 M255.119 118.437 C 255.054 118.502,255.000 119.288,255.000 120.184 L 255.000 121.812 254.458 121.864 L 253.917 121.917 253.917 122.917 L 253.917 123.917 254.458 123.969 L 255.000 124.021 255.000 128.505 C 255.000 133.503,255.001 133.506,256.176 133.248 L 256.667 133.140 256.667 128.570 L 256.667 124.000 257.411 124.000 C 258.242 124.000,258.500 123.729,258.500 122.858 C 258.500 121.967,258.368 121.833,257.488 121.833 L 256.678 121.833 256.631 120.125 L 256.583 118.417 255.911 118.367 C 255.541 118.340,255.184 118.371,255.119 118.437 M327.548 118.557 C 327.495 118.643,327.415 119.402,327.371 120.242 C 327.294 121.719,327.276 121.778,326.831 121.975 C 326.045 122.322,326.203 124.000,327.021 124.000 C 327.317 124.000,327.334 124.208,327.355 128.042 C 327.383 133.483,327.311 133.135,328.430 133.237 C 329.715 133.355,329.667 133.539,329.667 128.494 L 329.667 124.000 330.300 124.000 C 331.095 124.000,331.333 123.765,331.333 122.980 C 331.333 121.977,331.216 121.833,330.399 121.833 L 329.667 121.833 329.667 120.178 C 329.667 118.689,329.634 118.512,329.345 118.420 C 328.891 118.276,327.664 118.369,327.548 118.557 M35.167 122.083 C 35.167 122.239,35.009 122.333,34.748 122.333 C 34.518 122.333,34.202 122.483,34.045 122.667 C 33.888 122.850,33.663 123.000,33.546 123.000 C 33.429 123.000,33.333 123.109,33.333 123.242 C 33.333 123.375,33.235 123.543,33.116 123.617 C 32.640 123.908,32.167 124.961,32.167 125.728 C 32.167 126.303,32.103 126.500,31.917 126.500 C 31.722 126.500,31.667 126.723,31.667 127.505 C 31.667 128.245,31.733 128.536,31.917 128.606 C 32.085 128.671,32.167 128.935,32.167 129.414 C 32.167 129.829,32.266 130.209,32.406 130.324 C 32.538 130.434,32.694 130.743,32.753 131.012 C 32.812 131.280,32.966 131.500,33.097 131.500 C 33.227 131.500,33.333 131.620,33.333 131.766 C 33.333 131.912,33.483 132.070,33.667 132.118 C 33.850 132.166,34.000 132.309,34.000 132.436 C 34.000 132.588,34.198 132.667,34.583 132.667 C 34.969 132.667,35.167 132.745,35.167 132.897 C 35.167 133.462,38.981 133.554,39.455 133.000 C 39.614 132.815,39.947 132.667,40.204 132.667 C 40.458 132.667,40.667 132.595,40.667 132.508 C 40.667 132.320,41.459 131.500,41.640 131.500 C 41.905 131.500,42.361 129.620,42.132 129.475 C 41.669 129.181,40.333 129.309,40.333 129.647 C 40.333 129.826,40.183 130.001,39.983 130.053 C 39.790 130.103,39.683 130.224,39.743 130.322 C 39.804 130.420,39.734 130.500,39.588 130.500 C 39.442 130.500,39.281 130.608,39.231 130.740 C 39.180 130.872,38.926 131.026,38.667 131.083 C 38.407 131.140,38.153 131.295,38.102 131.427 C 37.962 131.793,36.897 131.731,36.500 131.333 C 36.317 131.150,36.027 131.000,35.856 131.000 C 35.412 131.000,34.747 130.430,34.502 129.839 C 34.387 129.561,34.189 129.333,34.063 129.333 C 33.912 129.333,33.833 129.135,33.833 128.750 L 33.833 128.167 37.903 128.167 C 40.141 128.167,42.091 128.121,42.236 128.066 C 42.612 127.921,42.625 125.204,42.250 125.060 C 42.112 125.008,42.000 124.815,42.000 124.633 C 42.000 124.442,41.859 124.265,41.667 124.215 C 41.483 124.167,41.333 124.005,41.333 123.856 C 41.331 123.461,40.240 122.333,39.860 122.333 C 39.681 122.333,39.492 122.221,39.440 122.083 C 39.362 121.880,38.958 121.833,37.255 121.833 C 35.510 121.833,35.167 121.874,35.167 122.083 M47.125 121.948 C 46.965 121.990,46.833 122.094,46.833 122.179 C 46.833 122.264,46.683 122.333,46.500 122.333 C 46.312 122.333,46.167 122.444,46.167 122.589 C 46.167 122.729,46.035 122.890,45.875 122.947 C 45.464 123.092,44.833 123.686,44.833 123.928 C 44.833 124.040,44.721 124.174,44.583 124.227 C 44.439 124.282,44.333 124.531,44.333 124.816 C 44.333 125.088,44.213 125.429,44.067 125.576 C 43.540 126.103,43.562 129.167,44.094 129.167 C 44.267 129.167,44.333 129.375,44.333 129.916 C 44.333 130.880,45.935 132.667,46.800 132.667 C 47.154 132.667,47.319 132.761,47.382 133.000 C 47.531 133.573,51.167 133.475,51.167 132.899 C 51.167 132.745,51.363 132.667,51.750 132.667 C 52.188 132.667,52.338 132.594,52.350 132.375 C 52.360 132.215,52.444 132.323,52.539 132.617 C 52.762 133.312,53.996 133.571,54.532 133.035 C 54.609 132.958,54.652 130.425,54.627 127.406 L 54.583 121.917 53.928 121.863 C 53.073 121.793,52.506 122.102,52.477 122.653 C 52.457 123.045,52.448 123.050,52.382 122.708 C 52.332 122.448,52.192 122.333,51.923 122.333 C 51.710 122.333,51.492 122.221,51.440 122.083 C 51.346 121.839,47.950 121.733,47.125 121.948 M58.278 121.944 C 58.217 122.006,58.167 124.515,58.167 127.522 C 58.167 133.623,58.144 133.511,59.343 133.248 L 59.833 133.140 59.833 129.237 C 59.833 125.556,59.852 125.314,60.167 125.000 C 60.350 124.817,60.500 124.517,60.500 124.333 C 60.500 124.148,60.611 124.000,60.750 124.000 C 60.887 124.000,61.000 123.888,61.000 123.750 C 61.000 123.448,61.547 123.422,61.997 123.704 C 62.451 123.987,63.277 123.146,63.261 122.417 L 63.250 121.917 61.753 121.868 C 60.545 121.829,60.219 121.870,60.064 122.081 C 59.894 122.315,59.862 122.315,59.775 122.088 C 59.675 121.829,58.506 121.717,58.278 121.944 M65.268 122.097 C 65.212 122.242,65.167 124.791,65.167 127.760 L 65.167 133.160 65.566 133.261 C 65.786 133.316,66.142 133.336,66.358 133.305 L 66.750 133.250 66.795 129.958 C 66.831 127.376,66.887 126.667,67.059 126.667 C 67.179 126.667,67.284 126.573,67.291 126.458 C 67.345 125.618,67.576 124.728,67.769 124.617 C 67.896 124.543,68.000 124.375,68.000 124.242 C 68.000 124.109,68.145 124.000,68.321 124.000 C 68.498 124.000,68.755 123.888,68.893 123.750 C 69.030 123.612,69.411 123.500,69.738 123.500 C 70.156 123.500,70.333 123.574,70.333 123.750 C 70.333 123.889,70.481 124.000,70.667 124.000 C 70.882 124.000,71.000 124.111,71.000 124.313 C 71.000 124.485,71.112 124.719,71.250 124.833 C 71.459 125.007,71.500 125.684,71.500 129.000 C 71.500 133.372,71.507 133.401,72.531 133.303 L 73.083 133.250 73.127 128.397 C 73.165 124.229,73.136 123.515,72.919 123.335 C 72.780 123.220,72.667 123.023,72.667 122.898 C 72.667 122.027,67.983 121.297,67.708 122.125 C 67.670 122.240,67.501 122.333,67.333 122.333 C 67.165 122.333,66.990 122.427,66.944 122.542 C 66.897 122.656,66.854 122.544,66.846 122.292 C 66.831 121.743,65.468 121.575,65.268 122.097 M77.083 122.096 C 76.711 122.377,76.473 132.667,76.838 132.667 C 76.927 132.667,77.000 132.779,77.000 132.917 C 77.000 133.056,77.165 133.179,77.375 133.195 C 77.581 133.211,77.900 133.235,78.083 133.250 C 79.020 133.323,79.000 133.447,79.000 127.674 C 79.000 124.752,78.954 122.242,78.899 122.097 C 78.766 121.751,77.540 121.750,77.083 122.096 M82.833 121.996 C 82.621 122.130,82.576 122.963,82.535 127.475 C 82.480 133.501,82.453 133.365,83.688 133.242 C 84.786 133.133,84.807 133.054,84.827 128.840 C 84.841 125.803,84.890 125.047,85.089 124.827 C 85.223 124.679,85.333 124.432,85.333 124.279 C 85.333 124.095,85.471 124.000,85.738 124.000 C 85.961 124.000,86.255 123.888,86.393 123.750 C 86.530 123.612,86.911 123.500,87.238 123.500 C 87.656 123.500,87.833 123.574,87.833 123.750 C 87.833 123.888,87.946 124.000,88.083 124.000 C 88.221 124.000,88.333 124.085,88.333 124.190 C 88.333 124.294,88.444 124.463,88.580 124.565 C 88.785 124.719,88.829 125.416,88.841 128.692 C 88.857 133.018,88.878 133.115,89.834 133.267 C 91.081 133.465,91.167 133.190,91.167 129.005 C 91.167 125.985,91.124 125.314,90.917 125.107 C 90.776 124.967,90.667 124.560,90.667 124.179 C 90.667 123.722,90.558 123.391,90.333 123.167 C 90.150 122.983,90.000 122.756,90.000 122.661 C 90.000 122.567,89.869 122.440,89.708 122.379 C 89.548 122.318,89.318 122.171,89.196 122.051 C 88.856 121.715,85.500 121.744,85.500 122.083 C 85.500 122.248,85.335 122.333,85.018 122.333 C 84.743 122.333,84.494 122.226,84.440 122.083 C 84.331 121.799,83.239 121.740,82.833 121.996 M96.333 122.281 C 95.921 122.508,95.558 122.763,95.528 122.847 C 95.497 122.931,95.376 123.000,95.259 123.000 C 95.039 123.000,94.167 124.142,94.167 124.430 C 94.167 124.520,94.017 124.721,93.833 124.878 C 93.268 125.362,93.362 130.333,93.936 130.333 C 94.071 130.333,94.167 130.506,94.167 130.750 C 94.167 130.979,94.233 131.167,94.313 131.167 C 94.394 131.167,94.550 131.385,94.661 131.652 C 94.777 131.933,95.032 132.180,95.264 132.239 C 95.486 132.294,95.667 132.413,95.667 132.503 C 95.667 132.593,95.854 132.667,96.083 132.667 C 96.327 132.667,96.500 132.762,96.500 132.897 C 96.500 133.230,97.038 133.328,98.861 133.331 C 100.611 133.334,101.000 133.255,101.000 132.899 C 101.000 132.753,101.182 132.667,101.486 132.667 C 101.753 132.667,102.010 132.573,102.056 132.458 C 102.103 132.344,102.146 132.748,102.154 133.357 C 102.163 134.196,102.106 134.488,101.917 134.560 C 101.771 134.616,101.667 134.866,101.667 135.161 C 101.667 135.439,101.596 135.667,101.509 135.667 C 101.279 135.667,100.500 136.422,100.500 136.644 C 100.500 136.773,99.954 136.833,98.786 136.833 L 97.073 136.833 96.298 136.000 C 95.872 135.542,95.443 135.167,95.345 135.167 C 95.247 135.167,95.167 134.872,95.167 134.512 C 95.167 133.431,94.262 132.968,93.370 133.593 C 92.937 133.897,92.857 134.789,93.250 134.940 C 93.401 134.998,93.500 135.250,93.500 135.579 C 93.500 135.877,93.650 136.312,93.833 136.545 C 94.017 136.779,94.167 137.051,94.167 137.151 C 94.167 137.251,94.271 137.333,94.399 137.333 C 94.527 137.333,94.674 137.446,94.727 137.583 C 94.780 137.721,94.900 137.833,94.995 137.833 C 95.089 137.833,95.317 137.983,95.500 138.167 C 95.747 138.414,96.056 138.500,96.690 138.500 C 97.235 138.500,97.614 138.587,97.732 138.738 C 98.044 139.140,99.667 139.150,99.667 138.750 C 99.667 138.561,99.870 138.500,100.500 138.500 C 101.060 138.500,101.439 138.404,101.655 138.208 C 101.832 138.048,102.282 137.655,102.655 137.335 C 103.028 137.015,103.333 136.629,103.333 136.478 C 103.333 136.326,103.446 136.159,103.583 136.106 C 103.770 136.035,103.833 135.738,103.833 134.941 C 103.833 134.012,103.877 133.861,104.167 133.785 C 104.633 133.663,104.692 122.948,104.231 122.244 C 103.795 121.578,102.542 121.680,102.274 122.403 C 102.184 122.646,102.109 122.676,101.961 122.528 C 101.854 122.421,101.602 122.333,101.401 122.333 C 101.200 122.333,100.992 122.221,100.940 122.083 C 100.761 121.617,97.267 121.767,96.333 122.281 M148.101 122.097 C 148.046 122.242,148.000 126.101,148.000 130.673 L 148.000 138.985 148.569 139.092 C 149.188 139.208,149.845 139.063,150.039 138.769 C 150.373 138.262,150.178 122.511,149.833 122.167 C 149.415 121.748,148.253 121.701,148.101 122.097 M156.106 122.083 C 156.051 122.228,155.802 122.333,155.516 122.333 C 155.169 122.333,154.991 122.432,154.917 122.667 C 154.858 122.850,154.703 123.000,154.572 123.000 C 154.441 123.000,154.333 123.112,154.333 123.250 C 154.333 123.388,154.221 123.500,154.083 123.500 C 153.946 123.500,153.833 123.610,153.833 123.744 C 153.833 123.878,153.683 124.069,153.500 124.167 C 153.305 124.271,153.167 124.516,153.167 124.756 C 153.167 124.983,153.024 125.434,152.849 125.760 C 152.360 126.673,152.423 129.167,152.936 129.167 C 153.097 129.167,153.167 129.384,153.167 129.883 C 153.167 130.479,153.264 130.696,153.745 131.175 C 154.063 131.491,154.325 131.844,154.328 131.958 C 154.331 132.073,154.483 132.167,154.667 132.167 C 154.852 132.167,155.000 132.278,155.000 132.417 C 155.000 132.583,155.167 132.667,155.500 132.667 C 155.816 132.667,156.000 132.752,156.000 132.899 C 156.000 133.476,159.804 133.566,160.289 133.000 C 160.446 132.817,160.709 132.667,160.874 132.667 C 161.817 132.667,163.246 130.501,162.899 129.597 C 162.754 129.220,161.333 129.222,161.333 129.599 C 161.333 129.745,161.183 129.904,161.000 129.952 C 160.817 130.000,160.667 130.143,160.667 130.269 C 160.667 130.396,160.554 130.500,160.417 130.500 C 160.279 130.500,160.167 130.612,160.167 130.750 C 160.167 130.889,160.019 131.000,159.833 131.000 C 159.650 131.000,159.350 131.150,159.167 131.333 C 158.741 131.759,157.993 131.759,157.296 131.334 C 156.996 131.151,156.581 131.001,156.375 131.001 C 156.153 131.000,156.000 130.898,156.000 130.750 C 156.000 130.612,155.887 130.500,155.750 130.500 C 155.612 130.500,155.500 130.398,155.500 130.272 C 155.500 130.147,155.350 129.854,155.167 129.621 C 154.983 129.388,154.833 128.966,154.833 128.682 L 154.833 128.167 158.750 128.146 C 160.904 128.134,162.742 128.106,162.833 128.083 C 162.925 128.060,163.112 128.032,163.250 128.021 C 163.584 127.993,163.601 126.053,163.271 125.579 C 163.146 125.398,162.990 125.006,162.925 124.708 C 162.859 124.407,162.702 124.167,162.570 124.167 C 162.440 124.167,162.333 124.017,162.333 123.833 C 162.333 123.648,162.222 123.500,162.083 123.500 C 161.946 123.500,161.833 123.388,161.833 123.250 C 161.833 123.111,161.685 123.000,161.500 123.000 C 161.278 123.000,161.167 122.889,161.167 122.667 C 161.167 122.426,161.056 122.333,160.768 122.333 C 160.548 122.333,160.326 122.221,160.273 122.083 C 160.195 121.880,159.803 121.833,158.190 121.833 C 156.577 121.833,156.184 121.880,156.106 122.083 M168.227 122.083 C 168.174 122.221,167.952 122.333,167.734 122.333 C 167.515 122.333,167.242 122.483,167.128 122.667 C 167.013 122.850,166.825 123.000,166.710 123.000 C 166.594 123.000,166.500 123.104,166.500 123.231 C 166.500 123.357,166.350 123.500,166.167 123.548 C 165.983 123.596,165.833 123.755,165.833 123.901 C 165.833 124.047,165.721 124.167,165.583 124.167 C 165.409 124.167,165.333 124.343,165.333 124.750 C 165.333 125.137,165.255 125.333,165.101 125.333 C 164.564 125.333,164.509 129.352,165.042 129.740 C 165.202 129.858,165.333 130.133,165.333 130.353 C 165.333 130.596,165.561 130.961,165.917 131.288 C 166.237 131.582,166.500 131.900,166.500 131.995 C 166.500 132.089,166.604 132.167,166.732 132.167 C 166.860 132.167,167.008 132.279,167.060 132.417 C 167.115 132.560,167.364 132.667,167.642 132.667 C 167.988 132.667,168.153 132.763,168.215 133.000 C 168.296 133.310,168.442 133.333,170.292 133.333 C 172.070 133.333,172.314 133.298,172.583 133.000 C 172.749 132.817,173.057 132.667,173.268 132.667 C 173.478 132.667,173.710 132.567,173.783 132.446 C 173.857 132.324,174.052 132.175,174.216 132.115 C 174.469 132.022,174.508 131.841,174.466 130.960 L 174.417 129.917 173.908 129.938 C 173.592 129.951,173.183 130.156,172.829 130.479 C 172.516 130.766,172.126 131.000,171.963 131.000 C 171.800 131.000,171.517 131.150,171.333 131.333 C 170.943 131.724,169.334 131.824,169.332 131.458 C 169.331 131.220,168.148 130.500,167.759 130.500 C 167.597 130.500,167.500 130.351,167.500 130.104 C 167.500 129.886,167.387 129.614,167.250 129.500 C 167.112 129.386,167.000 129.074,167.000 128.808 C 167.000 128.530,166.893 128.282,166.750 128.227 C 166.598 128.169,166.500 127.916,166.500 127.583 C 166.500 127.250,166.598 126.998,166.750 126.940 C 166.907 126.880,167.000 126.625,167.000 126.255 C 167.000 125.932,167.069 125.667,167.153 125.667 C 167.238 125.667,167.356 125.442,167.417 125.167 C 167.477 124.892,167.633 124.667,167.763 124.667 C 167.893 124.667,168.150 124.517,168.333 124.333 C 168.517 124.150,168.822 124.000,169.012 124.000 C 169.202 124.000,169.470 123.888,169.607 123.750 C 169.745 123.612,170.143 123.500,170.491 123.500 C 170.852 123.500,171.215 123.608,171.333 123.750 C 171.447 123.888,171.757 124.000,172.020 124.000 C 172.321 124.000,172.500 124.087,172.500 124.234 C 172.500 124.362,172.725 124.546,173.000 124.642 C 173.275 124.738,173.500 124.900,173.500 125.002 C 173.500 125.107,173.700 125.166,173.958 125.136 C 174.478 125.076,174.806 123.000,174.295 123.000 C 174.173 123.000,173.946 122.850,173.789 122.667 C 173.632 122.483,173.350 122.333,173.163 122.333 C 172.976 122.333,172.780 122.221,172.727 122.083 C 172.649 121.879,172.238 121.833,170.477 121.833 C 168.716 121.833,168.305 121.879,168.227 122.083 M200.355 122.058 C 200.198 122.247,200.209 122.352,200.411 122.554 C 200.558 122.701,200.667 123.101,200.667 123.493 C 200.667 123.947,200.751 124.209,200.917 124.273 C 201.059 124.328,201.167 124.577,201.167 124.853 C 201.167 125.130,201.309 125.458,201.500 125.622 C 201.686 125.782,201.833 126.114,201.833 126.376 C 201.833 126.638,201.943 126.886,202.083 126.940 C 202.224 126.994,202.333 127.242,202.333 127.507 C 202.333 127.831,202.437 128.010,202.667 128.083 C 202.926 128.166,203.000 128.336,203.000 128.850 C 203.000 129.283,203.086 129.543,203.250 129.606 C 203.406 129.666,203.500 129.921,203.500 130.283 C 203.500 130.724,203.580 130.886,203.833 130.952 C 204.068 131.013,204.167 131.179,204.167 131.511 C 204.167 131.771,204.273 132.043,204.402 132.117 C 204.532 132.190,204.663 132.475,204.694 132.750 C 204.807 133.756,206.333 133.307,206.333 132.268 C 206.333 131.947,206.464 131.629,206.667 131.455 C 206.850 131.298,207.000 130.991,207.000 130.772 C 207.000 130.553,207.112 130.281,207.250 130.167 C 207.387 130.053,207.500 129.778,207.500 129.556 C 207.500 129.334,207.650 128.992,207.833 128.795 C 208.017 128.598,208.167 128.226,208.167 127.969 C 208.167 127.663,208.254 127.500,208.417 127.500 C 208.583 127.500,208.667 127.333,208.667 127.000 C 208.667 126.722,208.815 126.352,209.000 126.167 C 209.183 125.983,209.333 125.683,209.333 125.500 C 209.333 125.317,209.405 125.167,209.492 125.167 C 209.580 125.167,209.701 124.900,209.763 124.575 C 209.824 124.250,209.980 123.877,210.111 123.746 C 210.405 123.452,210.506 122.706,210.319 122.208 C 210.151 121.765,208.833 121.636,208.833 122.064 C 208.833 122.191,208.683 122.334,208.500 122.382 C 208.245 122.448,208.167 122.609,208.167 123.068 C 208.167 123.468,208.090 123.667,207.935 123.667 C 207.801 123.667,207.656 123.922,207.590 124.274 C 207.527 124.608,207.369 124.988,207.238 125.119 C 207.107 125.250,207.000 125.614,207.000 125.929 C 207.000 126.317,206.923 126.500,206.758 126.500 C 206.613 126.500,206.472 126.732,206.408 127.072 C 206.349 127.386,206.195 127.684,206.067 127.733 C 205.938 127.783,205.833 128.013,205.833 128.245 C 205.833 128.477,205.683 128.817,205.500 129.000 L 205.167 129.333 205.167 128.828 C 205.167 128.533,205.063 128.283,204.917 128.227 C 204.772 128.171,204.667 127.922,204.667 127.633 C 204.667 127.276,204.573 127.111,204.333 127.048 C 204.084 126.983,204.000 126.821,204.000 126.407 C 204.000 126.102,203.925 125.807,203.833 125.750 C 203.742 125.693,203.583 125.314,203.480 124.907 C 203.372 124.478,203.197 124.167,203.064 124.167 C 202.912 124.167,202.833 123.968,202.833 123.583 C 202.833 123.217,202.753 123.000,202.618 123.000 C 202.499 123.000,202.331 122.756,202.243 122.458 C 202.059 121.834,200.768 121.560,200.355 122.058 M213.958 122.202 C 213.615 122.381,213.333 122.634,213.333 122.764 C 213.333 122.894,213.195 123.000,213.026 123.000 C 212.662 123.000,212.167 123.501,212.167 123.870 C 212.167 124.014,212.054 124.174,211.917 124.227 C 211.760 124.287,211.667 124.542,211.667 124.911 C 211.667 125.235,211.604 125.500,211.527 125.500 C 210.937 125.500,210.770 128.639,211.333 129.122 C 211.566 129.321,211.667 129.614,211.667 130.091 C 211.667 130.669,211.757 130.851,212.250 131.262 C 212.571 131.529,212.833 131.842,212.833 131.957 C 212.833 132.072,212.946 132.167,213.083 132.167 C 213.221 132.167,213.333 132.279,213.333 132.417 C 213.333 132.590,213.507 132.667,213.897 132.667 C 214.321 132.667,214.483 132.750,214.548 133.000 C 214.698 133.574,218.500 133.477,218.500 132.899 C 218.500 132.572,219.658 132.591,219.899 132.921 C 220.118 133.221,221.290 133.364,221.708 133.143 C 222.078 132.947,222.165 122.398,221.800 122.033 C 221.300 121.534,219.835 121.916,219.831 122.548 C 219.829 122.798,219.785 122.849,219.694 122.706 C 219.125 121.809,215.351 121.477,213.958 122.202 M230.500 121.996 C 230.116 122.239,230.029 130.124,230.408 130.270 C 230.564 130.330,230.669 130.578,230.673 130.893 C 230.678 131.375,231.134 132.463,231.171 132.083 C 231.180 131.992,231.256 132.085,231.339 132.292 C 231.447 132.560,231.627 132.667,231.975 132.667 C 232.321 132.667,232.486 132.763,232.548 133.000 C 232.628 133.306,232.776 133.333,234.318 133.333 C 235.778 133.333,236.044 133.289,236.333 133.000 C 236.517 132.817,236.786 132.667,236.932 132.667 C 237.478 132.667,238.167 131.794,238.167 131.102 C 238.167 130.677,238.267 130.380,238.458 130.240 C 238.722 130.048,238.750 129.651,238.750 126.167 C 238.750 121.830,238.751 121.833,237.501 121.833 C 236.499 121.833,236.500 121.827,236.500 126.367 C 236.500 129.930,236.466 130.500,236.250 130.500 C 236.112 130.500,236.000 130.612,236.000 130.750 C 236.000 130.887,235.893 131.000,235.761 131.000 C 235.630 131.000,235.475 131.150,235.417 131.333 C 235.328 131.613,235.164 131.667,234.405 131.667 C 233.611 131.667,233.500 131.626,233.500 131.333 C 233.500 131.148,233.389 131.000,233.250 131.000 C 233.112 131.000,233.000 130.887,233.000 130.750 C 233.000 130.612,232.887 130.500,232.750 130.500 C 232.535 130.500,232.500 129.949,232.500 126.537 C 232.500 122.016,232.455 121.831,231.366 121.836 C 231.027 121.837,230.637 121.909,230.500 121.996 M243.833 122.083 C 243.719 122.221,243.478 122.333,243.297 122.333 C 243.114 122.333,242.932 122.474,242.885 122.653 C 242.839 122.828,242.635 123.014,242.431 123.065 C 242.228 123.116,241.954 123.366,241.823 123.621 C 241.691 123.875,241.490 124.143,241.375 124.217 C 241.261 124.290,241.167 124.544,241.167 124.780 C 241.167 125.017,241.028 125.445,240.859 125.730 C 240.351 126.589,240.405 129.167,240.931 129.167 C 241.101 129.167,241.167 129.388,241.167 129.959 C 241.167 130.661,241.233 130.807,241.750 131.238 C 242.071 131.506,242.333 131.824,242.333 131.946 C 242.333 132.067,242.446 132.167,242.583 132.167 C 242.721 132.167,242.833 132.279,242.833 132.417 C 242.833 132.590,243.007 132.667,243.397 132.667 C 243.821 132.667,243.983 132.750,244.048 133.000 C 244.198 133.574,248.000 133.477,248.000 132.899 C 248.000 132.735,248.220 132.667,248.750 132.667 C 249.306 132.667,249.500 132.731,249.500 132.917 C 249.500 133.056,249.665 133.179,249.875 133.195 C 250.081 133.211,250.400 133.235,250.583 133.250 C 251.520 133.323,251.500 133.447,251.500 127.674 C 251.500 124.752,251.454 122.242,251.399 122.097 C 251.161 121.478,249.470 121.871,249.289 122.587 C 249.220 122.859,249.202 122.866,249.186 122.625 C 249.175 122.465,249.035 122.331,248.875 122.328 C 248.715 122.325,248.438 122.213,248.260 122.078 C 247.789 121.722,244.129 121.727,243.833 122.083 M260.583 122.096 C 260.211 122.377,259.973 132.667,260.338 132.667 C 260.427 132.667,260.500 132.779,260.500 132.917 C 260.500 133.056,260.665 133.179,260.875 133.195 C 261.081 133.211,261.400 133.235,261.583 133.250 C 262.520 133.323,262.500 133.447,262.500 127.674 C 262.500 124.752,262.454 122.242,262.399 122.097 C 262.266 121.751,261.040 121.750,260.583 122.096 M268.727 122.083 C 268.674 122.221,268.452 122.333,268.232 122.333 C 268.013 122.333,267.696 122.470,267.529 122.638 C 267.362 122.805,267.099 122.990,266.946 123.049 C 266.792 123.108,266.667 123.271,266.667 123.411 C 266.667 123.552,266.590 123.667,266.496 123.667 C 266.403 123.667,266.236 123.873,266.125 124.125 C 266.014 124.377,265.828 124.643,265.712 124.717 C 265.592 124.792,265.500 125.173,265.500 125.592 C 265.500 126.111,265.400 126.433,265.167 126.667 C 264.661 127.172,264.737 128.667,265.268 128.667 C 265.435 128.667,265.500 128.899,265.500 129.500 C 265.500 129.972,265.576 130.333,265.675 130.333 C 265.772 130.333,265.929 130.558,266.025 130.833 C 266.121 131.108,266.304 131.333,266.433 131.333 C 266.562 131.333,266.667 131.443,266.667 131.577 C 266.667 131.845,267.776 132.667,268.137 132.667 C 268.262 132.667,268.555 132.817,268.788 133.000 C 269.150 133.285,269.464 133.333,270.955 133.333 C 272.558 133.333,272.705 133.307,272.785 133.000 C 272.851 132.749,273.012 132.667,273.441 132.667 C 273.777 132.667,274.047 132.570,274.101 132.432 C 274.150 132.302,274.359 132.155,274.565 132.103 C 274.771 132.051,275.046 131.801,275.177 131.546 C 275.309 131.292,275.510 131.023,275.625 130.950 C 275.739 130.877,275.833 130.716,275.833 130.593 C 275.833 130.470,275.946 130.326,276.083 130.273 C 276.291 130.193,276.333 129.727,276.333 127.505 C 276.333 125.241,276.295 124.833,276.083 124.833 C 275.944 124.833,275.833 124.685,275.833 124.500 C 275.833 124.317,275.729 124.167,275.601 124.167 C 275.474 124.167,275.325 123.988,275.270 123.770 C 275.211 123.537,274.936 123.262,274.603 123.104 C 274.291 122.956,273.993 122.722,273.940 122.584 C 273.887 122.446,273.652 122.333,273.417 122.333 C 273.182 122.333,272.946 122.221,272.894 122.083 C 272.816 121.880,272.423 121.833,270.810 121.833 C 269.197 121.833,268.805 121.880,268.727 122.083 M278.934 122.097 C 278.879 122.242,278.833 124.789,278.833 127.756 L 278.833 133.152 279.442 133.266 C 279.869 133.346,280.180 133.301,280.484 133.117 L 280.917 132.855 280.961 128.986 C 281.003 125.367,281.028 125.098,281.336 124.831 C 281.518 124.673,281.667 124.422,281.667 124.272 C 281.667 124.092,281.809 124.000,282.089 124.000 C 282.321 124.000,282.554 123.888,282.606 123.750 C 282.668 123.589,282.926 123.500,283.333 123.500 C 283.740 123.500,283.998 123.589,284.060 123.750 C 284.113 123.888,284.262 124.000,284.392 124.000 C 284.522 124.000,284.669 124.158,284.719 124.350 C 284.770 124.543,284.891 124.651,284.989 124.590 C 285.113 124.513,285.167 125.762,285.167 128.734 C 285.167 132.616,285.192 133.002,285.458 133.143 C 285.786 133.316,286.939 133.283,287.127 133.095 C 287.356 132.866,287.274 124.952,287.042 124.875 C 286.918 124.834,286.833 124.515,286.833 124.096 C 286.833 123.486,286.730 123.277,286.100 122.610 L 285.366 121.833 283.517 121.833 C 281.983 121.833,281.667 121.876,281.667 122.083 C 281.667 122.405,281.021 122.402,280.593 122.078 C 280.151 121.743,279.065 121.756,278.934 122.097 M316.637 122.052 C 316.516 122.172,316.173 122.378,315.875 122.509 C 315.577 122.641,315.333 122.805,315.333 122.874 C 315.333 122.943,315.221 123.000,315.083 123.000 C 314.946 123.000,314.833 123.070,314.833 123.155 C 314.833 123.240,314.740 123.412,314.625 123.536 C 314.333 123.854,314.000 124.461,314.000 124.676 C 314.000 124.776,313.887 124.970,313.750 125.107 C 313.553 125.304,313.500 125.819,313.500 127.517 C 313.500 129.283,313.546 129.695,313.750 129.773 C 313.895 129.829,314.000 130.078,314.000 130.367 C 314.000 130.724,314.094 130.889,314.333 130.952 C 314.517 131.000,314.667 131.136,314.667 131.255 C 314.667 131.560,315.775 132.667,316.080 132.667 C 316.220 132.667,316.483 132.817,316.667 133.000 C 316.960 133.293,317.222 133.333,318.832 133.333 C 320.483 133.333,320.684 133.300,320.872 133.000 C 320.996 132.802,321.261 132.667,321.526 132.667 C 321.772 132.667,322.010 132.573,322.056 132.458 C 322.108 132.329,322.145 132.356,322.154 132.530 C 322.189 133.285,323.795 133.563,324.283 132.899 C 324.681 132.356,324.579 122.579,324.171 122.171 C 323.631 121.631,322.544 121.701,322.309 122.292 C 322.207 122.549,322.093 122.659,322.050 122.542 C 322.007 122.427,321.761 122.333,321.504 122.333 C 321.241 122.333,320.994 122.223,320.940 122.083 C 320.809 121.743,316.976 121.715,316.637 122.052 M341.667 122.083 C 341.553 122.221,341.292 122.333,341.089 122.333 C 340.885 122.333,340.583 122.483,340.417 122.667 C 340.251 122.850,340.014 123.000,339.891 123.000 C 339.768 123.000,339.667 123.112,339.667 123.250 C 339.667 123.388,339.517 123.650,339.333 123.833 C 339.150 124.017,339.000 124.279,339.000 124.417 C 339.000 124.554,338.896 124.667,338.768 124.667 C 338.470 124.667,338.333 125.032,338.333 125.829 C 338.333 126.240,338.245 126.498,338.083 126.560 C 337.903 126.630,337.833 126.913,337.833 127.583 C 337.833 128.254,337.903 128.537,338.083 128.606 C 338.224 128.660,338.333 128.908,338.333 129.174 C 338.333 129.812,338.628 130.544,338.833 130.417 C 338.925 130.360,339.000 130.432,339.000 130.577 C 339.000 130.988,339.809 132.167,340.091 132.167 C 340.230 132.167,340.387 132.279,340.440 132.417 C 340.492 132.554,340.696 132.668,340.893 132.670 C 341.089 132.672,341.438 132.821,341.667 133.000 C 342.371 133.551,345.833 133.467,345.833 132.899 C 345.833 132.745,346.029 132.667,346.417 132.667 C 346.774 132.667,347.000 132.585,347.000 132.457 C 347.000 132.342,347.225 132.148,347.500 132.027 C 347.787 131.900,348.044 131.633,348.102 131.403 C 348.157 131.181,348.300 131.000,348.418 131.000 C 349.216 131.000,349.856 125.190,349.090 124.896 C 348.956 124.845,348.801 124.659,348.745 124.485 C 348.690 124.310,348.546 124.167,348.426 124.167 C 348.306 124.167,348.163 123.940,348.108 123.663 C 348.029 123.270,347.897 123.138,347.503 123.059 C 347.158 122.990,347.000 122.860,347.000 122.646 C 347.000 122.402,346.876 122.333,346.434 122.333 C 346.086 122.333,345.832 122.238,345.773 122.083 C 345.696 121.881,345.312 121.833,343.776 121.833 C 342.289 121.833,341.829 121.888,341.667 122.083 M352.000 121.996 C 351.608 122.244,351.533 132.576,351.920 133.003 C 352.288 133.411,353.468 133.346,353.723 132.904 C 353.974 132.469,353.956 132.784,353.979 128.448 L 354.000 124.563 354.520 124.032 C 355.091 123.448,355.662 123.352,356.080 123.770 C 356.477 124.168,356.821 123.641,356.828 122.625 L 356.833 121.833 355.508 121.833 C 354.424 121.833,354.151 121.886,354.008 122.125 C 353.842 122.403,353.825 122.403,353.658 122.125 C 353.465 121.803,352.433 121.723,352.000 121.996 M358.929 122.095 C 358.442 122.582,358.545 132.539,359.042 133.007 C 359.407 133.352,360.490 133.399,360.805 133.084 C 360.867 133.023,360.941 131.235,360.970 129.111 C 360.999 126.988,361.090 125.226,361.173 125.196 C 361.255 125.167,361.371 124.885,361.430 124.571 C 361.504 124.177,361.628 124.000,361.831 124.000 C 361.993 124.000,362.219 123.888,362.333 123.750 C 362.447 123.612,362.685 123.500,362.861 123.500 C 363.187 123.500,363.238 123.532,364.042 124.245 L 364.500 124.651 364.500 128.659 C 364.500 133.076,364.560 133.333,365.594 133.333 C 366.679 133.333,366.667 133.382,366.667 129.109 C 366.667 125.460,366.686 125.208,367.000 124.872 C 367.183 124.675,367.333 124.398,367.333 124.257 C 367.333 124.110,367.478 124.000,367.672 124.000 C 367.858 124.000,368.054 123.888,368.106 123.750 C 368.166 123.595,368.419 123.500,368.773 123.500 C 369.127 123.500,369.380 123.595,369.440 123.750 C 369.492 123.888,369.678 124.000,369.851 124.000 C 370.151 124.000,370.168 124.195,370.188 128.042 C 370.217 133.483,370.144 133.135,371.264 133.237 C 372.544 133.355,372.500 133.520,372.500 128.656 C 372.500 124.958,372.463 124.309,372.250 124.227 C 372.113 124.174,372.000 123.995,372.000 123.829 C 372.000 123.349,371.817 123.000,371.566 123.000 C 371.438 123.000,371.333 122.850,371.333 122.667 C 371.333 122.444,371.222 122.333,371.000 122.333 C 370.815 122.333,370.667 122.222,370.667 122.083 C 370.667 121.777,367.264 121.708,367.077 122.010 C 367.017 122.108,366.787 122.256,366.567 122.339 C 366.347 122.423,366.167 122.606,366.167 122.746 C 366.167 122.889,366.021 123.000,365.833 123.000 C 365.611 123.000,365.500 122.889,365.500 122.667 C 365.500 122.475,365.389 122.333,365.238 122.333 C 365.094 122.333,364.864 122.221,364.726 122.083 C 364.357 121.714,361.245 121.723,361.037 122.094 C 360.905 122.330,360.871 122.330,360.675 122.094 C 360.392 121.753,359.270 121.754,358.929 122.095 M38.060 123.750 C 38.116 123.896,38.366 124.000,38.661 124.000 C 38.939 124.000,39.167 124.083,39.167 124.185 C 39.167 124.441,39.871 125.160,40.125 125.164 C 40.251 125.166,40.333 125.396,40.333 125.750 L 40.333 126.333 37.083 126.333 C 33.733 126.333,33.515 126.286,34.079 125.681 C 35.389 124.274,35.689 124.000,35.922 124.000 C 36.070 124.000,36.303 123.888,36.440 123.750 C 36.578 123.612,36.977 123.500,37.327 123.500 C 37.740 123.500,37.998 123.588,38.060 123.750 M50.167 123.750 C 50.167 123.925,50.343 124.000,50.750 124.000 C 51.163 124.000,51.333 124.075,51.333 124.255 C 51.333 124.396,51.446 124.554,51.583 124.606 C 51.721 124.659,51.833 124.808,51.833 124.936 C 51.833 125.065,51.983 125.298,52.167 125.455 C 52.658 125.876,52.658 129.038,52.167 129.667 C 51.987 129.896,51.839 130.177,51.837 130.292 C 51.835 130.406,51.721 130.500,51.583 130.500 C 51.446 130.500,51.333 130.612,51.333 130.750 C 51.333 130.918,51.165 131.000,50.818 131.000 C 50.442 131.000,50.278 131.091,50.215 131.333 C 50.094 131.796,48.409 131.832,48.261 131.375 C 48.209 131.215,47.835 130.938,47.429 130.760 C 46.823 130.494,46.673 130.339,46.588 129.885 C 46.528 129.561,46.385 129.333,46.242 129.333 C 45.817 129.333,45.899 125.994,46.333 125.622 C 46.517 125.465,46.667 125.187,46.667 125.005 C 46.667 124.790,46.813 124.636,47.083 124.568 C 47.313 124.511,47.500 124.359,47.500 124.232 C 47.500 124.096,47.672 124.000,47.917 124.000 C 48.176 124.000,48.333 123.906,48.333 123.750 C 48.333 123.558,48.546 123.500,49.250 123.500 C 49.954 123.500,50.167 123.558,50.167 123.750 M99.560 123.750 C 99.613 123.888,99.845 124.000,100.075 124.000 C 100.552 124.000,101.667 124.986,101.667 125.408 C 101.667 125.556,101.779 125.720,101.917 125.773 C 102.117 125.850,102.167 126.215,102.167 127.601 C 102.167 129.030,102.123 129.333,101.917 129.333 C 101.761 129.333,101.667 129.491,101.667 129.750 C 101.667 129.994,101.581 130.149,101.458 130.125 C 101.344 130.102,101.267 130.173,101.288 130.282 C 101.309 130.391,101.178 130.527,100.997 130.584 C 100.815 130.642,100.667 130.759,100.667 130.845 C 100.667 130.930,100.517 131.000,100.333 131.000 C 100.035 131.000,99.922 131.173,99.980 131.542 C 99.991 131.610,99.550 131.667,99.000 131.667 C 98.247 131.667,98.000 131.608,98.000 131.430 C 98.000 131.300,97.781 131.145,97.514 131.086 C 97.247 131.028,96.986 130.872,96.936 130.740 C 96.885 130.608,96.729 130.500,96.589 130.500 C 96.448 130.500,96.333 130.396,96.333 130.268 C 96.333 130.140,96.221 129.992,96.083 129.940 C 95.946 129.887,95.833 129.647,95.833 129.406 C 95.833 129.109,95.727 128.941,95.500 128.882 C 95.077 128.771,94.980 126.333,95.399 126.333 C 95.654 126.333,95.833 125.983,95.833 125.486 C 95.833 125.311,95.946 125.167,96.083 125.167 C 96.221 125.167,96.333 125.054,96.333 124.917 C 96.333 124.779,96.441 124.667,96.572 124.667 C 96.703 124.667,96.858 124.517,96.917 124.333 C 96.985 124.119,97.169 124.000,97.433 124.000 C 97.659 124.000,97.887 123.888,97.940 123.750 C 98.004 123.582,98.269 123.500,98.750 123.500 C 99.231 123.500,99.496 123.582,99.560 123.750 M140.726 123.750 C 140.864 123.888,141.132 124.000,141.321 124.000 C 141.511 124.000,141.667 124.104,141.667 124.231 C 141.667 124.357,141.817 124.500,142.000 124.548 C 142.183 124.596,142.333 124.755,142.333 124.901 C 142.333 125.047,142.408 125.167,142.500 125.167 C 142.592 125.167,142.667 125.280,142.667 125.418 C 142.667 125.557,142.817 125.798,143.000 125.955 C 143.281 126.196,143.333 126.447,143.333 127.544 C 143.333 128.617,143.274 128.911,143.000 129.205 C 142.817 129.402,142.667 129.653,142.667 129.764 C 142.667 129.874,142.549 130.009,142.406 130.064 C 142.263 130.119,142.189 130.235,142.242 130.321 C 142.352 130.498,141.708 131.000,141.373 131.000 C 141.252 131.000,140.992 131.150,140.795 131.333 C 140.368 131.731,139.167 131.806,139.167 131.434 C 139.167 131.180,138.816 131.000,138.320 131.000 C 138.144 131.000,138.000 130.887,138.000 130.750 C 138.000 130.612,137.929 130.500,137.842 130.500 C 137.417 130.500,136.833 129.691,136.833 129.101 C 136.833 128.711,136.743 128.455,136.583 128.394 C 136.409 128.327,136.333 128.055,136.333 127.500 C 136.333 126.945,136.409 126.673,136.583 126.606 C 136.748 126.543,136.833 126.282,136.833 125.839 C 136.833 125.352,136.902 125.167,137.083 125.167 C 137.221 125.167,137.333 125.103,137.333 125.024 C 137.333 124.693,138.178 124.000,138.581 124.000 C 138.817 124.000,139.054 123.888,139.106 123.750 C 139.169 123.588,139.427 123.500,139.839 123.500 C 140.190 123.500,140.589 123.612,140.726 123.750 M159.000 123.750 C 159.000 123.925,159.176 124.000,159.583 124.000 C 160.056 124.000,160.167 124.063,160.167 124.333 C 160.167 124.519,160.278 124.667,160.417 124.667 C 160.554 124.667,160.667 124.780,160.667 124.918 C 160.667 125.057,160.817 125.298,161.000 125.455 C 161.909 126.234,161.579 126.333,158.083 126.333 C 154.944 126.333,154.833 126.322,154.833 126.000 C 154.833 125.817,154.908 125.667,155.000 125.667 C 155.092 125.667,155.167 125.562,155.167 125.434 C 155.167 125.306,155.353 125.025,155.580 124.809 C 155.808 124.593,155.996 124.323,155.997 124.208 C 155.999 124.082,156.229 124.000,156.583 124.000 C 156.991 124.000,157.167 123.925,157.167 123.750 C 157.167 123.558,157.380 123.500,158.083 123.500 C 158.787 123.500,159.000 123.558,159.000 123.750 M217.440 123.750 C 217.495 123.895,217.745 124.000,218.033 124.000 C 218.391 124.000,218.556 124.094,218.618 124.333 C 218.666 124.517,218.809 124.667,218.936 124.667 C 219.063 124.667,219.167 124.790,219.167 124.940 C 219.167 125.090,219.285 125.300,219.429 125.405 C 219.839 125.705,219.863 129.161,219.457 129.566 C 219.298 129.726,219.167 130.002,219.167 130.179 C 219.167 130.356,219.052 130.500,218.911 130.500 C 218.771 130.500,218.616 130.604,218.567 130.731 C 218.519 130.859,218.258 131.007,217.989 131.060 C 217.705 131.117,217.500 131.265,217.500 131.412 C 217.500 131.834,215.809 131.765,215.539 131.333 C 215.424 131.150,215.251 131.000,215.153 131.000 C 215.056 131.000,214.864 130.887,214.726 130.750 C 214.589 130.612,214.332 130.500,214.155 130.500 C 213.899 130.500,213.833 130.382,213.833 129.917 C 213.833 129.509,213.758 129.333,213.583 129.333 C 213.377 129.333,213.333 129.030,213.333 127.601 C 213.333 126.215,213.383 125.850,213.583 125.773 C 213.729 125.717,213.833 125.467,213.833 125.172 C 213.833 124.828,213.915 124.667,214.090 124.667 C 214.232 124.667,214.508 124.517,214.705 124.333 C 214.902 124.150,215.153 124.000,215.264 124.000 C 215.374 124.000,215.508 123.888,215.560 123.750 C 215.628 123.573,215.904 123.500,216.500 123.500 C 217.096 123.500,217.372 123.573,217.440 123.750 M247.000 123.750 C 247.000 123.909,247.160 124.000,247.439 124.000 C 247.826 124.000,248.667 124.653,248.667 124.954 C 248.667 125.011,248.785 125.188,248.930 125.348 C 249.337 125.798,249.360 129.164,248.957 129.566 C 248.798 129.726,248.667 130.002,248.667 130.179 C 248.667 130.356,248.552 130.500,248.411 130.500 C 248.271 130.500,248.113 130.612,248.060 130.750 C 248.008 130.887,247.778 131.000,247.550 131.000 C 247.276 131.000,247.106 131.113,247.048 131.333 C 246.927 131.796,245.244 131.832,245.092 131.375 C 244.991 131.072,244.000 130.500,243.576 130.500 C 243.417 130.500,243.333 130.326,243.333 129.995 C 243.333 129.699,243.229 129.450,243.083 129.394 C 242.883 129.317,242.833 128.951,242.833 127.560 C 242.833 126.170,242.883 125.804,243.083 125.727 C 243.226 125.672,243.333 125.424,243.333 125.149 C 243.333 124.831,243.419 124.667,243.583 124.667 C 243.721 124.667,243.983 124.517,244.167 124.333 C 244.350 124.150,244.604 124.000,244.732 124.000 C 244.860 124.000,245.008 123.888,245.060 123.750 C 245.130 123.569,245.412 123.500,246.078 123.500 C 246.786 123.500,247.000 123.558,247.000 123.750 M271.833 123.750 C 271.833 123.925,272.009 124.000,272.417 124.000 C 272.889 124.000,273.000 124.063,273.000 124.333 C 273.000 124.517,273.104 124.667,273.232 124.667 C 273.360 124.667,273.508 124.779,273.560 124.917 C 273.613 125.054,273.771 125.167,273.911 125.167 C 274.085 125.167,274.167 125.329,274.167 125.672 C 274.167 125.967,274.271 126.217,274.417 126.273 C 274.606 126.346,274.667 126.651,274.667 127.523 C 274.667 128.395,274.606 128.701,274.417 128.773 C 274.279 128.826,274.165 129.067,274.164 129.309 C 274.161 129.747,273.541 130.500,273.185 130.500 C 273.083 130.500,273.000 130.612,273.000 130.750 C 273.000 130.905,272.843 131.000,272.585 131.000 C 272.350 131.000,272.079 131.145,271.961 131.333 C 271.703 131.748,270.000 131.835,270.000 131.434 C 270.000 131.180,269.650 131.000,269.153 131.000 C 268.977 131.000,268.833 130.887,268.833 130.750 C 268.833 130.612,268.750 130.500,268.648 130.500 C 268.403 130.500,267.673 129.801,267.670 129.562 C 267.668 129.459,267.554 129.281,267.417 129.167 C 267.234 129.015,267.167 128.612,267.167 127.664 C 267.167 126.667,267.224 126.347,267.417 126.273 C 267.563 126.217,267.667 125.967,267.667 125.672 C 267.667 125.380,267.755 125.165,267.875 125.164 C 268.129 125.160,268.833 124.441,268.833 124.185 C 268.833 124.083,269.061 124.000,269.339 124.000 C 269.634 124.000,269.884 123.896,269.940 123.750 C 270.009 123.571,270.289 123.500,270.934 123.500 C 271.622 123.500,271.833 123.559,271.833 123.750 M319.606 123.750 C 319.659 123.888,319.870 124.000,320.075 124.000 C 320.280 124.000,320.584 124.150,320.750 124.333 C 320.916 124.517,321.190 124.667,321.359 124.667 C 321.590 124.667,321.667 124.792,321.667 125.172 C 321.667 125.467,321.771 125.717,321.917 125.773 C 322.117 125.850,322.167 126.215,322.167 127.601 C 322.167 129.030,322.123 129.333,321.917 129.333 C 321.779 129.333,321.667 129.444,321.667 129.580 C 321.667 129.908,320.669 130.924,320.203 131.072 C 319.999 131.136,319.833 131.297,319.833 131.428 C 319.833 131.823,318.248 131.748,317.833 131.333 C 317.650 131.150,317.350 131.000,317.167 131.000 C 316.981 131.000,316.833 130.889,316.833 130.750 C 316.833 130.612,316.721 130.500,316.583 130.500 C 316.446 130.500,316.333 130.355,316.333 130.179 C 316.333 130.002,316.232 129.756,316.109 129.633 C 315.985 129.509,315.832 129.129,315.768 128.787 C 315.697 128.409,315.557 128.167,315.409 128.167 C 315.237 128.167,315.167 127.972,315.167 127.500 C 315.167 127.021,315.236 126.833,315.415 126.833 C 315.575 126.833,315.700 126.599,315.769 126.170 C 315.827 125.805,315.978 125.421,316.104 125.316 C 316.230 125.211,316.333 125.063,316.333 124.987 C 316.333 124.685,317.206 124.000,317.591 124.000 C 317.843 124.000,318.000 123.904,318.000 123.750 C 318.000 123.565,318.195 123.500,318.755 123.500 C 319.273 123.500,319.541 123.579,319.606 123.750 M344.833 123.750 C 344.833 123.909,344.993 124.000,345.273 124.000 C 345.694 124.000,346.500 124.663,346.500 125.009 C 346.500 125.096,346.613 125.167,346.750 125.167 C 346.887 125.167,347.000 125.311,347.000 125.486 C 347.000 125.983,347.180 126.333,347.434 126.333 C 347.839 126.333,347.752 128.519,347.333 128.878 C 347.150 129.035,347.000 129.306,347.000 129.481 C 347.000 129.655,346.887 129.841,346.750 129.894 C 346.613 129.946,346.500 130.104,346.500 130.245 C 346.500 130.385,346.385 130.500,346.245 130.500 C 346.104 130.500,345.946 130.612,345.894 130.750 C 345.841 130.887,345.611 131.000,345.383 131.000 C 345.109 131.000,344.939 131.113,344.882 131.333 C 344.807 131.620,344.654 131.667,343.786 131.667 C 343.232 131.667,342.827 131.617,342.887 131.557 C 343.073 131.371,342.647 131.000,342.247 131.000 C 342.039 131.000,341.826 130.887,341.773 130.750 C 341.720 130.612,341.562 130.500,341.422 130.500 C 341.282 130.500,341.167 130.387,341.167 130.250 C 341.167 130.112,341.054 130.000,340.917 130.000 C 340.779 130.000,340.667 129.864,340.667 129.699 C 340.667 129.533,340.557 129.251,340.422 129.074 C 340.078 128.619,340.074 126.451,340.417 126.167 C 340.554 126.053,340.667 125.821,340.667 125.653 C 340.667 125.200,341.947 124.000,342.430 124.000 C 342.677 124.000,342.833 123.903,342.833 123.750 C 342.833 123.556,343.056 123.500,343.833 123.500 C 344.611 123.500,344.833 123.556,344.833 123.750 " stroke="none" fill="#ffffff" fill-rule="evenodd"></path><path id="path1" d="M44.875 51.528 L 44.333 51.864 44.333 74.349 L 44.333 96.833 67.397 96.833 L 90.461 96.833 90.562 96.458 C 90.823 95.484,90.672 51.696,90.407 51.431 C 89.946 50.970,45.623 51.065,44.875 51.528 " stroke="none" fill="#ffffff" fill-rule="evenodd"></path><path id="path2" d="M22.912 41.083 C 22.912 46.675,22.933 48.938,22.958 46.113 C 22.984 43.288,22.984 38.713,22.958 35.946 C 22.933 33.180,22.912 35.492,22.912 41.083 M45.412 41.083 C 45.412 46.675,45.433 48.938,45.458 46.113 C 45.484 43.288,45.484 38.713,45.458 35.946 C 45.433 33.180,45.412 35.492,45.412 41.083 M129.248 64.583 C 129.248 82.825,129.268 90.312,129.292 81.222 C 129.315 72.131,129.315 57.206,129.292 48.055 C 129.268 38.904,129.248 46.342,129.248 64.583 M256.748 64.500 C 256.748 82.696,256.768 90.140,256.792 81.042 C 256.815 71.944,256.815 57.056,256.792 47.958 C 256.768 38.860,256.748 46.304,256.748 64.500 M322.500 64.593 C 322.500 86.613,322.556 97.652,322.667 97.583 C 322.777 97.515,322.833 86.304,322.833 64.490 C 322.833 42.608,322.777 31.500,322.667 31.500 C 322.556 31.500,322.500 42.642,322.500 64.593 M364.389 50.667 C 364.389 51.354,364.419 51.635,364.455 51.292 C 364.491 50.948,364.491 50.385,364.455 50.042 C 364.419 49.698,364.389 49.979,364.389 50.667 M44.479 51.611 C 44.270 51.864,44.286 51.869,44.667 51.671 C 45.225 51.381,45.267 51.333,44.965 51.333 C 44.823 51.333,44.605 51.458,44.479 51.611 M179.718 61.917 C 179.719 62.467,179.750 62.672,179.787 62.372 C 179.825 62.072,179.824 61.622,179.786 61.372 C 179.748 61.122,179.717 61.367,179.718 61.917 M179.718 67.083 C 179.719 67.633,179.750 67.838,179.787 67.539 C 179.825 67.239,179.824 66.789,179.786 66.539 C 179.748 66.288,179.717 66.533,179.718 67.083 M171.071 94.000 C 171.071 95.971,171.095 96.777,171.124 95.792 C 171.154 94.806,171.154 93.194,171.124 92.208 C 171.095 91.223,171.071 92.029,171.071 94.000 M78.916 120.001 C 78.490 120.472,78.671 120.516,79.119 120.050 C 79.322 119.839,79.427 119.667,79.353 119.667 C 79.279 119.667,79.082 119.817,78.916 120.001 M262.416 120.001 C 261.990 120.472,262.171 120.516,262.619 120.050 C 262.822 119.839,262.927 119.667,262.853 119.667 C 262.779 119.667,262.582 119.817,262.416 120.001 " stroke="none" fill="#ffffff" fill-rule="evenodd"></path><path id="path3" d="M23.088 29.992 C 23.035 30.079,22.990 35.010,22.990 40.950 L 22.990 51.750 33.639 51.795 C 43.000 51.835,44.312 51.809,44.497 51.587 C 44.613 51.447,44.848 51.333,45.020 51.333 C 45.323 51.333,45.334 50.995,45.350 41.167 C 45.359 35.575,45.374 30.830,45.383 30.621 C 45.392 30.413,45.343 30.151,45.273 30.038 C 45.115 29.781,23.247 29.736,23.088 29.992 " stroke="none" fill="#ffffff" fill-rule="evenodd"></path><path id="path4" d="M207.048 29.500 C 206.968 29.806,206.821 29.833,205.231 29.833 C 203.803 29.833,203.500 29.877,203.500 30.083 C 203.500 30.275,203.289 30.333,202.597 30.333 C 201.541 30.333,201.167 30.447,201.167 30.768 C 201.167 30.935,200.935 31.000,200.333 31.000 C 199.704 31.000,199.500 31.061,199.500 31.250 C 199.500 31.425,199.324 31.500,198.917 31.500 C 198.444 31.500,198.333 31.563,198.333 31.833 C 198.333 32.122,198.222 32.167,197.500 32.167 C 196.870 32.167,196.667 32.228,196.667 32.417 C 196.667 32.556,196.519 32.667,196.333 32.667 C 196.111 32.667,196.000 32.778,196.000 33.000 C 196.000 33.270,195.889 33.333,195.417 33.333 C 195.009 33.333,194.833 33.409,194.833 33.583 C 194.833 33.752,194.665 33.833,194.318 33.833 C 193.942 33.833,193.778 33.924,193.715 34.167 C 193.667 34.350,193.524 34.500,193.397 34.500 C 193.270 34.500,193.167 34.612,193.167 34.750 C 193.167 34.925,192.991 35.000,192.583 35.000 C 192.111 35.000,192.000 35.063,192.000 35.333 C 192.000 35.556,191.889 35.667,191.667 35.667 C 191.481 35.667,191.333 35.778,191.333 35.917 C 191.333 36.054,191.221 36.167,191.083 36.167 C 190.944 36.167,190.833 36.315,190.833 36.500 C 190.833 36.722,190.722 36.833,190.500 36.833 C 190.315 36.833,190.167 36.944,190.167 37.083 C 190.167 37.249,190.001 37.333,189.678 37.333 C 189.336 37.333,189.157 37.433,189.083 37.667 C 189.025 37.850,188.870 38.000,188.739 38.000 C 188.607 38.000,188.500 38.112,188.500 38.250 C 188.500 38.387,188.396 38.500,188.268 38.500 C 188.013 38.500,187.833 38.850,187.833 39.347 C 187.833 39.523,187.721 39.667,187.583 39.667 C 187.446 39.667,187.333 39.770,187.333 39.897 C 187.333 40.024,187.183 40.167,187.000 40.215 C 186.817 40.263,186.667 40.422,186.667 40.568 C 186.667 40.714,186.554 40.833,186.417 40.833 C 186.278 40.833,186.167 40.981,186.167 41.167 C 186.167 41.350,186.060 41.500,185.930 41.500 C 185.800 41.500,185.644 41.725,185.583 42.000 C 185.523 42.275,185.367 42.500,185.237 42.500 C 185.107 42.500,185.000 42.641,185.000 42.814 C 185.000 42.988,184.851 43.167,184.667 43.215 C 184.424 43.278,184.333 43.442,184.333 43.818 C 184.333 44.165,184.252 44.333,184.083 44.333 C 183.909 44.333,183.833 44.509,183.833 44.917 C 183.833 45.389,183.770 45.500,183.500 45.500 C 183.230 45.500,183.167 45.611,183.167 46.083 C 183.167 46.491,183.091 46.667,182.917 46.667 C 182.742 46.667,182.667 46.843,182.667 47.250 C 182.667 47.657,182.591 47.833,182.417 47.833 C 182.251 47.833,182.167 47.999,182.167 48.322 C 182.167 48.664,182.067 48.843,181.833 48.917 C 181.559 49.004,181.500 49.169,181.500 49.845 C 181.500 50.464,181.438 50.667,181.250 50.667 C 181.062 50.667,181.000 50.869,181.000 51.489 C 181.000 52.164,180.941 52.330,180.667 52.417 C 180.380 52.508,180.333 52.669,180.333 53.577 C 180.333 54.360,180.269 54.656,180.083 54.727 C 179.884 54.803,179.833 55.162,179.833 56.495 C 179.833 57.813,179.784 58.167,179.601 58.167 C 179.003 58.167,178.903 70.129,179.500 70.285 C 179.805 70.365,179.833 70.512,179.833 72.019 C 179.833 73.373,179.878 73.667,180.083 73.667 C 180.282 73.667,180.333 73.907,180.333 74.833 C 180.333 75.889,180.365 76.000,180.667 76.000 C 180.968 76.000,181.000 76.111,181.000 77.167 C 181.000 78.093,181.052 78.333,181.250 78.333 C 181.425 78.333,181.500 78.509,181.500 78.917 C 181.500 79.389,181.563 79.500,181.833 79.500 C 182.122 79.500,182.167 79.611,182.167 80.339 C 182.167 80.930,182.240 81.205,182.417 81.273 C 182.556 81.327,182.667 81.574,182.667 81.833 C 182.667 82.092,182.777 82.340,182.917 82.394 C 183.054 82.446,183.167 82.686,183.167 82.927 C 183.167 83.224,183.273 83.392,183.500 83.452 C 183.734 83.513,183.833 83.679,183.833 84.011 C 183.833 84.271,183.933 84.543,184.054 84.617 C 184.176 84.690,184.323 84.881,184.382 85.042 C 184.441 85.202,184.604 85.333,184.745 85.333 C 184.925 85.333,185.000 85.504,185.000 85.917 C 185.000 86.324,185.075 86.500,185.250 86.500 C 185.387 86.500,185.500 86.612,185.500 86.750 C 185.500 86.889,185.648 87.000,185.833 87.000 C 186.091 87.000,186.167 87.111,186.167 87.492 C 186.167 87.762,186.266 88.043,186.388 88.117 C 186.509 88.190,186.657 88.381,186.716 88.542 C 186.775 88.702,186.938 88.833,187.078 88.833 C 187.218 88.833,187.333 88.946,187.333 89.083 C 187.333 89.221,187.446 89.333,187.583 89.333 C 187.721 89.333,187.833 89.453,187.833 89.599 C 187.833 89.745,187.983 89.904,188.167 89.952 C 188.350 90.000,188.500 90.143,188.500 90.269 C 188.500 90.396,188.612 90.500,188.750 90.500 C 188.887 90.500,189.000 90.620,189.000 90.766 C 189.000 90.912,189.150 91.070,189.333 91.118 C 189.517 91.166,189.667 91.309,189.667 91.436 C 189.667 91.563,189.779 91.667,189.917 91.667 C 190.054 91.667,190.167 91.786,190.167 91.932 C 190.167 92.078,190.317 92.237,190.500 92.285 C 190.683 92.333,190.833 92.476,190.833 92.603 C 190.833 92.730,190.938 92.833,191.066 92.833 C 191.193 92.833,191.341 92.946,191.394 93.083 C 191.450 93.229,191.699 93.333,191.995 93.333 C 192.389 93.333,192.500 93.407,192.500 93.667 C 192.500 93.889,192.611 94.000,192.833 94.000 C 193.019 94.000,193.167 94.111,193.167 94.250 C 193.167 94.417,193.333 94.500,193.667 94.500 C 194.013 94.500,194.167 94.582,194.167 94.766 C 194.167 94.912,194.311 95.069,194.488 95.115 C 194.665 95.162,194.851 95.305,194.900 95.433 C 194.949 95.562,195.208 95.667,195.475 95.667 C 195.821 95.667,195.986 95.763,196.048 96.000 C 196.112 96.243,196.276 96.333,196.651 96.333 C 196.998 96.333,197.167 96.415,197.167 96.583 C 197.167 96.756,197.340 96.833,197.731 96.833 C 198.154 96.833,198.316 96.916,198.382 97.167 C 198.453 97.439,198.609 97.500,199.234 97.500 C 199.804 97.500,200.000 97.564,200.000 97.750 C 200.000 97.942,200.213 98.000,200.917 98.000 C 201.620 98.000,201.833 98.058,201.833 98.250 C 201.833 98.388,201.965 98.511,202.125 98.525 C 202.285 98.539,202.492 98.568,202.583 98.589 C 202.675 98.611,203.181 98.637,203.708 98.647 C 204.441 98.662,204.667 98.726,204.667 98.917 C 204.667 99.127,205.037 99.167,207.000 99.167 C 209.222 99.167,209.333 99.183,209.333 99.500 C 209.333 99.817,209.444 99.833,211.653 99.833 C 214.104 99.833,214.500 99.773,214.500 99.399 C 214.500 99.212,214.939 99.167,216.755 99.167 C 218.606 99.167,219.028 99.122,219.106 98.917 C 219.175 98.738,219.454 98.667,220.088 98.667 C 221.126 98.667,221.500 98.552,221.500 98.232 C 221.500 98.065,221.732 98.000,222.333 98.000 C 222.963 98.000,223.167 97.939,223.167 97.750 C 223.167 97.561,223.370 97.500,224.000 97.500 C 224.722 97.500,224.833 97.456,224.833 97.167 C 224.833 96.897,224.944 96.833,225.417 96.833 C 225.824 96.833,226.000 96.758,226.000 96.583 C 226.000 96.409,226.176 96.333,226.583 96.333 C 227.056 96.333,227.167 96.270,227.167 96.000 C 227.167 95.730,227.278 95.667,227.750 95.667 C 228.157 95.667,228.333 95.591,228.333 95.417 C 228.333 95.248,228.502 95.167,228.849 95.167 C 229.224 95.167,229.388 95.076,229.452 94.833 C 229.500 94.649,229.679 94.500,229.853 94.500 C 230.025 94.500,230.167 94.388,230.167 94.250 C 230.167 94.095,230.323 94.000,230.577 94.000 C 230.818 94.000,231.062 93.862,231.167 93.667 C 231.265 93.483,231.455 93.333,231.589 93.333 C 231.723 93.333,231.833 93.221,231.833 93.083 C 231.833 92.944,231.981 92.833,232.167 92.833 C 232.352 92.833,232.500 92.722,232.500 92.583 C 232.500 92.446,232.612 92.333,232.750 92.333 C 232.889 92.333,233.000 92.185,233.000 92.000 C 233.000 91.815,233.111 91.667,233.250 91.667 C 233.387 91.667,233.500 91.563,233.500 91.435 C 233.500 91.303,233.749 91.157,234.083 91.094 C 234.594 90.999,234.667 90.923,234.667 90.492 C 234.667 90.111,234.742 90.000,235.000 90.000 C 235.222 90.000,235.333 89.889,235.333 89.667 C 235.333 89.481,235.444 89.333,235.583 89.333 C 235.721 89.333,235.833 89.221,235.833 89.083 C 235.833 88.946,235.953 88.833,236.099 88.833 C 236.245 88.833,236.404 88.683,236.452 88.500 C 236.500 88.317,236.643 88.167,236.769 88.167 C 236.896 88.167,237.000 88.063,237.000 87.936 C 237.000 87.809,237.150 87.666,237.333 87.618 C 237.576 87.555,237.667 87.391,237.667 87.016 C 237.667 86.668,237.748 86.500,237.917 86.500 C 238.054 86.500,238.167 86.359,238.167 86.186 C 238.167 86.012,238.316 85.833,238.500 85.785 C 238.743 85.722,238.833 85.558,238.833 85.182 C 238.833 84.835,238.915 84.667,239.083 84.667 C 239.221 84.667,239.333 84.554,239.333 84.417 C 239.333 84.279,239.442 84.167,239.576 84.167 C 239.720 84.167,239.862 83.935,239.925 83.595 C 239.984 83.280,240.138 82.983,240.266 82.933 C 240.396 82.884,240.500 82.618,240.500 82.339 C 240.500 82.020,240.585 81.833,240.731 81.833 C 240.983 81.833,241.161 81.339,241.164 80.625 C 241.166 80.330,241.256 80.167,241.417 80.167 C 241.588 80.167,241.667 79.995,241.667 79.623 C 241.667 79.261,241.777 79.011,242.000 78.872 C 242.253 78.714,242.333 78.483,242.333 77.915 C 242.333 77.361,242.398 77.167,242.583 77.167 C 242.782 77.167,242.833 76.926,242.833 76.000 C 242.833 75.074,242.885 74.833,243.083 74.833 C 243.286 74.833,243.333 74.565,243.333 73.417 C 243.333 72.111,243.359 72.000,243.667 72.000 C 243.995 72.000,244.000 71.889,244.000 64.318 C 244.000 56.776,243.994 56.634,243.667 56.548 C 243.367 56.470,243.333 56.321,243.333 55.059 C 243.333 53.966,243.278 53.635,243.083 53.560 C 242.908 53.493,242.833 53.220,242.833 52.649 C 242.833 52.035,242.771 51.833,242.583 51.833 C 242.394 51.833,242.333 51.628,242.333 50.984 C 242.333 50.276,242.278 50.121,242.000 50.048 C 241.724 49.976,241.667 49.821,241.667 49.147 C 241.667 48.535,241.605 48.333,241.417 48.333 C 241.248 48.333,241.167 48.165,241.167 47.818 C 241.167 47.442,241.076 47.278,240.833 47.215 C 240.583 47.149,240.500 46.988,240.500 46.564 C 240.500 46.174,240.423 46.000,240.250 46.000 C 240.082 46.000,240.000 45.832,240.000 45.484 C 240.000 45.109,239.909 44.945,239.667 44.882 C 239.430 44.820,239.333 44.654,239.333 44.309 C 239.333 44.031,239.226 43.782,239.083 43.727 C 238.946 43.674,238.833 43.527,238.833 43.399 C 238.833 43.271,238.683 43.167,238.500 43.167 C 238.230 43.167,238.167 43.056,238.167 42.583 C 238.167 42.176,238.091 42.000,237.917 42.000 C 237.779 42.000,237.667 41.880,237.667 41.734 C 237.667 41.588,237.517 41.430,237.333 41.382 C 237.150 41.334,237.000 41.191,237.000 41.064 C 237.000 40.937,236.887 40.833,236.750 40.833 C 236.582 40.833,236.500 40.665,236.500 40.318 C 236.500 39.942,236.409 39.778,236.167 39.715 C 235.983 39.667,235.833 39.522,235.833 39.392 C 235.833 39.262,235.721 39.113,235.583 39.060 C 235.446 39.008,235.333 38.860,235.333 38.732 C 235.333 38.604,235.183 38.500,235.000 38.500 C 234.815 38.500,234.667 38.389,234.667 38.250 C 234.667 38.112,234.554 38.000,234.417 38.000 C 234.278 38.000,234.167 37.852,234.167 37.667 C 234.167 37.444,234.056 37.333,233.833 37.333 C 233.648 37.333,233.500 37.222,233.500 37.083 C 233.500 36.946,233.387 36.833,233.250 36.833 C 233.112 36.833,233.000 36.729,233.000 36.601 C 233.000 36.346,232.650 36.167,232.153 36.167 C 231.977 36.167,231.833 36.054,231.833 35.917 C 231.833 35.779,231.721 35.667,231.583 35.667 C 231.446 35.667,231.333 35.547,231.333 35.401 C 231.333 35.255,231.189 35.098,231.012 35.051 C 230.835 35.005,230.649 34.862,230.600 34.734 C 230.550 34.604,230.285 34.500,230.005 34.500 C 229.611 34.500,229.500 34.427,229.500 34.167 C 229.500 33.944,229.389 33.833,229.167 33.833 C 228.981 33.833,228.833 33.722,228.833 33.583 C 228.833 33.422,228.671 33.333,228.373 33.333 C 228.094 33.333,227.832 33.203,227.705 33.000 C 227.588 32.812,227.317 32.667,227.082 32.667 C 226.824 32.667,226.667 32.572,226.667 32.417 C 226.667 32.250,226.500 32.167,226.167 32.167 C 225.889 32.167,225.519 32.019,225.333 31.833 C 225.111 31.611,224.778 31.500,224.333 31.500 C 223.852 31.500,223.667 31.431,223.667 31.250 C 223.667 31.062,223.465 31.000,222.853 31.000 C 222.179 31.000,222.024 30.943,221.952 30.667 C 221.876 30.376,221.724 30.333,220.766 30.333 C 219.900 30.333,219.667 30.280,219.667 30.083 C 219.667 29.877,219.361 29.833,217.917 29.833 C 216.278 29.833,216.167 29.812,216.167 29.500 C 216.167 29.175,216.056 29.167,211.651 29.167 C 207.276 29.167,207.133 29.177,207.048 29.500 M128.944 30.444 C 128.670 30.719,128.822 98.460,129.097 98.566 C 129.497 98.719,171.219 98.682,171.461 98.528 C 171.625 98.424,171.662 97.385,171.628 93.905 L 171.583 89.417 155.125 89.374 L 138.667 89.332 138.667 59.833 L 138.667 30.333 133.861 30.333 C 131.218 30.333,129.006 30.383,128.944 30.444 M256.278 30.444 C 256.217 30.505,256.167 45.842,256.167 64.525 L 256.167 98.494 256.542 98.584 C 256.748 98.634,268.204 98.654,282.000 98.629 L 307.083 98.583 307.083 94.000 L 307.083 89.417 286.542 89.374 L 266.000 89.332 266.000 78.666 L 266.000 68.000 284.500 68.000 L 303.000 68.000 303.000 63.333 L 303.000 58.667 284.500 58.667 L 266.000 58.667 266.000 49.167 L 266.000 39.668 285.958 39.626 L 305.917 39.583 305.917 35.000 L 305.917 30.417 281.153 30.374 C 267.533 30.351,256.340 30.382,256.278 30.444 M322.278 30.444 C 322.217 30.506,322.167 45.842,322.167 64.525 L 322.167 98.494 322.542 98.585 C 322.748 98.636,324.942 98.656,327.417 98.630 L 331.917 98.583 331.959 85.042 L 332.002 71.500 343.918 71.500 C 355.611 71.500,355.840 71.494,356.167 71.167 C 356.441 70.892,356.722 70.833,357.755 70.833 C 358.717 70.833,359.033 70.775,359.106 70.583 C 359.168 70.422,359.427 70.333,359.838 70.333 C 360.635 70.333,361.000 70.197,361.000 69.899 C 361.000 69.731,361.232 69.667,361.833 69.667 C 362.463 69.667,362.667 69.606,362.667 69.417 C 362.667 69.248,362.835 69.167,363.182 69.167 C 363.558 69.167,363.722 69.076,363.785 68.833 C 363.851 68.583,364.012 68.500,364.436 68.500 C 364.826 68.500,365.000 68.423,365.000 68.250 C 365.000 68.082,365.168 68.000,365.516 68.000 C 365.891 68.000,366.055 67.909,366.118 67.667 C 366.166 67.483,366.309 67.333,366.436 67.333 C 366.563 67.333,366.667 67.221,366.667 67.083 C 366.667 66.915,366.835 66.833,367.182 66.833 C 367.558 66.833,367.722 66.743,367.785 66.500 C 367.833 66.317,367.978 66.167,368.108 66.167 C 368.238 66.167,368.387 66.054,368.440 65.917 C 368.492 65.779,368.640 65.667,368.768 65.667 C 368.896 65.667,369.000 65.517,369.000 65.333 C 369.000 65.150,369.083 65.000,369.185 65.000 C 369.550 65.000,370.161 64.246,370.164 63.792 C 370.166 63.445,370.248 63.333,370.500 63.333 C 370.683 63.333,370.833 63.229,370.833 63.101 C 370.833 62.973,370.946 62.826,371.083 62.773 C 371.226 62.718,371.333 62.469,371.333 62.191 C 371.333 61.846,371.430 61.680,371.667 61.618 C 371.909 61.555,372.000 61.391,372.000 61.016 C 372.000 60.668,372.082 60.500,372.250 60.500 C 372.423 60.500,372.500 60.326,372.500 59.934 C 372.500 59.586,372.596 59.332,372.750 59.273 C 372.926 59.205,373.000 58.930,373.000 58.339 C 373.000 57.611,373.044 57.500,373.333 57.500 C 373.641 57.500,373.667 57.389,373.667 56.083 C 373.667 54.935,373.714 54.667,373.917 54.667 C 374.132 54.667,374.167 54.111,374.167 50.667 C 374.167 47.222,374.132 46.667,373.917 46.667 C 373.713 46.667,373.667 46.389,373.667 45.167 C 373.667 43.778,373.642 43.667,373.333 43.667 C 373.044 43.667,373.000 43.556,373.000 42.833 C 373.000 42.204,372.939 42.000,372.750 42.000 C 372.575 42.000,372.500 41.824,372.500 41.417 C 372.500 41.009,372.425 40.833,372.250 40.833 C 372.082 40.833,372.000 40.665,372.000 40.318 C 372.000 39.942,371.909 39.778,371.667 39.715 C 371.482 39.667,371.333 39.488,371.333 39.314 C 371.333 39.141,371.221 39.000,371.083 39.000 C 370.925 39.000,370.833 38.841,370.833 38.568 C 370.833 38.276,370.725 38.107,370.500 38.048 C 370.316 38.000,370.167 37.821,370.167 37.647 C 370.167 37.475,370.054 37.333,369.917 37.333 C 369.779 37.333,369.667 37.221,369.667 37.083 C 369.667 36.944,369.519 36.833,369.333 36.833 C 369.111 36.833,369.000 36.722,369.000 36.500 C 369.000 36.317,368.896 36.167,368.768 36.167 C 368.640 36.167,368.492 36.054,368.440 35.917 C 368.387 35.779,368.238 35.667,368.108 35.667 C 367.978 35.667,367.833 35.517,367.785 35.333 C 367.722 35.091,367.558 35.000,367.182 35.000 C 366.835 35.000,366.667 34.918,366.667 34.750 C 366.667 34.612,366.563 34.500,366.436 34.500 C 366.309 34.500,366.166 34.350,366.118 34.167 C 366.055 33.924,365.891 33.833,365.516 33.833 C 365.168 33.833,365.000 33.752,365.000 33.583 C 365.000 33.409,364.824 33.333,364.417 33.333 C 364.029 33.333,363.833 33.255,363.833 33.101 C 363.833 32.810,363.471 32.667,362.736 32.667 C 362.341 32.667,362.167 32.590,362.167 32.417 C 362.167 32.225,361.956 32.167,361.269 32.167 C 360.512 32.167,360.359 32.115,360.285 31.833 C 360.209 31.543,360.058 31.500,359.117 31.500 C 358.310 31.500,358.011 31.437,357.940 31.250 C 357.861 31.045,357.439 31.000,355.589 31.000 C 353.444 31.000,353.333 30.984,353.333 30.667 C 353.333 30.330,322.612 30.110,322.278 30.444 M129.292 81.222 C 129.268 90.312,129.248 82.825,129.248 64.583 C 129.248 46.342,129.268 38.904,129.292 48.055 C 129.315 57.206,129.315 72.131,129.292 81.222 M256.792 81.042 C 256.768 90.140,256.748 82.696,256.748 64.500 C 256.748 46.304,256.768 38.860,256.792 47.958 C 256.815 57.056,256.815 71.944,256.792 81.042 M322.833 64.490 C 322.833 86.304,322.777 97.515,322.667 97.583 C 322.556 97.652,322.500 86.613,322.500 64.593 C 322.500 42.642,322.556 31.500,322.667 31.500 C 322.777 31.500,322.833 42.608,322.833 64.490 M213.382 38.167 C 213.461 38.472,213.609 38.500,215.133 38.500 C 216.459 38.500,216.817 38.551,216.894 38.750 C 216.965 38.937,217.264 39.000,218.078 39.000 C 219.056 39.000,219.167 39.034,219.167 39.333 C 219.167 39.603,219.278 39.667,219.750 39.667 C 220.157 39.667,220.333 39.742,220.333 39.917 C 220.333 40.091,220.509 40.167,220.917 40.167 C 221.316 40.167,221.500 40.243,221.500 40.409 C 221.500 40.554,221.734 40.695,222.083 40.761 C 222.417 40.824,222.667 40.969,222.667 41.102 C 222.667 41.255,222.863 41.333,223.250 41.333 C 223.722 41.333,223.833 41.397,223.833 41.667 C 223.833 41.852,223.944 42.000,224.083 42.000 C 224.221 42.000,224.333 42.112,224.333 42.250 C 224.333 42.389,224.481 42.500,224.667 42.500 C 224.850 42.500,225.000 42.609,225.000 42.742 C 225.000 42.888,225.234 43.029,225.583 43.094 C 225.917 43.157,226.167 43.303,226.167 43.435 C 226.167 43.563,226.279 43.667,226.417 43.667 C 226.554 43.667,226.667 43.779,226.667 43.917 C 226.667 44.054,226.779 44.167,226.917 44.167 C 227.056 44.167,227.167 44.315,227.167 44.500 C 227.167 44.722,227.278 44.833,227.500 44.833 C 227.752 44.833,227.834 44.945,227.836 45.292 C 227.839 45.746,228.450 46.500,228.815 46.500 C 228.917 46.500,229.000 46.650,229.000 46.833 C 229.000 47.019,229.111 47.167,229.250 47.167 C 229.418 47.167,229.500 47.335,229.500 47.682 C 229.500 48.058,229.591 48.222,229.833 48.285 C 230.069 48.347,230.167 48.512,230.167 48.853 C 230.167 49.152,230.254 49.333,230.398 49.333 C 230.531 49.333,230.676 49.583,230.739 49.917 C 230.805 50.266,230.946 50.500,231.091 50.500 C 231.257 50.500,231.333 50.685,231.333 51.089 C 231.333 51.458,231.426 51.713,231.583 51.773 C 231.728 51.829,231.833 52.078,231.833 52.367 C 231.833 52.724,231.927 52.889,232.167 52.952 C 232.443 53.024,232.500 53.179,232.500 53.853 C 232.500 54.465,232.562 54.667,232.750 54.667 C 232.952 54.667,233.000 54.928,233.000 56.016 C 233.000 57.224,233.035 57.374,233.333 57.452 C 233.643 57.533,233.667 57.679,233.667 59.525 C 233.667 61.136,233.714 61.529,233.917 61.606 C 234.126 61.687,234.167 62.178,234.167 64.601 C 234.167 67.067,234.129 67.500,233.917 67.500 C 233.708 67.500,233.667 67.833,233.667 69.500 C 233.667 71.389,233.648 71.500,233.333 71.500 C 233.032 71.500,233.000 71.611,233.000 72.667 C 233.000 73.593,232.948 73.833,232.750 73.833 C 232.563 73.833,232.500 74.033,232.500 74.627 C 232.500 75.239,232.424 75.467,232.167 75.628 C 231.914 75.786,231.833 76.017,231.833 76.585 C 231.833 77.139,231.768 77.333,231.583 77.333 C 231.422 77.333,231.333 77.496,231.333 77.793 C 231.333 78.073,231.203 78.335,231.000 78.461 C 230.817 78.576,230.667 78.848,230.667 79.067 C 230.667 79.285,230.554 79.508,230.417 79.560 C 230.271 79.616,230.167 79.866,230.167 80.161 C 230.167 80.513,230.086 80.667,229.901 80.667 C 229.755 80.667,229.598 80.811,229.551 80.988 C 229.505 81.165,229.362 81.351,229.234 81.400 C 229.104 81.450,229.000 81.715,229.000 81.995 C 229.000 82.389,228.927 82.500,228.667 82.500 C 228.481 82.500,228.333 82.611,228.333 82.750 C 228.333 82.887,228.221 83.000,228.083 83.000 C 227.944 83.000,227.833 83.148,227.833 83.333 C 227.833 83.517,227.748 83.667,227.644 83.667 C 227.422 83.667,226.667 84.446,226.667 84.675 C 226.667 84.762,226.554 84.833,226.417 84.833 C 226.279 84.833,226.167 84.946,226.167 85.083 C 226.167 85.221,226.047 85.333,225.901 85.333 C 225.755 85.333,225.596 85.483,225.548 85.667 C 225.500 85.850,225.357 86.000,225.231 86.000 C 225.104 86.000,225.000 86.112,225.000 86.250 C 225.000 86.389,224.852 86.500,224.667 86.500 C 224.444 86.500,224.333 86.611,224.333 86.833 C 224.333 87.093,224.222 87.167,223.828 87.167 C 223.533 87.167,223.283 87.271,223.227 87.417 C 223.174 87.554,223.027 87.667,222.899 87.667 C 222.771 87.667,222.667 87.779,222.667 87.917 C 222.667 88.091,222.491 88.167,222.083 88.167 C 221.611 88.167,221.500 88.230,221.500 88.500 C 221.500 88.770,221.389 88.833,220.917 88.833 C 220.509 88.833,220.333 88.909,220.333 89.083 C 220.333 89.268,220.139 89.333,219.585 89.333 C 219.017 89.333,218.786 89.414,218.628 89.667 C 218.467 89.924,218.239 90.000,217.627 90.000 C 217.033 90.000,216.833 90.063,216.833 90.250 C 216.833 90.458,216.508 90.500,214.901 90.500 C 213.109 90.500,212.962 90.524,212.882 90.833 C 212.771 91.256,210.500 91.352,210.500 90.934 C 210.500 90.580,210.113 90.500,208.403 90.500 C 207.119 90.500,206.833 90.455,206.833 90.250 C 206.833 90.054,206.604 90.000,205.769 90.000 C 204.846 90.000,204.694 89.956,204.618 89.667 C 204.556 89.427,204.391 89.333,204.033 89.333 C 203.745 89.333,203.495 89.228,203.440 89.083 C 203.372 88.907,203.097 88.833,202.505 88.833 C 201.778 88.833,201.667 88.789,201.667 88.500 C 201.667 88.317,201.562 88.167,201.434 88.167 C 201.307 88.167,201.159 88.054,201.106 87.917 C 201.050 87.771,200.801 87.667,200.505 87.667 C 200.167 87.667,200.000 87.584,200.000 87.417 C 200.000 87.279,199.890 87.167,199.756 87.167 C 199.622 87.167,199.431 87.017,199.333 86.833 C 199.229 86.638,198.984 86.500,198.744 86.500 C 198.490 86.500,198.333 86.405,198.333 86.250 C 198.333 86.111,198.185 86.000,198.000 86.000 C 197.778 86.000,197.667 85.889,197.667 85.667 C 197.667 85.481,197.556 85.333,197.417 85.333 C 197.279 85.333,197.167 85.221,197.167 85.083 C 197.167 84.944,197.019 84.833,196.833 84.833 C 196.611 84.833,196.500 84.722,196.500 84.500 C 196.500 84.315,196.389 84.167,196.250 84.167 C 196.112 84.167,196.000 84.054,196.000 83.917 C 196.000 83.778,195.852 83.667,195.667 83.667 C 195.444 83.667,195.333 83.556,195.333 83.333 C 195.333 83.148,195.222 83.000,195.083 83.000 C 194.928 83.000,194.833 82.843,194.833 82.585 C 194.833 82.350,194.688 82.079,194.500 81.961 C 194.317 81.847,194.167 81.659,194.167 81.543 C 194.167 81.428,194.054 81.333,193.917 81.333 C 193.748 81.333,193.667 81.165,193.667 80.818 C 193.667 80.442,193.576 80.278,193.333 80.215 C 193.096 80.153,193.000 79.988,193.000 79.642 C 193.000 79.364,192.893 79.115,192.750 79.060 C 192.605 79.005,192.500 78.755,192.500 78.467 C 192.500 78.109,192.406 77.944,192.167 77.882 C 191.916 77.816,191.833 77.654,191.833 77.231 C 191.833 76.840,191.756 76.667,191.583 76.667 C 191.394 76.667,191.333 76.463,191.333 75.833 C 191.333 75.111,191.289 75.000,191.000 75.000 C 190.707 75.000,190.667 74.889,190.667 74.083 C 190.667 73.380,190.609 73.167,190.417 73.167 C 190.214 73.167,190.167 72.898,190.167 71.750 C 190.167 70.444,190.141 70.333,189.833 70.333 C 189.506 70.333,189.500 70.222,189.500 64.500 C 189.500 58.778,189.506 58.667,189.833 58.667 C 190.141 58.667,190.167 58.556,190.167 57.250 C 190.167 56.102,190.214 55.833,190.417 55.833 C 190.609 55.833,190.667 55.620,190.667 54.917 C 190.667 54.111,190.707 54.000,191.000 54.000 C 191.289 54.000,191.333 53.889,191.333 53.167 C 191.333 52.537,191.394 52.333,191.583 52.333 C 191.756 52.333,191.833 52.160,191.833 51.769 C 191.833 51.346,191.916 51.184,192.167 51.118 C 192.409 51.055,192.500 50.891,192.500 50.516 C 192.500 50.153,192.580 50.000,192.768 50.000 C 192.977 50.000,193.022 49.862,192.974 49.364 C 192.919 48.781,192.945 48.734,193.290 48.800 C 193.625 48.864,193.667 48.805,193.667 48.269 C 193.667 47.845,193.741 47.667,193.917 47.667 C 194.054 47.667,194.167 47.572,194.167 47.457 C 194.167 47.341,194.317 47.153,194.500 47.039 C 194.688 46.921,194.833 46.650,194.833 46.415 C 194.833 46.157,194.928 46.000,195.083 46.000 C 195.222 46.000,195.333 45.852,195.333 45.667 C 195.333 45.444,195.444 45.333,195.667 45.333 C 195.852 45.333,196.000 45.222,196.000 45.083 C 196.000 44.946,196.112 44.833,196.250 44.833 C 196.389 44.833,196.500 44.685,196.500 44.500 C 196.500 44.312,196.611 44.167,196.755 44.167 C 196.896 44.167,197.054 44.054,197.106 43.917 C 197.159 43.779,197.307 43.667,197.434 43.667 C 197.562 43.667,197.667 43.563,197.667 43.436 C 197.667 43.309,197.817 43.166,198.000 43.118 C 198.183 43.070,198.333 42.912,198.333 42.766 C 198.333 42.593,198.480 42.500,198.755 42.500 C 198.987 42.500,199.217 42.395,199.267 42.266 C 199.316 42.138,199.501 41.995,199.678 41.949 C 199.855 41.902,200.000 41.745,200.000 41.599 C 200.000 41.414,200.154 41.333,200.505 41.333 C 200.801 41.333,201.050 41.229,201.106 41.083 C 201.159 40.946,201.307 40.833,201.434 40.833 C 201.562 40.833,201.667 40.683,201.667 40.500 C 201.667 40.211,201.778 40.167,202.505 40.167 C 203.097 40.167,203.372 40.093,203.440 39.917 C 203.495 39.772,203.745 39.667,204.033 39.667 C 204.391 39.667,204.556 39.573,204.618 39.333 C 204.694 39.044,204.846 39.000,205.769 39.000 C 206.604 39.000,206.833 38.946,206.833 38.750 C 206.833 38.545,207.129 38.500,208.494 38.500 C 209.984 38.500,210.173 38.466,210.333 38.167 C 210.490 37.874,210.682 37.833,211.903 37.833 C 213.154 37.833,213.303 37.867,213.382 38.167 M353.500 39.917 C 353.500 40.119,353.766 40.167,354.897 40.167 C 356.154 40.167,356.303 40.200,356.382 40.500 C 356.453 40.772,356.609 40.833,357.234 40.833 C 357.804 40.833,358.000 40.897,358.000 41.083 C 358.000 41.256,358.174 41.333,358.564 41.333 C 358.988 41.333,359.149 41.416,359.215 41.667 C 359.263 41.850,359.422 42.000,359.568 42.000 C 359.714 42.000,359.833 42.112,359.833 42.250 C 359.833 42.389,359.981 42.500,360.167 42.500 C 360.352 42.500,360.500 42.611,360.500 42.750 C 360.500 42.887,360.613 43.000,360.750 43.000 C 360.887 43.000,361.000 43.115,361.000 43.255 C 361.000 43.396,361.113 43.554,361.250 43.606 C 361.387 43.659,361.500 43.807,361.500 43.934 C 361.500 44.062,361.650 44.167,361.833 44.167 C 362.056 44.167,362.167 44.278,362.167 44.500 C 362.167 44.685,362.278 44.833,362.417 44.833 C 362.591 44.833,362.667 45.009,362.667 45.417 C 362.667 45.889,362.730 46.000,363.000 46.000 C 363.289 46.000,363.333 46.111,363.333 46.833 C 363.333 47.463,363.394 47.667,363.583 47.667 C 363.796 47.667,363.833 48.100,363.833 50.566 C 363.833 52.988,363.792 53.480,363.583 53.560 C 363.396 53.632,363.333 53.931,363.333 54.745 C 363.333 55.722,363.299 55.833,363.000 55.833 C 362.730 55.833,362.667 55.944,362.667 56.417 C 362.667 56.824,362.591 57.000,362.417 57.000 C 362.279 57.000,362.167 57.141,362.167 57.314 C 362.167 57.488,362.018 57.667,361.833 57.715 C 361.608 57.774,361.500 57.942,361.500 58.234 C 361.500 58.508,361.408 58.667,361.250 58.667 C 361.111 58.667,361.000 58.815,361.000 59.000 C 361.000 59.260,360.889 59.333,360.495 59.333 C 360.215 59.333,359.950 59.438,359.900 59.567 C 359.851 59.695,359.665 59.838,359.488 59.885 C 359.311 59.931,359.167 60.088,359.167 60.234 C 359.167 60.418,359.013 60.500,358.667 60.500 C 358.333 60.500,358.167 60.583,358.167 60.750 C 358.167 60.903,358.011 61.000,357.764 61.000 C 357.188 61.000,356.833 61.166,356.833 61.434 C 356.833 61.609,356.565 61.667,355.750 61.667 C 354.898 61.667,354.667 61.720,354.667 61.917 C 354.667 62.126,354.324 62.167,352.583 62.167 C 350.611 62.167,350.500 62.184,350.500 62.500 C 350.500 62.829,350.389 62.833,341.250 62.833 L 332.000 62.833 332.000 51.250 L 332.000 39.667 342.750 39.667 C 352.194 39.667,353.500 39.697,353.500 39.917 M364.455 51.292 C 364.419 51.635,364.389 51.354,364.389 50.667 C 364.389 49.979,364.419 49.698,364.455 50.042 C 364.491 50.385,364.491 50.948,364.455 51.292 M179.787 62.372 C 179.750 62.672,179.719 62.467,179.718 61.917 C 179.717 61.367,179.748 61.122,179.786 61.372 C 179.824 61.622,179.825 62.072,179.787 62.372 M179.787 67.539 C 179.750 67.838,179.719 67.633,179.718 67.083 C 179.717 66.533,179.748 66.288,179.786 66.539 C 179.824 66.789,179.825 67.239,179.787 67.539 M171.124 95.792 C 171.095 96.777,171.071 95.971,171.071 94.000 C 171.071 92.029,171.095 91.223,171.124 92.208 C 171.154 93.194,171.154 94.806,171.124 95.792 M128.357 116.819 C 128.573 116.994,128.787 117.101,128.833 117.055 C 128.931 116.958,128.340 116.500,128.116 116.500 C 128.032 116.500,128.140 116.644,128.357 116.819 M117.401 120.358 C 117.085 120.713,117.085 120.714,117.458 120.518 C 117.665 120.410,117.833 120.249,117.833 120.161 C 117.833 119.924,117.754 119.960,117.401 120.358 M200.060 122.083 C 199.937 122.406,200.101 122.833,200.349 122.833 C 200.493 122.833,200.493 122.776,200.351 122.604 C 200.246 122.479,200.208 122.254,200.265 122.104 C 200.322 121.955,200.321 121.833,200.263 121.833 C 200.204 121.833,200.113 121.946,200.060 122.083 M62.748 123.502 C 62.486 123.776,62.311 124.000,62.360 124.000 C 62.536 124.000,63.400 123.178,63.314 123.092 C 63.265 123.043,63.011 123.228,62.748 123.502 M211.058 125.591 C 210.908 125.981,211.069 126.027,211.299 125.659 C 211.428 125.453,211.439 125.333,211.330 125.333 C 211.234 125.333,211.112 125.449,211.058 125.591 M129.505 126.578 C 129.393 126.712,129.340 126.918,129.388 127.036 C 129.443 127.174,129.478 127.149,129.487 126.967 C 129.494 126.811,129.631 126.607,129.792 126.513 C 129.952 126.420,129.999 126.341,129.895 126.338 C 129.792 126.336,129.616 126.443,129.505 126.578 M51.891 129.591 C 51.741 129.981,51.903 130.027,52.133 129.659 C 52.261 129.453,52.273 129.333,52.163 129.333 C 52.068 129.333,51.945 129.449,51.891 129.591 M118.707 129.486 C 118.741 129.615,118.952 129.836,119.176 129.975 C 119.494 130.174,119.530 130.177,119.341 129.990 C 119.208 129.858,118.997 129.637,118.872 129.500 C 118.689 129.298,118.657 129.295,118.707 129.486 M157.260 131.236 C 157.609 131.492,157.767 131.464,157.590 131.178 C 157.530 131.080,157.358 131.000,157.208 131.000 C 156.981 131.000,156.989 131.039,157.260 131.236 M205.926 133.097 C 205.656 133.295,205.647 133.333,205.875 133.333 C 206.025 133.333,206.196 133.253,206.257 133.156 C 206.434 132.870,206.275 132.842,205.926 133.097 M341.333 133.004 C 341.333 133.099,341.449 133.222,341.591 133.276 C 341.981 133.426,342.027 133.264,341.659 133.034 C 341.453 132.905,341.333 132.894,341.333 133.004 " stroke="none" fill="#ffffff" fill-rule="evenodd"></path></g></svg>