<svg width="136" height="66" fill="none" xmlns="http://www.w3.org/2000/svg"><path d="M46 56c-4 2-2 6-3 10h-2l-1-3h-1l-8 3c-5 0-9-2-10-6-2-5-2-11 2-14 3-3 7-4 12-3 1 1 3 2 1 4l-1-1c-5-1-9 0-11 5-2 4 0 9 4 11s10 0 12-4v-3-43l1-2 3 3 3-1c4-3 11-1 11 5v20c-2 1-3-1-3-3V23v-4c-1-4-3-5-6-5s-5 2-5 5v35l6-8c2-2 3-5 8-4l-9 11 9 12c-3 1-5 1-6-1l-6-8z" fill="white"/><path d="M17 11c3-1 4 1 5 3l5 14c4-6 3-14 10-18l1 1-8 19c-4 11-5 11-16 11H0V11c3 0 3 0 3 3v24h18c3-1 5-5 3-8l-7-19zM82 64l-5 2c-4 0-7-1-8-4s0-7 3-9l6-2h4c0-5-3-7-11-4-1-2-1-3 1-4 8-3 14 1 14 9v13l-4-1zm0-9l-1-1-5 1c-2 1-3 2-3 4-1 1 1 3 2 3 1 1 4 0 5-1l2-6zM65 42v24c-2 0-3 0-3-2V44c0-2 1-3 3-2zM115 25c0 2-2 4-4 4-3 0-4-2-4-4 0-3 2-4 4-4s4 2 4 4zM65 38l-3-2 1-2 3 2-1 2zM111 19c2 0 3-2 3-3a3 3 0 1 0-3 3zM120 28c2 0 3-1 3-3a3 3 0 1 0-3 3zM115 37c2 0 3-1 3-3a3 3 0 1 0-3 3zM105 35c1 0 3-1 3-3a3 3 0 1 0-3 3zM102 26c1 0 3-1 3-3a3 3 0 1 0-3 3zM94 23l2-2a2 2 0 1 0-2 2zM112 10a2 2 0 1 0 0-4 2 2 0 0 0 0 4zM128 27a2 2 0 1 0 0-4 2 2 0 0 0 0 4zM118 44a2 2 0 1 0 0-5 2 2 0 0 0 0 5zM98 40c2 0 3-1 3-2a2 2 0 1 0-3 2zM94 44l2-2a2 2 0 1 0-2 2zM88 21l2-1a2 2 0 1 0-2 1zM113 3a2 2 0 0 0 0-3l-1 2 1 1zM134 27a2 2 0 0 0 0-3l-1 1 1 2zM121 50a2 2 0 0 0 0-4l-2 2 2 2z" fill="white"/></svg>