<svg width="640" height="106" viewBox="0 0 640 106" fill="none" xmlns="http://www.w3.org/2000/svg">
<path d="M37.7656 62.5859H13.7188V104H0.148438V1.625H34.0391C45.5703 1.625 54.4297 4.25 60.6172 9.5C66.8516 14.75 69.9688 22.3906 69.9688 32.4219C69.9688 38.7969 68.2344 44.3516 64.7656 49.0859C61.3438 53.8203 56.5625 57.3594 50.4219 59.7031L74.4688 103.156V104H59.9844L37.7656 62.5859ZM13.7188 51.5469H34.4609C41.1641 51.5469 46.4844 49.8125 50.4219 46.3438C54.4062 42.875 56.3984 38.2344 56.3984 32.4219C56.3984 26.0938 54.5 21.2422 50.7031 17.8672C46.9531 14.4922 41.5156 12.7813 34.3906 12.7344H13.7188V51.5469ZM146.82 56.6797H102.453V92.9609H153.992V104H88.9531V1.625H153.289V12.7344H102.453V45.6406H146.82V56.6797ZM200.961 58.3672C189.383 55.0391 180.945 50.9609 175.648 46.1328C170.398 41.2578 167.773 35.2578 167.773 28.1328C167.773 20.0703 170.984 13.4141 177.406 8.16406C183.875 2.86719 192.266 0.21875 202.578 0.21875C209.609 0.21875 215.867 1.57812 221.352 4.29688C226.883 7.01563 231.148 10.7656 234.148 15.5469C237.195 20.3281 238.719 25.5547 238.719 31.2266H225.148C225.148 25.0391 223.18 20.1875 219.242 16.6719C215.305 13.1094 209.75 11.3281 202.578 11.3281C195.922 11.3281 190.719 12.8047 186.969 15.7578C183.266 18.6641 181.414 22.7188 181.414 27.9219C181.414 32.0938 183.172 35.6328 186.688 38.5391C190.25 41.3984 196.273 44.0234 204.758 46.4141C213.289 48.8047 219.945 51.4531 224.727 54.3594C229.555 57.2188 233.117 60.5703 235.414 64.4141C237.758 68.2578 238.93 72.7812 238.93 77.9844C238.93 86.2812 235.695 92.9375 229.227 97.9531C222.758 102.922 214.109 105.406 203.281 105.406C196.25 105.406 189.688 104.07 183.594 101.398C177.5 98.6797 172.789 94.9766 169.461 90.2891C166.18 85.6016 164.539 80.2812 164.539 74.3281H178.109C178.109 80.5156 180.383 85.4141 184.93 89.0234C189.523 92.5859 195.641 94.3672 203.281 94.3672C210.406 94.3672 215.867 92.9141 219.664 90.0078C223.461 87.1016 225.359 83.1406 225.359 78.125C225.359 73.1094 223.602 69.2422 220.086 66.5234C216.57 63.7578 210.195 61.0391 200.961 58.3672ZM331.602 71.5156C330.336 82.3438 326.328 90.7109 319.578 96.6172C312.875 102.477 303.945 105.406 292.789 105.406C280.695 105.406 270.992 101.07 263.68 92.3984C256.414 83.7266 252.781 72.125 252.781 57.5938V47.75C252.781 38.2344 254.469 29.8672 257.844 22.6484C261.266 15.4297 266.094 9.89844 272.328 6.05469C278.562 2.16406 285.781 0.21875 293.984 0.21875C304.859 0.21875 313.578 3.26562 320.141 9.35938C326.703 15.4062 330.523 23.7969 331.602 34.5312H318.031C316.859 26.375 314.305 20.4688 310.367 16.8125C306.477 13.1562 301.016 11.3281 293.984 11.3281C285.359 11.3281 278.586 14.5156 273.664 20.8906C268.789 27.2656 266.352 36.3359 266.352 48.1016V58.0156C266.352 69.125 268.672 77.9609 273.312 84.5234C277.953 91.0859 284.445 94.3672 292.789 94.3672C300.289 94.3672 306.031 92.6797 310.016 89.3047C314.047 85.8828 316.719 79.9531 318.031 71.5156H331.602ZM428.844 56.1172C428.844 66.1484 427.156 74.9141 423.781 82.4141C420.406 89.8672 415.625 95.5625 409.438 99.5C403.25 103.438 396.031 105.406 387.781 105.406C379.719 105.406 372.57 103.438 366.336 99.5C360.102 95.5156 355.25 89.8672 351.781 82.5547C348.359 75.1953 346.602 66.6875 346.508 57.0312V49.6484C346.508 39.8047 348.219 31.1094 351.641 23.5625C355.062 16.0156 359.891 10.25 366.125 6.26562C372.406 2.23438 379.578 0.21875 387.641 0.21875C395.844 0.21875 403.062 2.21094 409.297 6.19531C415.578 10.1328 420.406 15.875 423.781 23.4219C427.156 30.9219 428.844 39.6641 428.844 49.6484V56.1172ZM415.414 49.5078C415.414 37.3672 412.977 28.0625 408.102 21.5938C403.227 15.0781 396.406 11.8203 387.641 11.8203C379.109 11.8203 372.383 15.0781 367.461 21.5938C362.586 28.0625 360.078 37.0625 359.938 48.5938V56.1172C359.938 67.8828 362.398 77.1406 367.32 83.8906C372.289 90.5938 379.109 93.9453 387.781 93.9453C396.5 93.9453 403.25 90.7812 408.031 84.4531C412.812 78.0781 415.273 68.9609 415.414 57.1016V49.5078ZM486.641 62.5859H462.594V104H449.023V1.625H482.914C494.445 1.625 503.305 4.25 509.492 9.5C515.727 14.75 518.844 22.3906 518.844 32.4219C518.844 38.7969 517.109 44.3516 513.641 49.0859C510.219 53.8203 505.438 57.3594 499.297 59.7031L523.344 103.156V104H508.859L486.641 62.5859ZM462.594 51.5469H483.336C490.039 51.5469 495.359 49.8125 499.297 46.3438C503.281 42.875 505.273 38.2344 505.273 32.4219C505.273 26.0938 503.375 21.2422 499.578 17.8672C495.828 14.4922 490.391 12.7813 483.266 12.7344H462.594V51.5469ZM555.266 1.625L588.734 85.1562L622.203 1.625H639.711V104H626.211V64.1328L627.477 21.1016L593.867 104H583.531L549.992 21.3125L551.328 64.1328V104H537.828V1.625H555.266Z" fill="white"/>
</svg>
