<svg width="409" height="223" viewBox="0 0 409 223" fill="none" xmlns="http://www.w3.org/2000/svg">
<path fill-rule="evenodd" clip-rule="evenodd" d="M28.033 0.699996C27.923 0.809996 27.833 1.032 27.833 1.194C27.833 1.455 27.625 1.494 26.042 1.536C24.327 1.581 24.248 1.599 24.197 1.958C24.149 2.294 24.05 2.333 23.249 2.333C22.147 2.333 21.495 2.567 21.381 3.002C21.316 3.252 21.153 3.333 20.72 3.333C19.974 3.333 19.5 3.595 19.5 4.006C19.5 4.282 19.384 4.333 18.762 4.333C18.062 4.333 17.5 4.636 17.5 5.012C17.5 5.097 17.311 5.167 17.079 5.167C16.745 5.167 16.638 5.27 16.558 5.667C16.469 6.115 16.394 6.167 15.838 6.167C15.225 6.167 14.667 6.551 14.667 6.971C14.667 7.079 14.481 7.167 14.253 7.167C13.954 7.167 13.812 7.279 13.738 7.574C13.675 7.822 13.495 8.001 13.276 8.032C13.024 8.068 12.901 8.22 12.864 8.542C12.82 8.926 12.732 9 12.322 9C11.89 9 11.833 9.058 11.833 9.5C11.833 9.944 11.778 10 11.333 10C10.911 10 10.833 10.065 10.833 10.417C10.833 10.75 10.75 10.833 10.417 10.833C10.065 10.833 10 10.911 10 11.333C10 11.778 9.944 11.833 9.5 11.833C9.058 11.833 9 11.89 9 12.322C9 12.732 8.926 12.82 8.542 12.864C8.22 12.901 8.068 13.024 8.032 13.276C8.001 13.495 7.822 13.675 7.574 13.738C7.285 13.81 7.167 13.955 7.167 14.235C7.167 14.514 7.048 14.66 6.766 14.731C6.431 14.815 6.346 14.97 6.25 15.666C6.163 16.296 6.066 16.5 5.851 16.5C5.373 16.5 5.167 16.862 5.167 17.7C5.167 18.442 5.137 18.5 4.75 18.5C4.357 18.5 4.333 18.551 4.333 19.406C4.333 20.27 4.312 20.314 3.875 20.364C3.449 20.413 3.413 20.477 3.367 21.276C3.323 22.029 3.267 22.147 2.909 22.237C2.518 22.335 2.5 22.398 2.5 23.649V24.958L2 25.058L1.5 25.158V26.996C1.5 28.823 1.498 28.833 1.101 28.833C0.503 28.833 0.5 28.87 0.5 35.833C0.5 42.797 0.503 42.833 1.101 42.833C1.499 42.833 1.5 42.84 1.5 44.75V46.667H1.993H2.487L2.535 48.042C2.58 49.324 2.609 49.42 2.958 49.47C3.29 49.517 3.335 49.624 3.35 50.387C3.374 51.62 3.533 52.074 3.965 52.137C4.28 52.182 4.333 52.294 4.333 52.916C4.333 53.605 4.638 54.167 5.012 54.167C5.097 54.167 5.167 54.349 5.167 54.572C5.167 55.202 5.473 55.857 5.807 55.945C6.022 56.001 6.154 56.274 6.263 56.887C6.39 57.599 6.482 57.759 6.792 57.803C7.115 57.849 7.167 57.957 7.167 58.583C7.167 59.271 7.472 59.833 7.845 59.833C7.93 59.833 8 60.016 8 60.239C8 60.886 8.309 61.525 8.669 61.619C8.919 61.684 9 61.847 9 62.28C9 63.026 9.262 63.5 9.673 63.5C9.955 63.5 10 63.616 10 64.337C10 65.068 10.053 65.198 10.417 65.364C10.683 65.485 10.833 65.69 10.833 65.933C10.833 66.555 11.149 67.193 11.502 67.286C11.752 67.351 11.833 67.514 11.833 67.947C11.833 68.692 12.095 69.167 12.506 69.167C12.788 69.167 12.833 69.283 12.833 70.004C12.833 70.724 12.889 70.866 13.231 71.022C13.541 71.163 13.652 71.378 13.734 72.001C13.823 72.67 13.907 72.816 14.253 72.903C14.596 72.989 14.667 73.107 14.667 73.597C14.667 74.353 14.925 74.833 15.33 74.833C15.598 74.833 15.657 74.975 15.7 75.708C15.743 76.457 15.802 76.591 16.107 76.634C16.404 76.677 16.483 76.835 16.575 77.577C16.671 78.34 16.746 78.484 17.093 78.571C17.429 78.655 17.5 78.777 17.5 79.264C17.5 80.019 17.758 80.5 18.164 80.5C18.431 80.5 18.491 80.642 18.533 81.375C18.576 82.123 18.635 82.257 18.94 82.301C19.237 82.343 19.316 82.502 19.409 83.244C19.504 84.006 19.579 84.15 19.927 84.238C20.262 84.322 20.333 84.443 20.333 84.931C20.333 85.686 20.591 86.167 20.997 86.167C21.264 86.167 21.324 86.309 21.366 87.042C21.409 87.79 21.468 87.924 21.774 87.968C22.071 88.01 22.149 88.168 22.242 88.91C22.337 89.673 22.412 89.817 22.76 89.904C23.095 89.988 23.167 90.11 23.167 90.597C23.167 91.352 23.425 91.833 23.83 91.833C24.092 91.833 24.157 91.975 24.199 92.625C24.239 93.247 24.327 93.45 24.608 93.574C24.876 93.692 24.992 93.933 25.073 94.539C25.158 95.18 25.265 95.385 25.59 95.533C25.92 95.684 26 95.843 26 96.348C26 96.987 26.336 97.5 26.753 97.5C26.908 97.5 26.998 97.756 27.033 98.292C27.072 98.907 27.161 99.118 27.433 99.237C27.685 99.348 27.824 99.626 27.933 100.237C28.056 100.932 28.15 101.093 28.458 101.137C28.782 101.183 28.833 101.29 28.833 101.916C28.833 102.659 29.143 103.167 29.595 103.167C29.749 103.167 29.833 103.344 29.833 103.667C29.833 104.086 29.899 104.167 30.241 104.167C30.616 104.167 30.653 104.238 30.7 105.042C30.747 105.858 30.781 105.92 31.208 105.969C31.611 106.016 31.667 106.093 31.667 106.605C31.667 107.358 31.927 107.833 32.339 107.833C32.592 107.833 32.667 107.947 32.667 108.333C32.667 108.752 32.733 108.833 33.072 108.833C33.391 108.833 33.489 108.932 33.531 109.292C33.572 109.652 33.682 109.761 34.042 109.803C34.453 109.85 34.5 109.921 34.5 110.499C34.5 111.152 34.831 111.667 35.25 111.667C35.375 111.667 35.501 111.832 35.53 112.035C35.563 112.266 35.736 112.439 35.994 112.499C36.251 112.56 36.44 112.749 36.501 113.006C36.586 113.369 36.699 113.423 37.465 113.467C38.304 113.516 38.333 113.534 38.333 114.009C38.333 114.418 38.401 114.5 38.739 114.5C39.058 114.5 39.156 114.598 39.197 114.958C39.238 115.315 39.349 115.428 39.698 115.468C40.012 115.505 40.162 115.63 40.198 115.885C40.235 116.143 40.384 116.265 40.708 116.303C41.029 116.34 41.167 116.451 41.167 116.672C41.167 117.076 41.649 117.333 42.406 117.333C42.867 117.333 43 117.401 43 117.633C43 118.112 43.348 118.333 44.099 118.333C44.705 118.333 44.811 118.388 44.902 118.75C44.997 119.131 45.084 119.167 45.92 119.167C46.824 119.167 46.833 119.172 46.833 119.667C46.833 120.16 46.846 120.167 47.723 120.167C48.496 120.167 48.637 120.218 48.792 120.56C49.006 121.03 49.565 121.167 51.271 121.167C52.471 121.167 52.5 121.177 52.5 121.583V122H54.833C56.796 122 57.167 122.04 57.167 122.25C57.167 122.466 57.796 122.5 61.833 122.5C65.831 122.5 66.5 122.465 66.5 122.255C66.5 122.053 66.906 122.001 68.792 121.963C71.013 121.918 71.085 121.905 71.136 121.548C71.184 121.207 71.289 121.176 72.552 121.132C73.898 121.084 73.917 121.077 73.969 120.632C74.02 120.186 74.039 120.179 75.385 120.132C76.737 120.084 76.751 120.079 76.803 119.625C76.853 119.188 76.897 119.167 77.758 119.167C78.581 119.167 78.669 119.13 78.765 118.75C78.851 118.406 78.97 118.333 79.446 118.333C80.186 118.333 80.667 118.073 80.667 117.672C80.667 117.451 80.804 117.34 81.125 117.303C81.483 117.262 81.595 117.151 81.635 116.8C81.683 116.383 81.751 116.346 82.552 116.3C83.296 116.257 83.424 116.199 83.469 115.885C83.505 115.63 83.655 115.505 83.969 115.468C84.318 115.428 84.428 115.315 84.469 114.958C84.511 114.598 84.609 114.5 84.928 114.5C85.267 114.5 85.333 114.419 85.333 114C85.333 113.556 85.389 113.5 85.833 113.5C86.252 113.5 86.333 113.434 86.333 113.094C86.333 112.776 86.432 112.677 86.792 112.636C87.152 112.595 87.261 112.485 87.303 112.125C87.344 111.765 87.442 111.667 87.761 111.667C88.101 111.667 88.167 111.585 88.167 111.167C88.167 110.722 88.222 110.667 88.667 110.667C89.085 110.667 89.167 110.601 89.167 110.261C89.167 109.942 89.265 109.844 89.625 109.803C89.982 109.762 90.095 109.651 90.135 109.302C90.171 108.988 90.296 108.838 90.552 108.802C90.866 108.757 90.924 108.629 90.967 107.885C91.013 107.084 91.05 107.017 91.467 106.969C91.818 106.928 91.928 106.816 91.969 106.458C92.004 106.155 92.12 106 92.311 106C92.779 106 93 105.647 93 104.901C93 104.295 93.055 104.189 93.417 104.098C93.798 104.003 93.833 103.916 93.833 103.08C93.833 102.176 93.839 102.167 94.333 102.167C94.828 102.167 94.833 102.157 94.833 101.25C94.833 100.394 94.86 100.333 95.232 100.333C95.692 100.333 95.833 100.061 95.833 99.171C95.833 98.633 95.897 98.52 96.25 98.432C96.625 98.338 96.667 98.243 96.667 97.497C96.667 96.809 96.718 96.667 96.967 96.667C97.46 96.667 97.667 96.312 97.667 95.467C97.667 94.734 97.7 94.667 98.066 94.667C98.527 94.667 98.667 94.394 98.667 93.498C98.667 92.96 98.727 92.848 99.042 92.803C99.368 92.757 99.423 92.637 99.467 91.875C99.507 91.172 99.575 91 99.809 91C100.293 91 100.5 90.641 100.5 89.8C100.5 89.058 100.53 89 100.917 89C101.31 89 101.333 88.949 101.333 88.094C101.333 87.23 101.354 87.186 101.792 87.136C102.219 87.087 102.253 87.024 102.3 86.208C102.341 85.506 102.408 85.333 102.642 85.333C103.127 85.333 103.333 84.975 103.333 84.133C103.333 83.391 103.363 83.333 103.75 83.333C104.143 83.333 104.167 83.283 104.167 82.428C104.167 81.564 104.188 81.52 104.625 81.469C105.052 81.42 105.087 81.358 105.134 80.542C105.174 79.839 105.241 79.667 105.475 79.667C105.96 79.667 106.167 79.308 106.167 78.467C106.167 77.724 106.197 77.667 106.583 77.667C106.977 77.667 107 77.616 107 76.761C107 75.897 107.021 75.853 107.458 75.803C107.886 75.754 107.92 75.691 107.967 74.875C108.009 74.146 108.07 74 108.332 74C108.505 74 108.708 73.906 108.782 73.792C108.856 73.677 108.954 77.033 109 81.25L109.083 88.917L109.542 88.969L110 89.022V92.344V95.667H110.417C110.83 95.667 110.833 95.677 110.833 97.178C110.833 98.806 110.996 99.333 111.498 99.333C111.769 99.333 111.824 99.476 111.867 100.292C111.914 101.199 111.941 101.253 112.375 101.303C112.812 101.353 112.833 101.397 112.833 102.261C112.833 103.111 112.859 103.167 113.241 103.167C113.616 103.167 113.653 103.238 113.7 104.042C113.747 104.858 113.781 104.92 114.208 104.969C114.646 105.02 114.667 105.063 114.667 105.932C114.667 106.809 114.684 106.845 115.167 106.942C115.554 107.019 115.667 107.131 115.667 107.438C115.667 107.74 115.757 107.833 116.053 107.833C116.388 107.833 116.46 107.949 116.595 108.708C116.722 109.423 116.817 109.593 117.115 109.635C117.37 109.672 117.495 109.822 117.532 110.135C117.572 110.484 117.685 110.595 118.042 110.636C118.426 110.68 118.5 110.768 118.5 111.178C118.5 111.585 118.568 111.667 118.906 111.667C119.224 111.667 119.323 111.765 119.364 112.125C119.405 112.485 119.515 112.595 119.875 112.636C120.235 112.677 120.333 112.776 120.333 113.094C120.333 113.432 120.415 113.5 120.822 113.5C121.232 113.5 121.32 113.574 121.364 113.958C121.402 114.286 121.523 114.432 121.791 114.47C122.02 114.502 122.204 114.675 122.264 114.912C122.368 115.328 122.754 115.494 123.625 115.498C124.091 115.5 124.167 115.558 124.167 115.917C124.167 116.244 124.251 116.333 124.563 116.333C124.869 116.333 124.981 116.446 125.058 116.833C125.155 117.316 125.189 117.333 126.079 117.333C126.991 117.333 127 117.338 127 117.833C127 118.275 127.057 118.333 127.488 118.333C127.868 118.333 127.989 118.417 128.03 118.708C128.076 119.035 128.196 119.09 128.958 119.134C129.691 119.176 129.833 119.236 129.833 119.503C129.833 119.972 130.343 120.167 131.572 120.167C132.615 120.167 132.667 120.185 132.667 120.566C132.667 121.073 132.927 121.167 134.335 121.167C135.392 121.167 135.481 121.194 135.53 121.542C135.583 121.911 135.623 121.917 138.375 121.962C140.704 122 141.167 122.049 141.167 122.254C141.167 122.464 141.771 122.5 145.333 122.5C148.926 122.5 149.5 122.466 149.5 122.25C149.5 122.039 149.897 122 152.071 122C154.652 122 155.167 121.887 155.167 121.321C155.167 121.236 155.659 121.167 156.261 121.167C157.497 121.167 158 120.972 158 120.494C158 120.208 158.117 120.167 158.917 120.167C159.821 120.167 159.833 120.16 159.833 119.674V119.181L161.125 119.132C162.273 119.089 162.435 119.042 162.578 118.716C162.671 118.503 162.917 118.328 163.161 118.299C163.48 118.262 163.596 118.14 163.635 117.8C163.683 117.383 163.751 117.346 164.552 117.3C165.357 117.253 165.42 117.218 165.469 116.792C165.514 116.408 165.602 116.333 166.011 116.333C166.414 116.333 166.5 116.264 166.5 115.938C166.5 115.59 166.599 115.53 167.332 115.433C168.027 115.34 168.18 115.257 168.264 114.921C168.334 114.643 168.501 114.503 168.807 114.468C169.151 114.428 169.262 114.314 169.303 113.958C169.344 113.599 169.443 113.5 169.758 113.5C170.044 113.5 170.189 113.384 170.261 113.098C170.321 112.858 170.525 112.655 170.764 112.595C171.051 112.523 171.167 112.378 171.167 112.091C171.167 111.776 171.266 111.677 171.625 111.636C171.985 111.595 172.095 111.485 172.136 111.125C172.177 110.77 172.277 110.667 172.581 110.667C172.88 110.667 172.999 110.55 173.081 110.177C173.154 109.843 173.305 109.67 173.553 109.635C173.866 109.591 173.924 109.462 173.967 108.708C174.016 107.862 174.034 107.833 174.509 107.833C174.918 107.833 175 107.766 175 107.428C175 107.153 175.121 106.985 175.375 106.905C175.885 106.746 175.994 106.536 175.997 105.708C176 105.065 176.038 105 176.417 105C176.811 105 176.833 104.95 176.833 104.083C176.833 103.176 176.838 103.167 177.333 103.167C177.829 103.167 177.833 103.158 177.85 102.208C177.862 101.542 177.902 101.377 177.982 101.667C178.051 101.918 178.239 102.104 178.455 102.135C178.703 102.171 178.829 102.325 178.865 102.635C178.905 102.982 179.019 103.095 179.365 103.135C179.711 103.175 179.825 103.289 179.865 103.635C179.902 103.953 180.026 104.099 180.292 104.137C180.563 104.175 180.667 104.302 180.667 104.595C180.667 104.934 180.748 105 181.167 105C181.611 105 181.667 105.056 181.667 105.5C181.667 105.944 181.722 106 182.167 106C182.645 106 182.667 106.031 182.667 106.717C182.667 107.617 182.883 107.833 183.783 107.833C184.469 107.833 184.5 107.855 184.5 108.333C184.5 108.778 184.556 108.833 185 108.833C185.444 108.833 185.5 108.889 185.5 109.333C185.5 109.752 185.566 109.833 185.905 109.833C186.198 109.833 186.325 109.937 186.363 110.208C186.401 110.474 186.547 110.598 186.865 110.635C187.211 110.675 187.325 110.789 187.365 111.135C187.413 111.55 187.481 111.587 188.281 111.633C189.082 111.68 189.15 111.717 189.198 112.133C189.238 112.482 189.351 112.595 189.698 112.635C190.012 112.671 190.162 112.796 190.198 113.052C190.243 113.365 190.371 113.424 191.106 113.466C191.905 113.513 191.968 113.549 192.06 114.008C192.154 114.481 192.194 114.5 193.068 114.5C193.937 114.5 193.98 114.521 194.031 114.958C194.08 115.386 194.142 115.42 194.958 115.467C195.762 115.513 195.833 115.551 195.833 115.925C195.833 116.308 195.89 116.333 196.729 116.333C197.591 116.333 197.629 116.352 197.725 116.833C197.821 117.315 197.858 117.333 198.726 117.333C199.486 117.333 199.641 117.386 199.714 117.665C199.827 118.097 200.478 118.333 201.555 118.333C202.293 118.333 202.445 118.389 202.585 118.708C202.738 119.057 202.87 119.087 204.439 119.131L206.127 119.178L206.226 119.672L206.325 120.167H208.162C209.989 120.167 210 120.169 210 120.566C210 121.114 210.228 121.167 212.597 121.167C213.76 121.167 214.667 121.234 214.667 121.321C214.667 121.944 215.08 122 219.679 122C223.557 122 224.167 122.034 224.167 122.25C224.167 122.466 224.741 122.5 228.333 122.5C231.904 122.5 232.5 122.465 232.5 122.253C232.5 122.042 233.12 121.999 236.708 121.961L240.917 121.917L240.97 121.542C241.022 121.175 241.071 121.167 243.166 121.167C245.378 121.167 245.833 121.037 245.833 120.405C245.833 120.213 246.178 120.167 247.587 120.167H249.342L249.44 119.673C249.539 119.18 249.54 119.179 250.895 119.131C252.156 119.087 252.254 119.057 252.303 118.708C252.349 118.386 252.457 118.333 253.074 118.333C254.266 118.333 254.846 118.154 255.041 117.726C255.197 117.385 255.337 117.333 256.11 117.333C256.988 117.333 257 117.326 257 116.833C257 116.339 257.01 116.333 257.913 116.333C258.749 116.333 258.836 116.298 258.932 115.917C259.02 115.563 259.133 115.5 259.671 115.5C260.557 115.5 260.833 115.359 260.833 114.908C260.833 114.554 260.916 114.513 261.708 114.467C262.524 114.42 262.587 114.386 262.636 113.958C262.68 113.574 262.768 113.5 263.178 113.5C263.588 113.5 263.667 113.433 263.667 113.083C263.667 112.71 263.734 112.667 264.32 112.667C265.228 112.667 265.5 112.528 265.5 112.066C265.5 111.733 265.584 111.667 266 111.667C266.442 111.667 266.5 111.61 266.5 111.176C266.5 110.708 266.538 110.682 267.292 110.634C267.916 110.594 268.117 110.507 268.242 110.222C268.329 110.023 268.609 109.82 268.867 109.768C269.23 109.696 269.333 109.582 269.333 109.254C269.333 108.915 269.415 108.833 269.754 108.833C270.088 108.833 270.196 108.73 270.275 108.333C270.352 107.946 270.464 107.833 270.771 107.833C271.079 107.833 271.167 107.744 271.167 107.428C271.167 107.109 271.265 107.011 271.625 106.969C271.982 106.928 272.095 106.818 272.135 106.468C272.175 106.122 272.289 106.008 272.635 105.968C272.984 105.928 273.095 105.815 273.136 105.458C273.177 105.098 273.276 105 273.594 105C273.91 105 274 104.912 274 104.604C274 104.298 274.113 104.186 274.5 104.108C274.896 104.029 275 103.921 275 103.591C275 103.288 275.111 103.145 275.403 103.072C275.739 102.988 275.825 102.834 275.919 102.152C276.018 101.43 276.078 101.333 276.432 101.333C276.763 101.333 276.833 101.249 276.833 100.852C276.833 100.147 277.757 99.995 277.894 100.678C277.954 100.978 278.121 101.161 278.4 101.231C278.768 101.323 278.822 101.435 278.866 102.209C278.913 103.02 278.949 103.087 279.367 103.135C279.783 103.183 279.82 103.251 279.867 104.052C279.909 104.781 279.971 104.924 280.263 104.966C280.537 105.005 280.64 105.193 280.763 105.883C280.89 106.598 280.982 106.759 281.292 106.803C281.583 106.845 281.667 106.965 281.667 107.345C281.667 107.776 281.725 107.833 282.167 107.833C282.611 107.833 282.667 107.889 282.667 108.333C282.667 108.745 282.735 108.833 283.053 108.833C283.388 108.833 283.46 108.949 283.595 109.708C283.722 110.423 283.817 110.593 284.115 110.635C284.37 110.672 284.495 110.822 284.532 111.135C284.572 111.484 284.685 111.595 285.042 111.636C285.401 111.677 285.5 111.776 285.5 112.091C285.5 112.378 285.616 112.523 285.902 112.595C286.142 112.655 286.345 112.858 286.405 113.098C286.477 113.382 286.623 113.5 286.902 113.5C287.184 113.5 287.327 113.619 287.401 113.914C287.464 114.164 287.663 114.368 287.905 114.429C288.14 114.488 288.345 114.692 288.404 114.926C288.487 115.256 288.643 115.341 289.335 115.433C290.068 115.53 290.167 115.59 290.167 115.938C290.167 116.264 290.252 116.333 290.656 116.333C291.065 116.333 291.153 116.408 291.197 116.792C291.246 117.218 291.31 117.253 292.115 117.3C292.916 117.346 292.983 117.383 293.031 117.8C293.079 118.217 293.147 118.254 293.948 118.3C294.693 118.343 294.82 118.401 294.865 118.717C294.91 119.039 295.033 119.089 295.875 119.133C296.814 119.182 296.833 119.193 296.833 119.675C296.833 120.16 296.846 120.167 297.75 120.167C298.55 120.167 298.667 120.208 298.667 120.494C298.667 120.972 299.17 121.167 300.406 121.167C301.008 121.167 301.5 121.236 301.5 121.321C301.5 121.887 302.015 122 304.595 122C306.77 122 307.167 122.039 307.167 122.25C307.167 122.466 307.741 122.5 311.333 122.5C314.896 122.5 315.5 122.464 315.5 122.254C315.5 122.049 315.962 122 318.292 121.962C321.044 121.917 321.084 121.911 321.137 121.542C321.186 121.194 321.274 121.167 322.331 121.167C323.739 121.167 324 121.073 324 120.566C324 120.185 324.051 120.167 325.094 120.167C326.324 120.167 326.833 119.972 326.833 119.503C326.833 119.236 326.975 119.176 327.708 119.134C328.455 119.091 328.591 119.031 328.634 118.729C328.675 118.439 328.837 118.354 329.516 118.264C330.18 118.176 330.384 118.071 330.533 117.743C330.655 117.476 330.857 117.333 331.114 117.333C331.419 117.333 331.531 117.22 331.608 116.833C331.701 116.369 331.76 116.333 332.441 116.333C333.055 116.333 333.204 116.268 333.358 115.929C333.459 115.707 333.719 115.481 333.935 115.427C334.17 115.368 334.37 115.162 334.432 114.914C334.507 114.617 334.649 114.5 334.935 114.5C335.267 114.5 335.333 114.416 335.333 114C335.333 113.556 335.389 113.5 335.833 113.5C336.256 113.5 336.333 113.435 336.333 113.083C336.333 112.483 337.196 112.483 337.47 113.083C337.581 113.328 337.799 113.5 337.996 113.5C338.22 113.5 338.333 113.61 338.333 113.827C338.333 114.24 338.808 114.5 339.561 114.5C340.074 114.5 340.151 114.556 340.197 114.958C340.239 115.318 340.348 115.428 340.708 115.469C341.068 115.511 341.167 115.609 341.167 115.928C341.167 116.267 341.248 116.333 341.667 116.333C342.037 116.333 342.167 116.411 342.167 116.633C342.167 117.113 342.515 117.333 343.272 117.333C343.918 117.333 343.982 117.372 344.031 117.792C344.08 118.219 344.142 118.253 344.958 118.3C345.762 118.347 345.833 118.384 345.833 118.759C345.833 119.141 345.89 119.167 346.729 119.167C347.591 119.167 347.629 119.186 347.725 119.667C347.821 120.148 347.858 120.167 348.726 120.167C349.486 120.167 349.641 120.219 349.714 120.498C349.839 120.972 350.5 121.167 351.993 121.167C353.245 121.167 353.301 121.183 353.402 121.583L353.506 122H355.753C357.639 122 358 122.04 358 122.25C358 122.466 358.583 122.5 362.25 122.5C365.886 122.5 366.5 122.464 366.5 122.254C366.5 122.049 366.962 122 369.292 121.962C372.029 121.918 372.084 121.909 372.136 121.548C372.184 121.207 372.289 121.176 373.552 121.132C374.903 121.084 374.917 121.079 374.969 120.625C375.022 120.168 375.025 120.167 376.349 120.167H377.675L377.773 119.675C377.865 119.215 377.928 119.179 378.728 119.133C379.47 119.09 379.59 119.034 379.637 118.708C379.674 118.445 379.803 118.333 380.07 118.333C380.772 118.333 381.5 117.986 381.5 117.65C381.5 117.409 381.62 117.333 382 117.333C382.444 117.333 382.5 117.278 382.5 116.833C382.5 116.363 382.539 116.333 383.153 116.333C384.009 116.333 384.333 116.197 384.333 115.836C384.333 115.642 384.504 115.508 384.833 115.442C385.23 115.362 385.333 115.255 385.333 114.921C385.333 114.564 385.41 114.5 385.833 114.5C386.278 114.5 386.333 114.444 386.333 114C386.333 113.556 386.389 113.5 386.833 113.5C387.256 113.5 387.333 113.435 387.333 113.083C387.333 112.75 387.417 112.667 387.75 112.667C388.102 112.667 388.167 112.589 388.167 112.167C388.167 111.722 388.222 111.667 388.667 111.667C389.109 111.667 389.167 111.61 389.167 111.178C389.167 110.768 389.241 110.68 389.625 110.636C389.946 110.599 390.099 110.476 390.135 110.224C390.166 110.005 390.345 109.825 390.593 109.762C390.88 109.69 391 109.545 391 109.268C391 108.965 391.114 108.852 391.5 108.775C391.975 108.68 392 108.633 392 107.849C392 107.071 392.027 107.019 392.458 106.969C392.815 106.928 392.928 106.818 392.968 106.469C393.005 106.155 393.13 106.005 393.385 105.969C393.699 105.924 393.757 105.796 393.8 105.061C393.846 104.262 393.882 104.199 394.341 104.107C394.815 104.012 394.833 103.974 394.833 103.087C394.833 102.283 394.875 102.167 395.161 102.167C395.575 102.167 395.833 101.691 395.833 100.928C395.833 100.601 395.903 100.333 395.988 100.333C396.488 100.333 396.667 99.78 396.667 98.238C396.667 96.836 396.699 96.667 396.967 96.667C397.579 96.667 397.667 96.338 397.667 94.05V91.833H398.066C398.688 91.833 398.667 92.9 398.667 61.186C398.667 29.642 398.69 30.667 397.967 30.667C397.694 30.667 397.667 30.479 397.667 28.597C397.667 26.228 397.614 26 397.066 26C396.676 26 396.667 25.966 396.667 24.583C396.667 23.183 396.662 23.167 396.25 23.167C395.848 23.167 395.833 23.129 395.833 22.072C395.833 20.843 395.639 20.333 395.17 20.333C394.902 20.333 394.843 20.191 394.8 19.458C394.753 18.642 394.719 18.58 394.292 18.531C393.88 18.483 393.833 18.412 393.833 17.836C393.833 16.985 393.695 16.667 393.327 16.667C393.118 16.667 393.005 16.522 392.969 16.208C392.928 15.848 392.818 15.739 392.458 15.697C392.056 15.651 392 15.574 392 15.061C392 14.308 391.74 13.833 391.327 13.833C391.075 13.833 391 13.719 391 13.333C391 12.915 390.934 12.833 390.594 12.833C390.276 12.833 390.177 12.735 390.136 12.375C390.095 12.018 389.984 11.905 389.635 11.865C389.289 11.825 389.175 11.711 389.135 11.365C389.095 11.016 388.982 10.905 388.625 10.864C388.265 10.823 388.167 10.724 388.167 10.406C388.167 10.087 388.08 10 387.761 10C387.442 10 387.344 9.902 387.303 9.542C387.261 9.182 387.152 9.072 386.792 9.031C386.43 8.989 386.333 8.891 386.333 8.568C386.333 8.248 386.226 8.137 385.842 8.06C385.508 7.993 385.335 7.849 385.301 7.606C385.257 7.302 385.122 7.243 384.375 7.2C383.529 7.151 383.5 7.133 383.5 6.658C383.5 6.226 383.441 6.167 383.011 6.167C382.602 6.167 382.514 6.092 382.469 5.708C382.42 5.281 382.358 5.247 381.542 5.2C380.738 5.153 380.667 5.116 380.667 4.741C380.667 4.399 380.586 4.333 380.167 4.333C379.781 4.333 379.667 4.259 379.667 4.006C379.667 3.529 379.164 3.333 377.939 3.333C376.881 3.333 376.854 3.323 376.803 2.875C376.754 2.448 376.69 2.413 375.885 2.367C375.14 2.324 375.014 2.266 374.969 1.95C374.919 1.6 374.829 1.581 373.052 1.536L371.188 1.489L371.136 1.036L371.083 0.582996L362.863 0.539996C354.227 0.494996 353.618 0.533996 353.53 1.135C353.48 1.477 353.39 1.5 352.075 1.5C350.719 1.5 350.67 1.514 350.568 1.917C350.47 2.308 350.398 2.333 349.357 2.336C348.126 2.339 347.931 2.415 347.761 2.958C347.661 3.281 347.529 3.333 346.818 3.333C346.033 3.333 345.987 3.358 345.892 3.833C345.804 4.273 345.722 4.333 345.218 4.333C344.536 4.333 344 4.588 344 4.911C344 5.042 343.798 5.168 343.542 5.197C343.184 5.238 343.072 5.349 343.031 5.7C342.983 6.117 342.916 6.154 342.115 6.2C341.31 6.247 341.246 6.282 341.197 6.708C341.153 7.092 341.065 7.167 340.656 7.167C340.249 7.167 340.167 7.235 340.167 7.572C340.167 7.891 340.068 7.989 339.708 8.031C339.348 8.072 339.239 8.182 339.197 8.542C339.156 8.902 339.058 9 338.739 9C338.399 9 338.333 9.081 338.333 9.5C338.333 9.941 338.276 10 337.847 10C337.58 10 337.323 10.094 337.277 10.208C337.21 10.375 337.19 10.375 337.18 10.208C337.173 10.094 336.984 10 336.761 10C336.442 10 336.344 9.902 336.303 9.542C336.261 9.182 336.152 9.072 335.792 9.031C335.43 8.989 335.333 8.891 335.333 8.568C335.333 8.246 335.226 8.137 334.833 8.058C334.504 7.992 334.333 7.858 334.333 7.664C334.333 7.303 334.009 7.167 333.153 7.167C332.539 7.167 332.5 7.137 332.5 6.667C332.5 6.245 332.435 6.167 332.087 6.167C331.789 6.167 331.645 6.054 331.572 5.766C331.465 5.339 331.085 5.173 330.208 5.169C329.742 5.167 329.667 5.109 329.667 4.75C329.667 4.356 329.617 4.333 328.75 4.333C327.843 4.333 327.833 4.328 327.833 3.833C327.833 3.34 327.822 3.333 326.938 3.333C326.075 3.333 326.038 3.314 325.942 2.833C325.845 2.35 325.811 2.333 324.921 2.333C324.223 2.333 324 2.274 324 2.089C324 1.664 323.4 1.5 321.844 1.5C320.5 1.5 320.333 1.467 320.333 1.2C320.333 0.503996 320.285 0.499996 311.592 0.501996C302.543 0.504996 302.5 0.507996 302.5 1.103C302.5 1.49 302.465 1.5 301.083 1.5C299.683 1.5 299.667 1.505 299.667 1.917C299.667 2.319 299.629 2.333 298.572 2.333C297.336 2.333 296.833 2.528 296.833 3.006C296.833 3.292 296.717 3.333 295.912 3.333C295.026 3.333 294.988 3.352 294.893 3.825C294.801 4.285 294.738 4.321 293.939 4.367C293.197 4.41 293.076 4.466 293.03 4.792C292.992 5.06 292.865 5.167 292.583 5.167C291.952 5.167 291.308 5.477 291.217 5.826C291.166 6.022 290.96 6.168 290.691 6.199C290.349 6.238 290.238 6.353 290.197 6.708C290.153 7.092 290.065 7.167 289.656 7.167C289.25 7.167 289.167 7.235 289.167 7.568C289.167 7.922 289.07 7.982 288.348 8.081C287.679 8.173 287.512 8.264 287.433 8.579C287.376 8.807 287.166 9.006 286.918 9.068C286.612 9.145 286.5 9.284 286.5 9.587C286.5 9.874 286.408 10 286.2 10C285.816 10 285.5 10.316 285.5 10.7C285.5 10.905 285.374 11 285.103 11C284.669 11 284.506 11.351 284.502 12.292C284.5 12.782 284.453 12.833 284 12.833C283.578 12.833 283.5 12.898 283.5 13.25C283.5 13.583 283.417 13.667 283.083 13.667C282.734 13.667 282.667 13.745 282.667 14.156C282.667 14.565 282.592 14.653 282.208 14.697C281.782 14.746 281.747 14.81 281.7 15.615C281.654 16.416 281.617 16.483 281.2 16.531C280.852 16.572 280.738 16.685 280.698 17.031C280.662 17.345 280.537 17.495 280.282 17.531C279.969 17.576 279.91 17.704 279.867 18.425C279.823 19.184 279.771 19.284 279.326 19.452C278.87 19.624 278.833 19.701 278.833 20.474C278.833 21.209 278.789 21.317 278.465 21.363C278.026 21.427 277.873 21.882 277.85 23.197C277.835 24.046 277.795 24.149 277.458 24.197C277.211 24.232 277.057 24.392 277.006 24.667C276.955 24.937 276.897 24.761 276.839 24.167C276.765 23.401 276.693 23.242 276.404 23.201C276.129 23.161 276.027 22.973 275.904 22.284C275.778 21.577 275.683 21.407 275.385 21.365C275.13 21.328 275.005 21.178 274.968 20.865C274.928 20.516 274.815 20.405 274.458 20.364C274.074 20.32 274 20.232 274 19.822C274 19.417 273.931 19.333 273.599 19.333C273.245 19.333 273.185 19.237 273.085 18.515C272.992 17.833 272.905 17.679 272.57 17.595C272.278 17.521 272.167 17.379 272.167 17.076C272.167 16.745 272.063 16.638 271.667 16.558C271.28 16.481 271.167 16.369 271.167 16.062C271.167 15.757 271.076 15.667 270.771 15.667C270.464 15.667 270.352 15.554 270.275 15.167C270.196 14.77 270.088 14.667 269.754 14.667C269.415 14.667 269.333 14.585 269.333 14.246C269.333 13.918 269.23 13.804 268.867 13.732C268.609 13.68 268.329 13.477 268.242 13.278C268.155 13.079 267.915 12.893 267.708 12.863C267.442 12.826 267.333 12.698 267.333 12.423C267.333 11.973 267.056 11.833 266.164 11.833C265.588 11.833 265.517 11.787 265.469 11.375C265.432 11.047 265.31 10.902 265.042 10.863C264.808 10.83 264.629 10.658 264.566 10.405C264.474 10.039 264.378 10 263.565 10C262.678 10 262.667 9.994 262.667 9.5C262.667 9.058 262.61 9 262.178 9C261.799 9 261.678 8.916 261.637 8.625C261.593 8.316 261.432 8.223 260.716 8.096C260.027 7.973 259.839 7.871 259.799 7.596C259.758 7.305 259.614 7.242 258.894 7.2C258.095 7.154 258.032 7.118 257.94 6.659C257.846 6.186 257.806 6.167 256.932 6.167C256.122 6.167 256.017 6.127 255.97 5.798C255.907 5.367 255.453 5.207 254.22 5.183C253.457 5.169 253.35 5.123 253.303 4.792C253.254 4.442 253.157 4.413 251.885 4.368C250.539 4.321 250.52 4.314 250.469 3.868C250.417 3.424 250.396 3.416 249.076 3.369C247.76 3.322 247.732 3.312 247.549 2.827L247.362 2.333H245.609C243.918 2.333 243.855 2.32 243.803 1.958C243.751 1.589 243.711 1.583 240.958 1.538L238.167 1.492V1.097C238.167 0.490996 238.352 0.499996 226.111 0.501996C213.797 0.504996 213.881 0.500996 213.73 1.103C213.633 1.491 213.588 1.5 211.815 1.5H210V1.917C210 2.332 209.997 2.333 208.375 2.336C206.616 2.339 206.438 2.391 206.261 2.958C206.155 3.299 206.04 3.333 205.022 3.333C203.867 3.333 203.5 3.5 203.5 4.025C203.5 4.263 203.324 4.326 202.542 4.367C201.7 4.411 201.577 4.461 201.531 4.783C201.486 5.099 201.36 5.157 200.615 5.2C199.81 5.247 199.746 5.282 199.697 5.708C199.647 6.146 199.603 6.167 198.735 6.167C197.861 6.167 197.821 6.186 197.727 6.659C197.635 7.118 197.572 7.154 196.772 7.2C196.045 7.243 195.909 7.303 195.866 7.605C195.825 7.894 195.663 7.98 194.993 8.069C194.306 8.16 194.154 8.244 194.069 8.579C194 8.857 193.832 8.997 193.526 9.032C193.185 9.072 193.071 9.187 193.031 9.533C192.984 9.941 192.908 9.987 192.198 10.033C191.584 10.073 191.383 10.161 191.258 10.444C191.171 10.644 190.891 10.847 190.633 10.898C190.274 10.97 190.167 11.086 190.167 11.401C190.167 11.725 190.07 11.822 189.708 11.864C189.348 11.905 189.239 12.015 189.197 12.375C189.156 12.735 189.058 12.833 188.739 12.833C188.426 12.833 188.333 12.922 188.333 13.22C188.333 13.555 188.217 13.626 187.458 13.761C186.766 13.884 186.573 13.988 186.535 14.258C186.506 14.458 186.282 14.676 185.993 14.785C185.664 14.909 185.5 15.087 185.5 15.319C185.5 15.56 185.394 15.667 185.152 15.667C184.92 15.667 184.743 15.83 184.618 16.16C184.509 16.449 184.291 16.673 184.091 16.701C183.896 16.729 183.729 16.896 183.701 17.091C183.673 17.291 183.449 17.509 183.16 17.618C182.83 17.743 182.667 17.92 182.667 18.152C182.667 18.387 182.56 18.5 182.339 18.5C181.927 18.5 181.667 18.975 181.667 19.728C181.667 20.24 181.611 20.318 181.208 20.364C180.848 20.405 180.739 20.515 180.697 20.875C180.656 21.235 180.558 21.333 180.239 21.333C179.928 21.333 179.833 21.422 179.833 21.713C179.833 21.983 179.688 22.149 179.333 22.282C178.868 22.458 178.833 22.53 178.833 23.319C178.833 24.15 178.823 24.167 178.333 24.167C177.912 24.167 177.833 24.232 177.833 24.58C177.833 24.882 177.721 25.022 177.417 25.098C177.045 25.191 177 25.289 177 25.997C177 26.747 176.972 26.797 176.5 26.892C176.018 26.988 176 27.024 176 27.901C176 28.77 175.979 28.814 175.542 28.864C175.114 28.913 175.08 28.976 175.033 29.792C174.987 30.595 174.949 30.667 174.575 30.667C174.193 30.667 174.167 30.724 174.167 31.547C174.167 32.372 174.135 32.439 173.667 32.616C173.172 32.802 173.167 32.817 173.167 34.066C173.167 35.273 173.149 35.331 172.749 35.432C172.421 35.514 172.309 35.674 172.229 36.177C172.14 36.736 172.096 36.787 171.885 36.575C171.752 36.442 171.541 36.333 171.416 36.333C171.292 36.333 171.166 36.168 171.137 35.965C171.103 35.734 170.93 35.561 170.673 35.501C170.416 35.44 170.226 35.251 170.166 34.994C170.081 34.631 169.968 34.577 169.202 34.533C168.363 34.484 168.333 34.466 168.333 33.991C168.333 33.582 168.266 33.5 167.928 33.5C167.609 33.5 167.511 33.402 167.469 33.042C167.428 32.685 167.318 32.572 166.969 32.532C166.655 32.495 166.505 32.37 166.469 32.115C166.424 31.801 166.296 31.743 165.552 31.7C164.751 31.654 164.683 31.617 164.635 31.2C164.596 30.855 164.481 30.738 164.148 30.699C163.882 30.669 163.642 30.495 163.532 30.253C163.396 29.955 163.168 29.829 162.612 29.746C162.052 29.662 161.828 29.537 161.69 29.234C161.532 28.888 161.392 28.833 160.67 28.833C159.949 28.833 159.833 28.788 159.833 28.506C159.833 28.028 159.33 27.833 158.094 27.833C157.118 27.833 157 27.798 157 27.506C157 26.997 156.48 26.833 154.862 26.833C153.407 26.833 153.367 26.823 153.264 26.415L153.159 25.997L145.288 26.04L137.417 26.083L137.363 26.458C137.312 26.82 137.248 26.833 135.557 26.833H133.804L133.616 27.333C133.436 27.81 133.382 27.833 132.453 27.833C131.336 27.833 130.833 28.04 130.833 28.498C130.833 28.769 130.691 28.824 129.875 28.867C129.026 28.911 128.911 28.959 128.863 29.292C128.82 29.599 128.705 29.667 128.227 29.667C127.475 29.667 127 29.927 127 30.339C127 30.592 126.886 30.667 126.5 30.667C126.056 30.667 126 30.722 126 31.167C126 31.662 125.991 31.667 125.083 31.667C124.228 31.667 124.167 31.693 124.167 32.064C124.167 32.379 124.062 32.478 123.667 32.536L123.167 32.609V31.338C123.167 30.025 123.016 29.667 122.467 29.667C122.193 29.667 122.167 29.475 122.167 27.486V25.304L121.673 25.118C121.193 24.937 121.178 24.897 121.131 23.674C121.087 22.514 121.054 22.413 120.708 22.363C120.385 22.318 120.333 22.21 120.333 21.585C120.333 20.604 120.203 20.333 119.732 20.333C119.36 20.333 119.333 20.272 119.333 19.417C119.333 18.509 119.328 18.5 118.833 18.5C118.34 18.5 118.333 18.489 118.333 17.601C118.333 16.782 118.297 16.694 117.917 16.598C117.612 16.522 117.5 16.382 117.5 16.08C117.5 15.732 117.421 15.667 117 15.667C116.547 15.667 116.5 15.615 116.498 15.125C116.494 14.184 116.331 13.833 115.897 13.833C115.567 13.833 115.5 13.749 115.5 13.333C115.5 12.915 115.434 12.833 115.094 12.833C114.776 12.833 114.677 12.735 114.636 12.375C114.595 12.018 114.484 11.905 114.135 11.865C113.789 11.825 113.675 11.711 113.635 11.365C113.595 11.016 113.482 10.905 113.125 10.864C112.765 10.823 112.667 10.724 112.667 10.406C112.667 10.087 112.58 10 112.261 10C111.942 10 111.844 9.902 111.803 9.542C111.762 9.185 111.651 9.072 111.302 9.032C110.955 8.992 110.842 8.878 110.802 8.532C110.761 8.182 110.649 8.072 110.292 8.031C109.932 7.989 109.833 7.891 109.833 7.572C109.833 7.233 109.752 7.167 109.333 7.167C108.963 7.167 108.833 7.089 108.833 6.867C108.833 6.387 108.485 6.167 107.728 6.167C107.082 6.167 107.018 6.128 106.969 5.708C106.92 5.281 106.858 5.247 106.042 5.2C105.238 5.153 105.167 5.116 105.167 4.741C105.167 4.399 105.086 4.333 104.667 4.333C104.281 4.333 104.167 4.259 104.167 4.006C104.167 3.529 103.664 3.333 102.439 3.333C101.381 3.333 101.354 3.323 101.303 2.875C101.254 2.448 101.191 2.413 100.375 2.366C99.894 2.339 99.5 2.25 99.5 2.17C99.5 1.679 98.939 1.5 97.405 1.5C95.954 1.5 95.833 1.475 95.833 1.173C95.833 0.531996 95.429 0.499996 87.275 0.499996C78.804 0.499996 78.833 0.497996 78.833 1.101C78.833 1.491 78.801 1.5 77.375 1.502C75.61 1.505 75.167 1.607 75.167 2.011C75.167 2.266 75.008 2.325 74.208 2.367C73.301 2.414 73.247 2.441 73.197 2.875C73.145 3.325 73.125 3.333 72.001 3.333C70.841 3.333 70.333 3.562 70.333 4.084C70.333 4.209 70.127 4.335 69.875 4.364C69.547 4.402 69.402 4.523 69.363 4.792C69.319 5.106 69.207 5.167 68.669 5.167C67.772 5.167 67.5 5.307 67.5 5.768C67.5 6.114 67.421 6.167 66.906 6.167C66.149 6.167 65.667 6.424 65.667 6.828C65.667 7.049 65.529 7.16 65.208 7.197C64.884 7.235 64.735 7.357 64.698 7.615C64.662 7.87 64.512 7.995 64.198 8.032C63.849 8.072 63.738 8.185 63.697 8.542C63.656 8.902 63.558 9 63.239 9C62.903 9 62.833 9.082 62.833 9.482C62.833 10.297 60.896 10.345 60.802 9.532C60.761 9.182 60.649 9.072 60.292 9.031C59.93 8.989 59.833 8.891 59.833 8.568C59.833 8.248 59.726 8.137 59.342 8.06C59.008 7.993 58.835 7.849 58.801 7.606C58.757 7.302 58.622 7.243 57.875 7.2C57.029 7.151 57 7.133 57 6.658C57 6.249 56.932 6.167 56.595 6.167C56.32 6.167 56.151 6.046 56.072 5.792C55.913 5.281 55.703 5.172 54.875 5.169C54.231 5.167 54.167 5.129 54.167 4.75C54.167 4.356 54.117 4.333 53.25 4.333C52.343 4.333 52.333 4.328 52.333 3.833C52.333 3.338 52.324 3.333 51.417 3.333C50.645 3.333 50.5 3.286 50.5 3.033C50.5 2.54 50.146 2.333 49.3 2.333C48.709 2.333 48.5 2.27 48.5 2.089C48.5 1.664 47.9 1.5 46.344 1.5C44.953 1.5 44.833 1.474 44.833 1.173C44.833 0.991996 44.688 0.766996 44.511 0.672996C44.022 0.410996 28.297 0.436996 28.033 0.699996ZM41.746 8.078C42.661 8.31 43.561 8.503 43.746 8.507C43.932 8.511 44.346 8.616 44.667 8.739C44.987 8.863 45.7 9.129 46.249 9.331C48.88 10.298 52.429 12.383 54.558 14.214C56.792 16.133 60.472 20.494 60.507 21.262C60.548 22.144 62.333 23.103 62.333 22.242C62.333 22.123 62.511 21.814 62.727 21.554C62.944 21.295 63.171 20.923 63.232 20.728C63.293 20.533 63.472 20.217 63.63 20.026C63.788 19.835 64.442 19.023 65.083 18.222C67.013 15.811 68.86 14.087 71.422 12.3C72.436 11.593 76.422 9.5 76.754 9.5C76.884 9.5 77.396 9.321 77.892 9.101C78.388 8.882 79.121 8.65 79.522 8.585C79.922 8.52 80.775 8.322 81.417 8.144C84.122 7.395 90.569 7.355 92.88 8.073C93.319 8.209 94.144 8.405 94.714 8.508C95.284 8.612 96.05 8.832 96.417 8.999C96.783 9.165 97.421 9.39 97.833 9.499C98.246 9.608 98.7 9.801 98.842 9.928C98.984 10.054 99.412 10.268 99.794 10.403C100.175 10.537 100.697 10.791 100.952 10.967C101.208 11.143 101.942 11.594 102.583 11.969C104.292 12.968 107.944 16.026 108.504 16.926C108.678 17.206 109.119 17.768 109.484 18.176C110.391 19.188 110.937 19.956 111.331 20.77C111.513 21.147 111.776 21.55 111.914 21.664C112.052 21.779 112.252 22.163 112.358 22.517C112.464 22.871 112.69 23.287 112.859 23.44C113.028 23.593 113.167 23.821 113.167 23.946C113.167 24.071 113.392 24.67 113.667 25.277C113.942 25.883 114.167 26.478 114.167 26.598C114.167 26.718 114.384 27.514 114.651 28.367C115.58 31.341 115.893 35.937 115.417 39.583C115.021 42.612 114.978 42.796 114.008 45.667C113.749 46.434 113.127 47.912 112.887 48.333C112.756 48.563 112.538 49.012 112.404 49.333C112.269 49.654 112.085 50.029 111.995 50.167C111.905 50.304 111.712 50.679 111.565 51C111.419 51.321 111.196 51.771 111.069 52C110.943 52.229 110.724 52.679 110.582 53C110.441 53.321 110.25 53.696 110.158 53.833C110.067 53.971 109.84 54.421 109.655 54.833C109.47 55.246 109.246 55.696 109.158 55.833C109.07 55.971 108.878 56.346 108.732 56.667C108.586 56.987 108.362 57.438 108.236 57.667C108.109 57.896 107.89 58.346 107.749 58.667C107.608 58.987 107.417 59.362 107.325 59.5C107.233 59.637 107.007 60.087 106.822 60.5C106.637 60.913 106.412 61.362 106.322 61.5C106.232 61.637 106.007 62.087 105.822 62.5C105.637 62.913 105.418 63.362 105.337 63.5C105.255 63.637 103.293 67.537 100.976 72.167C98.66 76.796 96.719 80.621 96.662 80.667C96.606 80.712 96.428 81.087 96.266 81.5C96.104 81.912 95.879 82.362 95.764 82.5C95.65 82.637 95.427 83.1 95.269 83.529C95.112 83.957 94.874 84.397 94.741 84.507C94.609 84.617 94.5 84.789 94.5 84.889C94.5 85.051 93.217 87.703 92.834 88.333C92.75 88.471 92.53 88.921 92.345 89.333C92.16 89.746 91.935 90.196 91.845 90.333C91.755 90.471 91.53 90.921 91.345 91.333C91.16 91.746 90.933 92.196 90.842 92.333C90.75 92.471 90.565 92.846 90.43 93.167C90.295 93.487 90.077 93.938 89.946 94.167C89.815 94.396 89.586 94.846 89.438 95.167C89.29 95.487 89.097 95.862 89.008 96C88.92 96.138 88.697 96.587 88.512 97C88.326 97.412 88.1 97.862 88.008 98C87.916 98.138 87.728 98.513 87.59 98.833C87.452 99.154 87.117 99.792 86.846 100.25C86.574 100.708 86.158 101.421 85.92 101.833C85.464 102.623 85.192 103.009 84.038 104.5C82.866 106.016 81.801 107.236 81.432 107.487C81.24 107.617 80.707 108.067 80.246 108.487C78.723 109.876 77.137 110.942 74.843 112.119C74.268 112.414 73.712 112.72 73.607 112.798C73.502 112.877 73.085 113.037 72.679 113.153C72.273 113.269 71.674 113.507 71.348 113.682C71.022 113.857 70.598 114 70.407 114C70.215 114 69.504 114.189 68.826 114.419C66.8 115.108 61.681 115.378 57.8 115.001C54.685 114.698 50.89 113.373 47.138 111.278C44.104 109.585 40.195 105.942 38.446 103.178C38.246 102.863 37.802 102.162 37.458 101.619C37.115 101.077 36.833 100.593 36.833 100.543C36.833 100.494 36.608 100.088 36.333 99.641C36.058 99.194 35.833 98.727 35.833 98.603C35.833 98.48 35.682 98.186 35.496 97.95C35.311 97.714 35.047 97.202 34.909 96.811C34.771 96.42 34.548 95.979 34.414 95.831C34.28 95.683 34.082 95.304 33.974 94.989C33.866 94.674 33.603 94.137 33.389 93.795C33.175 93.453 33 93.069 33 92.942C33 92.815 32.863 92.533 32.696 92.314C32.528 92.096 32.259 91.579 32.098 91.167C31.937 90.754 31.712 90.304 31.597 90.167C31.482 90.029 31.287 89.654 31.163 89.333C31.04 89.013 30.765 88.489 30.553 88.17C30.34 87.85 30.167 87.467 30.167 87.317C30.167 87.167 30.015 86.852 29.83 86.617C29.644 86.381 29.38 85.868 29.242 85.477C29.104 85.086 28.893 84.65 28.773 84.508C28.653 84.366 28.454 83.987 28.332 83.667C28.209 83.346 27.983 82.896 27.83 82.667C27.676 82.438 27.475 82.025 27.382 81.75C27.289 81.475 27.015 80.958 26.773 80.602C26.531 80.245 26.333 79.823 26.333 79.664C26.333 79.504 26.231 79.289 26.105 79.185C25.98 79.081 25.743 78.64 25.58 78.206C25.417 77.772 25.156 77.229 25.001 77C24.845 76.771 24.634 76.336 24.531 76.034C24.429 75.732 24.193 75.29 24.006 75.053C23.819 74.816 23.667 74.492 23.667 74.333C23.667 74.175 23.521 73.86 23.343 73.634C23.165 73.407 22.891 72.891 22.734 72.486C22.577 72.081 22.354 71.637 22.238 71.5C22.123 71.362 21.896 70.912 21.735 70.5C21.574 70.087 21.305 69.571 21.138 69.353C20.97 69.134 20.833 68.825 20.833 68.667C20.833 68.508 20.682 68.186 20.496 67.95C20.311 67.714 20.047 67.202 19.909 66.811C19.771 66.42 19.549 65.98 19.417 65.833C19.284 65.687 19.063 65.247 18.925 64.856C18.787 64.465 18.522 63.952 18.337 63.717C18.152 63.481 18 63.179 18 63.045C18 62.911 17.847 62.587 17.661 62.325C17.474 62.063 17.237 61.601 17.135 61.299C17.033 60.997 16.808 60.547 16.635 60.299C16.462 60.051 16.237 59.601 16.133 59.299C16.03 58.997 15.77 58.489 15.556 58.17C15.342 57.85 15.165 57.475 15.164 57.336C15.162 57.197 14.937 56.753 14.664 56.35C14.39 55.947 14.167 55.508 14.167 55.376C14.167 55.243 14.014 54.92 13.827 54.658C13.641 54.396 13.403 53.938 13.299 53.64C13.195 53.342 12.935 52.841 12.722 52.526C12.508 52.211 12.332 51.833 12.33 51.685C12.329 51.537 12.104 51.087 11.83 50.683C11.557 50.28 11.333 49.821 11.333 49.664C11.333 49.507 11.182 49.186 10.996 48.95C10.811 48.714 10.547 48.202 10.409 47.811C10.271 47.42 10.052 46.982 9.922 46.839C9.792 46.695 9.607 46.227 9.511 45.799C9.415 45.371 9.177 44.622 8.983 44.135C8.788 43.648 8.566 42.701 8.488 42.031C8.411 41.36 8.274 40.573 8.184 40.281C7.612 38.411 7.496 35.044 7.929 32.833C8.064 32.146 8.291 30.833 8.433 29.917C8.576 29 8.832 27.975 9.003 27.64C9.173 27.304 9.364 26.741 9.426 26.39C9.489 26.038 9.713 25.412 9.924 25C10.135 24.587 10.392 23.978 10.494 23.645C10.596 23.312 10.82 22.913 10.991 22.758C11.163 22.603 11.346 22.304 11.399 22.094C11.491 21.726 12.295 20.473 13.329 19.083C13.602 18.717 14.007 18.154 14.23 17.833C14.791 17.026 17.36 14.554 18.663 13.567C19.257 13.118 19.89 12.619 20.07 12.458C20.249 12.298 20.483 12.167 20.589 12.167C20.695 12.167 20.917 12.017 21.083 11.833C21.249 11.65 21.456 11.5 21.543 11.5C21.63 11.5 22.035 11.275 22.443 11C22.85 10.725 23.264 10.5 23.363 10.5C23.462 10.5 24.002 10.282 24.563 10.017C25.662 9.496 26.715 9.119 28.167 8.727C28.671 8.591 29.602 8.326 30.235 8.138C32.809 7.375 38.853 7.344 41.746 8.078ZM230.75 7.67C232.125 7.75 233.925 7.934 234.75 8.077C235.575 8.221 237.037 8.415 238 8.508C238.963 8.601 240.245 8.823 240.849 9.002C241.454 9.181 242.489 9.404 243.151 9.498C243.812 9.592 244.555 9.77 244.801 9.895C245.048 10.02 245.662 10.219 246.167 10.337C247.493 10.648 250.528 11.672 250.912 11.939C251.093 12.064 251.355 12.167 251.495 12.167C251.635 12.167 252.271 12.43 252.907 12.751C253.544 13.071 254.195 13.333 254.356 13.333C254.516 13.333 254.694 13.41 254.752 13.504C254.81 13.597 255.283 13.9 255.804 14.175C257.44 15.041 258.221 15.498 258.503 15.753C258.653 15.889 258.851 16 258.942 16C259.034 16 259.285 16.187 259.5 16.417C259.715 16.646 259.984 16.833 260.097 16.833C260.281 16.833 260.701 17.136 262.224 18.367C264.625 20.306 268.322 24.539 269.744 26.975C269.832 27.126 270.114 27.562 270.369 27.944C270.624 28.326 270.833 28.703 270.833 28.782C270.833 28.862 271.211 29.674 271.672 30.588C272.134 31.502 272.596 32.587 272.7 33C272.804 33.412 273.025 34.014 273.192 34.337C273.358 34.661 273.611 35.598 273.754 36.421C273.896 37.244 274.083 38.142 274.169 38.417C274.74 40.249 274.602 45.315 273.933 47.083C273.795 47.45 273.678 47.932 273.674 48.153C273.67 48.375 273.448 49.013 273.18 49.57C272.912 50.127 272.575 50.846 272.43 51.167C272.285 51.487 271.974 52.087 271.738 52.5C271.202 53.438 271.27 54.012 272.058 55.205C273.293 57.074 274.93 60.506 275.498 62.417C275.662 62.967 275.877 63.604 275.977 63.833C277.218 66.686 277.983 76.604 277.262 80.5C276.902 82.447 276.169 85.518 275.98 85.871C275.886 86.047 275.699 86.612 275.565 87.127C275.431 87.643 275.174 88.302 274.994 88.593C274.814 88.885 274.667 89.252 274.667 89.411C274.667 89.569 274.31 90.335 273.875 91.112C273.44 91.889 272.923 92.841 272.727 93.227C272.531 93.612 272.25 94.029 272.102 94.151C271.954 94.274 271.83 94.459 271.827 94.562C271.823 94.665 271.598 95.01 271.327 95.327C271.055 95.644 270.833 95.994 270.833 96.103C270.833 96.658 265.401 102.499 263.378 104.119C261.898 105.304 261.492 105.612 261.061 105.87C260.257 106.353 259.939 106.568 259.44 106.965C259.176 107.174 258.725 107.459 258.438 107.598C258.151 107.737 257.542 108.072 257.083 108.342C256.625 108.611 255.912 108.984 255.5 109.17C255.088 109.355 254.473 109.656 254.134 109.837C253.795 110.018 253.44 110.167 253.346 110.167C253.251 110.167 252.613 110.429 251.928 110.75C251.243 111.071 250.563 111.333 250.418 111.333C250.272 111.333 249.875 111.472 249.535 111.64C249.195 111.809 248.542 112.041 248.083 112.155C247.625 112.269 246.987 112.467 246.667 112.595C246.346 112.722 245.352 112.976 244.457 113.158C243.563 113.34 242.685 113.567 242.507 113.663C242.329 113.758 241.56 113.91 240.8 114C239.01 114.212 237.748 114.419 236.917 114.637C234.222 115.346 223.087 115.264 218.833 114.505C218.329 114.415 217.017 114.227 215.918 114.088C214.819 113.948 213.544 113.726 213.085 113.594C212.626 113.462 211.575 113.229 210.75 113.076C209.925 112.924 209.128 112.734 208.978 112.654C208.829 112.575 208.079 112.362 207.312 112.181C206.544 112 205.279 111.617 204.5 111.329C203.721 111.041 202.596 110.631 202 110.418C200.618 109.922 195.566 107.392 194.946 106.885C194.686 106.673 194.384 106.5 194.274 106.5C194.164 106.5 193.828 106.275 193.527 106C193.226 105.725 192.88 105.5 192.758 105.5C192.636 105.5 192.494 105.391 192.443 105.259C192.392 105.126 192.103 104.89 191.8 104.734C191.498 104.578 190.891 104.106 190.452 103.686C190.013 103.266 189.536 102.857 189.391 102.776C188.714 102.397 184.833 97.939 184.833 97.54C184.833 97.458 184.646 97.215 184.417 97C184.188 96.785 184 96.522 184 96.417C184 96.312 183.777 95.931 183.505 95.571C183.232 95.211 183.007 94.843 183.005 94.753C183.002 94.663 182.627 93.838 182.17 92.92C181.402 91.374 181.114 90.663 180.447 88.667C179.522 85.897 179.448 85.567 178.987 82.167C178.654 79.701 178.986 74.609 179.586 72.997C179.739 72.586 179.965 71.897 180.087 71.466C180.331 70.611 182.008 67.553 182.925 66.294L183.499 65.505L183.22 64.806C183.066 64.422 182.691 63.694 182.387 63.189C182.082 62.683 181.833 62.196 181.833 62.106C181.833 62.016 181.733 61.825 181.611 61.68C181.488 61.535 181.295 61.154 181.181 60.833C181.067 60.512 180.8 59.875 180.588 59.417C180.051 58.257 179.167 55.441 179.165 54.881C179.163 54.626 179 53.929 178.8 53.333C177.873 50.557 178.4 42.362 179.761 38.404C179.984 37.756 180.167 37.131 180.167 37.015C180.167 36.538 183.033 30.436 183.348 30.241C183.435 30.187 183.694 29.792 183.922 29.363C184.151 28.934 184.597 28.246 184.913 27.833C185.229 27.421 185.654 26.802 185.858 26.458C186.061 26.115 186.287 25.833 186.359 25.833C186.431 25.833 186.585 25.65 186.703 25.427C187.332 24.23 193.893 17.833 194.491 17.833C194.56 17.833 194.845 17.627 195.124 17.375C195.402 17.123 195.882 16.747 196.19 16.539C197.899 15.385 198.504 15 198.608 15C198.672 15 198.855 14.881 199.015 14.736C199.383 14.403 200.525 13.757 201.5 13.329C201.912 13.148 202.362 12.927 202.5 12.837C203.079 12.46 205.145 11.449 205.917 11.166C206.375 10.997 207.387 10.625 208.167 10.338C208.946 10.051 210.108 9.675 210.75 9.503C211.392 9.331 212.226 9.079 212.605 8.943C212.983 8.807 213.733 8.644 214.271 8.581C214.81 8.518 215.963 8.314 216.833 8.127C219.605 7.532 225.216 7.348 230.75 7.67ZM316.917 7.88C317.375 8.012 318.125 8.211 318.583 8.321C319.359 8.507 320.329 8.814 322.167 9.455C322.579 9.599 323.029 9.806 323.167 9.915C323.304 10.023 323.679 10.212 324 10.335C324.321 10.458 324.782 10.695 325.026 10.862C325.269 11.03 325.539 11.167 325.626 11.167C325.712 11.167 326.076 11.377 326.433 11.635C326.791 11.892 327.197 12.146 327.336 12.198C328.185 12.517 332.264 16.244 333.505 17.833C333.684 18.063 334.017 18.475 334.245 18.75C334.881 19.517 335.774 20.883 335.901 21.285C336.015 21.643 337.058 22.667 337.308 22.667C337.38 22.667 337.566 22.423 337.721 22.125C338.317 20.985 338.823 20.143 339.196 19.668C339.409 19.397 339.996 18.634 340.5 17.973C342.429 15.442 346.15 12.251 348.27 11.309C348.647 11.141 349.05 10.891 349.165 10.752C349.28 10.613 349.449 10.5 349.541 10.5C349.633 10.5 350.152 10.275 350.693 10C351.234 9.725 351.788 9.5 351.925 9.5C352.061 9.5 352.541 9.308 352.99 9.072C353.44 8.837 354.245 8.582 354.779 8.505C355.313 8.428 356.087 8.245 356.5 8.098C358.545 7.369 366.334 7.309 368.5 8.006C369.096 8.197 369.939 8.422 370.374 8.506C370.81 8.589 371.485 8.802 371.874 8.979C372.264 9.156 372.921 9.39 373.333 9.499C373.746 9.608 374.201 9.802 374.344 9.93C374.488 10.058 374.863 10.25 375.177 10.357C375.492 10.464 375.938 10.68 376.167 10.837C376.396 10.994 376.883 11.285 377.25 11.483C380.378 13.171 385.125 17.863 386.74 20.863C386.971 21.292 387.231 21.687 387.318 21.741C387.405 21.794 387.565 22.11 387.675 22.442C387.784 22.774 388.052 23.308 388.27 23.629C388.488 23.95 388.669 24.334 388.672 24.482C388.675 24.629 388.9 25.198 389.172 25.746C389.444 26.293 389.667 26.937 389.667 27.175C389.667 27.414 389.847 28.054 390.068 28.598C390.374 29.35 390.513 30.144 390.651 31.918C390.751 33.201 390.906 34.55 390.996 34.917C391.219 35.829 391.206 86.785 390.982 87.917C390.892 88.375 390.752 89.612 390.672 90.667C390.506 92.856 390.394 93.481 389.999 94.417C389.844 94.783 389.662 95.383 389.594 95.75C389.527 96.117 389.331 96.679 389.159 97C388.987 97.321 388.768 97.893 388.672 98.272C388.576 98.651 388.389 99.051 388.257 99.161C388.125 99.27 387.929 99.635 387.821 99.972C387.714 100.308 387.492 100.733 387.329 100.917C387.166 101.1 386.913 101.513 386.768 101.833C386.623 102.154 386.241 102.754 385.918 103.167C385.595 103.579 385.189 104.13 385.015 104.392C383.784 106.247 379.484 110.083 377.329 111.25C376.99 111.433 376.234 111.844 375.648 112.162C374.435 112.821 372.613 113.539 370.933 114.02C370.3 114.201 369.663 114.411 369.516 114.488C368.299 115.125 358.998 115.347 356.917 114.789C356.367 114.641 355.218 114.333 354.364 114.104C353.509 113.876 352.722 113.618 352.614 113.533C352.505 113.447 352.117 113.282 351.75 113.167C350.952 112.916 347.721 111.256 347.25 110.855C347.067 110.699 346.367 110.201 345.694 109.749C344.099 108.675 340.945 105.547 339.952 104.054C339.522 103.407 339.057 102.783 338.918 102.668C338.78 102.553 338.667 102.366 338.667 102.253C338.667 102.139 338.442 101.763 338.167 101.417C337.892 101.071 337.667 100.694 337.667 100.581C337.667 99.983 337.218 100.028 336.533 100.693C336.148 101.066 335.833 101.44 335.833 101.523C335.833 101.687 334.998 102.978 334.144 104.133C331.794 107.315 324.492 113 322.755 113C322.646 113 322.193 113.184 321.748 113.409C321.303 113.635 320.585 113.895 320.151 113.988C319.718 114.081 318.926 114.308 318.39 114.493C315.719 115.417 307.529 115.371 304.536 114.415C303.829 114.189 303.063 114.003 302.833 114.002C302.604 114 302.191 113.861 301.915 113.693C301.639 113.524 301.015 113.255 300.53 113.093C300.044 112.932 299.05 112.47 298.321 112.067C297.592 111.663 296.954 111.333 296.903 111.333C296.852 111.333 296.309 110.981 295.697 110.551C291.996 107.949 288.508 104.197 286.833 101.018C286.604 100.583 286.285 100.047 286.125 99.827C285.965 99.606 285.833 99.303 285.833 99.153C285.833 99.003 285.657 98.619 285.44 98.301C285.224 97.982 284.993 97.428 284.926 97.069C284.859 96.71 284.634 96.042 284.427 95.583C284.219 95.125 283.999 94.3 283.938 93.75C283.877 93.2 283.719 92.412 283.587 92C283.456 91.587 283.27 90.522 283.174 89.632C282.942 87.473 282.937 35.18 283.169 33.083C283.494 30.14 284.567 26.118 285.482 24.41C285.675 24.05 285.833 23.671 285.833 23.567C285.833 23.464 286.013 23.115 286.233 22.79C286.453 22.466 286.688 22.028 286.755 21.816C286.871 21.453 287.689 20.209 288.704 18.855C288.953 18.522 289.29 18.063 289.452 17.833C290.033 17.012 293.322 13.859 294.22 13.263C294.723 12.928 295.227 12.545 295.338 12.411C295.45 12.277 295.619 12.167 295.716 12.167C295.812 12.167 296.022 12.048 296.182 11.903C296.55 11.57 297.692 10.923 298.667 10.496C299.079 10.315 299.529 10.091 299.667 9.999C300.245 9.61 302.46 8.842 304.955 8.166C307.488 7.479 314.917 7.301 316.917 7.88ZM31.917 13.602C31.55 13.736 30.725 13.965 30.083 14.11C29.442 14.255 28.716 14.476 28.471 14.601C28.226 14.726 27.664 14.951 27.221 15.102C26.779 15.252 26.238 15.515 26.019 15.687C25.801 15.859 25.527 16 25.411 16C24.81 16 20.455 19.409 19.403 20.702C19.084 21.095 18.669 21.604 18.483 21.833C17.61 22.906 17.003 23.766 17.002 23.933C17.001 24.033 16.853 24.248 16.673 24.411C16.493 24.574 16.258 24.979 16.15 25.312C16.042 25.644 15.819 26.109 15.653 26.345C15.488 26.581 15.264 27.143 15.154 27.595C15.045 28.047 14.82 28.642 14.655 28.919C14.49 29.195 14.307 29.832 14.248 30.335C14.188 30.838 14.067 31.475 13.978 31.75C13.28 33.909 13.183 36.168 13.683 38.667C13.876 39.629 14.1 40.851 14.182 41.383C14.264 41.914 14.519 42.746 14.749 43.232C14.979 43.718 15.167 44.213 15.167 44.333C15.167 44.528 15.992 46.371 16.362 47C16.442 47.137 16.66 47.587 16.845 48C17.03 48.413 17.254 48.862 17.342 49C17.43 49.137 17.622 49.512 17.768 49.833C17.914 50.154 18.136 50.604 18.262 50.833C18.387 51.063 18.613 51.512 18.765 51.833C18.916 52.154 19.108 52.529 19.191 52.667C19.274 52.804 19.493 53.254 19.678 53.667C19.863 54.079 20.088 54.529 20.178 54.667C20.268 54.804 20.493 55.254 20.678 55.667C20.863 56.079 21.084 56.529 21.168 56.667C21.252 56.804 21.891 58.079 22.589 59.5C23.286 60.921 23.922 62.196 24.002 62.333C24.082 62.471 26.371 67.046 29.089 72.5C31.806 77.954 34.14 82.604 34.274 82.833C34.408 83.063 34.628 83.512 34.763 83.833C34.898 84.154 35.078 84.529 35.164 84.667C35.251 84.804 35.669 85.629 36.094 86.5C36.52 87.371 36.977 88.271 37.11 88.5C37.243 88.729 37.462 89.179 37.596 89.5C37.731 89.821 37.916 90.196 38.008 90.333C38.1 90.471 38.326 90.921 38.512 91.333C38.697 91.746 38.92 92.196 39.008 92.333C39.097 92.471 39.29 92.846 39.438 93.167C39.586 93.487 39.773 93.862 39.854 94C39.935 94.138 40.161 94.587 40.356 95C40.55 95.412 40.777 95.862 40.858 96C40.94 96.138 41.175 96.587 41.379 97C41.584 97.412 41.885 97.938 42.049 98.167C42.89 99.348 43.183 99.787 43.38 100.167C43.973 101.312 47.841 105.071 49.08 105.707C49.391 105.866 49.683 106.058 49.729 106.133C49.775 106.208 50.399 106.554 51.115 106.902C51.831 107.25 52.679 107.666 53 107.827C56.345 109.505 64.414 110.104 67.332 108.892C67.652 108.759 68.252 108.575 68.665 108.484C69.079 108.392 69.717 108.178 70.083 108.008C70.45 107.838 71.087 107.541 71.5 107.349C71.912 107.156 72.601 106.793 73.03 106.541C73.459 106.289 74.059 105.942 74.363 105.768C75.786 104.959 80.167 100.66 80.167 100.074C80.167 100.017 80.381 99.659 80.642 99.277C81.636 97.826 83 95.294 83 94.901C83 94.797 83.153 94.518 83.339 94.28C83.526 94.043 83.762 93.602 83.865 93.299C83.967 92.997 84.192 92.547 84.365 92.299C84.538 92.051 84.763 91.601 84.867 91.299C84.97 90.997 85.23 90.489 85.444 90.17C85.658 89.85 85.833 89.487 85.833 89.362C85.833 89.237 85.986 88.92 86.173 88.658C86.359 88.396 86.596 87.934 86.698 87.632C86.801 87.33 87.026 86.88 87.198 86.632C87.371 86.384 87.597 85.934 87.7 85.632C87.803 85.33 88.063 84.822 88.277 84.503C88.491 84.184 88.668 83.809 88.67 83.67C88.671 83.531 88.896 83.087 89.17 82.683C89.443 82.28 89.667 81.841 89.667 81.709C89.667 81.577 89.819 81.254 90.006 80.991C90.193 80.729 90.43 80.271 90.534 79.973C90.638 79.675 90.898 79.174 91.112 78.859C91.325 78.544 91.501 78.166 91.503 78.018C91.505 77.871 91.73 77.42 92.003 77.017C92.276 76.613 92.5 76.155 92.5 75.997C92.5 75.84 92.653 75.518 92.839 75.28C93.026 75.043 93.261 74.602 93.362 74.299C93.463 73.997 93.677 73.6 93.836 73.417C93.995 73.233 94.219 72.783 94.333 72.417C94.448 72.05 94.673 71.6 94.833 71.417C94.994 71.233 95.219 70.783 95.334 70.417C95.448 70.05 95.644 69.633 95.769 69.489C95.894 69.346 96.082 68.971 96.188 68.656C96.293 68.341 96.51 67.933 96.669 67.75C96.829 67.567 97.052 67.117 97.167 66.75C97.281 66.383 97.506 65.933 97.667 65.75C97.827 65.567 98.053 65.117 98.167 64.75C98.282 64.383 98.478 63.966 98.602 63.823C98.727 63.679 98.915 63.304 99.021 62.989C99.127 62.674 99.34 62.267 99.495 62.083C99.651 61.9 99.907 61.4 100.064 60.971C100.222 60.543 100.459 60.103 100.592 59.993C100.725 59.883 100.833 59.704 100.833 59.595C100.833 59.486 101.096 58.877 101.416 58.24C101.737 57.604 101.999 57.013 101.999 56.927C102 56.842 102.137 56.617 102.306 56.427C102.474 56.238 102.74 55.733 102.898 55.305C103.055 54.877 103.293 54.436 103.425 54.326C103.558 54.216 103.667 54.029 103.667 53.91C103.667 53.791 103.929 53.2 104.25 52.595C104.571 51.99 104.833 51.395 104.833 51.273C104.833 51.151 104.979 50.92 105.157 50.759C105.335 50.597 105.528 50.251 105.586 49.988C105.644 49.726 105.856 49.265 106.059 48.964C106.262 48.663 106.563 48.06 106.728 47.625C106.893 47.19 107.084 46.833 107.154 46.833C107.223 46.833 107.38 46.515 107.503 46.125C107.625 45.735 107.856 45.267 108.016 45.083C108.176 44.9 108.43 44.272 108.58 43.687C108.73 43.103 108.956 42.465 109.082 42.27C110.05 40.772 110.002 31.616 109.015 29.449C108.829 29.042 108.597 28.352 108.5 27.915C108.402 27.478 108.174 26.934 107.994 26.705C107.814 26.476 107.667 26.165 107.667 26.014C107.667 25.744 106.842 24.325 106.205 23.5C106.029 23.271 105.787 22.896 105.669 22.667C104.716 20.822 99.838 16.597 97.917 15.953C97.642 15.86 97.32 15.71 97.203 15.618C96.792 15.296 94.485 14.363 93.621 14.169C93.142 14.062 92.45 13.856 92.083 13.713C91.255 13.389 85.63 13.217 84 13.466C82.77 13.653 79.841 14.402 79.386 14.645C79.219 14.734 78.334 15.165 77.417 15.603C75.838 16.358 74.517 17.145 74.03 17.619C73.909 17.737 73.742 17.833 73.66 17.833C73.147 17.833 68.833 22.37 68.833 22.91C68.833 23.018 68.646 23.27 68.417 23.469C68.188 23.668 68 23.918 68 24.025C68 24.131 67.824 24.451 67.609 24.734C67.393 25.018 67.127 25.525 67.017 25.862C66.906 26.198 66.714 26.558 66.589 26.662C66.465 26.765 66.271 27.24 66.159 27.717C66.047 28.193 65.812 28.867 65.638 29.214C65.325 29.835 64.948 31.955 64.68 34.591C64.438 36.975 64.118 37.635 62.911 38.246C61.57 38.924 59.96 38.454 59.493 37.25C59.387 36.975 59.239 36.6 59.164 36.417C58.946 35.883 58.696 34.21 58.579 32.5C58.504 31.401 58.356 30.66 58.094 30.076C57.886 29.614 57.665 28.939 57.602 28.576C57.503 28.009 56.786 26.293 56.317 25.5C56.236 25.363 55.987 24.908 55.764 24.49C55.542 24.071 55.241 23.631 55.096 23.511C54.952 23.391 54.833 23.208 54.833 23.105C54.833 23.001 54.571 22.622 54.25 22.261C53.929 21.901 53.667 21.559 53.667 21.501C53.667 21.444 53.001 20.736 52.187 19.928C50.792 18.542 50.393 18.222 48.187 16.718C47.201 16.045 45.136 15 44.792 15C44.672 15 44.419 14.891 44.229 14.758C43.922 14.543 41.584 13.881 39.75 13.49C38.574 13.239 32.675 13.323 31.917 13.602ZM218.333 13.597C217.737 13.718 216.49 13.962 215.562 14.141C214.633 14.32 213.733 14.538 213.562 14.625C213.39 14.712 212.718 14.909 212.068 15.063C211.417 15.217 210.595 15.491 210.241 15.671C209.886 15.852 209.461 16 209.295 16C209.129 16 208.572 16.225 208.057 16.5C207.541 16.775 207.016 17 206.89 17C206.763 17 206.38 17.18 206.038 17.399C205.696 17.619 205.141 17.885 204.805 17.991C204.469 18.097 204.1 18.297 203.985 18.435C203.87 18.573 203.546 18.796 203.263 18.929C202.175 19.446 198.167 22.111 198.167 22.318C198.167 22.39 198.019 22.517 197.838 22.6C197.399 22.8 195.98 24.076 194.112 25.95C192.698 27.369 192.204 27.91 191.099 29.25C190.873 29.525 190.458 30.022 190.177 30.355C189.896 30.688 189.667 31.034 189.667 31.124C189.667 31.214 189.46 31.553 189.208 31.878C188.956 32.203 188.6 32.717 188.417 33.022C187.111 35.192 187.097 35.22 186.266 37.167C185.344 39.326 185.115 39.98 184.895 41.083C184.767 41.725 184.532 42.625 184.373 43.083C183.908 44.423 183.956 50.836 184.442 52.333C184.635 52.929 184.849 53.823 184.916 54.319C184.984 54.816 185.218 55.558 185.436 55.969C185.655 56.38 185.833 56.82 185.833 56.946C185.833 57.073 186.058 57.622 186.333 58.167C186.608 58.711 186.833 59.241 186.833 59.345C186.833 59.448 187.002 59.768 187.208 60.058C187.572 60.568 187.681 60.751 188.446 62.122C188.646 62.48 188.935 62.877 189.09 63.005C190.599 64.258 190.419 66.745 188.695 68.445C187.824 69.303 186.691 70.972 186.067 72.315C185.828 72.829 185.494 73.515 185.325 73.84C184.309 75.792 184.383 83.099 185.443 85.448C185.658 85.923 185.833 86.487 185.833 86.702C185.833 86.916 186.056 87.54 186.328 88.088C186.6 88.635 186.825 89.179 186.828 89.295C186.831 89.411 187.058 89.928 187.333 90.443C187.608 90.959 187.833 91.511 187.833 91.67C187.833 91.829 187.951 92.057 188.096 92.177C188.24 92.296 188.505 92.662 188.686 92.989C190.109 95.57 193.535 99.093 196.679 101.208C197.19 101.552 197.687 101.833 197.783 101.833C197.88 101.833 198.062 101.958 198.188 102.11C198.314 102.263 198.792 102.565 199.25 102.783C199.708 103.001 200.271 103.284 200.5 103.413C201.123 103.762 203.024 104.609 203.5 104.749C203.729 104.816 204.179 105.004 204.5 105.165C205.354 105.595 207.812 106.448 208.583 106.582C208.95 106.645 209.788 106.878 210.446 107.099C211.104 107.319 211.825 107.5 212.049 107.5C212.273 107.5 212.898 107.64 213.437 107.811C213.976 107.983 215.354 108.25 216.5 108.405C217.646 108.56 219.033 108.791 219.583 108.917C222.82 109.66 232.821 109.618 236.75 108.845C237.208 108.754 238.347 108.568 239.28 108.429C240.213 108.291 241.429 108.026 241.983 107.839C242.537 107.653 243.198 107.498 243.453 107.495C243.708 107.492 244.329 107.337 244.833 107.151C245.338 106.964 246.125 106.715 246.583 106.597C247.042 106.478 247.754 106.229 248.167 106.043C248.579 105.857 249.167 105.651 249.472 105.586C249.778 105.521 250.442 105.25 250.948 104.984C251.453 104.718 251.963 104.5 252.08 104.5C252.197 104.5 252.383 104.391 252.493 104.259C252.603 104.126 253.043 103.888 253.471 103.731C253.9 103.573 254.372 103.34 254.521 103.214C254.67 103.088 255.097 102.82 255.47 102.618C257.139 101.711 257.5 101.483 257.5 101.334C257.5 101.247 257.729 101.057 258.009 100.912C258.289 100.767 258.645 100.537 258.801 100.401C259.735 99.58 261.816 97.865 261.941 97.812C262.14 97.729 264.769 94.627 265.502 93.611C265.822 93.168 266.273 92.568 266.504 92.278C266.735 91.988 267.057 91.487 267.219 91.167C267.381 90.846 267.734 90.208 268.003 89.75C269.192 87.721 270.833 83.92 270.833 83.193C270.833 83.014 270.979 82.392 271.157 81.809C272.031 78.947 272.043 71.321 271.179 68.167C271.016 67.571 270.766 66.633 270.625 66.083C269.725 62.588 268.469 60.138 265.155 55.417C264.074 53.876 264.308 52.297 265.821 50.928C266.011 50.756 266.167 50.538 266.167 50.443C266.167 50.349 266.311 50.117 266.487 49.927C266.893 49.491 268 47.409 268 47.082C268 46.946 268.167 46.366 268.371 45.792C268.862 44.411 268.917 39.831 268.455 38.782C268.301 38.433 268.125 37.758 268.064 37.282C268.003 36.806 267.738 35.959 267.476 35.401C267.214 34.842 267 34.296 267 34.189C267 34.082 266.775 33.572 266.5 33.057C266.225 32.541 266 32.027 266 31.914C266 31.8 265.877 31.606 265.727 31.481C265.577 31.357 265.314 30.954 265.141 30.586C264.969 30.218 264.644 29.654 264.419 29.333C264.194 29.012 263.839 28.499 263.63 28.191C263.421 27.884 263.137 27.507 263 27.353C262.862 27.198 262.55 26.812 262.306 26.495C261.489 25.432 260.093 24.039 259.083 23.279C258.533 22.865 257.934 22.389 257.751 22.221C257.234 21.747 255.604 20.668 255.404 20.667C255.305 20.667 255.049 20.479 254.833 20.25C254.618 20.021 254.353 19.833 254.244 19.833C254.135 19.833 253.784 19.655 253.463 19.437C253.141 19.219 252.611 18.952 252.283 18.844C251.956 18.736 251.511 18.509 251.296 18.34C251.081 18.171 250.571 17.942 250.162 17.832C249.754 17.722 249.22 17.49 248.976 17.316C248.732 17.142 248.418 17 248.279 17C248.139 17 247.476 16.783 246.804 16.517C246.133 16.251 245.246 15.98 244.833 15.914C244.421 15.848 243.896 15.699 243.667 15.583C243.438 15.467 242.8 15.282 242.25 15.172C241.7 15.062 240.65 14.831 239.917 14.66C239.183 14.488 237.908 14.265 237.083 14.166C236.258 14.066 235.208 13.913 234.75 13.825C232.647 13.422 230.905 13.335 225.363 13.356C221.196 13.372 219.093 13.444 218.333 13.597ZM306.917 13.59C306.458 13.722 305.596 13.949 305 14.095C304.404 14.24 303.692 14.492 303.417 14.655C303.142 14.818 302.564 15.046 302.133 15.162C301.703 15.277 301.222 15.513 301.066 15.686C300.91 15.859 300.697 16 300.594 16C300.363 16 298.751 16.999 298.126 17.529C297.875 17.742 297.44 18.104 297.16 18.333C296.281 19.053 294.333 20.982 294.333 21.133C294.333 21.213 294.127 21.471 293.875 21.708C293.623 21.944 293.246 22.387 293.037 22.693C292.828 23 292.476 23.512 292.256 23.833C291.756 24.562 290.5 27.053 290.5 27.317C290.5 27.425 290.347 27.813 290.16 28.18C289.973 28.547 289.744 29.275 289.651 29.799C289.559 30.322 289.318 31.238 289.117 31.833L288.75 32.917V61.5C288.75 85.521 288.787 90.148 288.98 90.489C289.252 90.967 289.652 92.56 289.661 93.199C289.664 93.446 289.823 93.913 290.014 94.236C290.205 94.56 290.46 95.199 290.581 95.657C290.701 96.114 290.958 96.689 291.15 96.933C291.343 97.178 291.5 97.452 291.5 97.542C291.5 97.632 291.856 98.228 292.292 98.866C292.727 99.505 293.158 100.156 293.25 100.314C293.537 100.806 296.035 103.667 296.178 103.667C296.253 103.667 296.787 104.06 297.366 104.542C298.619 105.585 299.91 106.5 300.129 106.5C300.216 106.5 300.552 106.68 300.876 106.9C301.2 107.12 301.642 107.354 301.858 107.421C302.074 107.487 302.716 107.757 303.285 108.021C303.854 108.284 304.491 108.5 304.701 108.501C304.911 108.502 305.301 108.616 305.567 108.754C307.512 109.769 314.702 109.727 317.786 108.684C318.356 108.491 318.911 108.333 319.018 108.333C319.275 108.333 323.084 106.416 323.833 105.91C327.139 103.676 329.663 100.979 331.25 97.985C332.136 96.313 332.804 94.843 332.91 94.329C332.976 94.011 333.209 93.245 333.427 92.628C333.704 91.844 333.881 90.812 334.012 89.211C334.282 85.918 334.684 85.015 336.12 84.47C338.309 83.638 339.765 85.029 339.817 88.001C339.826 88.506 339.91 89.181 340.003 89.501C340.096 89.821 340.318 90.883 340.495 91.861C340.673 92.839 340.971 93.925 341.159 94.275C341.347 94.625 341.5 95.071 341.5 95.267C341.5 95.462 341.654 95.817 341.842 96.056C342.03 96.296 342.297 96.823 342.435 97.229C342.573 97.634 342.832 98.098 343.01 98.259C343.188 98.42 343.333 98.642 343.333 98.753C343.333 98.943 343.571 99.287 344.866 100.964C345.543 101.843 347.231 103.577 348.064 104.25C348.404 104.525 348.869 104.919 349.099 105.125C349.328 105.331 349.575 105.5 349.649 105.5C349.723 105.5 350.076 105.706 350.433 105.958C350.791 106.21 351.683 106.713 352.417 107.075C353.15 107.438 353.855 107.813 353.983 107.909C354.226 108.09 356.184 108.687 357.917 109.108C360.232 109.671 366.752 109.546 368.045 108.914C368.299 108.79 368.936 108.601 369.462 108.494C369.987 108.387 370.679 108.166 371 108.003C371.321 107.84 372.099 107.457 372.728 107.152C373.358 106.846 374.22 106.35 374.645 106.048C375.069 105.747 375.481 105.5 375.56 105.5C375.935 105.5 379.665 101.926 380.549 100.719C381.684 99.17 383 96.983 383 96.645C383 96.548 383.147 96.261 383.328 96.008C383.508 95.755 383.739 95.181 383.842 94.732C383.945 94.284 384.179 93.617 384.361 93.25C384.562 92.847 384.757 91.957 384.854 91C384.943 90.129 385.092 88.817 385.185 88.083C385.429 86.173 385.289 35.032 385.033 32.642C384.929 31.667 384.722 30.542 384.574 30.142C384.425 29.743 384.228 29.117 384.136 28.75C384.044 28.383 383.758 27.633 383.5 27.083C383.243 26.533 382.914 25.821 382.77 25.5C381.976 23.737 379.167 20.086 377.661 18.858C375.746 17.298 373.901 16.009 373.574 16.003C373.477 16.001 373.149 15.816 372.845 15.592C372.541 15.368 372.058 15.134 371.771 15.072C371.485 15.01 370.988 14.829 370.667 14.671C370.346 14.512 369.558 14.249 368.917 14.086C368.275 13.923 367.429 13.687 367.036 13.561C366.202 13.295 359.519 13.248 358.417 13.501C356.645 13.906 355.081 14.378 354.53 14.674C354.196 14.853 353.827 15 353.711 15C353.473 15 350.961 16.307 350.833 16.498C350.787 16.566 350.45 16.785 350.083 16.984C348.058 18.085 344.601 21.69 343.17 24.193C342.256 25.793 341.729 26.858 341.494 27.583C341.345 28.042 341.103 28.649 340.954 28.932C340.806 29.216 340.636 29.853 340.576 30.349C340.516 30.845 340.361 31.673 340.233 32.191C340.105 32.708 339.922 33.893 339.826 34.823C339.623 36.808 339.479 37.251 338.885 37.729C336.477 39.665 334.32 38.073 334.076 34.178C333.917 31.65 333.222 28.777 332.353 27.05C332.159 26.665 332 26.238 332 26.101C332 25.965 331.917 25.801 331.815 25.739C331.713 25.676 331.443 25.202 331.215 24.687C330.987 24.172 330.75 23.712 330.687 23.667C330.625 23.621 330.135 22.983 329.598 22.25C328.556 20.825 326.38 18.595 325.367 17.911C325.028 17.683 324.345 17.202 323.85 16.843C322.342 15.75 319.952 14.667 317.333 13.888C315.402 13.313 308.556 13.118 306.917 13.59ZM148.29 33.165C149.229 33.25 150.493 33.472 151.099 33.66C151.706 33.847 152.4 34.003 152.643 34.007C152.885 34.011 153.383 34.131 153.75 34.273C154.117 34.415 154.822 34.674 155.317 34.849C156.256 35.18 157.904 35.901 158.333 36.168C158.471 36.254 158.958 36.52 159.415 36.759C159.872 36.998 160.285 37.254 160.332 37.328C160.378 37.402 160.65 37.602 160.935 37.773C163.105 39.071 166.646 42.333 167.876 44.167C168.215 44.671 168.791 45.508 169.156 46.028C169.521 46.548 169.869 47.167 169.929 47.405C169.988 47.642 170.103 47.877 170.184 47.928C170.401 48.062 171.833 51.08 171.833 51.403C171.833 51.555 171.975 51.958 172.147 52.298C172.32 52.638 172.584 53.517 172.733 54.25C172.883 54.983 173.136 55.958 173.294 56.417C173.679 57.527 173.745 90.198 173.364 91.5C173.244 91.912 172.996 92.958 172.812 93.824C172.629 94.69 172.334 95.717 172.156 96.106C171.979 96.496 171.833 96.913 171.833 97.033C171.834 97.428 169.665 101.78 169.361 101.994C169.291 102.043 169.039 102.421 168.801 102.833C168.294 103.711 165.369 107.158 164.804 107.542C164.591 107.688 164.065 108.131 163.636 108.528C162.268 109.793 161.843 110.1 159.583 111.458C158.702 111.988 156.824 112.895 156.018 113.18C155.524 113.355 155.034 113.569 154.93 113.655C154.826 113.742 154.188 113.938 153.512 114.092C152.836 114.246 152.043 114.472 151.75 114.594C150.417 115.151 142.57 115.323 140 114.851C134.683 113.875 129.505 111.154 125.33 107.141C123.836 105.705 120.833 101.892 120.833 101.431C120.833 101.349 120.657 101.049 120.441 100.766C120.225 100.482 119.992 100.063 119.923 99.833C119.855 99.604 119.675 99.229 119.525 99C119.131 98.401 118.344 96.26 118.064 95.024C117.932 94.441 117.674 93.541 117.492 93.024C116.877 91.283 116.517 66.9 116.991 59.161C117.2 55.749 118.304 51.515 119.554 49.333C119.685 49.104 119.915 48.654 120.066 48.333C120.73 46.914 122.489 44.155 123.253 43.333C125.457 40.963 128.968 37.833 129.422 37.833C129.469 37.833 129.89 37.571 130.356 37.25C130.822 36.929 131.276 36.667 131.363 36.667C131.451 36.667 131.761 36.488 132.053 36.269C132.345 36.051 132.771 35.817 133 35.75C133.229 35.683 133.642 35.497 133.917 35.337C134.192 35.176 134.783 34.956 135.231 34.848C135.678 34.739 136.332 34.504 136.682 34.325C137.033 34.146 137.531 34 137.788 34C138.046 34 138.818 33.844 139.503 33.653C141.645 33.058 145.021 32.87 148.29 33.165ZM142.75 38.827C139.561 39.264 135.262 40.784 133.463 42.111C133.173 42.325 132.869 42.5 132.789 42.5C132.184 42.5 128.135 46.442 126.794 48.337C125.453 50.232 123.667 53.769 123.667 54.53C123.667 54.676 123.483 55.348 123.259 56.023C122.548 58.167 122.462 60.554 122.542 75.917C122.62 90.594 122.592 90.007 123.328 92.583C123.433 92.95 123.594 93.55 123.685 93.917C123.777 94.283 124.035 94.972 124.259 95.448C124.483 95.924 124.667 96.382 124.667 96.467C124.667 96.552 124.803 96.801 124.97 97.019C125.136 97.238 125.375 97.679 125.501 98C125.626 98.321 125.871 98.771 126.045 99C126.22 99.229 126.662 99.829 127.028 100.333C130.508 105.122 136.412 108.665 142.051 109.346C144.064 109.589 148.521 109.455 149.917 109.109C151.967 108.6 153.34 108.158 153.87 107.834C154.171 107.651 154.58 107.501 154.779 107.501C154.978 107.5 155.358 107.317 155.623 107.094C155.889 106.871 156.293 106.641 156.523 106.584C156.752 106.526 157.142 106.315 157.388 106.114C157.635 105.914 158.141 105.525 158.512 105.25C160.799 103.559 164.167 100.054 164.167 99.365C164.167 99.27 164.343 98.98 164.559 98.721C164.775 98.462 165.041 97.975 165.151 97.638C165.261 97.302 165.455 96.94 165.583 96.834C165.711 96.728 165.944 96.254 166.101 95.781C166.258 95.308 166.524 94.695 166.693 94.419C166.861 94.143 166.999 93.764 166.999 93.578C167 93.392 167.112 92.829 167.249 92.328C168.024 89.494 168.014 89.739 167.964 73.545C167.921 59.703 167.89 58.179 167.637 57.5C167.483 57.087 167.244 56.225 167.107 55.583C166.97 54.942 166.666 53.967 166.433 53.417C166.199 52.867 166.006 52.316 166.004 52.192C166.002 52.069 165.859 51.769 165.686 51.526C165.513 51.282 165.249 50.821 165.099 50.5C164.259 48.702 162.154 46.147 159.996 44.304C158.238 42.803 157.913 42.559 157.381 42.346C157.086 42.227 156.767 42.038 156.673 41.924C156.274 41.444 152.415 39.782 151.22 39.577C150.87 39.516 150.123 39.329 149.559 39.161C148.372 38.806 144.345 38.609 142.75 38.827Z" fill="#FCFCFC"/>
<path d="M265.531 173.969H245.812V190.094H268.719V195H239.812V149.5H268.406V154.438H245.812V169.062H265.531V173.969ZM273.25 177.812C273.25 172.625 274.479 168.458 276.938 165.312C279.396 162.146 282.615 160.562 286.594 160.562C290.552 160.562 293.688 161.917 296 164.625V147H301.781V195H296.469L296.188 191.375C293.875 194.208 290.656 195.625 286.531 195.625C282.615 195.625 279.417 194.021 276.938 190.812C274.479 187.604 273.25 183.417 273.25 178.25V177.812ZM279.031 178.469C279.031 182.302 279.823 185.302 281.406 187.469C282.99 189.635 285.177 190.719 287.969 190.719C291.635 190.719 294.312 189.073 296 185.781V170.25C294.271 167.062 291.615 165.469 288.031 165.469C285.198 165.469 282.99 166.562 281.406 168.75C279.823 170.938 279.031 174.177 279.031 178.469ZM317.062 195H311.281V161.188H317.062V195ZM310.812 152.219C310.812 151.281 311.094 150.49 311.656 149.844C312.24 149.198 313.094 148.875 314.219 148.875C315.344 148.875 316.198 149.198 316.781 149.844C317.365 150.49 317.656 151.281 317.656 152.219C317.656 153.156 317.365 153.938 316.781 154.562C316.198 155.188 315.344 155.5 314.219 155.5C313.094 155.5 312.24 155.188 311.656 154.562C311.094 153.938 310.812 153.156 310.812 152.219ZM334.188 153V161.188H340.5V165.656H334.188V186.625C334.188 187.979 334.469 189 335.031 189.688C335.594 190.354 336.552 190.688 337.906 190.688C338.573 190.688 339.49 190.562 340.656 190.312V195C339.135 195.417 337.656 195.625 336.219 195.625C333.635 195.625 331.688 194.844 330.375 193.281C329.062 191.719 328.406 189.5 328.406 186.625V165.656H322.25V161.188H328.406V153H334.188ZM345.125 177.781C345.125 174.469 345.771 171.49 347.062 168.844C348.375 166.198 350.188 164.156 352.5 162.719C354.833 161.281 357.49 160.562 360.469 160.562C365.073 160.562 368.792 162.156 371.625 165.344C374.479 168.531 375.906 172.771 375.906 178.062V178.469C375.906 181.76 375.271 184.719 374 187.344C372.75 189.948 370.948 191.979 368.594 193.438C366.26 194.896 363.573 195.625 360.531 195.625C355.948 195.625 352.229 194.031 349.375 190.844C346.542 187.656 345.125 183.438 345.125 178.188V177.781ZM350.938 178.469C350.938 182.219 351.802 185.229 353.531 187.5C355.281 189.771 357.615 190.906 360.531 190.906C363.469 190.906 365.802 189.76 367.531 187.469C369.26 185.156 370.125 181.927 370.125 177.781C370.125 174.073 369.24 171.073 367.469 168.781C365.719 166.469 363.385 165.312 360.469 165.312C357.615 165.312 355.312 166.448 353.562 168.719C351.812 170.99 350.938 174.24 350.938 178.469ZM399.5 166.375C398.625 166.229 397.677 166.156 396.656 166.156C392.865 166.156 390.292 167.771 388.938 171V195H383.156V161.188H388.781L388.875 165.094C390.771 162.073 393.458 160.562 396.938 160.562C398.062 160.562 398.917 160.708 399.5 161V166.375Z" fill="white"/>
</svg>
